<svg width="19" height="20" viewBox="0 0 19 20" fill="none" xmlns="http://www.w3.org/2000/svg">
<path d="M9.01278 0.999956C10.8693 0.999956 12.6498 1.73745 13.9625 3.05021C15.2753 4.36296 16.0128 6.14344 16.0128 7.99996V11.764L17.8348 15.408C17.9187 15.5757 17.9583 15.7621 17.9498 15.9494C17.9414 16.1367 17.8852 16.3188 17.7866 16.4783C17.688 16.6378 17.5503 16.7695 17.3865 16.8608C17.2227 16.9521 17.0383 17 16.8508 17H1.17478C0.987261 17 0.802845 16.9521 0.63905 16.8608C0.475255 16.7695 0.337521 16.6378 0.238928 16.4783C0.140335 16.3188 0.084158 16.1367 0.0757316 15.9494C0.0673051 15.7621 0.106909 15.5757 0.190783 15.408L2.01278 11.764V7.99996C2.01278 6.14344 2.75028 4.36296 4.06304 3.05021C5.37579 1.73745 7.15627 0.999956 9.01278 0.999956ZM9.01278 2.99996C7.6867 2.99996 6.41493 3.52674 5.47725 4.46442C4.53957 5.4021 4.01278 6.67387 4.01278 7.99996V11.764C4.01276 12.0743 3.94052 12.3804 3.80178 12.658L2.63178 15H15.3948L14.2248 12.658C14.0857 12.3804 14.0131 12.0744 14.0128 11.764V7.99996C14.0128 6.67387 13.486 5.4021 12.5483 4.46442C11.6106 3.52674 10.3389 2.99996 9.01278 2.99996ZM13.8928 0.369956C14.0598 0.164105 14.3017 0.032989 14.5654 0.00542439C14.829 -0.0221402 15.0928 0.0561027 15.2988 0.222957C16.3818 1.099 17.2706 2.19081 17.9088 3.42896C18.0241 3.66407 18.0426 3.93505 17.9603 4.18364C17.8779 4.43224 17.7014 4.63863 17.4685 4.75846C17.2357 4.87828 16.9651 4.90199 16.715 4.82449C16.4648 4.74698 16.2551 4.57445 16.1308 4.34396C15.6198 3.35254 14.908 2.47833 14.0408 1.77696C13.8348 1.61009 13.7035 1.36825 13.6757 1.10459C13.648 0.840944 13.726 0.577062 13.8928 0.370957V0.369956ZM4.13278 0.369956C4.2155 0.472038 4.27729 0.58942 4.31462 0.715392C4.35195 0.841365 4.36409 0.973459 4.35034 1.10413C4.3366 1.23479 4.29724 1.36147 4.23451 1.47692C4.17179 1.59236 4.08693 1.69432 3.98478 1.77696C3.12103 2.47547 2.41144 3.34544 1.90078 4.33196C1.84274 4.45236 1.76114 4.5599 1.66082 4.64823C1.5605 4.73656 1.44349 4.80388 1.3167 4.84621C1.18992 4.88854 1.05593 4.90503 0.922668 4.89469C0.789403 4.88436 0.659563 4.84741 0.540822 4.78603C0.422082 4.72466 0.316851 4.6401 0.231349 4.53736C0.145848 4.43461 0.0818117 4.31577 0.0430258 4.18786C0.00423985 4.05995 -0.00850861 3.92555 0.00553398 3.79263C0.0195766 3.6597 0.0601253 3.53094 0.124783 3.41396C0.762308 2.18192 1.64828 1.0954 2.72678 0.222957C2.93289 0.0562164 3.19677 -0.0218586 3.46042 0.00589407C3.72407 0.0336468 3.96591 0.164956 4.13278 0.370957V0.369956ZM6.01278 18H12.0128C12.0128 18.5304 11.8021 19.0391 11.427 19.4142C11.0519 19.7892 10.5432 20 10.0128 20H8.01278C7.48235 20 6.97364 19.7892 6.59857 19.4142C6.2235 19.0391 6.01278 18.5304 6.01278 18Z" fill="white"/>
</svg>
