
<svg xmlns="http://www.w3.org/2000/svg" version="1.1" xmlns:xlink="http://www.w3.org/1999/xlink" preserveAspectRatio="none" x="0px" y="0px" width="150px" height="150px" viewBox="0 0 150 150">
<defs>
<g id="Mask____1_0_2_MASK_0_FILL">
<path fill="#FFFFFF" stroke="none" d="
M 150 75
Q 150 43.9 128.05 21.95 106.05 0 75 0 43.95 0 21.95 21.95 0 43.9 0 75 0 106.05 21.95 128 43.95 150 75 150 106.05 150 128.05 128 150 106.05 150 75 Z"/>
</g>

<g id="___1_0_Layer2_0_FILL">
<path fill="#FFE600" stroke="none" d="
M 150 75
Q 150 43.9 128.05 21.95 106.05 0 75 0 43.95 0 21.95 21.95 0 43.9 0 75 0 106.05 21.95 128 43.95 150 75 150 106.05 150 128.05 128 150 106.05 150 75 Z"/>
</g>

<g id="Mask_kakao_talk_svg____Layer_1__Clip_Group__0_2_MASK_0_FILL">
<path fill="#FFFFFF" stroke="none" d="
M 191 190
L 191 0 0 0 0 190 191 190 Z"/>
</g>

<g id="kakao_talk_svg____Layer_1__Clip_Group__0_Layer2_0_MEMBER_0_FILL">
<path fill="#FFE600" stroke="none" d="
M 190 16.1
Q 190 9.85 185.55 5.4 181.1 1 174.85 1
L 16.15 1
Q 9.9 1 5.45 5.4 1 9.85 1 16.1
L 1 174.3
Q 1 180.55 5.45 184.95 9.9 189.35 16.15 189.35
L 174.85 189.35
Q 181.15 189.35 185.6 184.95 190 180.55 190 174.3
L 190 16.1 Z"/>
</g>

<g id="kakao_talk_svg____Layer_1__Clip_Group__0_Layer2_0_MEMBER_1_FILL">
<path fill="#381E1E" stroke="none" d="
M 148.95 47.8
Q 127.65 31 97.6 31 67.55 31 46.25 47.8 25 64.6 25 88.35 25 103.4 34.25 116.4 43.2 129 58.65 136.8
L 51.8 162.35
Q 51.4 163.5 52.35 164.55 53.05 165.15 53.8 165.15 54.45 165.15 55.05 164.65
L 84.5 144.75
Q 90.7 145.7 97.55 145.7 127.65 145.7 148.9 128.9 170.15 112.1 170.15 88.35 170.2 64.6 148.95 47.8 Z"/>
</g>

<g id="kakao_talk_svg____Layer_1__Clip_Group__0_Layer2_0_MEMBER_2_FILL">
<path fill="#FFE600" stroke="none" d="
M 39.25 73
Q 38 73.95 38 75.75
L 38.1 76.55
Q 38.4 78 39.55 78.7 40.9 79.45 42.4 79.45
L 50.4 79.45 50.4 106.9
Q 50.4 107.6 50.5 108 50.8 109.5 51.9 110.4 53.05 111.3 54.65 111.3 56.55 111.3 57.75 110.1 58.9 108.85 58.9 106.95
L 58.9 79.45 66.85 79.45
Q 68.85 79.45 70 78.5 71.25 77.5 71.25 75.75 71.3 75.45 71.2 74.95 70.9 73.55 69.7 72.8 68.5 72 66.85 72
L 42.4 72
Q 40.55 72 39.25 73 Z"/>
</g>

<g id="kakao_talk_svg____Layer_1__Clip_Group__0_Layer2_0_MEMBER_3_FILL">
<path fill="#FFE600" stroke="none" d="
M 84.15 75.15
Q 83.45 73.25 82.4 72.65 81.2 72 79.65 72
L 77.65 72
Q 76.05 72 75.05 72.65 74.05 73.25 73.55 74.65
L 62.2 105.95
Q 62 106.55 62 107.5
L 62.05 108.35
Q 62.35 109.8 63.35 110.5 64.35 111.25 65.8 111.25 68.8 111.25 69.55 108.9
L 71.7 102.6 85.25 102.6 87.4 108.9
Q 88.25 111.25 91.15 111.25 92.8 111.25 93.9 110.15 95.1 109.05 95.1 107.5
L 94.95 106.5
Q 94.7 105.3 94.25 104.15
L 84.15 75.15
M 73.55 96.6
L 78.5 81.35 78.6 81.35 83.35 96.6 73.55 96.6 Z"/>
</g>

<g id="kakao_talk_svg____Layer_1__Clip_Group__0_Layer2_0_MEMBER_4_FILL">
<path fill="#FFE600" stroke="none" d="
M 104.2 76.25
Q 104.25 75.9 104.15 75.2 103.85 73.7 102.75 72.9 101.7 72 100.15 72 98.2 72 97.15 73.2 96 74.35 96 76.25
L 96 105.3
Q 96 106.3 96.15 106.95 96.5 108.7 97.7 109.5 99 110.3 100.8 110.3
L 117.95 110.3
Q 119.8 110.3 120.95 109.35 122.2 108.45 122.2 106.7
L 122.1 105.95
Q 121.85 104.55 120.7 103.85 119.7 103.1 117.95 103.1
L 104.2 103.1 104.2 76.25 Z"/>
</g>

<g id="kakao_talk_svg____Layer_1__Clip_Group__0_Layer2_0_MEMBER_5_FILL">
<path fill="#FFE600" stroke="none" d="
M 150.65 72.75
Q 149.4 72 148.1 72 147.05 72 146.35 72.5 145.65 72.9 144.75 73.9
L 131.45 88.85 131.45 76.3
Q 131.45 75.6 131.35 75.2 131.05 73.7 129.95 72.9 128.75 72 127.2 72 125.3 72 124.1 73.2 123 74.35 123 76.3
L 123.15 108
Q 123.45 109.4 124.6 110.35 125.7 111.2 127.3 111.2 129.3 111.2 130.4 110.05 131.55 108.8 131.55 106.95
L 131.5 98.35 136.15 93.65 145.9 109
Q 146.65 110.25 147.55 110.8 148.4 111.25 149.65 111.25 151.4 111.25 152.7 110.25 154 109.35 154 107.1
L 154 106.8 153.9 106.55
Q 153.75 105.9 152.65 104.15
L 142.1 87.75 150.8 78.45
Q 151.5 77.7 151.8 77.05 152.2 76.15 152.2 75.5
L 152.15 75.15 152.05 74.8
Q 151.75 73.5 150.65 72.75 Z"/>
</g>
</defs>

<g transform="matrix( 1, 0, 0, 1, 0,0) ">
<mask id="Mask_Mask_1">
<g transform="matrix( 1, 0, 0, 1, 0,0) ">
<use xlink:href="#Mask____1_0_2_MASK_0_FILL"/>
</g>
</mask>

<g mask="url(#Mask_Mask_1)">
<g transform="matrix( 1, 0, 0, 1, 0,0) ">
<use xlink:href="#___1_0_Layer2_0_FILL"/>
</g>
</g>

<g mask="url(#Mask_Mask_1)">
<g transform="matrix( 0.687835693359375, 0, 0, 0.6902008056640625, 8,10) ">
<mask id="Mask_Mask_2">
<g transform="matrix( 1, 0, 0, 1, 0,0) ">
<use xlink:href="#Mask_kakao_talk_svg____Layer_1__Clip_Group__0_2_MASK_0_FILL"/>
</g>
</mask>

<g mask="url(#Mask_Mask_2)">
<g transform="matrix( 1, 0, 0, 1, 0,0) ">
<use xlink:href="#kakao_talk_svg____Layer_1__Clip_Group__0_Layer2_0_MEMBER_0_FILL"/>
</g>

<g transform="matrix( 1, 0, 0, 1, 0,0) ">
<use xlink:href="#kakao_talk_svg____Layer_1__Clip_Group__0_Layer2_0_MEMBER_1_FILL"/>
</g>

<g transform="matrix( 1, 0, 0, 1, 0,0) ">
<use xlink:href="#kakao_talk_svg____Layer_1__Clip_Group__0_Layer2_0_MEMBER_2_FILL"/>
</g>

<g transform="matrix( 1, 0, 0, 1, 0,0) ">
<use xlink:href="#kakao_talk_svg____Layer_1__Clip_Group__0_Layer2_0_MEMBER_3_FILL"/>
</g>

<g transform="matrix( 1, 0, 0, 1, 0,0) ">
<use xlink:href="#kakao_talk_svg____Layer_1__Clip_Group__0_Layer2_0_MEMBER_4_FILL"/>
</g>

<g transform="matrix( 1, 0, 0, 1, 0,0) ">
<use xlink:href="#kakao_talk_svg____Layer_1__Clip_Group__0_Layer2_0_MEMBER_5_FILL"/>
</g>
</g>
</g>
</g>
</g>
</svg>
