<svg width="389" height="390" viewBox="0 0 389 390" fill="none" xmlns="http://www.w3.org/2000/svg">
<path d="M194.208 389.371C301.461 389.371 388.406 302.426 388.406 195.173C388.406 87.9203 301.461 0.974854 194.208 0.974854C86.9557 0.974854 0.0102539 87.9203 0.0102539 195.173C0.0102539 302.426 86.9557 389.371 194.208 389.371Z" fill="#FFEB00"/>
<path d="M196 294.3C187.8 294.4 179.6 294 171.5 292.8C170.3 292.6 169.3 292.9 168.2 293.6C152 304.9 135.9 316.3 119.2 326.9C117.2 328.2 115.1 329.3 113 330.5C112.3 330.9 111.5 331.2 110.6 331.3C107.9 331.7 106.4 330.1 106.9 327.4C107.9 322.8 109.3 318.2 110.6 313.6C113.9 302.1 117.2 290.5 120.5 279C120.8 278 120.7 277.5 119.6 277C103.9 269 90.0002 258.6 78.6002 245C67.4002 231.5 59.8002 216.3 57.2002 199C54.1002 179.1 57.6002 160.4 67.2002 142.7C76.6002 125.4 90.1002 112.1 106.5 101.4C124 90.0999 143.1 82.9999 163.5 79.2999C178.7 76.5999 194 75.8999 209.4 77.2999C238.4 79.8999 265.1 88.8999 288.7 106.2C304.3 117.7 316.9 132 324.6 150C336.9 178.9 334.3 206.8 318 233.4C307.5 250.5 292.9 263.3 275.7 273.2C259.3 282.7 241.6 288.7 222.9 291.9C214 293.5 205 294.2 196 294.3Z" fill="#3C1E1E"/>
<path d="M260.1 178C260.4 177.6 260.6 177.1 261 176.7C267.8 169.9 274.6 163.1 281.4 156.3C284 153.7 287.1 153.4 290.2 155.2C293.3 157 294.8 160.6 293.9 163.8C293.5 165 292.8 166 291.9 166.8C286.3 172.4 280.8 178 275.2 183.5C274.4 184.3 274.5 184.7 275.1 185.5C281.3 193.7 287.5 201.9 293.7 210.1C296.4 213.7 296 218.3 292.9 221.1C289.4 224.2 284.1 223.7 281.2 219.9C275.7 212.6 270.2 205.3 264.7 198C264.6 197.8 264.4 197.6 264.3 197.4C263.7 196.8 263.5 195.6 262.5 195.5C261.7 195.4 259.9 198.3 259.9 199.2C259.9 204.7 259.9 210.1 259.9 215.6C259.8 219.4 257.2 222.4 253.3 223.2C249.8 223.9 246.2 222 244.7 218.6C244.2 217.5 244 216.4 244 215.2C244 197.1 244 179.1 244 161C244 156.5 247.5 152.9 251.9 152.9C256.3 152.9 259.8 156.4 259.9 160.9C259.9 166.1 259.9 171.3 259.9 176.5C259.9 176.9 259.9 177.2 259.9 177.6C259.8 177.8 259.9 177.9 260.1 178Z" fill="#FFEB00"/>
<path d="M165 209.6C161.3 209.6 157.6 209.6 154 209.6C153.2 209.6 152.8 209.8 152.5 210.6C151.6 213.2 150.5 215.8 149.5 218.4C148 222.4 145.2 224 140.9 223.4C135.3 222.6 133.4 219.7 134.6 214C135.3 210.4 136.9 207.1 138.2 203.7C143.6 189.5 149 175.3 154.4 161.1C156 156.9 158.9 154.1 163.3 153.3C168.3 152.3 173.6 155.5 175.6 160.7C178.6 168.5 181.5 176.3 184.5 184C187.8 192.7 191.2 201.5 194.5 210.3C195.4 212.7 196 215.3 195.8 217.9C195.6 220.2 194.5 221.8 192.3 222.6C190.7 223.2 189 223.5 187.3 223.4C184.1 223.2 181.7 222 180.7 218.7C179.9 216 178.7 213.4 177.7 210.8C177.4 209.9 177 209.6 176 209.6C172.3 209.6 168.6 209.6 165 209.6Z" fill="#FFEB00"/>
<path d="M109.9 192.8C109.9 185.3 109.9 177.7 109.9 170.2C109.9 169 109.7 168.6 108.4 168.6C104.9 168.7 101.3 168.7 97.8002 168.6C93.2002 168.6 89.7002 165.3 89.7002 160.9C89.7002 156.4 93.1002 153 97.7002 153C111.1 153 124.6 153 138 153C142.2 153 145.6 156 146 159.9C146.4 163.8 144 167.3 140.2 168.3C139.4 168.5 138.6 168.5 137.8 168.5C134.3 168.5 130.7 168.6 127.2 168.5C126 168.5 125.8 168.9 125.8 169.9C125.8 184.9 125.8 200 125.8 215C125.8 219 123.8 221.9 120.3 223C115 224.7 109.9 221 109.8 215.4C109.9 208 109.9 200.4 109.9 192.8Z" fill="#FFEB00"/>
<path d="M199.8 187.9C199.8 178.9 199.8 170 199.8 161C199.8 156.8 202.8 153.6 207.1 153C210.9 152.5 214.7 155.1 215.8 159C216.1 160 216 161 216 161.9C216 176.7 216 191.4 216 206.2C216 207.5 216.3 207.8 217.6 207.8C222.8 207.7 228 207.7 233.2 207.8C237.2 207.8 240.5 210.9 240.7 214.7C240.9 218.7 237.8 222.3 233.7 222.3C224.7 222.4 215.8 222.4 206.8 222.3C202.9 222.3 199.9 218.9 199.9 215C199.8 205.9 199.8 196.9 199.8 187.9Z" fill="#FFEB00"/>
<path d="M165 172.9C167.7 180.6 170.3 188 172.9 195.5C169.4 195.5 166.2 195.5 162.9 195.5C161.3 195.5 159.8 195.4 158.2 195.5C157.2 195.5 157 195.3 157.4 194.3C159.5 188.6 161.5 182.9 163.5 177.1C163.9 175.9 164.4 174.6 165 172.9Z" fill="#3C1E1E"/>
</svg>
