<svg width="389" height="389" viewBox="0 0 389 389" fill="none" xmlns="http://www.w3.org/2000/svg">
<g clip-path="url(#clip0_306_16)">
<path d="M331.527 331.492C407.366 255.653 407.366 132.693 331.527 56.8543C255.688 -18.9848 132.729 -18.9848 56.8896 56.8543C-18.9495 132.693 -18.9495 255.653 56.8896 331.492C132.729 407.331 255.688 407.331 331.527 331.492Z" fill="#FAE100"/>
<path d="M194.2 83.5C131 83.5 79.7998 130.9 79.7998 189.3C79.7998 232.5 97.8998 253.1 122.6 271.9L122.7 272V322.7C122.7 325.1 125.4 326.5 127.3 325L170.7 292.8L171.6 293.2C178.9 294.5 186.4 295.3 194.1 295.3C257.3 295.3 308.5 247.9 308.5 189.5C308.6 130.9 257.4 83.5 194.2 83.5ZM155.8 216.2C167 216.2 176.6 209.5 179.5 199.1H196.1C192 219.1 176.5 232.1 155.8 232.1C131.7 232.1 112.7 214.2 112.7 189.2C112.7 164.2 131.8 146.3 155.8 146.3C176.7 146.3 192.3 159.6 196.2 180H179.7C177.2 169 167.3 162.1 155.8 162.1C139.6 162.1 128.9 173.6 128.9 189.3C128.9 204.9 141.1 216.2 155.8 216.2ZM265.1 230.5H249.9V196.2C249.9 188.3 245.3 184.1 238.2 184.1C230.3 184.1 225.2 188.9 225.2 198.7V230.5H210V146.6H225.2V178.2C228.8 172.7 234.7 170 242.8 170C249.3 170 254.6 172.1 258.7 176.5C262.9 180.9 265.1 186.8 265.1 194.4V230.5Z" fill="#020303"/>
</g>
<defs>
<clipPath id="clip0_306_16">
<rect width="388.3" height="388.3" fill="white"/>
</clipPath>
</defs>
</svg>
