
<svg xmlns="http://www.w3.org/2000/svg" version="1.1" xmlns:xlink="http://www.w3.org/1999/xlink" preserveAspectRatio="none" x="0px" y="0px" width="150px" height="150px" viewBox="0 0 150 150">
<defs>
<g id="Mask____1_0_2_MASK_0_FILL">
<path fill="#FFFFFF" stroke="none" d="
M 150 75
Q 150 43.9 128.05 21.95 106.05 0 75 0 43.95 0 21.95 21.95 0 43.9 0 75 0 106.05 21.95 128 43.95 150 75 150 106.05 150 128.05 128 150 106.05 150 75 Z"/>
</g>

<g id="___1_0_Layer2_0_FILL">
<path fill="#00C300" stroke="none" d="
M 150 75
Q 150 43.9 128.05 21.95 106.05 0 75 0 43.95 0 21.95 21.95 0 43.9 0 75 0 106.05 21.95 128 43.95 150 75 150 106.05 150 128.05 128 150 106.05 150 75 Z"/>
</g>

<g id="Mask_naver_band_svg____Layer_1__Clip_Group__0_2_MASK_0_FILL">
<path fill="#FFFFFF" stroke="none" d="
M 190 191
L 190 0 0 0 0 191 190 191 Z"/>
</g>

<g id="naver_band_svg____Layer_1__Clip_Group__0_Layer2_0_MEMBER_0_FILL">
<path fill="#00C300" stroke="none" d="
M 190 16.2
Q 190 9.9 185.55 5.45 181.1 1 174.85 1
L 16.15 1
Q 9.9 1 5.45 5.45 1 9.9 1 16.2
L 1 175.2
Q 1 181.5 5.45 185.95 9.9 190.35 16.15 190.35
L 174.85 190.35
Q 181.15 190.35 185.6 185.95 190 181.5 190 175.2
L 190 16.2 Z"/>
</g>

<g id="naver_band_svg____Layer_1__Clip_Group__0_Layer2_0_MEMBER_1_FILL">
<path fill="#FFFFFF" stroke="none" d="
M 95.1 55.95
Q 88.15 55.95 81.75 57.6
L 81.7 46.65
Q 81.05 38.2 75.25 32.6 69.45 27 61.35 27 53.35 27 47.55 32.6 41.7 38.2 41.05 46.65
L 41 110.6
Q 41.2 132.85 57 148.5 72.8 164.2 95.1 164.2 117.5 164.2 133.35 148.35 149.2 132.45 149.2 110.05 149.2 87.65 133.35 71.8 117.55 55.95 95.1 55.95
M 81.8 66.15
Q 88.35 64.2 95.15 64.2 114.1 64.2 127.5 77.6 140.9 91.05 140.9 110 140.9 129 127.5 142.45 114.1 155.85 95.1 155.85 76.15 155.85 62.7 142.45 49.3 129.05 49.3 110.05
L 49.3 47.75
Q 49.3 42.7 52.85 39.1 56.35 35.55 61.35 35.55 66.4 35.55 69.9 39.1 73.45 42.7 73.45 47.75
L 73.4 109.55
Q 73.4 118.55 79.75 125.15 86.15 131.75 95.1 131.75 104.05 131.75 110.4 125.4 116.75 119.05 116.75 110.1 116.75 101.1 110.4 94.75 104.05 88.4 95.1 88.4 87.7 88.4 81.75 93
L 81.75 83.7
Q 87.9 80.55 95.1 80.55 107.35 80.55 116 89.2 124.65 97.9 124.65 110.15 124.65 122.4 116 131.05 107.35 139.7 95.1 139.7 82.85 139.7 74.15 131.05 65.5 122.4 65.5 110.15
L 65.5 47.3
Q 65.5 45.75 64.3 44.6 63.05 43.35 61.35 43.35 59.65 43.35 58.45 44.6 57.25 45.75 57.25 47.3
L 57.25 110.05
Q 57.25 111.95 57.35 112.9 58.4 127.65 69.3 137.75 80.2 147.9 95.15 147.9 110.85 147.9 121.9 136.8 133 125.7 133 110 133 94.3 121.9 83.2 110.8 72.1 95.15 72.1 88.45 72.1 81.8 74.5
L 81.8 66.15
M 104.5 100.65
Q 108.4 104.55 108.4 110.05 108.4 115.6 104.5 119.5 100.6 123.4 95.1 123.4 89.6 123.4 85.65 119.5 81.75 115.6 81.75 110.05 81.75 104.55 85.65 100.65 89.6 96.75 95.1 96.75 100.6 96.75 104.5 100.65 Z"/>
</g>
</defs>

<g transform="matrix( 1, 0, 0, 1, 0,0) ">
<mask id="Mask_Mask_1">
<g transform="matrix( 1, 0, 0, 1, 0,0) ">
<use xlink:href="#Mask____1_0_2_MASK_0_FILL"/>
</g>
</mask>

<g mask="url(#Mask_Mask_1)">
<g transform="matrix( 1, 0, 0, 1, 0,0) ">
<use xlink:href="#___1_0_Layer2_0_FILL"/>
</g>
</g>

<g mask="url(#Mask_Mask_1)">
<g transform="matrix( 0.687835693359375, 0, 0, 0.686553955078125, 12,10) ">
<mask id="Mask_Mask_2">
<g transform="matrix( 1, 0, 0, 1, 0,0) ">
<use xlink:href="#Mask_naver_band_svg____Layer_1__Clip_Group__0_2_MASK_0_FILL"/>
</g>
</mask>

<g mask="url(#Mask_Mask_2)">
<g transform="matrix( 1, 0, 0, 1, 0,0) ">
<use xlink:href="#naver_band_svg____Layer_1__Clip_Group__0_Layer2_0_MEMBER_0_FILL"/>
</g>

<g transform="matrix( 1, 0, 0, 1, 0,0) ">
<use xlink:href="#naver_band_svg____Layer_1__Clip_Group__0_Layer2_0_MEMBER_1_FILL"/>
</g>
</g>
</g>
</g>
</g>
</svg>
