
<svg xmlns="http://www.w3.org/2000/svg" version="1.1" xmlns:xlink="http://www.w3.org/1999/xlink" preserveAspectRatio="none" x="0px" y="0px" width="150px" height="150px" viewBox="0 0 150 150">
<defs>
<g id="Mask____1_0_2_MASK_0_FILL">
<path fill="#FFFFFF" stroke="none" d="
M 150 75
Q 150 43.95 128.05 22 105.95 0 75 0 43.95 0 21.95 22 0 43.9 0 75 0 106.15 21.95 128 43.9 150 75 150 106.05 150 128.05 128 150 106.05 150 75 Z"/>
</g>

<g id="___1_0_Layer2_0_FILL">
<path fill="#00C300" stroke="none" d="
M 150 75
Q 150 43.95 128.05 22 105.95 0 75 0 43.95 0 21.95 22 0 43.9 0 75 0 106.15 21.95 128 43.9 150 75 150 106.05 150 128.05 128 150 106.05 150 75 Z"/>
</g>

<g id="___2_0_Layer0_0_FILL">
<path fill="#FFFFFF" stroke="none" d="
M 176 41.7
Q 176 31.1 168.5 23.55 161 16 150.45 16
L 39.55 16
Q 29 16 21.5 23.55 14 31.1 14 41.7
L 14 102.65
Q 14 113.3 21.45 120.85 28.95 128.35 39.55 128.35
L 150.45 128.35
Q 161.05 128.35 168.55 120.85 176.05 113.3 176.05 102.65
L 176 102.65 176 41.7 Z"/>
</g>

<g id="___2_0_Layer0_1_FILL">
<path fill="#FFFFFF" stroke="none" d="
M 91.55 122
L 91.55 122.5 75 123.5 90.8 149.2 91.25 149.8
Q 92.5 152 95.05 152 97.55 152 98.85 149.85
L 115.1 123.45 98.5 122.45 98.5 122 95.05 122.25 91.55 122 Z"/>
</g>

<g id="___2_0_Layer0_2_FILL">
<path fill="#F37528" stroke="none" d="
M 47.55 60.55
Q 44.35 61.55 41.85 64
L 41.85 48 32 48 32 89.95 41.95 89.95 41.95 86.7 43.85 88.85
Q 46.55 91 50.25 91 53.75 90.9 57.2 88.85 64.15 84.8 64.15 75.35 64.05 71.55 62.25 67.7 58.65 60.05 50.25 60.05 49.15 60.05 47.55 60.55
M 43.6 71.15
Q 45.45 69.25 48.05 69.25 50.65 69.25 52.5 71.15 54.35 73.05 54.35 75.7 54.4 78.35 52.55 80.25 50.7 82.15 48.05 82.15 45.4 82.15 43.6 80.3 41.75 78.4 41.75 75.7 41.75 73.05 43.6 71.15 Z"/>
</g>

<g id="___2_0_Layer0_3_FILL">
<path fill="#F37528" stroke="none" d="
M 81.1 89.25
L 81.1 63.15
Q 81.15 59.35 79.45 55.6 76.05 48 67 48
L 67 57.35 69.25 58.3
Q 71.5 60.3 71.5 65.4
L 71.5 89.25 81.1 89.25 Z"/>
</g>

<g id="___2_0_Layer0_4_FILL">
<path fill="#F37528" stroke="none" d="
M 119.35 67.85
Q 115.4 60 104.9 60 100.95 60 96.95 61.95 89 65.9 89 75.7
L 89.15 78.1
Q 89.6 81 90.8 83.45 94.6 91.15 104.9 91.15
L 107.45 90.9
Q 110.5 90.4 113.05 89.2 121.2 85.35 121.2 75.7 121.35 71.8 119.35 67.85
M 104.9 69.2
Q 107.45 69.2 109.3 71.1 111.1 73 111.1 75.7 111.1 78.4 109.3 80.35 107.45 82.25 104.9 82.25 102.35 82.25 100.55 80.35 98.7 78.4 98.7 75.7 98.7 73 100.55 71.1 102.35 69.2 104.9 69.2 Z"/>
</g>

<g id="___2_0_Layer0_5_FILL">
<path fill="#F37528" stroke="none" d="
M 158.2 61.05
L 148.8 61.05 148.8 63.85
Q 148.1 62.9 146.75 61.95 144 60.05 140.65 60.05 137.25 59.9 133.85 61.75 127 65.45 127 75.5
L 127.2 77.85
Q 127.6 80.65 128.6 83 131.9 90.45 140.3 90.45
L 143.45 90.05
Q 146.95 89.15 148.8 86.6
L 148.8 88.95 148.25 92.65
Q 146.9 96.35 142.6 96.35
L 140.3 96.35 140.3 105.25 146.25 105.05
Q 148.9 104.55 151.15 103.35 158.2 99.45 158.2 89.5
L 158.2 61.05
M 143 69.2
Q 145.55 69.2 147.4 71.1 149.2 72.95 149.2 75.65 149.25 78.3 147.4 80.2 145.55 82.1 143 82.1 140.4 82.1 138.6 80.2 136.8 78.3 136.8 75.65 136.8 72.95 138.6 71.1 140.4 69.2 143 69.2 Z"/>
</g>
</defs>

<g transform="matrix( 1, 0, 0, 1, 0,0) ">
<mask id="Mask_Mask_1">
<g transform="matrix( 1, 0, 0, 1, 0,0) ">
<use xlink:href="#Mask____1_0_2_MASK_0_FILL"/>
</g>
</mask>

<g mask="url(#Mask_Mask_1)">
<g transform="matrix( 1, 0, 0, 1, 0,0) ">
<use xlink:href="#___1_0_Layer2_0_FILL"/>
</g>
</g>

<g mask="url(#Mask_Mask_1)">
<g transform="matrix( 0.5999755859375, 0, 0, 0.5999755859375, 26.8,38.15) ">
<g transform="matrix( 1, 0, 0, 1, -14,-16) ">
<use xlink:href="#___2_0_Layer0_0_FILL"/>
</g>

<g transform="matrix( 1, 0, 0, 1, -14,-16) ">
<use xlink:href="#___2_0_Layer0_1_FILL"/>
</g>

<g transform="matrix( 1, 0, 0, 1, -14,-16) ">
<use xlink:href="#___2_0_Layer0_2_FILL"/>
</g>

<g transform="matrix( 1, 0, 0, 1, -14,-16) ">
<use xlink:href="#___2_0_Layer0_3_FILL"/>
</g>

<g transform="matrix( 1, 0, 0, 1, -14,-16) ">
<use xlink:href="#___2_0_Layer0_4_FILL"/>
</g>

<g transform="matrix( 1, 0, 0, 1, -14,-16) ">
<use xlink:href="#___2_0_Layer0_5_FILL"/>
</g>
</g>
</g>
</g>
</svg>
