<svg width="389" height="389" viewBox="0 0 389 389" fill="none" xmlns="http://www.w3.org/2000/svg">
<g clip-path="url(#clip0_307_36)">
<path d="M331.527 331.492C407.366 255.653 407.366 132.693 331.527 56.8543C255.688 -18.9848 132.729 -18.9848 56.8896 56.8543C-18.9495 132.693 -18.9495 255.653 56.8896 331.492C132.729 407.331 255.688 407.331 331.527 331.492Z" fill="#4D0585"/>
<g clip-path="url(#clip1_307_36)">
<path d="M130.242 216.304C130.242 210.567 125.358 207.505 111.325 205.448C91.3983 202.583 68.0048 195.835 68.0048 170.449C68.016 145.895 91.203 133 115.808 133C130.438 133 144.069 136.68 152.81 143.029C159.525 147.935 159.927 156.739 156.058 162.673C152.201 168.612 146.301 170.859 138.375 167.179C130.036 163.291 123.527 162.268 115.601 162.268C106.246 162.268 101.781 166.151 101.781 170.05C101.781 176.186 110.929 178.237 125.972 180.276C148.344 183.35 164.403 194.407 164.403 215.894C164.403 239.425 142.645 253.556 117.839 253.961C99.1236 254.365 82.0487 250.286 70.8627 239.835C64.9571 234.317 64.3655 226.131 69.4449 219.776C74.3179 213.843 83.4777 212.41 90.1815 217.113C95.6684 221.001 105.029 224.485 115.183 224.485C124.956 224.49 130.242 221.417 130.242 216.304Z" fill="white"/>
<path d="M197.681 133C208.867 133 218.222 142.417 218.222 153.671C218.222 164.926 208.867 174.348 197.681 174.348C186.495 174.348 177.14 164.926 177.14 153.671C177.14 142.417 186.495 133 197.681 133Z" fill="white"/>
<path d="M292.377 164.724C280.789 164.724 270.407 175.776 270.407 191.739V237.593C270.407 248.241 262.877 254.579 252.713 254.579C242.554 254.579 235.029 248.224 235.029 237.593V149.986C235.035 139.344 242.554 133 252.718 133C261.052 133 267.767 137.501 269.804 144.867C275.699 137.298 286.271 133 295.419 133C303.759 133 310.669 134.427 315.96 138.113C320.845 141.389 324.093 149.373 320.448 157.964C316.993 165.954 308.654 169.224 303.574 167.179C299.695 165.544 296.028 164.724 292.377 164.724Z" fill="white"/>
<path d="M197.681 187.85C187.522 187.85 179.998 194.205 179.998 204.841V237.885H180.076C180.5 247.971 187.824 253.994 197.681 253.994C207.539 253.994 214.873 247.971 215.298 237.885H215.376V204.841C215.376 194.205 207.857 187.85 197.681 187.85Z" fill="white"/>
</g>
</g>
<defs>
<clipPath id="clip0_307_36">
<rect width="388.3" height="388.3" fill="white"/>
</clipPath>
<clipPath id="clip1_307_36">
<rect width="256" height="121" fill="white" transform="translate(66 133)"/>
</clipPath>
</defs>
</svg>
