
<svg xmlns="http://www.w3.org/2000/svg" version="1.1" xmlns:xlink="http://www.w3.org/1999/xlink" preserveAspectRatio="none" x="0px" y="0px" width="150px" height="150px" viewBox="0 0 150 150">
<defs>
<g id="Mask_2_MASK_0_FILL">
<path fill="#FFFFFF" stroke="none" d="
M 150 75
Q 150 43.9 128.05 21.95 106.05 0 75 0 43.95 0 21.95 21.95 0 43.9 0 75 0 106.05 21.95 128 43.95 150 75 150 106.05 150 128.05 128 150 106.05 150 75 Z"/>
</g>

<g id="Mask_twitter_svg____Layer_1__Clip_Group__0_2_MASK_0_FILL">
<path fill="#FFFFFF" stroke="none" d="
M 190 191
L 190 0 0 0 0 191 190 191 Z"/>
</g>

<g id="twitter_svg____Layer_1__Clip_Group__0_Layer2_0_MEMBER_0_FILL">
<path fill="#27A8E0" stroke="none" d="
M 189 16.15
Q 189 9.9 184.55 5.45 180.1 1 173.85 1
L 15.15 1
Q 8.9 1 4.45 5.45 0 9.9 0 16.15
L 0 175.2
Q 0 181.5 4.45 185.95 8.9 190.35 15.15 190.35
L 173.85 190.35
Q 180.15 190.35 184.6 185.95 189 181.5 189 175.2
L 189 16.15 Z"/>
</g>

<g id="twitter_svg____Layer_1__Clip_Group__0_Layer2_0_MEMBER_1_FILL">
<path fill="#FFFFFF" stroke="none" d="
M 93.45 75.5
Q 93.45 78.5 94.05 81.35 78.45 80.6 64.6 73.45 51.15 66.5 41.6 54.7 38.15 60.6 38.15 67.5 38.15 74.05 41.25 79.7 44.25 85.25 49.5 88.7 43.25 88.5 37.95 85.55
L 37.95 85.9
Q 37.95 95.05 43.8 102.15 49.6 109.1 58.4 110.9 55.1 111.75 51.7 111.75 49.25 111.75 46.9 111.3 49.35 119 55.85 123.9 62.45 128.85 70.7 129 64 134.25 56.1 137 47.85 139.9 39.05 139.9 35.8 139.9 33 139.55 50.75 151 72.05 151 105 151 125.8 127.4 134.85 117.15 139.7 104.05 144.45 91.4 144.45 78.5
L 144.4 75.2
Q 151.85 69.85 157.1 62 150.2 65.05 142.45 66.05 146.4 63.65 149.3 60 152.25 56.35 153.65 51.9 146.2 56.4 137.45 58.1 133.9 54.3 129.15 52.2 124.25 50 118.9 50 108.35 50 100.9 57.5 93.45 64.95 93.45 75.5 Z"/>
</g>
</defs>

<mask id="Mask_Mask_1">
<g transform="matrix( 1, 0, 0, 1, 0,0) ">
<use xlink:href="#Mask_2_MASK_0_FILL"/>
</g>
</mask>

<g mask="url(#Mask_Mask_1)"/>

<g mask="url(#Mask_Mask_1)">
<g transform="matrix( 0.7936553955078125, 0, 0, 0.7921905517578125, 0,0) ">
<mask id="Mask_Mask_2">
<g transform="matrix( 1, 0, 0, 1, 0,0) ">
<use xlink:href="#Mask_twitter_svg____Layer_1__Clip_Group__0_2_MASK_0_FILL"/>
</g>
</mask>

<g mask="url(#Mask_Mask_2)">
<g transform="matrix( 1, 0, 0, 1, 0,0) ">
<use xlink:href="#twitter_svg____Layer_1__Clip_Group__0_Layer2_0_MEMBER_0_FILL"/>
</g>

<g transform="matrix( 1, 0, 0, 1, 0,0) ">
<use xlink:href="#twitter_svg____Layer_1__Clip_Group__0_Layer2_0_MEMBER_1_FILL"/>
</g>
</g>
</g>
</g>
</svg>
