<svg width="20" height="20" viewBox="0 0 20 20" fill="none" xmlns="http://www.w3.org/2000/svg">
<path d="M8.39782 2.17833C8.67949 1.545 9.54699 1.51417 9.88699 2.08333L9.93616 2.17833L10.8045 4.1325C11.5627 5.83827 12.8236 7.27189 14.4187 8.24167L14.687 8.39917L16.2287 9.26583C16.3512 9.33445 16.4547 9.43264 16.5295 9.55146C16.6044 9.67029 16.6484 9.80597 16.6574 9.94614C16.6665 10.0863 16.6403 10.2265 16.5812 10.354C16.5222 10.4814 16.4322 10.5921 16.3195 10.6758L16.2295 10.7342L14.687 11.6008C13.0598 12.5161 11.7509 13.9064 10.9353 15.5858L10.8045 15.8675L9.93616 17.8217C9.65449 18.455 8.78699 18.4858 8.44699 17.9167L8.39782 17.8217L7.52949 15.8675C6.77126 14.1617 5.51034 12.7281 3.91532 11.7583L3.64699 11.6008L2.10532 10.7342C1.98277 10.6656 1.87933 10.5674 1.80443 10.4485C1.72954 10.3297 1.68558 10.194 1.67655 10.0539C1.66752 9.9137 1.69371 9.7735 1.75274 9.64604C1.81176 9.51859 1.90175 9.40794 2.01449 9.32417L2.10449 9.26583L3.64699 8.39917C5.27417 7.48387 6.58309 6.09355 7.39866 4.41417L7.52949 4.1325L8.39782 2.17833ZM16.0178 1.7675C16.4315 2.70717 17.1369 3.48855 18.0295 3.99583C18.1628 4.07083 18.1628 4.2625 18.0295 4.3375C17.1364 4.84486 16.4307 5.62657 16.017 6.56667C16.0012 6.60206 15.9754 6.63211 15.9429 6.6532C15.9104 6.67429 15.8724 6.68551 15.8337 6.68551C15.7949 6.68551 15.7569 6.67429 15.7244 6.6532C15.6919 6.63211 15.6662 6.60206 15.6503 6.56667C15.2365 5.62688 14.5307 4.84548 13.6378 4.33833C13.6077 4.32114 13.5826 4.29628 13.5652 4.26628C13.5478 4.23628 13.5386 4.2022 13.5386 4.1675C13.5386 4.1328 13.5478 4.09872 13.5652 4.06872C13.5826 4.03872 13.6077 4.01386 13.6378 3.99667C14.531 3.48909 15.2368 2.70708 15.6503 1.76667C15.6662 1.73128 15.6919 1.70122 15.7244 1.68014C15.7569 1.65905 15.7949 1.64783 15.8337 1.64783C15.8724 1.64783 15.9104 1.65905 15.9429 1.68014C15.9754 1.70122 16.0012 1.73128 16.017 1.76667L16.0178 1.7675Z" fill="#09244B"/>
</svg>
