<svg width="20" height="20" viewBox="0 0 20 20" fill="none" xmlns="http://www.w3.org/2000/svg">
<path d="M14.1667 15C14.3791 15.0002 14.5834 15.0816 14.7378 15.2274C14.8923 15.3732 14.9852 15.5725 14.9976 15.7845C15.0101 15.9965 14.9411 16.2053 14.8048 16.3682C14.6685 16.5311 14.4751 16.6357 14.2642 16.6608L14.1667 16.6667H5.83333C5.62093 16.6664 5.41664 16.5851 5.26219 16.4393C5.10775 16.2935 5.0148 16.0942 5.00236 15.8822C4.98991 15.6701 5.0589 15.4614 5.19522 15.2985C5.33155 15.1356 5.52492 15.0309 5.73583 15.0058L5.83333 15H14.1667ZM16.6667 10.8333C16.8877 10.8333 17.0996 10.9211 17.2559 11.0774C17.4122 11.2337 17.5 11.4457 17.5 11.6667C17.5 11.8877 17.4122 12.0996 17.2559 12.2559C17.0996 12.4122 16.8877 12.5 16.6667 12.5H3.33333C3.11232 12.5 2.90036 12.4122 2.74408 12.2559C2.5878 12.0996 2.5 11.8877 2.5 11.6667C2.5 11.4457 2.5878 11.2337 2.74408 11.0774C2.90036 10.9211 3.11232 10.8333 3.33333 10.8333H16.6667ZM14.1667 6.66667C14.3791 6.6669 14.5834 6.74823 14.7378 6.89404C14.8923 7.03985 14.9852 7.23913 14.9976 7.45116C15.0101 7.6632 14.9411 7.87198 14.8048 8.03486C14.6685 8.19774 14.4751 8.30241 14.2642 8.3275L14.1667 8.33333H5.83333C5.62093 8.3331 5.41664 8.25177 5.26219 8.10596C5.10775 7.96015 5.0148 7.76087 5.00236 7.54884C4.98991 7.3368 5.0589 7.12802 5.19522 6.96514C5.33155 6.80226 5.52492 6.69759 5.73583 6.6725L5.83333 6.66667H14.1667ZM16.6667 2.5C16.8791 2.50024 17.0834 2.58157 17.2378 2.72737C17.3923 2.87318 17.4852 3.07246 17.4976 3.2845C17.5101 3.49653 17.4411 3.70532 17.3048 3.86819C17.1685 4.03107 16.9751 4.13575 16.7642 4.16083L16.6667 4.16667H3.33333C3.12093 4.16643 2.91664 4.0851 2.76219 3.93929C2.60775 3.79349 2.5148 3.59421 2.50236 3.38217C2.48991 3.17014 2.5589 2.96135 2.69522 2.79847C2.83155 2.6356 3.02492 2.53092 3.23583 2.50583L3.33333 2.5H16.6667Z" fill="#09244B"/>
</svg>
