<svg width="20" height="20" viewBox="0 0 20 20" fill="none" xmlns="http://www.w3.org/2000/svg">
<path d="M11.6667 15C11.8791 15.0002 12.0834 15.0816 12.2378 15.2274C12.3923 15.3732 12.4852 15.5725 12.4976 15.7845C12.5101 15.9965 12.4411 16.2053 12.3048 16.3682C12.1685 16.5311 11.9751 16.6357 11.7642 16.6608L11.6667 16.6667H3.33333C3.12093 16.6664 2.91664 16.5851 2.76219 16.4393C2.60775 16.2935 2.5148 16.0942 2.50236 15.8822C2.48991 15.6701 2.5589 15.4614 2.69522 15.2985C2.83155 15.1356 3.02492 15.0309 3.23583 15.0058L3.33333 15H11.6667ZM16.6667 10.8333C16.8877 10.8333 17.0996 10.9211 17.2559 11.0774C17.4122 11.2337 17.5 11.4457 17.5 11.6667C17.5 11.8877 17.4122 12.0996 17.2559 12.2559C17.0996 12.4122 16.8877 12.5 16.6667 12.5H3.33333C3.11232 12.5 2.90036 12.4122 2.74408 12.2559C2.5878 12.0996 2.5 11.8877 2.5 11.6667C2.5 11.4457 2.5878 11.2337 2.74408 11.0774C2.90036 10.9211 3.11232 10.8333 3.33333 10.8333H16.6667ZM11.6667 6.66667C11.8791 6.6669 12.0834 6.74823 12.2378 6.89404C12.3923 7.03985 12.4852 7.23913 12.4976 7.45116C12.5101 7.6632 12.4411 7.87198 12.3048 8.03486C12.1685 8.19774 11.9751 8.30241 11.7642 8.3275L11.6667 8.33333H3.33333C3.12093 8.3331 2.91664 8.25177 2.76219 8.10596C2.60775 7.96015 2.5148 7.76087 2.50236 7.54884C2.48991 7.3368 2.5589 7.12802 2.69522 6.96514C2.83155 6.80226 3.02492 6.69759 3.23583 6.6725L3.33333 6.66667H11.6667ZM16.6667 2.5C16.8791 2.50024 17.0834 2.58157 17.2378 2.72737C17.3923 2.87318 17.4852 3.07246 17.4976 3.2845C17.5101 3.49653 17.4411 3.70532 17.3048 3.86819C17.1685 4.03107 16.9751 4.13575 16.7642 4.16083L16.6667 4.16667H3.33333C3.12093 4.16643 2.91664 4.0851 2.76219 3.93929C2.60775 3.79349 2.5148 3.59421 2.50236 3.38217C2.48991 3.17014 2.5589 2.96135 2.69522 2.79847C2.83155 2.6356 3.02492 2.53092 3.23583 2.50583L3.33333 2.5H16.6667Z" fill="#09244B"/>
</svg>
