<svg width="20" height="20" viewBox="0 0 20 20" fill="none" xmlns="http://www.w3.org/2000/svg">
<path fill-rule="evenodd" clip-rule="evenodd" d="M4.16667 2.5C3.72464 2.5 3.30072 2.67559 2.98816 2.98816C2.67559 3.30072 2.5 3.72464 2.5 4.16667V7.5C2.5 7.94203 2.67559 8.36595 2.98816 8.67851C3.30072 8.99107 3.72464 9.16667 4.16667 9.16667H12.5C12.942 9.16667 13.366 8.99107 13.6785 8.67851C13.9911 8.36595 14.1667 7.94203 14.1667 7.5V4.16667C14.1667 3.72464 13.9911 3.30072 13.6785 2.98816C13.366 2.67559 12.942 2.5 12.5 2.5H4.16667ZM4.16667 10.8333C3.72464 10.8333 3.30072 11.0089 2.98816 11.3215C2.67559 11.634 2.5 12.058 2.5 12.5V15.8333C2.5 16.2754 2.67559 16.6993 2.98816 17.0118C3.30072 17.3244 3.72464 17.5 4.16667 17.5H15.8333C16.2754 17.5 16.6993 17.3244 17.0118 17.0118C17.3244 16.6993 17.5 16.2754 17.5 15.8333V12.5C17.5 12.058 17.3244 11.634 17.0118 11.3215C16.6993 11.0089 16.2754 10.8333 15.8333 10.8333H4.16667Z" fill="#09244B"/>
</svg>
