<svg width="20" height="20" viewBox="0 0 20 20" fill="none" xmlns="http://www.w3.org/2000/svg">
<path d="M10.8337 2.5C11.6677 2.49988 12.4826 2.75009 13.1729 3.21823C13.8632 3.68638 14.3971 4.35092 14.7055 5.12586C15.014 5.9008 15.0827 6.75047 14.9029 7.56492C14.7231 8.37937 14.303 9.12111 13.697 9.69417C14.4896 10.1358 15.1163 10.8241 15.482 11.6545C15.8477 12.4848 15.9323 13.4119 15.7231 14.2947C15.5139 15.1776 15.0222 15.968 14.3227 16.5459C13.6233 17.1239 12.7543 17.4577 11.8478 17.4967L11.667 17.5H5.08366C4.85778 17.5001 4.63981 17.4168 4.47156 17.2661C4.30331 17.1154 4.19663 16.9079 4.17199 16.6833L4.16699 16.5833V3.41667C4.16688 3.19078 4.25016 2.97281 4.40088 2.80457C4.5516 2.63632 4.75913 2.52964 4.98366 2.505L5.08366 2.5H10.8337ZM11.667 10.8333H5.83366V15.8333H11.667C12.33 15.8333 12.9659 15.5699 13.4348 15.1011C13.9036 14.6323 14.167 13.9964 14.167 13.3333C14.167 12.6703 13.9036 12.0344 13.4348 11.5656C12.9659 11.0967 12.33 10.8333 11.667 10.8333ZM10.8337 4.16667H5.83366V9.16667H10.8337C11.4967 9.16667 12.1326 8.90327 12.6014 8.43443C13.0703 7.96559 13.3337 7.32971 13.3337 6.66667C13.3337 6.00363 13.0703 5.36774 12.6014 4.8989C12.1326 4.43006 11.4967 4.16667 10.8337 4.16667Z" fill="#09244B"/>
</svg>
