<svg width="20" height="20" viewBox="0 0 20 20" fill="none" xmlns="http://www.w3.org/2000/svg">
<path fill-rule="evenodd" clip-rule="evenodd" d="M18.3476 3.22832L17.8559 4.54582C17.6543 5.01796 17.451 5.48935 17.2459 5.95999C16.6809 7.17249 15.9026 8.58999 14.9734 9.56832C14.0851 10.5017 12.7451 11.3625 11.6717 11.9733C11.8133 12.6506 11.7838 13.3525 11.5859 14.0156C11.388 14.6786 11.028 15.2819 10.5384 15.7708C8.64674 17.6625 6.53341 17.6625 4.96174 17.1958C3.77007 16.8408 2.79007 16.1975 1.85341 15.4058C1.81491 15.3735 1.78435 15.3327 1.76411 15.2866C1.74386 15.2406 1.73446 15.1905 1.73664 15.1403C1.73881 15.09 1.7525 15.041 1.77665 14.9968C1.80079 14.9527 1.83475 14.9147 1.87591 14.8858L2.29257 14.5842C2.85257 14.1617 3.39674 13.6458 3.53424 12.955C3.63008 12.1842 3.68424 11.7633 3.69841 11.6942C3.81341 11.12 4.05674 10.4683 4.64674 9.87749C5.13561 9.38802 5.73873 9.02809 6.40161 8.83021C7.06449 8.63234 7.76623 8.60276 8.44341 8.74415C9.05424 7.67165 9.91508 6.33166 10.8484 5.44415C11.8267 4.51415 13.2442 3.73582 14.4567 3.17082L15.8709 2.55999L17.1884 2.06915C17.3499 2.0135 17.5238 2.00434 17.6902 2.04271C17.8567 2.08109 18.009 2.16545 18.1299 2.2862C18.2507 2.40694 18.3352 2.55921 18.3737 2.72563C18.4122 2.89206 18.4031 3.06595 18.3476 3.22749V3.22832ZM9.98341 9.41082C10.3809 9.69024 10.7268 10.0365 11.0059 10.4342C11.3326 10.245 11.6684 10.04 11.9976 9.82415L11.9726 9.76832C11.8354 9.48013 11.6493 9.21791 11.4226 8.99332C11.2224 8.79224 10.9929 8.6228 10.7417 8.49082L10.5926 8.41915C10.3767 8.74832 10.1726 9.08415 9.98341 9.41082ZM16.1851 4.23165C15.8659 4.36415 15.5184 4.51499 15.1601 4.68165C13.9867 5.22915 12.7717 5.91499 11.9967 6.65165C11.8601 6.7827 11.7295 6.91978 11.6051 7.06249C11.9067 7.22916 12.2567 7.47082 12.6009 7.81582C12.9459 8.15999 13.1876 8.50999 13.3542 8.81165C13.5026 8.68165 13.6409 8.55082 13.7651 8.41999C14.5017 7.64499 15.1876 6.42999 15.7351 5.25582C15.9017 4.89749 16.0526 4.55082 16.1851 4.23165Z" fill="#09244B"/>
</svg>
