<svg width="20" height="20" viewBox="0 0 20 20" fill="none" xmlns="http://www.w3.org/2000/svg">
<path d="M15.2439 14.4108C15.3938 14.2614 15.5951 14.1746 15.8067 14.1681C16.0183 14.1617 16.2245 14.236 16.3833 14.376C16.5421 14.5161 16.6416 14.7113 16.6617 14.9221C16.6818 15.1328 16.6209 15.3433 16.4914 15.5108L16.4222 15.5892L15.1722 16.8392C14.9307 17.0807 14.644 17.2723 14.3284 17.403C14.0128 17.5338 13.6746 17.601 13.333 17.601C12.9915 17.601 12.6532 17.5338 12.3377 17.403C12.0221 17.2723 11.7354 17.0807 11.4939 16.8392C11.3319 16.6774 11.1162 16.5806 10.8876 16.5673C10.6591 16.5539 10.4336 16.6249 10.2539 16.7667L10.1722 16.8392L9.75553 17.2558C9.60557 17.4053 9.40434 17.4921 9.19271 17.4985C8.98109 17.505 8.77494 17.4307 8.61613 17.2906C8.45733 17.1506 8.35778 16.9554 8.3377 16.7446C8.31762 16.5338 8.37852 16.3233 8.50803 16.1558L8.5772 16.0775L8.99386 15.6608C9.23538 15.4193 9.5221 15.2277 9.83767 15.097C10.1532 14.9663 10.4915 14.899 10.833 14.899C11.1746 14.899 11.5128 14.9663 11.8284 15.097C12.144 15.2277 12.4307 15.4193 12.6722 15.6608C12.8342 15.8226 13.0499 15.9194 13.2784 15.9328C13.507 15.9461 13.7325 15.8752 13.9122 15.7333L13.9939 15.6608L15.2439 14.4108ZM13.7355 3.31917C14.1162 2.93238 14.6327 2.70938 15.1752 2.6976C15.7178 2.68583 16.2435 2.88621 16.6406 3.25613C17.0376 3.62604 17.2747 4.13628 17.3013 4.67829C17.3279 5.22031 17.1419 5.75131 16.783 6.15834L16.6814 6.26667L7.0347 15.9125C6.91471 16.0326 6.77152 16.127 6.61386 16.19L6.49303 16.2308L4.12886 16.9033C3.99331 16.9421 3.85014 16.9458 3.71274 16.9143C3.57534 16.8827 3.44818 16.8168 3.34315 16.7227C3.23811 16.6287 3.15863 16.5096 3.11212 16.3765C3.06562 16.2434 3.0536 16.1007 3.0772 15.9617L3.09803 15.8725L3.77053 13.5075C3.81718 13.3443 3.89657 13.1923 4.00386 13.0608L4.08886 12.9658L13.7355 3.31917Z" fill="#09244B"/>
</svg>
