<svg width="20" height="20" viewBox="0 0 20 20" fill="none" xmlns="http://www.w3.org/2000/svg">
<path fill-rule="evenodd" clip-rule="evenodd" d="M10.0003 1.66666C14.6028 1.66666 18.3337 5.39749 18.3337 9.99999C18.3337 10.5408 18.282 11.07 18.1837 11.5833C17.8728 13.1958 16.3003 13.9092 14.9278 13.7458L14.782 13.725L13.332 13.4833C13.1633 13.4552 12.9902 13.4677 12.8273 13.5199C12.6644 13.5721 12.5163 13.6624 12.3953 13.7833C12.087 14.0917 11.9395 14.5158 12.147 14.93C12.4995 15.635 12.5045 16.44 12.1928 17.0992C11.7762 17.9833 10.9253 18.3333 10.0003 18.3333C5.39783 18.3333 1.66699 14.6025 1.66699 9.99999C1.66699 5.39749 5.39783 1.66666 10.0003 1.66666ZM6.25033 9.16666C6.08617 9.16666 5.92363 9.19899 5.77197 9.26181C5.62031 9.32463 5.48252 9.4167 5.36644 9.53277C5.25037 9.64885 5.15829 9.78664 5.09548 9.9383C5.03266 10.09 5.00033 10.2525 5.00033 10.4167C5.00033 10.5808 5.03266 10.7434 5.09548 10.895C5.15829 11.0467 5.25037 11.1845 5.36644 11.3005C5.48252 11.4166 5.62031 11.5087 5.77197 11.5715C5.92363 11.6343 6.08617 11.6667 6.25033 11.6667C6.58185 11.6667 6.89979 11.535 7.13421 11.3005C7.36863 11.0661 7.50033 10.7482 7.50033 10.4167C7.50033 10.0851 7.36863 9.76719 7.13421 9.53277C6.89979 9.29835 6.58185 9.16666 6.25033 9.16666ZM12.0837 5.83332C11.7521 5.83332 11.4342 5.96502 11.1998 6.19944C10.9654 6.43386 10.8337 6.7518 10.8337 7.08332C10.8337 7.41484 10.9654 7.73279 11.1998 7.96721C11.4342 8.20163 11.7521 8.33332 12.0837 8.33332C12.4152 8.33332 12.7331 8.20163 12.9675 7.96721C13.202 7.73279 13.3337 7.41484 13.3337 7.08332C13.3337 6.7518 13.202 6.43386 12.9675 6.19944C12.7331 5.96502 12.4152 5.83332 12.0837 5.83332ZM7.91699 5.83332C7.58547 5.83332 7.26753 5.96502 7.03311 6.19944C6.79869 6.43386 6.66699 6.7518 6.66699 7.08332C6.66699 7.41484 6.79869 7.73279 7.03311 7.96721C7.26753 8.20163 7.58547 8.33332 7.91699 8.33332C8.24851 8.33332 8.56646 8.20163 8.80088 7.96721C9.0353 7.73279 9.16699 7.41484 9.16699 7.08332C9.16699 6.7518 9.0353 6.43386 8.80088 6.19944C8.56646 5.96502 8.24851 5.83332 7.91699 5.83332Z" fill="#09244B"/>
</svg>
