<svg width="24" height="24" viewBox="0 0 24 24" fill="none" xmlns="http://www.w3.org/2000/svg">
<path fill-rule="evenodd" clip-rule="evenodd" d="M11.9998 13.414L17.6568 19.071C17.8454 19.2532 18.098 19.3539 18.3602 19.3517C18.6224 19.3494 18.8732 19.2442 19.0586 19.0588C19.2441 18.8734 19.3492 18.6226 19.3515 18.3604C19.3538 18.0982 19.253 17.8456 19.0708 17.657L13.4138 12L19.0708 6.343C19.253 6.15439 19.3538 5.90179 19.3515 5.6396C19.3492 5.3774 19.2441 5.12659 19.0586 4.94118C18.8732 4.75577 18.6224 4.6506 18.3602 4.64832C18.098 4.64604 17.8454 4.74684 17.6568 4.929L11.9998 10.586L6.34282 4.929C6.15337 4.75134 5.90224 4.65436 5.64255 4.65858C5.38287 4.6628 5.13502 4.76788 4.95143 4.95159C4.76785 5.1353 4.66294 5.38323 4.65891 5.64292C4.65488 5.9026 4.75203 6.15367 4.92982 6.343L10.5858 12L4.92882 17.657C4.83331 17.7492 4.75713 17.8596 4.70472 17.9816C4.65231 18.1036 4.62473 18.2348 4.62357 18.3676C4.62242 18.5004 4.64772 18.6321 4.698 18.755C4.74828 18.8778 4.82254 18.9895 4.91643 19.0834C5.01032 19.1773 5.12197 19.2515 5.24487 19.3018C5.36777 19.3521 5.49944 19.3774 5.63222 19.3762C5.765 19.3751 5.89622 19.3475 6.01823 19.2951C6.14023 19.2427 6.25058 19.1665 6.34282 19.071L11.9998 13.414Z" fill="#09244B"/>
</svg>
