<svg width="20" height="20" viewBox="0 0 20 20" fill="none" xmlns="http://www.w3.org/2000/svg">
<path d="M6.66705 2.5C6.87945 2.50024 7.08374 2.58157 7.23819 2.72737C7.39263 2.87318 7.48557 3.07246 7.49802 3.2845C7.51047 3.49653 7.44148 3.70532 7.30516 3.86819C7.16883 4.03107 6.97546 4.13575 6.76455 4.16083L6.66705 4.16667H5.83371C5.6296 4.16669 5.4326 4.24163 5.28007 4.37726C5.12754 4.5129 5.03009 4.69979 5.00621 4.9025L5.00038 5V8.33333C5.00038 8.97333 4.75955 9.55833 4.36371 10C4.72038 10.3983 4.95038 10.9108 4.99288 11.4767L5.00038 11.6667V15C5.00041 15.2041 5.07534 15.4011 5.21097 15.5536C5.34661 15.7062 5.5335 15.8036 5.73621 15.8275L5.83371 15.8333H6.66705C6.87945 15.8336 7.08374 15.9149 7.23819 16.0607C7.39263 16.2065 7.48557 16.4058 7.49802 16.6178C7.51047 16.8299 7.44148 17.0386 7.30516 17.2015C7.16883 17.3644 6.97546 17.4691 6.76455 17.4942L6.66705 17.5H5.83371C5.19604 17.5 4.58245 17.2564 4.11849 16.8189C3.65454 16.3815 3.37529 15.7832 3.33788 15.1467L3.33371 15V11.6667C3.33369 11.4626 3.25875 11.2656 3.12312 11.113C2.98748 10.9605 2.80059 10.863 2.59788 10.8392L2.50038 10.8333C2.28798 10.8331 2.08369 10.7518 1.92924 10.606C1.77479 10.4602 1.68185 10.2609 1.6694 10.0488C1.65695 9.8368 1.72594 9.62802 1.86227 9.46514C1.99859 9.30226 2.19197 9.19759 2.40288 9.1725L2.50038 9.16667C2.70449 9.16664 2.90149 9.0917 3.05402 8.95607C3.20655 8.82044 3.304 8.63354 3.32788 8.43083L3.33371 8.33333V5C3.33368 4.36232 3.57732 3.74874 4.01478 3.28478C4.45225 2.82083 5.05047 2.54158 5.68705 2.50417L5.83371 2.5H6.66705ZM14.167 2.5C14.8047 2.49996 15.4183 2.7436 15.8823 3.18107C16.3462 3.61854 16.6255 4.21676 16.6629 4.85333L16.667 5V8.33333C16.6671 8.53744 16.742 8.73445 16.8776 8.88698C17.0133 9.03951 17.2002 9.13695 17.4029 9.16083L17.5004 9.16667C17.7128 9.1669 17.9171 9.24823 18.0715 9.39404C18.226 9.53985 18.3189 9.73913 18.3314 9.95116C18.3438 10.1632 18.2748 10.372 18.1385 10.5349C18.0022 10.6977 17.8088 10.8024 17.5979 10.8275L17.5004 10.8333C17.2963 10.8334 17.0993 10.9083 16.9467 11.0439C16.7942 11.1796 16.6968 11.3665 16.6729 11.5692L16.667 11.6667V15C16.6671 15.6377 16.4234 16.2513 15.986 16.7152C15.5485 17.1792 14.9503 17.4584 14.3137 17.4958L14.167 17.5H13.3337C13.1213 17.4998 12.917 17.4184 12.7626 17.2726C12.6081 17.1268 12.5152 16.9275 12.5027 16.7155C12.4903 16.5035 12.5593 16.2947 12.6956 16.1318C12.8319 15.9689 13.0253 15.8643 13.2362 15.8392L13.3337 15.8333H14.167C14.3712 15.8333 14.5682 15.7584 14.7207 15.6227C14.8732 15.4871 14.9707 15.3002 14.9945 15.0975L15.0004 15V11.6667C15.0004 11.0267 15.2412 10.4417 15.637 10C15.2701 9.59072 15.0489 9.07151 15.0079 8.52333L15.0004 8.33333V5C15.0004 4.79589 14.9254 4.59889 14.7898 4.44636C14.6541 4.29383 14.4673 4.19638 14.2645 4.1725L14.167 4.16667H13.3337C13.1213 4.16643 12.917 4.0851 12.7626 3.93929C12.6081 3.79349 12.5152 3.59421 12.5027 3.38217C12.4903 3.17014 12.5593 2.96135 12.6956 2.79847C12.8319 2.6356 13.0253 2.53092 13.2362 2.50583L13.3337 2.5H14.167Z" fill="#09244B"/>
</svg>
