<svg width="20" height="20" viewBox="0 0 20 20" fill="none" xmlns="http://www.w3.org/2000/svg">
<path d="M7.05315 5.875L14.1248 12.9467L11.2373 15.8333H16.6665C16.8875 15.8333 17.0995 15.9211 17.2557 16.0774C17.412 16.2337 17.4998 16.4457 17.4998 16.6667C17.4998 16.8877 17.412 17.0996 17.2557 17.2559C17.0995 17.4122 16.8875 17.5 16.6665 17.5H7.41065C7.07924 17.4997 6.76151 17.3678 6.52731 17.1333L2.33898 12.9467C2.18414 12.7919 2.06132 12.6081 1.97752 12.4059C1.89372 12.2036 1.85059 11.9868 1.85059 11.7679C1.85059 11.549 1.89372 11.3322 1.97752 11.13C2.06132 10.9277 2.18414 10.7439 2.33898 10.5892L7.05315 5.875ZM12.9456 2.34L17.6598 7.05333C17.8147 7.2081 17.9375 7.39187 18.0213 7.59412C18.1051 7.79637 18.1482 8.01315 18.1482 8.23208C18.1482 8.45101 18.1051 8.66779 18.0213 8.87004C17.9375 9.0723 17.8147 9.25606 17.6598 9.41083L15.3031 11.7675L8.23231 4.69666L10.589 2.34C10.9015 2.02755 11.3254 1.85202 11.7673 1.85202C12.2093 1.85202 12.6331 2.02755 12.9456 2.34Z" fill="#09244B"/>
</svg>
