<svg width="20" height="20" viewBox="0 0 20 20" fill="none" xmlns="http://www.w3.org/2000/svg">
<path fill-rule="evenodd" clip-rule="evenodd" d="M9.99984 3.33335C8.23173 3.33335 6.53603 4.03573 5.28579 5.28598C4.03555 6.53622 3.33317 8.23191 3.33317 10C3.33317 11.7681 4.03555 13.4638 5.28579 14.7141C6.53603 15.9643 8.23173 16.6667 9.99984 16.6667C11.7679 16.6667 13.4636 15.9643 14.7139 14.7141C15.9641 13.4638 16.6665 11.7681 16.6665 10C16.6665 8.23191 15.9641 6.53622 14.7139 5.28598C13.4636 4.03573 11.7679 3.33335 9.99984 3.33335ZM1.6665 10C1.6665 5.39752 5.39734 1.66669 9.99984 1.66669C14.6023 1.66669 18.3332 5.39752 18.3332 10C18.3332 14.6025 14.6023 18.3334 9.99984 18.3334C5.39734 18.3334 1.6665 14.6025 1.6665 10ZM5.83317 7.91669C5.83317 7.58517 5.96487 7.26722 6.19929 7.0328C6.43371 6.79838 6.75165 6.66669 7.08317 6.66669C7.41469 6.66669 7.73263 6.79838 7.96705 7.0328C8.20147 7.26722 8.33317 7.58517 8.33317 7.91669C8.33317 8.24821 8.20147 8.56615 7.96705 8.80057C7.73263 9.03499 7.41469 9.16669 7.08317 9.16669C6.75165 9.16669 6.43371 9.03499 6.19929 8.80057C5.96487 8.56615 5.83317 8.24821 5.83317 7.91669ZM7.49984 10.8334C7.27882 10.8334 7.06686 10.9212 6.91058 11.0774C6.7543 11.2337 6.6665 11.4457 6.6665 11.6667C6.6665 11.8877 6.7543 12.0997 6.91058 12.2559C7.06686 12.4122 7.27882 12.5 7.49984 12.5V13.3334C7.49984 13.9964 7.76323 14.6323 8.23207 15.1011C8.70091 15.57 9.3368 15.8334 9.99984 15.8334C10.6629 15.8334 11.2988 15.57 11.7676 15.1011C12.2364 14.6323 12.4998 13.9964 12.4998 13.3334V12.5C12.7209 12.5 12.9328 12.4122 13.0891 12.2559C13.2454 12.0997 13.3332 11.8877 13.3332 11.6667C13.3332 11.4457 13.2454 11.2337 13.0891 11.0774C12.9328 10.9212 12.7209 10.8334 12.4998 10.8334H7.49984ZM9.1665 13.3334V12.5H10.8332V13.3334C10.8332 13.5544 10.7454 13.7663 10.5891 13.9226C10.4328 14.0789 10.2209 14.1667 9.99984 14.1667C9.77882 14.1667 9.56686 14.0789 9.41058 13.9226C9.2543 13.7663 9.1665 13.5544 9.1665 13.3334ZM14.124 6.40335C14.0894 6.29949 14.0348 6.20344 13.9631 6.12072C13.8914 6.03799 13.8041 5.97019 13.7062 5.92121C13.6083 5.87222 13.5017 5.843 13.3925 5.83522C13.2833 5.82744 13.1737 5.84125 13.0698 5.87585C12.4894 6.07116 11.9731 6.4209 11.5765 6.88752C11.2696 7.23324 11.032 7.63468 10.8765 8.07002C10.8348 8.19523 10.8234 8.32856 10.8433 8.45902C10.8632 8.58948 10.9138 8.71336 10.991 8.82044C11.0681 8.92752 11.1696 9.01475 11.287 9.07495C11.4045 9.13514 11.5345 9.16659 11.6665 9.16669C11.879 9.16669 12.2923 9.30419 12.744 9.75585C12.8209 9.83545 12.9128 9.89893 13.0145 9.9426C13.1162 9.98628 13.2255 10.0093 13.3362 10.0102C13.4468 10.0112 13.5566 9.99011 13.659 9.9482C13.7614 9.9063 13.8544 9.84443 13.9327 9.76618C14.0109 9.68794 14.0728 9.5949 14.1147 9.49248C14.1566 9.39007 14.1777 9.28034 14.1767 9.16969C14.1758 9.05904 14.1528 8.94969 14.1091 8.84802C14.0654 8.74635 14.0019 8.65439 13.9223 8.57752C13.629 8.29752 13.3173 8.04335 12.9582 7.85085C13.1411 7.67659 13.3586 7.5426 13.5965 7.45752C13.7004 7.42296 13.7964 7.36827 13.8791 7.29659C13.9619 7.2249 14.0297 7.13762 14.0786 7.03972C14.1276 6.94183 14.1569 6.83524 14.1646 6.72605C14.1724 6.61686 14.1586 6.50721 14.124 6.40335Z" fill="#09244B"/>
</svg>
