<svg width="20" height="20" viewBox="0 0 20 20" fill="none" xmlns="http://www.w3.org/2000/svg">
<path fill-rule="evenodd" clip-rule="evenodd" d="M9.99984 1.66669C14.6023 1.66669 18.3332 5.39752 18.3332 10C18.3332 14.6025 14.6023 18.3334 9.99984 18.3334C5.39734 18.3334 1.6665 14.6025 1.6665 10C1.6665 5.39752 5.39734 1.66669 9.99984 1.66669ZM9.99984 3.33335C8.23173 3.33335 6.53603 4.03573 5.28579 5.28598C4.03555 6.53622 3.33317 8.23191 3.33317 10C3.33317 11.7681 4.03555 13.4638 5.28579 14.7141C6.53603 15.9643 8.23173 16.6667 9.99984 16.6667C11.7679 16.6667 13.4636 15.9643 14.7139 14.7141C15.9641 13.4638 16.6665 11.7681 16.6665 10C16.6665 8.23191 15.9641 6.53622 14.7139 5.28598C13.4636 4.03573 11.7679 3.33335 9.99984 3.33335ZM10.8332 13.3334C11.0542 13.3334 11.2661 13.4212 11.4224 13.5774C11.5787 13.7337 11.6665 13.9457 11.6665 14.1667C11.6665 14.3877 11.5787 14.5997 11.4224 14.7559C11.2661 14.9122 11.0542 15 10.8332 15H9.1665C8.94549 15 8.73353 14.9122 8.57725 14.7559C8.42097 14.5997 8.33317 14.3877 8.33317 14.1667C8.33317 13.9457 8.42097 13.7337 8.57725 13.5774C8.73353 13.4212 8.94549 13.3334 9.1665 13.3334H10.8332ZM7.08317 9.16669C7.24732 9.16669 7.40987 9.19902 7.56152 9.26184C7.71318 9.32466 7.85098 9.41673 7.96705 9.5328C8.08313 9.64888 8.1752 9.78668 8.23802 9.93833C8.30084 10.09 8.33317 10.2525 8.33317 10.4167C8.33317 10.5808 8.30084 10.7434 8.23802 10.895C8.1752 11.0467 8.08313 11.1845 7.96705 11.3006C7.85098 11.4166 7.71318 11.5087 7.56152 11.5715C7.40987 11.6344 7.24732 11.6667 7.08317 11.6667C6.75165 11.6667 6.43371 11.535 6.19929 11.3006C5.96487 11.0661 5.83317 10.7482 5.83317 10.4167C5.83317 10.0852 5.96487 9.76722 6.19929 9.5328C6.43371 9.29838 6.75165 9.16669 7.08317 9.16669ZM12.9165 9.16669C13.0807 9.16669 13.2432 9.19902 13.3949 9.26184C13.5465 9.32466 13.6843 9.41673 13.8004 9.5328C13.9165 9.64888 14.0085 9.78668 14.0714 9.93833C14.1342 10.09 14.1665 10.2525 14.1665 10.4167C14.1665 10.5808 14.1342 10.7434 14.0714 10.895C14.0085 11.0467 13.9165 11.1845 13.8004 11.3006C13.6843 11.4166 13.5465 11.5087 13.3949 11.5715C13.2432 11.6344 13.0807 11.6667 12.9165 11.6667C12.585 11.6667 12.267 11.535 12.0326 11.3006C11.7982 11.0661 11.6665 10.7482 11.6665 10.4167C11.6665 10.0852 11.7982 9.76722 12.0326 9.5328C12.267 9.29838 12.585 9.16669 12.9165 9.16669Z" fill="#09244B"/>
</svg>
