<svg width="20" height="20" viewBox="0 0 20 20" fill="none" xmlns="http://www.w3.org/2000/svg">
<path fill-rule="evenodd" clip-rule="evenodd" d="M9.99984 1.66669C14.6023 1.66669 18.3332 5.39752 18.3332 10C18.3332 14.6025 14.6023 18.3334 9.99984 18.3334C5.39734 18.3334 1.6665 14.6025 1.6665 10C1.6665 5.39752 5.39734 1.66669 9.99984 1.66669ZM9.99984 3.33335C8.23173 3.33335 6.53603 4.03573 5.28579 5.28598C4.03555 6.53622 3.33317 8.23191 3.33317 10C3.33317 11.7681 4.03555 13.4638 5.28579 14.7141C6.53603 15.9643 8.23173 16.6667 9.99984 16.6667C11.7679 16.6667 13.4636 15.9643 14.7139 14.7141C15.9641 13.4638 16.6665 11.7681 16.6665 10C16.6665 8.23191 15.9641 6.53622 14.7139 5.28598C13.4636 4.03573 11.7679 3.33335 9.99984 3.33335ZM10.8332 10C11.0542 10 11.2661 10.0878 11.4224 10.2441C11.5787 10.4004 11.6665 10.6123 11.6665 10.8334C11.6665 11.0544 11.5787 11.2663 11.4224 11.4226C11.2661 11.5789 11.0542 11.6667 10.8332 11.6667H9.1665C8.94549 11.6667 8.73353 11.5789 8.57725 11.4226C8.42097 11.2663 8.33317 11.0544 8.33317 10.8334C8.33317 10.6123 8.42097 10.4004 8.57725 10.2441C8.73353 10.0878 8.94549 10 9.1665 10H10.8332ZM7.08317 5.83335C7.41469 5.83335 7.73263 5.96505 7.96705 6.19947C8.20147 6.43389 8.33317 6.75183 8.33317 7.08335C8.33317 7.41487 8.20147 7.73282 7.96705 7.96724C7.73263 8.20166 7.41469 8.33335 7.08317 8.33335C6.75165 8.33335 6.43371 8.20166 6.19929 7.96724C5.96487 7.73282 5.83317 7.41487 5.83317 7.08335C5.83317 6.75183 5.96487 6.43389 6.19929 6.19947C6.43371 5.96505 6.75165 5.83335 7.08317 5.83335ZM12.9165 5.83335C13.248 5.83335 13.566 5.96505 13.8004 6.19947C14.0348 6.43389 14.1665 6.75183 14.1665 7.08335C14.1665 7.41487 14.0348 7.73282 13.8004 7.96724C13.566 8.20166 13.248 8.33335 12.9165 8.33335C12.585 8.33335 12.267 8.20166 12.0326 7.96724C11.7982 7.73282 11.6665 7.41487 11.6665 7.08335C11.6665 6.75183 11.7982 6.43389 12.0326 6.19947C12.267 5.96505 12.585 5.83335 12.9165 5.83335Z" fill="#09244B"/>
</svg>
