<svg width="20" height="20" viewBox="0 0 20 20" fill="none" xmlns="http://www.w3.org/2000/svg">
<path fill-rule="evenodd" clip-rule="evenodd" d="M9.99984 1.66663C11.8107 1.66663 13.4882 2.24496 14.8548 3.22663L15.0582 2.96329L15.1498 2.85246C15.233 2.75184 15.3374 2.67084 15.4555 2.61524C15.5737 2.55963 15.7026 2.5308 15.8332 2.5308C15.9637 2.5308 16.0927 2.55963 16.2108 2.61524C16.3289 2.67084 16.4333 2.75184 16.5165 2.85246L16.7215 3.10829L16.9507 3.41413L17.1257 3.66246C17.1565 3.70663 17.1865 3.75163 17.2173 3.79829L17.4048 4.08829L17.499 4.24163C17.8823 4.88079 18.3332 5.79329 18.3332 6.66663C18.3332 7.07163 18.2315 7.46913 18.0457 7.82329C18.2332 8.51829 18.3332 9.24829 18.3332 9.99996C18.3332 14.6025 14.6023 18.3333 9.99984 18.3333C5.39734 18.3333 1.6665 14.6025 1.6665 9.99996C1.6665 5.39746 5.39734 1.66663 9.99984 1.66663ZM9.99984 3.33329C8.64073 3.33357 7.31418 3.74924 6.19794 4.52459C5.0817 5.29995 4.22911 6.39794 3.75441 7.67145C3.2797 8.94496 3.20557 10.3331 3.54195 11.65C3.87833 12.9668 4.60914 14.1493 5.63646 15.0391C6.66377 15.929 7.93851 16.4835 9.28986 16.6286C10.6412 16.7736 12.0046 16.5021 13.1973 15.8505C14.3901 15.199 15.3551 14.1984 15.9633 12.9829C16.5714 11.7675 16.7935 10.3952 16.5998 9.04996C16.3518 9.12822 16.0932 9.16758 15.8332 9.16663C14.3165 9.16663 13.3332 7.90413 13.3332 6.66663C13.3332 6.15496 13.4865 5.64663 13.669 5.21163C13.7532 5.01163 13.8482 4.81579 13.9482 4.62829C12.8047 3.78491 11.4207 3.33096 9.99984 3.33329ZM9.99984 11.6666C10.2209 11.6666 10.4328 11.7544 10.5891 11.9107C10.7454 12.067 10.8332 12.2789 10.8332 12.5C10.8332 12.721 10.7454 12.9329 10.5891 13.0892C10.4328 13.2455 10.2209 13.3333 9.99984 13.3333H7.49984C7.27882 13.3333 7.06686 13.2455 6.91058 13.0892C6.7543 12.9329 6.6665 12.721 6.6665 12.5C6.6665 12.2789 6.7543 12.067 6.91058 11.9107C7.06686 11.7544 7.27882 11.6666 7.49984 11.6666H9.99984ZM7.49984 8.33329C7.72085 8.33329 7.93281 8.42109 8.08909 8.57737C8.24537 8.73365 8.33317 8.94561 8.33317 9.16663C8.33317 9.38764 8.24537 9.5996 8.08909 9.75588C7.93281 9.91216 7.72085 9.99996 7.49984 9.99996H4.99984C4.77882 9.99996 4.56686 9.91216 4.41058 9.75588C4.2543 9.5996 4.1665 9.38764 4.1665 9.16663C4.1665 8.94561 4.2543 8.73365 4.41058 8.57737C4.56686 8.42109 4.77882 8.33329 4.99984 8.33329H7.49984ZM12.4998 8.33329C12.7209 8.33329 12.9328 8.42109 13.0891 8.57737C13.2454 8.73365 13.3332 8.94561 13.3332 9.16663C13.3332 9.38764 13.2454 9.5996 13.0891 9.75588C12.9328 9.91216 12.7209 9.99996 12.4998 9.99996H9.99984C9.77882 9.99996 9.56686 9.91216 9.41058 9.75588C9.2543 9.5996 9.1665 9.38764 9.1665 9.16663C9.1665 8.94561 9.2543 8.73365 9.41058 8.57737C9.56686 8.42109 9.77882 8.33329 9.99984 8.33329H12.4998ZM15.8332 4.72579L15.7298 4.88413C15.528 5.19322 15.3527 5.51882 15.2057 5.85746C15.064 6.19413 14.9998 6.46829 14.9998 6.66663C14.9998 7.09579 15.3448 7.49996 15.8332 7.49996C15.9586 7.5022 16.0827 7.47494 16.1956 7.42037C16.3085 7.36579 16.407 7.28544 16.4832 7.18579C16.6032 7.03079 16.6665 6.84246 16.6665 6.66663C16.6665 6.28163 16.434 5.70829 16.069 5.09829C15.9907 4.96746 15.9107 4.84246 15.8332 4.72579Z" fill="#09244B"/>
</svg>
