<svg width="20" height="20" viewBox="0 0 20 20" fill="none" xmlns="http://www.w3.org/2000/svg">
<path d="M9.99984 1.66669C14.6023 1.66669 18.3332 5.39752 18.3332 10C18.3332 14.6025 14.6023 18.3334 9.99984 18.3334C5.39734 18.3334 1.6665 14.6025 1.6665 10C1.6665 5.39752 5.39734 1.66669 9.99984 1.66669ZM9.99984 3.33335C8.23173 3.33335 6.53603 4.03573 5.28579 5.28598C4.03555 6.53622 3.33317 8.23191 3.33317 10C3.33317 11.7681 4.03555 13.4638 5.28579 14.7141C6.53603 15.9643 8.23173 16.6667 9.99984 16.6667C11.7679 16.6667 13.4636 15.9643 14.7139 14.7141C15.9641 13.4638 16.6665 11.7681 16.6665 10C16.6665 8.23191 15.9641 6.53622 14.7139 5.28598C13.4636 4.03573 11.7679 3.33335 9.99984 3.33335ZM8.47317 12.8709C9.474 11.37 11.4815 10.3442 13.5357 10.8584C13.6434 10.8833 13.7452 10.9295 13.8349 10.9943C13.9246 11.059 14.0006 11.1409 14.0583 11.2353C14.1161 11.3297 14.1544 11.4346 14.1712 11.544C14.1879 11.6533 14.1827 11.7649 14.1559 11.8723C14.1291 11.9796 14.0811 12.0805 14.0149 12.1691C13.9486 12.2577 13.8654 12.3323 13.7701 12.3884C13.6747 12.4445 13.5691 12.481 13.4595 12.4959C13.3499 12.5108 13.2384 12.5037 13.1315 12.475C11.8523 12.155 10.5257 12.7967 9.85984 13.7959C9.73717 13.9797 9.54649 14.1074 9.32973 14.1507C9.11297 14.1939 8.88789 14.1493 8.704 14.0267C8.52012 13.904 8.3925 13.7133 8.34921 13.4966C8.30592 13.2798 8.35051 13.0547 8.47317 12.8709ZM7.9165 6.66669C8.24802 6.66669 8.56597 6.79838 8.80039 7.0328C9.03481 7.26722 9.1665 7.58517 9.1665 7.91669C9.1665 8.24821 9.03481 8.56615 8.80039 8.80057C8.56597 9.03499 8.24802 9.16669 7.9165 9.16669C7.58498 9.16669 7.26704 9.03499 7.03262 8.80057C6.7982 8.56615 6.6665 8.24821 6.6665 7.91669C6.6665 7.58517 6.7982 7.26722 7.03262 7.0328C7.26704 6.79838 7.58498 6.66669 7.9165 6.66669ZM12.9165 5.83335C13.248 5.83335 13.566 5.96505 13.8004 6.19947C14.0348 6.43389 14.1665 6.75183 14.1665 7.08335C14.1665 7.41487 14.0348 7.73282 13.8004 7.96724C13.566 8.20166 13.248 8.33335 12.9165 8.33335C12.585 8.33335 12.267 8.20166 12.0326 7.96724C11.7982 7.73282 11.6665 7.41487 11.6665 7.08335C11.6665 6.75183 11.7982 6.43389 12.0326 6.19947C12.267 5.96505 12.585 5.83335 12.9165 5.83335Z" fill="#09244B"/>
</svg>
