<svg width="20" height="20" viewBox="0 0 20 20" fill="none" xmlns="http://www.w3.org/2000/svg">
<path d="M9.99984 1.66669C14.6023 1.66669 18.3332 5.39752 18.3332 10C18.3332 14.6025 14.6023 18.3334 9.99984 18.3334C5.39734 18.3334 1.6665 14.6025 1.6665 10C1.6665 5.39752 5.39734 1.66669 9.99984 1.66669ZM9.99984 3.33335C8.23173 3.33335 6.53603 4.03573 5.28579 5.28598C4.03555 6.53622 3.33317 8.23191 3.33317 10C3.33317 11.7681 4.03555 13.4638 5.28579 14.7141C6.53603 15.9643 8.23173 16.6667 9.99984 16.6667C11.7679 16.6667 13.4636 15.9643 14.7139 14.7141C15.9641 13.4638 16.6665 11.7681 16.6665 10C16.6665 8.23191 15.9641 6.53622 14.7139 5.28598C13.4636 4.03573 11.7679 3.33335 9.99984 3.33335ZM12.639 10C13.4823 10 14.1665 10.6834 14.1665 11.5275V11.6667C14.1665 12.7718 13.7275 13.8316 12.9461 14.613C12.1647 15.3944 11.1049 15.8334 9.99984 15.8334C8.89477 15.8334 7.83496 15.3944 7.05356 14.613C6.27216 13.8316 5.83317 12.7718 5.83317 11.6667V11.5275C5.83317 10.6842 6.5165 10 7.36067 10H12.639ZM12.4998 11.6667H7.49984C7.49984 12.3297 7.76323 12.9656 8.23207 13.4345C8.70091 13.9033 9.3368 14.1667 9.99984 14.1667C10.6629 14.1667 11.2988 13.9033 11.7676 13.4345C12.2364 12.9656 12.4998 12.3297 12.4998 11.6667ZM7.49984 5.83335C7.70395 5.83338 7.90095 5.90832 8.05348 6.04395C8.20601 6.17958 8.30346 6.36648 8.32734 6.56919L8.33317 6.66669V8.33335C8.33293 8.54575 8.2516 8.75005 8.1058 8.90449C7.95999 9.05894 7.76071 9.15188 7.54867 9.16433C7.33664 9.17678 7.12785 9.10779 6.96498 8.97147C6.8021 8.83514 6.69742 8.64177 6.67234 8.43085L6.6665 8.33335V6.66669C6.6665 6.44567 6.7543 6.23371 6.91058 6.07743C7.06686 5.92115 7.27882 5.83335 7.49984 5.83335ZM11.9107 6.07752C12.0606 5.92806 12.2619 5.84129 12.4735 5.83483C12.6851 5.82837 12.8913 5.9027 13.0501 6.04273C13.2089 6.18276 13.3084 6.37798 13.3285 6.58875C13.3486 6.79952 13.2877 7.01003 13.1582 7.17752L13.089 7.25585L12.8448 7.50002L13.089 7.74419C13.2385 7.89415 13.3252 8.09538 13.3317 8.30701C13.3382 8.51863 13.2638 8.72478 13.1238 8.88359C12.9838 9.04239 12.7885 9.14194 12.5778 9.16202C12.367 9.1821 12.1565 9.1212 11.989 8.99169L11.9107 8.92252L11.0773 8.08919C10.9339 7.94569 10.8477 7.75478 10.8349 7.55225C10.8222 7.34973 10.8838 7.14952 11.0082 6.98919L11.0773 6.91085L11.9107 6.07752Z" fill="#09244B"/>
</svg>
