<svg width="20" height="20" viewBox="0 0 20 20" fill="none" xmlns="http://www.w3.org/2000/svg">
<path fill-rule="evenodd" clip-rule="evenodd" d="M4.16669 4.16668C4.16669 3.94566 4.25448 3.7337 4.41076 3.57742C4.56705 3.42114 4.77901 3.33334 5.00002 3.33334H15C15.221 3.33334 15.433 3.42114 15.5893 3.57742C15.7456 3.7337 15.8334 3.94566 15.8334 4.16668V5.83334C15.8334 6.05436 15.7456 6.26632 15.5893 6.4226C15.433 6.57888 15.221 6.66668 15 6.66668C14.779 6.66668 14.567 6.57888 14.4108 6.4226C14.2545 6.26632 14.1667 6.05436 14.1667 5.83334V5.00001H10.8334V15.8333H11.6667C11.8877 15.8333 12.0997 15.9211 12.2559 16.0774C12.4122 16.2337 12.5 16.4457 12.5 16.6667C12.5 16.8877 12.4122 17.0997 12.2559 17.2559C12.0997 17.4122 11.8877 17.5 11.6667 17.5H8.33335C8.11234 17.5 7.90038 17.4122 7.7441 17.2559C7.58782 17.0997 7.50002 16.8877 7.50002 16.6667C7.50002 16.4457 7.58782 16.2337 7.7441 16.0774C7.90038 15.9211 8.11234 15.8333 8.33335 15.8333H9.16669V5.00001H5.83335V5.83334C5.83335 6.05436 5.74556 6.26632 5.58928 6.4226C5.433 6.57888 5.22103 6.66668 5.00002 6.66668C4.77901 6.66668 4.56705 6.57888 4.41076 6.4226C4.25448 6.26632 4.16669 6.05436 4.16669 5.83334V4.16668Z" fill="#09244B"/>
</svg>
