<svg width="20" height="20" viewBox="0 0 20 20" fill="none" xmlns="http://www.w3.org/2000/svg">
<path d="M10.8333 2.5C11.0374 2.50003 11.2344 2.57496 11.387 2.7106C11.5395 2.84623 11.637 3.03312 11.6608 3.23583L11.6667 3.33333V16.6667C11.6664 16.8791 11.5851 17.0834 11.4393 17.2378C11.2935 17.3923 11.0942 17.4852 10.8822 17.4976C10.6701 17.5101 10.4614 17.4411 10.2985 17.3048C10.1356 17.1685 10.0309 16.9751 10.0058 16.7642L10 16.6667V10.8333H4.16667V16.6667C4.16643 16.8791 4.0851 17.0834 3.93929 17.2378C3.79349 17.3923 3.59421 17.4852 3.38217 17.4976C3.17014 17.5101 2.96135 17.4411 2.79847 17.3048C2.6356 17.1685 2.53092 16.9751 2.50583 16.7642L2.5 16.6667V3.33333C2.50024 3.12093 2.58157 2.91664 2.72737 2.76219C2.87318 2.60775 3.07246 2.5148 3.2845 2.50236C3.49653 2.48991 3.70532 2.5589 3.86819 2.69522C4.03107 2.83155 4.13575 3.02492 4.16083 3.23583L4.16667 3.33333V9.16667H10V3.33333C10 3.11232 10.0878 2.90036 10.2441 2.74408C10.4004 2.5878 10.6123 2.5 10.8333 2.5Z" fill="#09244B"/>
<path d="M17.4982 13.31L19.1982 15.76C19.4582 16.11 19.3482 16.58 19.0082 16.85C18.6982 17.1 18.1582 17.04 17.8982 16.66L16.5182 14.69L15.1382 16.66C14.8582 17.06 14.3482 17.12 14.0282 16.85C13.6982 16.58 13.5882 16.11 13.8482 15.76L15.5482 13.31L13.8482 10.86C13.5882 10.5 13.6782 10.01 14.0382 9.75C14.3882 9.5 14.8882 9.58 15.1382 9.94L16.5182 11.92L17.8982 9.94C18.1482 9.58 18.6482 9.5 18.9982 9.75C19.3582 10.01 19.4582 10.5 19.1982 10.86L17.4982 13.31Z" fill="black"/>
</svg>
