<svg width="20" height="20" viewBox="0 0 20 20" fill="none" xmlns="http://www.w3.org/2000/svg">
<path d="M10.8333 2.5C11.0374 2.50003 11.2344 2.57496 11.387 2.7106C11.5395 2.84623 11.637 3.03312 11.6608 3.23583L11.6667 3.33333V16.6667C11.6664 16.8791 11.5851 17.0834 11.4393 17.2378C11.2935 17.3923 11.0942 17.4852 10.8822 17.4976C10.6701 17.5101 10.4614 17.4411 10.2985 17.3048C10.1356 17.1685 10.0309 16.9751 10.0058 16.7642L10 16.6667V10.8333H4.16667V16.6667C4.16643 16.8791 4.0851 17.0834 3.93929 17.2378C3.79349 17.3923 3.59421 17.4852 3.38217 17.4976C3.17014 17.5101 2.96135 17.4411 2.79847 17.3048C2.6356 17.1685 2.53092 16.9751 2.50583 16.7642L2.5 16.6667V3.33333C2.50024 3.12093 2.58157 2.91664 2.72737 2.76219C2.87318 2.60775 3.07246 2.5148 3.2845 2.50236C3.49653 2.48991 3.70532 2.5589 3.86819 2.69522C4.03107 2.83155 4.13575 3.02492 4.16083 3.23583L4.16667 3.33333V9.16667H10V3.33333C10 3.11232 10.0878 2.90036 10.2441 2.74408C10.4004 2.5878 10.6123 2.5 10.8333 2.5Z" fill="#09244B"/>
<path d="M17.5831 15.39C18.0331 15.39 18.3931 15.75 18.3931 16.19C18.3931 16.64 18.0331 17 17.5831 17H14.4631C13.8531 17 13.3931 16.27 13.8331 15.72L16.4731 12.48C16.7831 12.1 16.7331 11.54 16.3431 11.22C15.9731 10.91 15.4031 10.97 15.0831 11.35C14.8231 11.67 14.3531 11.72 14.0231 11.46C13.7031 11.19 13.6531 10.71 13.9131 10.4C14.7631 9.37 16.2931 9.2 17.3131 10.06C18.3531 10.93 18.5331 12.37 17.6431 13.45L16.0531 15.39H17.5831Z" fill="black"/>
</svg>
