<svg width="20" height="20" viewBox="0 0 20 20" fill="none" xmlns="http://www.w3.org/2000/svg">
<path d="M10.8333 2.5C11.0374 2.50003 11.2344 2.57496 11.387 2.7106C11.5395 2.84623 11.637 3.03312 11.6608 3.23583L11.6667 3.33333V16.6667C11.6664 16.8791 11.5851 17.0834 11.4393 17.2378C11.2935 17.3923 11.0942 17.4852 10.8822 17.4976C10.6701 17.5101 10.4614 17.4411 10.2985 17.3048C10.1356 17.1685 10.0309 16.9751 10.0058 16.7642L10 16.6667V10.8333H4.16667V16.6667C4.16643 16.8791 4.0851 17.0834 3.93929 17.2378C3.79349 17.3923 3.59421 17.4852 3.38217 17.4976C3.17014 17.5101 2.96135 17.4411 2.79847 17.3048C2.6356 17.1685 2.53092 16.9751 2.50583 16.7642L2.5 16.6667V3.33333C2.50024 3.12093 2.58157 2.91664 2.72737 2.76219C2.87318 2.60775 3.07246 2.5148 3.2845 2.50236C3.49653 2.48991 3.70532 2.5589 3.86819 2.69522C4.03107 2.83155 4.13575 3.02492 4.16083 3.23583L4.16667 3.33333V9.16667H10V3.33333C10 3.11232 10.0878 2.90036 10.2441 2.74408C10.4004 2.5878 10.6123 2.5 10.8333 2.5Z" fill="#09244B"/>
<path d="M17.5163 12.85C17.9763 13.3 18.2663 13.92 18.2663 14.61C18.2663 15.96 17.1663 17.06 15.8163 17.06C14.9463 17.06 14.1363 16.6 13.6963 15.85C13.4763 15.47 13.6063 14.98 13.9763 14.76C14.3563 14.54 14.8463 14.66 15.0663 15.04C15.4963 15.77 16.6763 15.53 16.6763 14.61C16.6763 14.27 16.4663 13.97 16.1563 13.83C15.9563 13.74 15.7663 13.78 15.5763 13.72C15.2363 13.62 14.9963 13.3 14.9963 12.95C14.9963 12.54 15.2763 12.2 15.7063 12.17C16.0663 12.15 16.3063 12 16.3063 11.64C16.3063 11.23 15.8363 10.98 15.4963 11.22C15.1363 11.47 14.6363 11.38 14.3863 11.02C14.1363 10.66 14.2163 10.18 14.5763 9.92C15.8463 9 17.8963 9.79 17.8963 11.64C17.8963 12.09 17.7563 12.51 17.5163 12.85Z" fill="black"/>
</svg>
