<svg width="20" height="20" viewBox="0 0 20 20" fill="none" xmlns="http://www.w3.org/2000/svg">
<path d="M10.8333 2.5C11.0374 2.50003 11.2344 2.57496 11.387 2.7106C11.5395 2.84623 11.637 3.03312 11.6608 3.23583L11.6667 3.33333V16.6667C11.6664 16.8791 11.5851 17.0834 11.4393 17.2378C11.2935 17.3923 11.0942 17.4852 10.8822 17.4976C10.6701 17.5101 10.4614 17.4411 10.2985 17.3048C10.1356 17.1685 10.0309 16.9751 10.0058 16.7642L10 16.6667V10.8333H4.16667V16.6667C4.16643 16.8791 4.0851 17.0834 3.93929 17.2378C3.79349 17.3923 3.59421 17.4852 3.38217 17.4976C3.17014 17.5101 2.96135 17.4411 2.79847 17.3048C2.6356 17.1685 2.53092 16.9751 2.50583 16.7642L2.5 16.6667V3.33333C2.50024 3.12093 2.58157 2.91664 2.72737 2.76219C2.87318 2.60775 3.07246 2.5148 3.2845 2.50236C3.49653 2.48991 3.70532 2.5589 3.86819 2.69522C4.03107 2.83155 4.13575 3.02492 4.16083 3.23583L4.16667 3.33333V9.16667H10V3.33333C10 3.11232 10.0878 2.90036 10.2441 2.74408C10.4004 2.5878 10.6123 2.5 10.8333 2.5Z" fill="#09244B"/>
<path d="M15.8094 11.8C17.2594 11.8 18.4394 12.97 18.4394 14.43C18.4394 15.88 17.2594 17.06 15.8094 17.06C14.9894 17.06 14.2394 16.68 13.7294 16.04C13.4494 15.68 13.5194 15.19 13.8794 14.91C14.2294 14.65 14.7194 14.71 14.9894 15.06C15.5594 15.8 16.8494 15.44 16.8494 14.43C16.8494 13.86 16.3894 13.39 15.8094 13.39C15.5794 13.39 15.3694 13.47 15.1894 13.6C14.8294 13.88 14.3294 13.81 14.0694 13.46C13.9194 13.27 13.8794 13.03 13.9194 12.81L14.2894 10.28C14.3394 9.89 14.6894 9.6 15.0794 9.6H17.2994C17.7394 9.6 18.0894 9.96 18.0894 10.39C18.0894 10.84 17.7394 11.2 17.2994 11.2H15.7594L15.6694 11.8H15.8094Z" fill="black"/>
</svg>
