<svg width="20" height="20" viewBox="0 0 20 20" fill="none" xmlns="http://www.w3.org/2000/svg">
<path d="M12.0718 2.61914C12.2845 2.67897 12.4648 2.82081 12.5729 3.01349C12.6811 3.20618 12.7082 3.43392 12.6485 3.64664L8.95684 16.8033C8.92729 16.9087 8.87728 17.0072 8.80965 17.0933C8.74202 17.1793 8.65811 17.2512 8.56269 17.3049C8.46728 17.3585 8.36224 17.3928 8.25357 17.4058C8.1449 17.4189 8.03473 17.4104 7.92934 17.3808C7.82395 17.3513 7.72542 17.3012 7.63936 17.2336C7.55331 17.166 7.48141 17.0821 7.42779 16.9867C7.37416 16.8913 7.33985 16.7862 7.32682 16.6775C7.31379 16.5689 7.32229 16.4587 7.35184 16.3533L11.0435 3.19664C11.073 3.09116 11.1231 2.99253 11.1908 2.9064C11.2584 2.82027 11.3424 2.74833 11.4379 2.69469C11.5335 2.64105 11.6386 2.60677 11.7474 2.59381C11.8561 2.58084 11.9664 2.58945 12.0718 2.61914ZM6.00601 5.87497C6.16223 6.03125 6.25 6.24317 6.25 6.46414C6.25 6.68511 6.16223 6.89703 6.00601 7.05331L3.06017 9.99997L6.00601 12.9458C6.08343 13.0232 6.14486 13.115 6.18678 13.2162C6.22871 13.3173 6.2503 13.4256 6.25034 13.5351C6.25038 13.6446 6.22886 13.7529 6.18701 13.8541C6.14516 13.9552 6.08379 14.0471 6.00642 14.1246C5.92905 14.202 5.83719 14.2634 5.73608 14.3053C5.63497 14.3473 5.52659 14.3689 5.41713 14.3689C5.30768 14.3689 5.19928 14.3474 5.09814 14.3056C4.997 14.2637 4.9051 14.2023 4.82767 14.125L1.29184 10.5891C1.13561 10.4329 1.04785 10.2209 1.04785 9.99997C1.04785 9.779 1.13561 9.56708 1.29184 9.41081L4.82767 5.87497C4.98395 5.71875 5.19587 5.63099 5.41684 5.63099C5.63781 5.63099 5.84973 5.71875 6.00601 5.87497ZM13.9943 7.05331C13.9147 6.97643 13.8513 6.88448 13.8076 6.78281C13.7639 6.68114 13.7409 6.57179 13.74 6.46114C13.739 6.35049 13.7601 6.24076 13.802 6.13835C13.8439 6.03593 13.9058 5.94289 13.984 5.86464C14.0623 5.7864 14.1553 5.72452 14.2577 5.68262C14.3601 5.64072 14.4699 5.61964 14.5805 5.6206C14.6912 5.62156 14.8005 5.64455 14.9022 5.68822C15.0038 5.7319 15.0958 5.79538 15.1727 5.87497L18.7085 9.41081C18.8647 9.56708 18.9525 9.779 18.9525 9.99997C18.9525 10.2209 18.8647 10.4329 18.7085 10.5891L15.1727 14.125C15.0163 14.2812 14.8043 14.369 14.5832 14.3689C14.3622 14.3688 14.1502 14.2809 13.9939 14.1246C13.8377 13.9682 13.7499 13.7562 13.75 13.5351C13.7501 13.314 13.838 13.1021 13.9943 12.9458L16.9402 9.99997L13.9943 7.05331Z" fill="#09244B"/>
</svg>
