<svg width="20" height="20" viewBox="0 0 20 20" fill="none" xmlns="http://www.w3.org/2000/svg">
<g clip-path="url(#clip0_44_563)">
<path fill-rule="evenodd" clip-rule="evenodd" d="M2.5 4.16667C2.5 3.72464 2.67559 3.30072 2.98816 2.98816C3.30072 2.67559 3.72464 2.5 4.16667 2.5H9.16667V9.16667H2.5V4.16667ZM9.16667 10.8333H2.5V15.8333C2.5 16.2754 2.67559 16.6993 2.98816 17.0118C3.30072 17.3244 3.72464 17.5 4.16667 17.5H9.16667V10.8333ZM10.8333 17.5H15.8333C16.2754 17.5 16.6993 17.3244 17.0118 17.0118C17.3244 16.6993 17.5 16.2754 17.5 15.8333V10.8333H10.8333V17.5ZM10.8333 9.16667V2.5H15.8333C16.2754 2.5 16.6993 2.67559 17.0118 2.98816C17.3244 3.30072 17.5 3.72464 17.5 4.16667V9.16667H10.8333Z" fill="#09244B"/>
</g>
<defs>
<clipPath id="clip0_44_563">
<rect width="20" height="20" fill="white"/>
</clipPath>
</defs>
</svg>
