<svg width="20" height="20" viewBox="0 0 20 20" fill="none" xmlns="http://www.w3.org/2000/svg">
<g clip-path="url(#clip0_44_529)">
<path d="M12.3278 2.5C12.6165 2.50019 12.8962 2.6003 13.1195 2.78333L13.2112 2.86667L14.5128 4.16667H16.667C17.0875 4.16653 17.4925 4.32534 17.8008 4.61125C18.1091 4.89716 18.298 5.28904 18.3295 5.70833L18.3337 5.83333V15.8333C18.3338 16.2538 18.175 16.6588 17.8891 16.9671C17.6032 17.2754 17.2113 17.4643 16.792 17.4958L16.667 17.5H3.33366C2.91318 17.5001 2.50819 17.3413 2.19987 17.0554C1.89155 16.7695 1.7027 16.3776 1.67116 15.9583L1.66699 15.8333V5.83333C1.66686 5.41285 1.82566 5.00786 2.11157 4.69954C2.39748 4.39123 2.78936 4.20237 3.20866 4.17083L3.33366 4.16667H5.48866L6.78866 2.86667C6.99291 2.66202 7.26178 2.5345 7.54949 2.50583L7.67283 2.5H12.3278ZM10.0003 6.25C8.89526 6.25 7.83545 6.68899 7.05405 7.47039C6.27265 8.25179 5.83366 9.3116 5.83366 10.4167C5.83366 11.5217 6.27265 12.5815 7.05405 13.3629C7.83545 14.1443 8.89526 14.5833 10.0003 14.5833C11.1054 14.5833 12.1652 14.1443 12.9466 13.3629C13.728 12.5815 14.167 11.5217 14.167 10.4167C14.167 9.3116 13.728 8.25179 12.9466 7.47039C12.1652 6.68899 11.1054 6.25 10.0003 6.25ZM10.0003 7.91667C10.3286 7.91667 10.6537 7.98133 10.957 8.10697C11.2603 8.2326 11.5359 8.41675 11.7681 8.6489C12.0002 8.88105 12.1844 9.15664 12.31 9.45996C12.4357 9.76327 12.5003 10.0884 12.5003 10.4167C12.5003 10.745 12.4357 11.0701 12.31 11.3734C12.1844 11.6767 12.0002 11.9523 11.7681 12.1844C11.5359 12.4166 11.2603 12.6007 10.957 12.7264C10.6537 12.852 10.3286 12.9167 10.0003 12.9167C9.33728 12.9167 8.7014 12.6533 8.23256 12.1844C7.76372 11.7156 7.50033 11.0797 7.50033 10.4167C7.50033 9.75363 7.76372 9.11774 8.23256 8.6489C8.7014 8.18006 9.33728 7.91667 10.0003 7.91667Z" fill="#09244B"/>
</g>
<defs>
<clipPath id="clip0_44_529">
<rect width="20" height="20" fill="white"/>
</clipPath>
</defs>
</svg>
