<svg width="20" height="20" viewBox="0 0 20 20" fill="none" xmlns="http://www.w3.org/2000/svg">
<path d="M7.49967 3.33333C7.49967 3.11232 7.58747 2.90036 7.74375 2.74408C7.90003 2.5878 8.11199 2.5 8.33301 2.5H13.333C13.554 2.5 13.766 2.5878 13.9223 2.74408C14.0785 2.90036 14.1663 3.11232 14.1663 3.33333C14.1663 3.55435 14.0785 3.76631 13.9223 3.92259C13.766 4.07887 13.554 4.16667 13.333 4.16667H11.5688L10.1105 15.8333H11.6663C11.8874 15.8333 12.0993 15.9211 12.2556 16.0774C12.4119 16.2337 12.4997 16.4457 12.4997 16.6667C12.4997 16.8877 12.4119 17.0996 12.2556 17.2559C12.0993 17.4122 11.8874 17.5 11.6663 17.5H6.66634C6.44533 17.5 6.23337 17.4122 6.07709 17.2559C5.92081 17.0996 5.83301 16.8877 5.83301 16.6667C5.83301 16.4457 5.92081 16.2337 6.07709 16.0774C6.23337 15.9211 6.44533 15.8333 6.66634 15.8333H8.43051L9.88884 4.16667H8.33301C8.11199 4.16667 7.90003 4.07887 7.74375 3.92259C7.58747 3.76631 7.49967 3.55435 7.49967 3.33333Z" fill="#09244B"/>
</svg>
