<svg width="20" height="20" viewBox="0 0 20 20" fill="none" xmlns="http://www.w3.org/2000/svg">
<path d="M13.5361 8.2316C13.6796 8.08812 13.8705 8.00193 14.0731 7.98919C14.2756 7.97646 14.4758 8.03806 14.6361 8.16243L14.7145 8.2316L16.482 9.99993C17.3279 10.8468 17.8089 11.991 17.8223 13.1879C17.8357 14.3848 17.3803 15.5394 16.5535 16.4049C15.7267 17.2705 14.5941 17.7782 13.3979 17.8196C12.2016 17.8611 11.0366 17.4329 10.152 16.6266L10.0003 16.4816L8.23279 14.7141C8.08175 14.5645 7.9936 14.3628 7.98639 14.1503C7.97918 13.9378 8.05345 13.7306 8.19401 13.5711C8.33457 13.4116 8.53078 13.3118 8.74248 13.2923C8.95418 13.2727 9.16536 13.3347 9.33279 13.4658L9.41112 13.5349L11.1786 15.3033C11.7151 15.84 12.4395 16.1464 13.1983 16.1577C13.957 16.1689 14.6902 15.884 15.2423 15.3635C15.7945 14.8429 16.122 14.1277 16.1553 13.3696C16.1887 12.6116 15.9253 11.8703 15.4211 11.3033L15.3036 11.1783L13.5361 9.41077C13.4586 9.33337 13.3972 9.24147 13.3552 9.1403C13.3133 9.03914 13.2917 8.9307 13.2917 8.82118C13.2917 8.71167 13.3133 8.60323 13.3552 8.50207C13.3972 8.4009 13.4586 8.30899 13.5361 8.2316ZM7.64196 7.64243C7.78545 7.49895 7.97637 7.41276 8.17889 7.40003C8.38141 7.38729 8.58162 7.44889 8.74196 7.57327L8.82112 7.64243L12.3561 11.1783C12.5056 11.3282 12.5924 11.5295 12.5988 11.7411C12.6053 11.9527 12.5309 12.1589 12.3909 12.3177C12.2509 12.4765 12.0557 12.576 11.8449 12.5961C11.6341 12.6162 11.4236 12.5553 11.2561 12.4258L11.1778 12.3566L7.64196 8.8216C7.56448 8.74421 7.50301 8.6523 7.46107 8.55113C7.41914 8.44997 7.39755 8.34153 7.39755 8.23202C7.39755 8.1225 7.41914 8.01406 7.46107 7.9129C7.50301 7.81173 7.56448 7.71983 7.64196 7.64243ZM3.51696 3.51743C4.35095 2.68346 5.47435 2.20309 6.65347 2.17624C7.8326 2.14939 8.9767 2.57812 9.84779 3.37327L9.99946 3.51827L11.767 5.28493C11.918 5.43455 12.0062 5.63624 12.0134 5.84872C12.0206 6.0612 11.9463 6.26841 11.8057 6.42792C11.6652 6.58743 11.469 6.68718 11.2573 6.70677C11.0456 6.72635 10.8344 6.66428 10.667 6.53327L10.5886 6.4641L8.82112 4.6966C8.28469 4.15992 7.56021 3.85342 6.80148 3.84218C6.04275 3.83093 5.30951 4.11582 4.7574 4.63637C4.2053 5.15692 3.87779 5.87214 3.84441 6.63022C3.81103 7.3883 4.07441 8.12954 4.57862 8.6966L4.69612 8.8216L6.46362 10.5883C6.61467 10.7379 6.70282 10.9396 6.71003 11.1521C6.71724 11.3645 6.64296 11.5717 6.5024 11.7313C6.36185 11.8908 6.16564 11.9905 5.95394 12.0101C5.74224 12.0297 5.53106 11.9676 5.36362 11.8366L5.28529 11.7674L3.51862 9.99993C2.65913 9.1404 2.17627 7.97464 2.17627 6.7591C2.17627 5.54356 2.65913 4.3778 3.51862 3.51827L3.51696 3.51743Z" fill="#09244B"/>
</svg>
