<svg width="20" height="20" viewBox="0 0 20 20" fill="none" xmlns="http://www.w3.org/2000/svg">
<path d="M10 2.5C10.64 2.5 11.225 2.74084 11.6667 3.13667C12.1246 2.72594 12.7182 2.49915 13.3333 2.5H14.1667C14.3877 2.5 14.5996 2.5878 14.7559 2.74408C14.9122 2.90036 15 3.11232 15 3.33334C15 3.55435 14.9122 3.76631 14.7559 3.92259C14.5996 4.07887 14.3877 4.16667 14.1667 4.16667H13.3333C13.1123 4.16667 12.9004 4.25447 12.7441 4.41075C12.5878 4.56703 12.5 4.77899 12.5 5V15C12.5 15.221 12.5878 15.433 12.7441 15.5893C12.9004 15.7455 13.1123 15.8333 13.3333 15.8333H14.1667C14.3877 15.8333 14.5996 15.9211 14.7559 16.0774C14.9122 16.2337 15 16.4457 15 16.6667C15 16.8877 14.9122 17.0996 14.7559 17.2559C14.5996 17.4122 14.3877 17.5 14.1667 17.5H13.3333C12.6933 17.5 12.1083 17.2592 11.6667 16.8633C11.2088 17.2741 10.6151 17.5009 10 17.5H9.16667C8.94565 17.5 8.73369 17.4122 8.57741 17.2559C8.42113 17.0996 8.33333 16.8877 8.33333 16.6667C8.33333 16.4457 8.42113 16.2337 8.57741 16.0774C8.73369 15.9211 8.94565 15.8333 9.16667 15.8333H10C10.221 15.8333 10.433 15.7455 10.5893 15.5893C10.7455 15.433 10.8333 15.221 10.8333 15V5C10.8333 4.77899 10.7455 4.56703 10.5893 4.41075C10.433 4.25447 10.221 4.16667 10 4.16667H9.16667C8.94565 4.16667 8.73369 4.07887 8.57741 3.92259C8.42113 3.76631 8.33333 3.55435 8.33333 3.33334C8.33333 3.11232 8.42113 2.90036 8.57741 2.74408C8.73369 2.5878 8.94565 2.5 9.16667 2.5H10ZM10 5.83334V14.1667H4.16667C3.74619 14.1668 3.34119 14.008 3.03288 13.7221C2.72456 13.4362 2.5357 13.0443 2.50417 12.625L2.5 12.5V7.5C2.49987 7.07952 2.65867 6.67453 2.94458 6.36621C3.23049 6.05789 3.62237 5.86904 4.04167 5.8375L4.16667 5.83334H10ZM15.8333 5.83334C16.2538 5.8332 16.6588 5.99201 16.9671 6.27792C17.2754 6.56383 17.4643 6.95571 17.4958 7.375L17.5 7.5V12.5C17.5001 12.9205 17.3413 13.3255 17.0554 13.6338C16.7695 13.9421 16.3776 14.131 15.9583 14.1625L15.8333 14.1667H13.3333V5.83334H15.8333Z" fill="#09244B"/>
</svg>
