<svg width="20" height="20" viewBox="0 0 20 20" fill="none" xmlns="http://www.w3.org/2000/svg">
<path d="M16.6667 14.9999C16.8791 15.0002 17.0834 15.0815 17.2378 15.2273C17.3923 15.3731 17.4852 15.5724 17.4976 15.7844C17.5101 15.9964 17.4411 16.2052 17.3048 16.3681C17.1685 16.531 16.9751 16.6357 16.7642 16.6608L16.6667 16.6666H3.33333C3.12093 16.6663 2.91664 16.585 2.76219 16.4392C2.60775 16.2934 2.5148 16.0941 2.50236 15.8821C2.48991 15.6701 2.5589 15.4613 2.69522 15.2984C2.83155 15.1355 3.02492 15.0308 3.23583 15.0058L3.33333 14.9999H16.6667ZM16.6667 9.16659C16.8877 9.16659 17.0996 9.25438 17.2559 9.41066C17.4122 9.56694 17.5 9.7789 17.5 9.99992C17.5 10.2209 17.4122 10.4329 17.2559 10.5892C17.0996 10.7455 16.8877 10.8333 16.6667 10.8333H3.33333C3.11232 10.8333 2.90036 10.7455 2.74408 10.5892C2.5878 10.4329 2.5 10.2209 2.5 9.99992C2.5 9.7789 2.5878 9.56694 2.74408 9.41066C2.90036 9.25438 3.11232 9.16659 3.33333 9.16659H16.6667ZM16.6667 3.33325C16.8877 3.33325 17.0996 3.42105 17.2559 3.57733C17.4122 3.73361 17.5 3.94557 17.5 4.16659C17.5 4.3876 17.4122 4.59956 17.2559 4.75584C17.0996 4.91212 16.8877 4.99992 16.6667 4.99992H3.33333C3.11232 4.99992 2.90036 4.91212 2.74408 4.75584C2.5878 4.59956 2.5 4.3876 2.5 4.16659C2.5 3.94557 2.5878 3.73361 2.74408 3.57733C2.90036 3.42105 3.11232 3.33325 3.33333 3.33325H16.6667Z" fill="#09244B"/>
</svg>
