<svg width="20" height="20" viewBox="0 0 20 20" fill="none" xmlns="http://www.w3.org/2000/svg">
<path d="M4.16667 8.33337C4.60869 8.33337 5.03262 8.50897 5.34518 8.82153C5.65774 9.13409 5.83333 9.55801 5.83333 10C5.83333 10.4421 5.65774 10.866 5.34518 11.1786C5.03262 11.4911 4.60869 11.6667 4.16667 11.6667C3.72464 11.6667 3.30072 11.4911 2.98816 11.1786C2.67559 10.866 2.5 10.4421 2.5 10C2.5 9.55801 2.67559 9.13409 2.98816 8.82153C3.30072 8.50897 3.72464 8.33337 4.16667 8.33337ZM10 8.33337C10.442 8.33337 10.866 8.50897 11.1785 8.82153C11.4911 9.13409 11.6667 9.55801 11.6667 10C11.6667 10.4421 11.4911 10.866 11.1785 11.1786C10.866 11.4911 10.442 11.6667 10 11.6667C9.55797 11.6667 9.13405 11.4911 8.82149 11.1786C8.50893 10.866 8.33333 10.4421 8.33333 10C8.33333 9.55801 8.50893 9.13409 8.82149 8.82153C9.13405 8.50897 9.55797 8.33337 10 8.33337ZM15.8333 8.33337C16.2754 8.33337 16.6993 8.50897 17.0118 8.82153C17.3244 9.13409 17.5 9.55801 17.5 10C17.5 10.4421 17.3244 10.866 17.0118 11.1786C16.6993 11.4911 16.2754 11.6667 15.8333 11.6667C15.3913 11.6667 14.9674 11.4911 14.6548 11.1786C14.3423 10.866 14.1667 10.4421 14.1667 10C14.1667 9.55801 14.3423 9.13409 14.6548 8.82153C14.9674 8.50897 15.3913 8.33337 15.8333 8.33337Z" fill="#09244B"/>
</svg>
