<svg width="20" height="20" viewBox="0 0 20 20" fill="none" xmlns="http://www.w3.org/2000/svg">
<path d="M7.05336 5.58918C6.89714 5.4329 6.80937 5.22098 6.80937 5.00001C6.80937 4.77904 6.89714 4.56712 7.05336 4.41084L9.3517 2.11251C9.43682 2.02734 9.53789 1.95978 9.64914 1.91369C9.76038 1.8676 9.87962 1.84387 10 1.84387C10.1204 1.84387 10.2397 1.8676 10.3509 1.91369C10.4622 1.95978 10.5632 2.02734 10.6484 2.11251L12.9459 4.41084C13.0255 4.48772 13.0889 4.57967 13.1326 4.68134C13.1763 4.78301 13.1993 4.89236 13.2002 5.00301C13.2012 5.11366 13.1801 5.22339 13.1382 5.3258C13.0963 5.42822 13.0344 5.52126 12.9562 5.59951C12.8779 5.67775 12.7849 5.73963 12.6825 5.78153C12.5801 5.82343 12.4703 5.84451 12.3597 5.84355C12.249 5.84259 12.1397 5.8196 12.038 5.77593C11.9364 5.73225 11.8444 5.66877 11.7675 5.58918L10.8334 4.65501V9.16668H15.345L14.4109 8.23251C14.2545 8.07625 14.1666 7.86428 14.1665 7.64322C14.1665 7.42216 14.2542 7.21013 14.4104 7.05376C14.5667 6.89739 14.7787 6.8095 14.9997 6.80942C15.2208 6.80935 15.4328 6.89709 15.5892 7.05334L17.8875 9.35168C17.9727 9.4368 18.0403 9.53787 18.0863 9.64912C18.1324 9.76036 18.1562 9.87959 18.1562 10C18.1562 10.1204 18.1324 10.2397 18.0863 10.3509C18.0403 10.4621 17.9727 10.5632 17.8875 10.6483L15.5892 12.9467C15.4328 13.1029 15.2208 13.1907 14.9997 13.1906C14.7787 13.1905 14.5667 13.1026 14.4104 12.9463C14.2542 12.7899 14.1665 12.5779 14.1665 12.3568C14.1666 12.1357 14.2545 11.9238 14.4109 11.7675L15.345 10.8333H10.8334V15.345L11.7675 14.4108C11.9247 14.259 12.1352 14.175 12.3537 14.1769C12.5722 14.1788 12.7812 14.2665 12.9357 14.421C13.0902 14.5755 13.1779 14.7845 13.1798 15.003C13.1817 15.2215 13.0977 15.432 12.9459 15.5892L10.6484 17.8875C10.5632 17.9727 10.4622 18.0402 10.3509 18.0863C10.2397 18.1324 10.1204 18.1561 10 18.1561C9.87962 18.1561 9.76038 18.1324 9.64914 18.0863C9.53789 18.0402 9.43682 17.9727 9.3517 17.8875L7.05336 15.5892C6.97599 15.5118 6.91463 15.4198 6.87278 15.3187C6.83093 15.2176 6.80941 15.1092 6.80944 14.9997C6.80948 14.8903 6.83108 14.7819 6.873 14.6808C6.91493 14.5797 6.97636 14.4878 7.05378 14.4104C7.13121 14.3331 7.22311 14.2717 7.32425 14.2298C7.42539 14.188 7.53379 14.1665 7.64324 14.1665C7.7527 14.1665 7.86108 14.1881 7.96219 14.2301C8.0633 14.272 8.15516 14.3334 8.23253 14.4108L9.16586 15.345V10.8333H4.65586L5.59003 11.7675C5.66746 11.8449 5.72888 11.9367 5.77081 12.0379C5.81273 12.139 5.83433 12.2473 5.83437 12.3568C5.8344 12.4663 5.81288 12.5746 5.77103 12.6758C5.72918 12.7769 5.66782 12.8688 5.59045 12.9463C5.51308 13.0237 5.42121 13.0851 5.3201 13.127C5.21899 13.169 5.11062 13.1906 5.00116 13.1906C4.8917 13.1906 4.78331 13.1691 4.68217 13.1273C4.58103 13.0854 4.48912 13.024 4.4117 12.9467L2.11336 10.6483C2.0282 10.5632 1.96064 10.4621 1.91454 10.3509C1.86845 10.2397 1.84473 10.1204 1.84473 10C1.84473 9.87959 1.86845 9.76036 1.91454 9.64912C1.96064 9.53787 2.0282 9.4368 2.11336 9.35168L4.4117 7.05334C4.56818 6.8972 4.78027 6.80961 5.00133 6.80984C5.22239 6.81008 5.4343 6.89811 5.59045 7.05459C5.74659 7.21107 5.83418 7.42317 5.83395 7.64423C5.83371 7.86528 5.74567 8.0772 5.5892 8.23334L4.65503 9.16668H9.1667V4.65584L8.23253 5.58918C8.15514 5.66666 8.06323 5.72812 7.96206 5.77006C7.8609 5.812 7.75246 5.83358 7.64295 5.83358C7.53343 5.83358 7.425 5.812 7.32383 5.77006C7.22267 5.72812 7.13076 5.66666 7.05336 5.58918Z" fill="#09244B"/>
</svg>
