<svg width="24" height="24" viewBox="0 0 24 24" fill="none" xmlns="http://www.w3.org/2000/svg">
<path d="M17.954 11.677C17.1164 10.2621 15.8371 9.1616 14.3129 8.54493C12.7887 7.92825 11.104 7.82955 9.51824 8.26402C7.93244 8.69848 6.53336 9.64203 5.53629 10.9495C4.53923 12.2569 3.99944 13.8558 4 15.5C4 15.7652 3.89464 16.0196 3.70711 16.2071C3.51957 16.3946 3.26522 16.5 3 16.5C2.73478 16.5 2.48043 16.3946 2.29289 16.2071C2.10536 16.0196 2 15.7652 2 15.5C1.99987 13.4887 2.63807 11.5293 3.8227 9.90394C5.00732 8.27856 6.67724 7.07109 8.59196 6.45542C10.5067 5.83976 12.5674 5.84766 14.4773 6.478C16.3873 7.10834 18.0479 8.32858 19.22 9.963L19.757 6.918C19.7798 6.78865 19.8278 6.66505 19.8984 6.55426C19.9689 6.44348 20.0606 6.34767 20.1682 6.27232C20.2758 6.19696 20.3971 6.14354 20.5254 6.11508C20.6536 6.08663 20.7861 6.08372 20.9155 6.1065C21.0449 6.12929 21.1684 6.17732 21.2792 6.24788C21.39 6.31843 21.4858 6.41011 21.5612 6.51768C21.6365 6.62526 21.69 6.74663 21.7184 6.87485C21.7469 7.00308 21.7498 7.13565 21.727 7.265L20.685 13.174C20.6386 13.4351 20.4904 13.6671 20.273 13.819C20.1313 13.914 19.9695 13.9748 19.8002 13.9965C19.631 14.0182 19.4591 14.0002 19.298 13.944L13.618 12.943C13.3568 12.897 13.1245 12.7491 12.9723 12.5318C12.8201 12.3146 12.7605 12.0457 12.8065 11.7845C12.8525 11.5233 13.0004 11.291 13.2177 11.1388C13.4349 10.9866 13.7038 10.927 13.965 10.973L17.954 11.677Z" fill="#09244B"/>
</svg>
