<svg width="20" height="20" viewBox="0 0 20 20" fill="none" xmlns="http://www.w3.org/2000/svg">
<path fill-rule="evenodd" clip-rule="evenodd" d="M10.0002 1.66669V7.08335C10.0002 7.41487 10.1319 7.73282 10.3663 7.96724C10.6007 8.20166 10.9186 8.33335 11.2502 8.33335H16.6668V16.6667C16.6668 17.1087 16.4912 17.5326 16.1787 17.8452C15.8661 18.1578 15.4422 18.3334 15.0002 18.3334H5.00016C4.55814 18.3334 4.13421 18.1578 3.82165 17.8452C3.50909 17.5326 3.3335 17.1087 3.3335 16.6667V3.33335C3.3335 2.89133 3.50909 2.4674 3.82165 2.15484C4.13421 1.84228 4.55814 1.66669 5.00016 1.66669H10.0002ZM9.176 9.87335C8.97636 11.1425 8.31265 12.2924 7.3135 13.1C6.57433 13.6967 7.25016 14.8675 8.13683 14.5267C9.33589 14.0651 10.6636 14.0651 11.8627 14.5267C12.7493 14.8684 13.4252 13.6975 12.686 13.1C11.6869 12.2923 11.0232 11.1425 10.8235 9.87335C10.676 8.93502 9.3235 8.93419 9.176 9.87335ZM10.0002 11.9192L10.6718 13.0809H9.33016L10.0002 11.9192ZM11.6668 1.70252C11.9826 1.76948 12.2721 1.92668 12.5002 2.15502L16.1785 5.83335C16.4068 6.06146 16.564 6.35095 16.631 6.66669H11.6668V1.70252Z" fill="#09244B"/>
</svg>
