<svg width="20" height="20" viewBox="0 0 20 20" fill="none" xmlns="http://www.w3.org/2000/svg">
<path fill-rule="evenodd" clip-rule="evenodd" d="M16.7761 2.63333C16.3073 2.16466 15.6715 1.90137 15.0086 1.90137C14.3457 1.90137 13.7099 2.16466 13.2411 2.63333L12.6519 3.22333L16.7769 7.34833L17.3653 6.75917C17.5975 6.52702 17.7816 6.2514 17.9073 5.94806C18.033 5.64472 18.0976 5.31959 18.0976 4.99125C18.0976 4.66291 18.033 4.33779 17.9073 4.03444C17.7816 3.7311 17.5975 3.45549 17.3653 3.22333L16.7761 2.63333ZM15.5978 8.52667L11.4728 4.40167L3.89777 11.9775C3.732 12.1433 3.6162 12.3524 3.5636 12.5808L2.7061 16.2933C2.67415 16.4312 2.67781 16.5748 2.71675 16.7109C2.75568 16.8469 2.82861 16.9707 2.92865 17.0708C3.02869 17.1708 3.15255 17.2437 3.28857 17.2827C3.42459 17.3216 3.56827 17.3253 3.7061 17.2933L7.41943 16.4367C7.6476 16.3839 7.85637 16.2681 8.02193 16.1025L15.5978 8.52667Z" fill="#09244B"/>
</svg>
