<svg width="20" height="20" viewBox="0 0 20 20" fill="none" xmlns="http://www.w3.org/2000/svg">
<path fill-rule="evenodd" clip-rule="evenodd" d="M15.8333 2.5C16.2754 2.5 16.6993 2.67559 17.0118 2.98816C17.3244 3.30072 17.5 3.72464 17.5 4.16667V15.8333C17.5 16.2754 17.3244 16.6993 17.0118 17.0118C16.6993 17.3244 16.2754 17.5 15.8333 17.5H4.16667C3.72464 17.5 3.30072 17.3244 2.98816 17.0118C2.67559 16.6993 2.5 16.2754 2.5 15.8333V4.16667C2.5 3.72464 2.67559 3.30072 2.98816 2.98816C3.30072 2.67559 3.72464 2.5 4.16667 2.5H15.8333ZM13.3333 11.6667H11.6667C11.4457 11.6667 11.2337 11.7545 11.0774 11.9107C10.9211 12.067 10.8333 12.279 10.8333 12.5C10.8333 12.721 10.9211 12.933 11.0774 13.0893C11.2337 13.2455 11.4457 13.3333 11.6667 13.3333H13.3333C13.5543 13.3333 13.7663 13.2455 13.9226 13.0893C14.0789 12.933 14.1667 12.721 14.1667 12.5C14.1667 12.279 14.0789 12.067 13.9226 11.9107C13.7663 11.7545 13.5543 11.6667 13.3333 11.6667ZM7.54167 7.05417C7.3917 6.90471 7.19047 6.81794 6.97885 6.81148C6.76722 6.80501 6.56107 6.87935 6.40227 7.01937C6.24346 7.1594 6.14391 7.35463 6.12383 7.5654C6.10376 7.77616 6.16466 7.98667 6.29417 8.15417L6.36333 8.2325L8.13083 10L6.36417 11.7675C6.21312 11.9171 6.12497 12.1188 6.11776 12.3313C6.11055 12.5438 6.18483 12.751 6.32539 12.9105C6.46595 13.07 6.66215 13.1698 6.87385 13.1893C7.08555 13.2089 7.29673 13.1469 7.46417 13.0158L7.54167 12.9467L9.89917 10.5892C10.0426 10.4457 10.1288 10.2548 10.1416 10.0522C10.1543 9.84971 10.0927 9.6495 9.96833 9.48917L9.89917 9.41083L7.54167 7.05417Z" fill="#09244B"/>
</svg>
