<svg width="20" height="20" viewBox="0 0 20 20" fill="none" xmlns="http://www.w3.org/2000/svg">
<g clip-path="url(#clip0_816_359)">
<path fill-rule="evenodd" clip-rule="evenodd" d="M8.74972 1.66675C7.62022 1.66684 6.50711 1.93705 5.50327 2.45483C4.49943 2.9726 3.63397 3.72293 2.97909 4.64321C2.32421 5.56349 1.8989 6.62704 1.73865 7.74512C1.5784 8.8632 1.68785 10.0034 2.05787 11.0706C2.4279 12.1377 3.04776 13.101 3.86575 13.8799C4.68375 14.6587 5.67614 15.2307 6.76015 15.5481C7.84416 15.8654 8.98834 15.919 10.0972 15.7042C11.2061 15.4894 12.2476 15.0126 13.1347 14.3134L16.1781 17.3567C16.3352 17.5085 16.5457 17.5925 16.7642 17.5906C16.9827 17.5887 17.1917 17.5011 17.3462 17.3466C17.5007 17.1921 17.5884 16.9831 17.5903 16.7646C17.5922 16.5461 17.5082 16.3356 17.3564 16.1784L14.3131 13.1351C15.1364 12.0906 15.649 10.8354 15.7923 9.51319C15.9356 8.19096 15.7037 6.8551 15.1232 5.65849C14.5428 4.46189 13.6371 3.45288 12.51 2.74694C11.3828 2.041 10.0797 1.66666 8.74972 1.66675ZM3.33306 8.75008C3.33306 7.31349 3.90374 5.93574 4.91956 4.91992C5.93538 3.9041 7.31313 3.33341 8.74972 3.33341C10.1863 3.33341 11.5641 3.9041 12.5799 4.91992C13.5957 5.93574 14.1664 7.31349 14.1664 8.75008C14.1664 10.1867 13.5957 11.5644 12.5799 12.5802C11.5641 13.5961 10.1863 14.1667 8.74972 14.1667C7.31313 14.1667 5.93538 13.5961 4.91956 12.5802C3.90374 11.5644 3.33306 10.1867 3.33306 8.75008Z" fill="#09244B"/>
</g>
<defs>
<clipPath id="clip0_816_359">
<rect width="20" height="20" fill="white"/>
</clipPath>
</defs>
</svg>
