<svg width="20" height="20" viewBox="0 0 20 20" fill="none" xmlns="http://www.w3.org/2000/svg">
<path d="M13.3332 13.3334C13.5373 13.3334 13.7343 13.4083 13.8868 13.544C14.0393 13.6796 14.1368 13.8665 14.1607 14.0692L14.1665 14.1667V17.5C14.1665 17.7041 14.0915 17.9011 13.9559 18.0537C13.8203 18.2062 13.6334 18.3036 13.4307 18.3275L13.3332 18.3334H6.6665C6.46239 18.3333 6.26539 18.2584 6.11286 18.1228C5.96033 17.9871 5.86288 17.8002 5.839 17.5975L5.83317 17.5V14.1667C5.8332 13.9626 5.90813 13.7656 6.04377 13.613C6.1794 13.4605 6.36629 13.3631 6.569 13.3392L6.6665 13.3334H13.3332ZM15.8332 5.83335C16.4962 5.83335 17.1321 6.09675 17.6009 6.56559C18.0698 7.03443 18.3332 7.67031 18.3332 8.33335V14.1667C18.3332 14.6087 18.1576 15.0326 17.845 15.3452C17.5325 15.6578 17.1085 15.8334 16.6665 15.8334H15.8332V13.3334C15.8332 12.8913 15.6576 12.4674 15.345 12.1548C15.0325 11.8423 14.6085 11.6667 14.1665 11.6667H5.83317C5.39114 11.6667 4.96722 11.8423 4.65466 12.1548C4.3421 12.4674 4.1665 12.8913 4.1665 13.3334V15.8334H3.33317C2.89114 15.8334 2.46722 15.6578 2.15466 15.3452C1.8421 15.0326 1.6665 14.6087 1.6665 14.1667V8.33335C1.6665 7.67031 1.9299 7.03443 2.39874 6.56559C2.86758 6.09675 3.50346 5.83335 4.1665 5.83335H15.8332ZM14.1665 7.50002H12.4998C12.2874 7.50026 12.0831 7.58159 11.9287 7.72739C11.7742 7.8732 11.6813 8.07248 11.6689 8.28452C11.6564 8.49655 11.7254 8.70534 11.8617 8.86821C11.998 9.03109 12.1914 9.13577 12.4023 9.16085L12.4998 9.16669H14.1665C14.3789 9.16645 14.5832 9.08512 14.7376 8.93931C14.8921 8.79351 14.985 8.59423 14.9975 8.38219C15.0099 8.17016 14.9409 7.96137 14.8046 7.79849C14.6683 7.63562 14.4749 7.53094 14.264 7.50585L14.1665 7.50002ZM14.1665 1.66669C14.3875 1.66669 14.5995 1.75448 14.7558 1.91076C14.912 2.06704 14.9998 2.27901 14.9998 2.50002V4.16669H4.99984V2.50002C4.99984 2.27901 5.08763 2.06704 5.24391 1.91076C5.4002 1.75448 5.61216 1.66669 5.83317 1.66669H14.1665Z" fill="#09244B"/>
</svg>
