<svg width="20" height="20" viewBox="0 0 20 20" fill="none" xmlns="http://www.w3.org/2000/svg">
<g clip-path="url(#clip0_44_533)">
<path d="M5.83301 2.49999V3.33332C5.83301 3.77535 6.0086 4.19927 6.32116 4.51183C6.63372 4.8244 7.05765 4.99999 7.49967 4.99999H12.4997C12.9417 4.99999 13.3656 4.8244 13.6782 4.51183C13.9907 4.19927 14.1663 3.77535 14.1663 3.33332V2.49999H14.9997C15.4417 2.49999 15.8656 2.67558 16.1782 2.98815C16.4907 3.30071 16.6663 3.72463 16.6663 4.16666V13.3333C16.6663 14.6594 16.1396 15.9312 15.2019 16.8689C14.2642 17.8065 12.9924 18.3333 11.6663 18.3333H4.99967C4.55765 18.3333 4.13372 18.1577 3.82116 17.8452C3.5086 17.5326 3.33301 17.1087 3.33301 16.6667V4.16666C3.33301 3.72463 3.5086 3.30071 3.82116 2.98815C4.13372 2.67558 4.55765 2.49999 4.99967 2.49999H5.83301ZM9.99967 11.6667H7.49967C7.27866 11.6667 7.0667 11.7545 6.91042 11.9107C6.75414 12.067 6.66634 12.279 6.66634 12.5C6.66634 12.721 6.75414 12.933 6.91042 13.0892C7.0667 13.2455 7.27866 13.3333 7.49967 13.3333H9.99967C10.2207 13.3333 10.4326 13.2455 10.5889 13.0892C10.7452 12.933 10.833 12.721 10.833 12.5C10.833 12.279 10.7452 12.067 10.5889 11.9107C10.4326 11.7545 10.2207 11.6667 9.99967 11.6667ZM12.4997 8.33332H7.49967C7.28727 8.33356 7.08298 8.41489 6.92853 8.5607C6.77409 8.7065 6.68115 8.90578 6.6687 9.11782C6.65625 9.32985 6.72524 9.53864 6.86156 9.70152C6.99789 9.86439 7.19126 9.96907 7.40217 9.99416L7.49967 9.99999H12.4997C12.7207 9.99999 12.9326 9.91219 13.0889 9.75591C13.2452 9.59963 13.333 9.38767 13.333 9.16666C13.333 8.94564 13.2452 8.73368 13.0889 8.5774C12.9326 8.42112 12.7207 8.33332 12.4997 8.33332ZM11.6663 1.66666C11.8787 1.66689 12.083 1.74822 12.2375 1.89403C12.3919 2.03984 12.4849 2.23912 12.4973 2.45115C12.5098 2.66319 12.4408 2.87197 12.3045 3.03485C12.1681 3.19773 11.9748 3.3024 11.7638 3.32749L11.6663 3.33332H8.33301C8.12061 3.33309 7.91631 3.25176 7.76187 3.10595C7.60742 2.96014 7.51448 2.76086 7.50203 2.54883C7.48958 2.33679 7.55857 2.12801 7.69489 1.96513C7.83122 1.80225 8.02459 1.69758 8.23551 1.67249L8.33301 1.66666H11.6663Z" fill="#09244B"/>
</g>
<defs>
<clipPath id="clip0_44_533">
<rect width="20" height="20" fill="white"/>
</clipPath>
</defs>
</svg>
