<svg width="20" height="20" viewBox="0 0 20 20" fill="none" xmlns="http://www.w3.org/2000/svg">
<g clip-path="url(#clip0_78_10)">
<path d="M16.6667 4.16669C16.8877 4.16669 17.0996 4.25448 17.2559 4.41076C17.4122 4.56705 17.5 4.77901 17.5 5.00002C17.5 5.22103 17.4122 5.433 17.2559 5.58928C17.0996 5.74556 16.8877 5.83335 16.6667 5.83335H15.8333L15.8308 5.89252L15.0533 16.785C15.0234 17.2055 14.8352 17.599 14.5268 17.8863C14.2183 18.1736 13.8124 18.3334 13.3908 18.3334H6.60833C6.18678 18.3334 5.78089 18.1736 5.4724 17.8863C5.16392 17.599 4.97576 17.2055 4.94583 16.785L4.16833 5.89335C4.16707 5.87338 4.16651 5.85337 4.16667 5.83335H3.33333C3.11232 5.83335 2.90036 5.74556 2.74408 5.58928C2.5878 5.433 2.5 5.22103 2.5 5.00002C2.5 4.77901 2.5878 4.56705 2.74408 4.41076C2.90036 4.25448 3.11232 4.16669 3.33333 4.16669H16.6667ZM11.6667 1.66669C11.8877 1.66669 12.0996 1.75448 12.2559 1.91076C12.4122 2.06704 12.5 2.27901 12.5 2.50002C12.5 2.72103 12.4122 2.933 12.2559 3.08928C12.0996 3.24556 11.8877 3.33335 11.6667 3.33335H8.33333C8.11232 3.33335 7.90036 3.24556 7.74408 3.08928C7.5878 2.933 7.5 2.72103 7.5 2.50002C7.5 2.27901 7.5878 2.06704 7.74408 1.91076C7.90036 1.75448 8.11232 1.66669 8.33333 1.66669H11.6667Z" fill="#09244B"/>
</g>
<defs>
<clipPath id="clip0_78_10">
<rect width="20" height="20" fill="white"/>
</clipPath>
</defs>
</svg>
