<svg width="20" height="20" viewBox="0 0 20 20" fill="none" xmlns="http://www.w3.org/2000/svg">
<g clip-path="url(#clip0_8_2216)">
<path d="M3.33333 12.5C3.53744 12.5 3.73445 12.575 3.88698 12.7106C4.03951 12.8462 4.13695 13.0331 4.16083 13.2358L4.16667 13.3333V15.8333H7.5C7.7124 15.8336 7.91669 15.9149 8.07114 16.0607C8.22559 16.2065 8.31853 16.4058 8.33098 16.6178C8.34342 16.8299 8.27444 17.0386 8.13811 17.2015C8.00179 17.3644 7.80841 17.4691 7.5975 17.4942L7.5 17.5H4.16667C3.74619 17.5001 3.34119 17.3413 3.03288 17.0554C2.72456 16.7695 2.5357 16.3776 2.50417 15.9583L2.5 15.8333V13.3333C2.5 13.1123 2.5878 12.9004 2.74408 12.7441C2.90036 12.5878 3.11232 12.5 3.33333 12.5ZM16.6667 12.5C16.8877 12.5 17.0996 12.5878 17.2559 12.7441C17.4122 12.9004 17.5 13.1123 17.5 13.3333V15.8333C17.5 16.2754 17.3244 16.6993 17.0118 17.0118C16.6993 17.3244 16.2754 17.5 15.8333 17.5H12.5C12.279 17.5 12.067 17.4122 11.9107 17.2559C11.7545 17.0996 11.6667 16.8877 11.6667 16.6667C11.6667 16.4457 11.7545 16.2337 11.9107 16.0774C12.067 15.9211 12.279 15.8333 12.5 15.8333H15.8333V13.3333C15.8333 13.1123 15.9211 12.9004 16.0774 12.7441C16.2337 12.5878 16.4457 12.5 16.6667 12.5ZM7.5 2.5C7.72101 2.5 7.93297 2.5878 8.08926 2.74408C8.24554 2.90036 8.33333 3.11232 8.33333 3.33333C8.33333 3.55435 8.24554 3.76631 8.08926 3.92259C7.93297 4.07887 7.72101 4.16667 7.5 4.16667H4.16667V6.66667C4.16667 6.88768 4.07887 7.09964 3.92259 7.25592C3.76631 7.4122 3.55435 7.5 3.33333 7.5C3.11232 7.5 2.90036 7.4122 2.74408 7.25592C2.5878 7.09964 2.5 6.88768 2.5 6.66667V4.16667C2.5 3.72464 2.67559 3.30072 2.98816 2.98816C3.30072 2.67559 3.72464 2.5 4.16667 2.5H7.5ZM15.8333 2.5C16.2754 2.5 16.6993 2.67559 17.0118 2.98816C17.3244 3.30072 17.5 3.72464 17.5 4.16667V6.66667C17.5 6.88768 17.4122 7.09964 17.2559 7.25592C17.0996 7.4122 16.8877 7.5 16.6667 7.5C16.4457 7.5 16.2337 7.4122 16.0774 7.25592C15.9211 7.09964 15.8333 6.88768 15.8333 6.66667V4.16667H12.5C12.279 4.16667 12.067 4.07887 11.9107 3.92259C11.7545 3.76631 11.6667 3.55435 11.6667 3.33333C11.6667 3.11232 11.7545 2.90036 11.9107 2.74408C12.067 2.5878 12.279 2.5 12.5 2.5H15.8333Z" fill="#09244B"/>
</g>
<defs>
<clipPath id="clip0_8_2216">
<rect width="20" height="20" fill="white"/>
</clipPath>
</defs>
</svg>
