<svg width="20" height="20" viewBox="0 0 20 20" fill="none" xmlns="http://www.w3.org/2000/svg">
<path fill-rule="evenodd" clip-rule="evenodd" d="M8.74997 1.66669C7.62046 1.66678 6.50735 1.93699 5.50351 2.45477C4.49967 2.97254 3.63421 3.72287 2.97933 4.64315C2.32445 5.56343 1.89914 6.62698 1.73889 7.74506C1.57864 8.86314 1.68809 10.0033 2.05812 11.0705C2.42814 12.1377 3.04801 13.1009 3.866 13.8798C4.68399 14.6587 5.67639 15.2307 6.7604 15.548C7.8444 15.8654 8.98859 15.9189 10.0975 15.7041C11.2064 15.4893 12.2478 15.0125 13.135 14.3134L16.1783 17.3567C16.3355 17.5085 16.546 17.5925 16.7645 17.5906C16.983 17.5887 17.192 17.501 17.3465 17.3465C17.501 17.192 17.5886 16.983 17.5905 16.7645C17.5924 16.546 17.5084 16.3355 17.3566 16.1784L14.3133 13.135C15.1366 12.0905 15.6493 10.8354 15.7925 9.51313C15.9358 8.1909 15.704 6.85504 15.1235 5.65843C14.543 4.46183 13.6374 3.45282 12.5102 2.74688C11.3831 2.04094 10.0799 1.6666 8.74997 1.66669ZM3.3333 8.75002C3.3333 7.31343 3.90398 5.93568 4.91981 4.91986C5.93563 3.90404 7.31338 3.33335 8.74997 3.33335C10.1866 3.33335 11.5643 3.90404 12.5801 4.91986C13.596 5.93568 14.1666 7.31343 14.1666 8.75002C14.1666 10.1866 13.596 11.5644 12.5801 12.5802C11.5643 13.596 10.1866 14.1667 8.74997 14.1667C7.31338 14.1667 5.93563 13.596 4.91981 12.5802C3.90398 11.5644 3.3333 10.1866 3.3333 8.75002Z" fill="#09244B"/>
</svg>
