<svg width="20" height="20" viewBox="0 0 20 20" fill="none" xmlns="http://www.w3.org/2000/svg">
<path d="M15.8331 10C16.0455 10.0002 16.2498 10.0816 16.4042 10.2274C16.5586 10.3732 16.6516 10.5725 16.664 10.7845C16.6765 10.9965 16.6075 11.2053 16.4712 11.3682C16.3348 11.5311 16.1415 11.6357 15.9306 11.6608L15.8331 11.6667H14.0747C14.2556 11.9392 14.4014 12.2367 14.5064 12.5525C15.3006 14.935 13.5822 17.3933 11.1039 17.4967L10.9414 17.5H9.52306C8.66918 17.5001 7.83083 17.2716 7.09516 16.8381C6.35949 16.4046 5.75335 15.782 5.33973 15.035L5.24639 14.8575L5.09473 14.5533C5.01385 14.4 4.98324 14.2251 5.00723 14.0533C5.03016 13.8865 5.10311 13.7305 5.21645 13.606C5.3298 13.4814 5.47821 13.3941 5.64215 13.3556C5.80609 13.3171 5.97786 13.3291 6.13481 13.3902C6.29177 13.4512 6.42655 13.5583 6.52139 13.6975L6.55639 13.7525L6.73723 14.1117C6.98246 14.6022 7.35289 15.0193 7.81105 15.3207C8.2692 15.6222 8.79884 15.7973 9.34639 15.8283L9.52306 15.8333H10.9406C11.3978 15.8337 11.8426 15.6841 12.2068 15.4077C12.5709 15.1312 12.8345 14.743 12.9571 14.3025C13.0797 13.862 13.0546 13.3935 12.8856 12.9686C12.7166 12.5437 12.4131 12.1859 12.0214 11.95L11.8764 11.87L11.4697 11.6667H4.16639C3.95399 11.6664 3.7497 11.5851 3.59525 11.4393C3.44081 11.2935 3.34787 11.0942 3.33542 10.8822C3.32297 10.6701 3.39196 10.4614 3.52828 10.2985C3.66461 10.1356 3.85798 10.0309 4.06889 10.0058L4.16639 10H15.8331ZM10.4764 2.5C11.3643 2.49987 12.2347 2.74702 12.9901 3.21375C13.7455 3.68048 14.3559 4.34834 14.7531 5.1425L14.9031 5.445C14.9866 5.60636 15.0152 5.79056 14.9845 5.96965C14.9539 6.14873 14.8656 6.31293 14.7332 6.43734C14.6008 6.56175 14.4314 6.63957 14.2508 6.659C14.0701 6.67843 13.8881 6.6384 13.7322 6.545C13.6265 6.48071 13.5365 6.39358 13.4689 6.29L13.4397 6.24167L13.2622 5.88833C13.0036 5.37095 12.6059 4.93582 12.1139 4.63173C11.6218 4.32764 11.0548 4.1666 10.4764 4.16667H9.05889C8.58737 4.1662 8.12952 4.32507 7.75963 4.6175C7.38974 4.90993 7.1295 5.31876 7.02115 5.77766C6.91279 6.23656 6.96266 6.71862 7.16268 7.14562C7.3627 7.57261 7.70113 7.9195 8.12306 8.13L10.1964 9.16667H6.67723C6.12747 8.71715 5.71632 8.12108 5.49139 7.4475C4.68139 5.01417 6.49223 2.5 9.05889 2.5H10.4764Z" fill="#09244B"/>
</svg>
