<svg width="20" height="20" viewBox="0 0 20 20" fill="none" xmlns="http://www.w3.org/2000/svg">
<path d="M7.05315 5.87503L14.1248 12.9467L11.2373 15.8334H16.6665C16.8875 15.8334 17.0995 15.9212 17.2557 16.0774C17.412 16.2337 17.4998 16.4457 17.4998 16.6667C17.4998 16.8877 17.412 17.0997 17.2557 17.256C17.0995 17.4122 16.8875 17.5 16.6665 17.5H7.41065C7.07924 17.4997 6.76151 17.3678 6.52731 17.1334L2.33898 12.9467C2.18414 12.7919 2.06132 12.6082 1.97752 12.4059C1.89372 12.2037 1.85059 11.9869 1.85059 11.7679C1.85059 11.549 1.89372 11.3322 1.97752 11.13C2.06132 10.9277 2.18414 10.744 2.33898 10.5892L7.05315 5.87503ZM12.9456 2.34003L17.6598 7.05336C17.8147 7.20813 17.9375 7.3919 18.0213 7.59415C18.1051 7.7964 18.1482 8.01318 18.1482 8.23211C18.1482 8.45104 18.1051 8.66782 18.0213 8.87007C17.9375 9.07233 17.8147 9.25609 17.6598 9.41086L15.3031 11.7675L8.23231 4.69669L10.589 2.34003C10.9015 2.02758 11.3254 1.85205 11.7673 1.85205C12.2093 1.85205 12.6331 2.02758 12.9456 2.34003Z" fill="#09244B"/>
</svg>
