<svg width="24" height="24" viewBox="0 0 24 24" fill="none" xmlns="http://www.w3.org/2000/svg">
<path fill-rule="evenodd" clip-rule="evenodd" d="M7 3C7.24493 3.00003 7.48134 3.08996 7.66437 3.25272C7.84741 3.41547 7.96434 3.63975 7.993 3.883L8 4H16C16 3.75507 16.09 3.51866 16.2527 3.33563C16.4155 3.15259 16.6397 3.03566 16.883 3.007L17 3H20C20.2449 3.00003 20.4813 3.08996 20.6644 3.25272C20.8474 3.41547 20.9643 3.63975 20.993 3.883L21 4V7C21 7.24493 20.91 7.48134 20.7473 7.66437C20.5845 7.84741 20.3603 7.96434 20.117 7.993L20 8V16C20.2449 16 20.4813 16.09 20.6644 16.2527C20.8474 16.4155 20.9643 16.6397 20.993 16.883L21 17V20C21 20.2449 20.91 20.4813 20.7473 20.6644C20.5845 20.8474 20.3603 20.9643 20.117 20.993L20 21H17C16.7551 21 16.5187 20.91 16.3356 20.7473C16.1526 20.5845 16.0357 20.3603 16.007 20.117L16 20H8C7.99997 20.2449 7.91004 20.4813 7.74728 20.6644C7.58453 20.8474 7.36025 20.9643 7.117 20.993L7 21H4C3.75507 21 3.51866 20.91 3.33563 20.7473C3.15259 20.5845 3.03566 20.3603 3.007 20.117L3 20V17C3.00003 16.7551 3.08996 16.5187 3.25272 16.3356C3.41547 16.1526 3.63975 16.0357 3.883 16.007L4 16V8C3.75507 7.99997 3.51866 7.91004 3.33563 7.74728C3.15259 7.58453 3.03566 7.36025 3.007 7.117L3 7V4C3.00003 3.75507 3.08996 3.51866 3.25272 3.33563C3.41547 3.15259 3.63975 3.03566 3.883 3.007L4 3H7ZM6 18H5V19H6V18ZM19 18H18V19H19V18ZM16 6H8V7C8 7.26522 7.89464 7.51957 7.70711 7.70711C7.51957 7.89464 7.26522 8 7 8H6V16H7C7.26522 16 7.51957 16.1054 7.70711 16.2929C7.89464 16.4804 8 16.7348 8 17V18H16V17C16 16.7348 16.1054 16.4804 16.2929 16.2929C16.4804 16.1054 16.7348 16 17 16H18V8H17C16.7348 8 16.4804 7.89464 16.2929 7.70711C16.1054 7.51957 16 7.26522 16 7V6ZM12 7C12.3526 7.00009 12.6966 7.1092 12.9848 7.31238C13.2731 7.51557 13.4914 7.80289 13.61 8.135L15.942 14.664C16.0311 14.9138 16.0173 15.1888 15.9037 15.4285C15.79 15.6682 15.5858 15.8529 15.336 15.942C15.2123 15.9861 15.0811 16.0055 14.9499 15.9989C14.8188 15.9923 14.6902 15.96 14.5715 15.9037C14.3318 15.79 14.1471 15.5858 14.058 15.336L13.581 14H10.419L9.942 15.336C9.85289 15.5858 9.66818 15.79 9.42851 15.9037C9.18884 16.0173 8.91383 16.0311 8.664 15.942C8.41417 15.8529 8.20996 15.6682 8.09632 15.4285C7.98267 15.1888 7.96889 14.9138 8.058 14.664L10.39 8.134C10.5087 7.80208 10.7272 7.51497 11.0154 7.31198C11.3036 7.10898 11.6475 7.00001 12 7ZM12 9.573L11.133 12H12.867L12 9.573ZM6 5H5V6H6V5ZM19 5H18V6H19V5Z" fill="#09244B"/>
</svg>
