<svg width="20" height="20" viewBox="0 0 20 20" fill="none" xmlns="http://www.w3.org/2000/svg">
<path fill-rule="evenodd" clip-rule="evenodd" d="M6.62634 14.4217C6.55743 14.6305 6.40878 14.8036 6.21278 14.9033C6.01678 15.003 5.78932 15.0212 5.57998 14.9539C5.37063 14.8866 5.19636 14.7393 5.09516 14.5441C4.99395 14.3488 4.97401 14.1215 5.03967 13.9117L8.66217 2.64168C8.75325 2.35856 8.93182 2.11164 9.17217 1.93647C9.41253 1.76131 9.70226 1.66693 9.99967 1.66693C10.2971 1.66693 10.5868 1.76131 10.8272 1.93647C11.0675 2.11164 11.2461 2.35856 11.3372 2.64168L14.9597 13.9117C14.9941 14.0161 15.0076 14.1263 14.9993 14.236C14.9909 14.3457 14.9609 14.4526 14.9111 14.5506C14.8612 14.6486 14.7925 14.7358 14.7087 14.8072C14.625 14.8785 14.528 14.9325 14.4233 14.9662C14.3186 14.9998 14.2083 15.0124 14.0987 15.0032C13.9891 14.9941 13.8824 14.9633 13.7848 14.9126C13.6871 14.862 13.6005 14.7926 13.5298 14.7083C13.4591 14.6241 13.4059 14.5266 13.373 14.4217L12.2197 10.8333H7.77967L6.62634 14.4217ZM8.31551 9.16668H11.6838L9.99967 3.92668L8.31551 9.16668ZM3.33301 17.5C3.33301 17.279 3.42081 17.067 3.57709 16.9108C3.73337 16.7545 3.94533 16.6667 4.16634 16.6667H15.833C16.054 16.6667 16.266 16.7545 16.4223 16.9108C16.5785 17.067 16.6663 17.279 16.6663 17.5C16.6663 17.721 16.5785 17.933 16.4223 18.0893C16.266 18.2455 16.054 18.3333 15.833 18.3333H4.16634C3.94533 18.3333 3.73337 18.2455 3.57709 18.0893C3.42081 17.933 3.33301 17.721 3.33301 17.5Z" fill="#09244B"/>
</svg>
