<svg width="20" height="21" viewBox="0 0 20 21" fill="none" xmlns="http://www.w3.org/2000/svg">
<path fill-rule="evenodd" clip-rule="evenodd" d="M9.99993 11.6784L14.7141 16.3925C14.8713 16.5443 15.0818 16.6283 15.3003 16.6264C15.5188 16.6245 15.7278 16.5369 15.8823 16.3824C16.0368 16.2279 16.1244 16.0189 16.1263 15.8004C16.1282 15.5819 16.0442 15.3714 15.8924 15.2142L11.1783 10.5L15.8924 5.78586C16.0442 5.62869 16.1282 5.41819 16.1263 5.19969C16.1244 4.98119 16.0368 4.77218 15.8823 4.61767C15.7278 4.46317 15.5188 4.37553 15.3003 4.37363C15.0818 4.37173 14.8713 4.45572 14.7141 4.60752L9.99993 9.32169L5.28577 4.60752C5.12789 4.45948 4.91861 4.37866 4.70221 4.38217C4.48581 4.38569 4.27926 4.47326 4.12628 4.62635C3.97329 4.77944 3.88587 4.98605 3.88251 5.20246C3.87915 5.41886 3.96011 5.62809 4.10827 5.78586L8.8216 10.5L4.10743 15.2142C4.02784 15.2911 3.96436 15.383 3.92068 15.4847C3.87701 15.5864 3.85402 15.6957 3.85306 15.8064C3.8521 15.917 3.87318 16.0267 3.91508 16.1292C3.95698 16.2316 4.01886 16.3246 4.0971 16.4029C4.17535 16.4811 4.26839 16.543 4.37081 16.5849C4.47322 16.6268 4.58295 16.6479 4.6936 16.6469C4.80425 16.6459 4.9136 16.6229 5.01527 16.5793C5.11694 16.5356 5.2089 16.4721 5.28577 16.3925L9.99993 11.6784Z" fill="#09244B"/>
</svg>
