<svg width="18" height="20" viewBox="0 0 18 20" fill="none" xmlns="http://www.w3.org/2000/svg">
<path d="M11.28 5.80189e-08C11.6998 0.00010886 12.1088 0.132286 12.4493 0.377808C12.7898 0.62333 13.0444 0.96975 13.177 1.368L13.72 3H17C17.2652 3 17.5196 3.10536 17.7071 3.29289C17.8946 3.48043 18 3.73478 18 4C18 4.26522 17.8946 4.51957 17.7071 4.70711C17.5196 4.89464 17.2652 5 17 5L16.997 5.071L16.13 17.214C16.0759 17.9706 15.7372 18.6786 15.182 19.1956C14.6269 19.7125 13.8965 19.9999 13.138 20H4.862C4.10346 19.9999 3.37311 19.7125 2.81797 19.1956C2.26283 18.6786 1.92411 17.9706 1.87 17.214L1.003 5.07C1.00119 5.04671 1.00019 5.02336 1 5C0.734784 5 0.48043 4.89464 0.292893 4.70711C0.105357 4.51957 0 4.26522 0 4C0 3.73478 0.105357 3.48043 0.292893 3.29289C0.48043 3.10536 0.734784 3 1 3H4.28L4.823 1.368C4.9557 0.969588 5.21043 0.623052 5.5511 0.377515C5.89176 0.131978 6.30107 -0.000101061 6.721 5.80189e-08H11.28ZM14.997 5H3.003L3.865 17.071C3.88295 17.3232 3.99577 17.5592 4.18076 17.7316C4.36574 17.904 4.60916 17.9999 4.862 18H13.138C13.3908 17.9999 13.6343 17.904 13.8192 17.7316C14.0042 17.5592 14.117 17.3232 14.135 17.071L14.997 5ZM7 8C7.24493 8.00003 7.48134 8.08996 7.66437 8.25272C7.84741 8.41547 7.96434 8.63975 7.993 8.883L8 9V14C7.99972 14.2549 7.90212 14.5 7.72715 14.6854C7.55218 14.8707 7.31305 14.9822 7.05861 14.9972C6.80416 15.0121 6.55362 14.9293 6.35817 14.7657C6.16271 14.6021 6.0371 14.3701 6.007 14.117L6 14V9C6 8.73478 6.10536 8.48043 6.29289 8.29289C6.48043 8.10536 6.73478 8 7 8ZM11 8C11.2652 8 11.5196 8.10536 11.7071 8.29289C11.8946 8.48043 12 8.73478 12 9V14C12 14.2652 11.8946 14.5196 11.7071 14.7071C11.5196 14.8946 11.2652 15 11 15C10.7348 15 10.4804 14.8946 10.2929 14.7071C10.1054 14.5196 10 14.2652 10 14V9C10 8.73478 10.1054 8.48043 10.2929 8.29289C10.4804 8.10536 10.7348 8 11 8ZM11.28 2H6.72L6.387 3H11.613L11.28 2Z" fill="#09244B"/>
</svg>
