<svg width="12" height="12" viewBox="0 0 12 12" fill="none" xmlns="http://www.w3.org/2000/svg">
<path fill-rule="evenodd" clip-rule="evenodd" d="M4.45735 10.3612C4.56507 9.48554 4.41783 8.57231 4.09021 7.75262C3.72752 6.84555 3.24565 5.86339 3.18573 4.88678C3.13538 4.06401 3.32851 3.09047 3.84353 2.42401C4.40763 1.69417 5.33378 1.23078 6.35298 1.23079L7.31673 1.23079C8.11622 1.23075 8.88651 1.52081 9.47484 2.04345C10.0632 2.56609 10.4265 3.28312 10.4929 4.05232L10.723 6.71816C10.7303 6.80301 10.7193 6.8884 10.6907 6.96894C10.6621 7.04947 10.6165 7.12339 10.5568 7.18603C10.497 7.24867 10.4245 7.29867 10.3437 7.33285C10.2629 7.36703 10.1757 7.38466 10.0875 7.38462L6.69272 7.38462C6.44007 7.38494 6.19777 7.4816 6.01859 7.65356C5.8394 7.82552 5.73783 8.05886 5.73598 8.30277C5.73088 8.8997 5.76976 9.63631 5.48548 10.1858C5.23052 10.6782 4.99213 10.7692 4.78051 10.7692C4.58929 10.7692 4.43632 10.5274 4.45735 10.3612ZM4.78051 12C5.64483 12 6.24271 11.4757 6.62579 10.7366C6.95851 10.0935 6.98975 9.32124 7.00632 8.61539L10.0875 8.61539C10.3521 8.61543 10.6138 8.56246 10.8561 8.45984C11.0983 8.35721 11.3159 8.20717 11.495 8.01919C11.6742 7.83121 11.8109 7.60939 11.8967 7.36776C11.9825 7.12612 12.0154 6.86993 11.9933 6.61539L11.7632 3.95017C11.6703 2.8733 11.1616 1.86948 10.338 1.13779C9.51437 0.4061 8.43599 -5.92002e-06 7.31673 1.7627e-05L6.35298 1.75427e-05C5.74833 -0.00164933 5.14974 0.116433 4.59423 0.346967C4.03872 0.5775 3.53808 0.915585 3.12327 1.34032C2.83187 1.26723 2.53198 1.23042 2.23091 1.23078C1.52467 1.23078 0.938256 1.61232 0.558365 2.22032C0.188672 2.81109 7.32037e-07 3.62647 6.45583e-07 4.6154C5.59182e-07 5.6037 0.189309 6.41908 0.558364 7.00985C0.938255 7.61847 1.52466 8.00001 2.23091 8.00001C2.41002 8.00001 2.59996 7.96924 2.78991 7.91754C3.08184 8.65601 3.28963 9.41723 3.19147 10.216C3.08184 11.1052 3.83461 12 4.78051 12ZM2.35584 6.75447C2.0467 6.81601 1.80448 6.62155 1.65023 6.37416C1.44244 6.04185 1.2748 5.47324 1.2748 4.6154C1.2748 3.75755 1.44244 3.18832 1.6496 2.85601C1.84719 2.54094 2.05753 2.46155 2.23091 2.46155C2.2717 2.46155 2.31186 2.46278 2.35201 2.46463C2.01037 3.20801 1.86376 4.15078 1.91348 4.95939C1.94344 5.45478 2.14358 6.1397 2.35584 6.75447Z" fill="#FF4C00"/>
</svg>
