<svg width="14" height="16" viewBox="0 0 14 16" fill="none" xmlns="http://www.w3.org/2000/svg">
<path fill-rule="evenodd" clip-rule="evenodd" d="M2.25 5C2.25 3.80653 2.72411 2.66193 3.56802 1.81802C4.41193 0.974106 5.55653 0.5 6.75 0.5C7.94347 0.5 9.08807 0.974106 9.93198 1.81802C10.7759 2.66193 11.25 3.80653 11.25 5H12C12.3978 5 12.7794 5.15804 13.0607 5.43934C13.342 5.72064 13.5 6.10218 13.5 6.5V14C13.5 14.3978 13.342 14.7794 13.0607 15.0607C12.7794 15.342 12.3978 15.5 12 15.5H1.5C1.10218 15.5 0.720644 15.342 0.43934 15.0607C0.158035 14.7794 0 14.3978 0 14V6.5C0 6.10218 0.158035 5.72064 0.43934 5.43934C0.720644 5.15804 1.10218 5 1.5 5H2.25ZM6.75 2C7.54565 2 8.30871 2.31607 8.87132 2.87868C9.43393 3.44129 9.75 4.20435 9.75 5H3.75C3.75 4.20435 4.06607 3.44129 4.62868 2.87868C5.19129 2.31607 5.95435 2 6.75 2ZM8.25 9.5C8.24999 9.7633 8.18068 10.022 8.04903 10.25C7.91738 10.478 7.72802 10.6674 7.5 10.799V11.75C7.5 11.9489 7.42098 12.1397 7.28033 12.2803C7.13968 12.421 6.94891 12.5 6.75 12.5C6.55109 12.5 6.36032 12.421 6.21967 12.2803C6.07902 12.1397 6 11.9489 6 11.75V10.799C5.71406 10.6339 5.49058 10.379 5.36423 10.074C5.23788 9.76893 5.21572 9.4307 5.30118 9.11177C5.38664 8.79283 5.57495 8.511 5.8369 8.30999C6.09885 8.10898 6.41981 8.00001 6.75 8C7.14782 8 7.52936 8.15804 7.81066 8.43934C8.09196 8.72064 8.25 9.10218 8.25 9.5Z" fill="#CCCCCC"/>
</svg>
