<svg width="21" height="21" viewBox="0 0 21 21" fill="none" xmlns="http://www.w3.org/2000/svg">
<path d="M10.7749 0.391876C16.2979 0.391876 20.7749 4.86888 20.7749 10.3919C20.7749 15.9149 16.2979 20.3919 10.7749 20.3919C5.2519 20.3919 0.774902 15.9149 0.774902 10.3919C0.774902 4.86888 5.2519 0.391876 10.7749 0.391876ZM14.3099 6.77288L9.3599 11.7229L7.2399 9.60188C7.14706 9.50897 7.03682 9.43525 6.91549 9.38494C6.79416 9.33464 6.6641 9.30872 6.53276 9.30867C6.26749 9.30858 6.01304 9.41387 5.8254 9.60138C5.63776 9.78888 5.53229 10.0433 5.5322 10.3085C5.53211 10.5738 5.63739 10.8282 5.8249 11.0159L8.5829 13.7739C8.68505 13.8761 8.80634 13.9571 8.93983 14.0125C9.07332 14.0678 9.21641 14.0962 9.3609 14.0962C9.5054 14.0962 9.64848 14.0678 9.78197 14.0125C9.91547 13.9571 10.0368 13.8761 10.1389 13.7739L15.7249 8.18788C15.9125 8.00024 16.018 7.74574 16.018 7.48038C16.018 7.21501 15.9125 6.96052 15.7249 6.77288C15.5373 6.58524 15.2828 6.47982 15.0174 6.47982C14.752 6.47982 14.4975 6.58524 14.3099 6.77288Z" fill="#09244B"/>
</svg>
