<svg width="18" height="20" viewBox="0 0 18 20" fill="none" xmlns="http://www.w3.org/2000/svg">
<path d="M17.559 5.75094L17.581 5.94094L17.588 6.13494V13.4029C17.5879 13.8115 17.4877 14.2138 17.2961 14.5747C17.1045 14.9356 16.8274 15.244 16.489 15.4729L16.339 15.5679L10.044 19.2019L9.92 19.2689L9.794 19.3289V10.3389L17.559 5.75094ZM0.0289998 5.75094L7.794 10.3399V19.3279C7.70839 19.2906 7.62493 19.2485 7.544 19.2019L1.25 15.5679C0.869961 15.3485 0.554373 15.0329 0.334952 14.6529C0.115532 14.2729 1.1148e-05 13.8418 0 13.4029V6.13494C0 6.00494 0.00999997 5.87694 0.03 5.75094H0.0289998ZM10.044 0.335936L16.338 3.96994C16.388 3.99994 16.438 4.02994 16.486 4.06194L8.794 8.60894L1.102 4.06094C1.15 4.02894 1.199 3.99794 1.25 3.96894L7.544 0.334936C7.92405 0.115516 8.35516 0 8.794 0C9.23284 0 9.66395 0.116515 10.044 0.335936Z" fill="#09244B"/>
</svg>
