<svg width="22" height="22" viewBox="0 0 22 22" fill="none" xmlns="http://www.w3.org/2000/svg">
<path fill-rule="evenodd" clip-rule="evenodd" d="M9.58597 1.1C9.93996 0.746476 10.4136 0.538456 10.9134 0.516981C11.4132 0.495507 11.903 0.662139 12.286 0.984002L12.414 1.101L14.314 3H17C17.5044 3.00009 17.9901 3.19077 18.3599 3.53384C18.7297 3.8769 18.9561 4.34702 18.994 4.85L19 5V7.686L20.9 9.586C21.2538 9.94004 21.462 10.4139 21.4834 10.9139C21.5049 11.414 21.3381 11.9039 21.016 12.287L20.899 12.414L18.999 14.314V17C18.9991 17.5046 18.8086 17.9906 18.4655 18.3605C18.1224 18.7305 17.6521 18.9572 17.149 18.995L17 19H14.315L12.415 20.9C12.0609 21.2538 11.5871 21.462 11.087 21.4835C10.587 21.505 10.097 21.3382 9.71397 21.016L9.58697 20.9L7.68697 19H4.99997C4.49539 19.0002 4.0094 18.8096 3.63942 18.4665C3.26944 18.1234 3.04281 17.6532 3.00497 17.15L2.99997 17V14.314L1.09997 12.414C0.746165 12.06 0.537968 11.5861 0.516492 11.0861C0.495016 10.586 0.661821 10.0961 0.98397 9.713L1.09997 9.586L2.99997 7.686V5C3.00006 4.4956 3.19074 4.00986 3.53381 3.64009C3.87687 3.27032 4.34699 3.04383 4.84997 3.006L4.99997 3H7.68597L9.58597 1.1ZM11 8C10.2043 8 9.44126 8.31607 8.87865 8.87868C8.31604 9.44129 7.99997 10.2044 7.99997 11C7.99997 11.7957 8.31604 12.5587 8.87865 13.1213C9.44126 13.6839 10.2043 14 11 14C11.7956 14 12.5587 13.6839 13.1213 13.1213C13.6839 12.5587 14 11.7957 14 11C14 10.2044 13.6839 9.44129 13.1213 8.87868C12.5587 8.31607 11.7956 8 11 8Z" fill="#09244B"/>
</svg>
