<svg width="15" height="15" viewBox="0 0 15 15" fill="none" xmlns="http://www.w3.org/2000/svg">
<path fill-rule="evenodd" clip-rule="evenodd" d="M7.37629 8.76571L13.0333 14.4227C13.2219 14.6049 13.4745 14.7057 13.7367 14.7034C13.9989 14.7011 14.2497 14.5959 14.4351 14.4105C14.6205 14.2251 14.7257 13.9743 14.728 13.7121C14.7302 13.4499 14.6294 13.1973 14.4473 13.0087L8.79029 7.35171L14.4473 1.69471C14.6294 1.50611 14.7302 1.25351 14.728 0.991311C14.7257 0.729114 14.6205 0.478302 14.4351 0.292894C14.2497 0.107485 13.9989 0.00231622 13.7367 3.78026e-05C13.4745 -0.00224062 13.2219 0.0985537 13.0333 0.280712L7.37629 5.93771L1.71929 0.280712C1.52984 0.103057 1.2787 0.0060773 1.01902 0.0102941C0.759336 0.0145109 0.51148 0.119593 0.327898 0.303306C0.144315 0.487018 0.0394078 0.734948 0.0353747 0.994633C0.0313417 1.25432 0.128499 1.50539 0.306288 1.69471L5.96229 7.35171L0.305288 13.0087C0.209778 13.101 0.133596 13.2113 0.0811869 13.3333C0.0287779 13.4553 0.00119157 13.5865 3.7757e-05 13.7193C-0.00111606 13.8521 0.0241854 13.9838 0.0744663 14.1067C0.124747 14.2296 0.199 14.3412 0.292893 14.4351C0.386786 14.529 0.498438 14.6033 0.621334 14.6535C0.74423 14.7038 0.87591 14.7291 1.00869 14.728C1.14147 14.7268 1.27269 14.6992 1.39469 14.6468C1.5167 14.5944 1.62704 14.5182 1.71929 14.4227L7.37629 8.76571Z" fill="#09244B"/>
</svg>
