<svg width="17" height="22" viewBox="0 0 17 22" fill="none" xmlns="http://www.w3.org/2000/svg">
<path d="M2.00959 4.37262L7.56359 8.07562C7.83761 8.2582 8.06231 8.50561 8.21774 8.79589C8.37317 9.08618 8.45453 9.41034 8.45459 9.73962V20.2046C8.45462 20.3857 8.4055 20.5633 8.31246 20.7186C8.21943 20.8739 8.08599 21.0011 7.92636 21.0865C7.76673 21.1719 7.5869 21.2124 7.40607 21.2036C7.22524 21.1948 7.05019 21.1371 6.89959 21.0366L1.34559 17.3346C1.07143 17.1519 0.846645 16.9044 0.691205 16.6139C0.535765 16.3234 0.454486 15.9991 0.45459 15.6696V5.20462C0.454563 5.02357 0.503685 4.84592 0.596716 4.69061C0.689746 4.5353 0.823195 4.40815 0.982825 4.32274C1.14245 4.23733 1.32228 4.19686 1.50311 4.20565C1.68394 4.21443 1.85899 4.27214 2.00959 4.37262ZM4.98259 2.32262C5.14226 2.23718 5.32213 2.19671 5.50301 2.20551C5.68388 2.21432 5.85898 2.27207 6.00959 2.37262L11.5636 6.07562C11.8376 6.2582 12.0623 6.50561 12.2177 6.7959C12.3732 7.08618 12.4545 7.41034 12.4546 7.73962V18.2046C12.4546 18.3857 12.4055 18.5633 12.3125 18.7186C12.2194 18.8739 12.086 19.0011 11.9264 19.0865C11.7667 19.1719 11.5869 19.2124 11.4061 19.2036C11.2252 19.1948 11.0502 19.1371 10.8996 19.0366L9.95459 18.4066V9.73962C9.95451 9.16341 9.81217 8.59613 9.54021 8.08814C9.26825 7.58015 8.87507 7.14717 8.39559 6.82762L4.45459 4.19962V3.20462C4.45452 3.02358 4.50359 2.84591 4.59658 2.69058C4.68957 2.53525 4.82298 2.40807 4.98259 2.32262ZM10.0096 0.372618L15.5636 4.07562C15.8376 4.2582 16.0623 4.50561 16.2177 4.7959C16.3732 5.08618 16.4545 5.41034 16.4546 5.73962V16.2046C16.4546 16.3857 16.4055 16.5633 16.3125 16.7186C16.2194 16.8739 16.086 17.0011 15.9264 17.0865C15.7667 17.1719 15.5869 17.2124 15.4061 17.2036C15.2252 17.1948 15.0502 17.1371 14.8996 17.0366L13.9546 16.4066V7.73962C13.9545 7.16341 13.8122 6.59613 13.5402 6.08814C13.2682 5.58015 12.8751 5.14717 12.3956 4.82762L8.45459 2.19962V1.20462C8.45456 1.02357 8.50368 0.845921 8.59671 0.690609C8.68975 0.535296 8.82319 0.408153 8.98282 0.322744C9.14245 0.237334 9.32228 0.196862 9.50311 0.205646C9.68394 0.214429 9.85899 0.272139 10.0096 0.372618Z" fill="#09244B"/>
</svg>
