<svg xmlns="http://www.w3.org/2000/svg" viewBox="0 0 140.43 140.43"><defs><style>.cls-1{fill:#ffd561;}.cls-2{fill:#fff;}.cls-3{fill:#292929;}.cls-4{fill:#d6674c;}</style></defs><g id="레이어_2" data-name="레이어 2"><g id="Graphic_Elements" data-name="Graphic Elements"><path class="cls-1" d="M139.7,62.52c.32,2.91-.35,5.46.32,7.88.93,3.34,0,6.6-.13,9.89-.14,3-.75,6-1.09,9.08s-1.49,5.75-2.33,8.6a20,20,0,0,1-4.07,7.33,79.6,79.6,0,0,0-5.35,6.24,55.76,55.76,0,0,1-3.44,4.89,67,67,0,0,1-8.67,8.17A108,108,0,0,1,101,133.91a41.64,41.64,0,0,1-19.33,6c-2.31.08-4.61.44-6.93.55a22.09,22.09,0,0,1-5.78-.58,29,29,0,0,0-7.25-.66,22.62,22.62,0,0,1-9.33-1.63c-1.82-.73-3.82-.61-5.75-.84-4.77-.58-9.37-1.6-13.47-4.27-2.53-1.64-4.69-3.75-7.07-5.58-1-.73-1.92-1.44-2.85-2.2-4.94-4.07-7.78-9.58-10.17-15.37a11.67,11.67,0,0,0-1.45-2.12,38.07,38.07,0,0,1-6.34-14A68.16,68.16,0,0,0,3.2,86.47a76.06,76.06,0,0,1-3-14.11A42.06,42.06,0,0,1,.74,61c.43-2.87.53-5.84,1.6-8.53,2.9-7.29,5.85-14.53,10.89-20.73,3.17-3.9,6.12-8,9.54-11.69a36.88,36.88,0,0,1,10.35-8c1.44-.72,2.81-1.58,4.19-2.41A21,21,0,0,1,42.6,7.15a22.13,22.13,0,0,0,5-2.24,21.28,21.28,0,0,1,9.16-2.76C60,1.94,63,1,66.12.35a15.32,15.32,0,0,1,6-.1,30.34,30.34,0,0,0,8.14.41,46,46,0,0,1,15.65,1.8,47,47,0,0,1,7.82,2.79A30.81,30.81,0,0,1,112,11.43a18.62,18.62,0,0,0,1.93,1.73c2.62,2,4.62,4.6,6.92,6.91,3.75,3.77,6.41,8.35,9.16,12.83A133.64,133.64,0,0,1,137.19,46a5.2,5.2,0,0,1,.37.95C138.92,52.16,140.4,57.41,139.7,62.52Z"/><path class="cls-2" d="M37.9,41.15a15.14,15.14,0,0,1,.68-4.85,3.48,3.48,0,0,1,3-2.65,17.76,17.76,0,0,1,7,.47c3.62.79,5.21,3.56,4.11,7.09a13.29,13.29,0,0,1-2.45,4.25,4.53,4.53,0,0,1-3.62,1.45A12.85,12.85,0,0,1,40,45.72c-1.47-.74-2.23-1.67-2.06-3.31C37.93,42.07,37.9,41.73,37.9,41.15Z"/><path class="cls-2" d="M97.88,36a3.18,3.18,0,0,0-1.69-2.93c-4.24-2-14-3.83-14.28,3.55a11.91,11.91,0,0,1-.23,1.77c-.45,2.46,0,3.44,2.17,4.73a11,11,0,0,0,5.61,1.26A7.21,7.21,0,0,0,95.51,42C97.15,40.18,98.07,38.47,97.88,36Z"/><path class="cls-3" d="M93.42,44.8c-1.22.35-1.89-.72-2.81-1.12a24.37,24.37,0,0,1-7.1-4.82c-1.07-1-1-1.56-.15-2.73a21.47,21.47,0,0,1,2.7-2.86A14.26,14.26,0,0,0,89,30a1.39,1.39,0,0,1,1.41-.73c.18,0,.37,0,.56,0a6.09,6.09,0,0,1,2.84.28,22.86,22.86,0,0,1-1.59,2.26c-1.31,1.45-2.88,2.62-4.13,4.13s-1.26,1.81.13,3A25.09,25.09,0,0,0,95,43.28c.48.19,1.3.28,1.18,1s-.87.41-1.37.46S93.87,44.77,93.42,44.8Z"/><path class="cls-3" d="M35.67,33.83c1.77-.44,3.37-.66,4.83.06A46,46,0,0,0,45,36.1a24,24,0,0,1,5.25,3.19c.82.56.57,1.36.08,2-1.68,2.1-3.41,4.15-5.13,6.22-.51.62-1.24.47-1.89.46-.84,0-2.1.38-2.4-.33s.69-1.54,1.32-2.13a50.93,50.93,0,0,0,3.68-4.37c.54-.64.44-1.09-.24-1.67-2.29-2-5.16-2.83-7.75-4.21A14.47,14.47,0,0,1,35.67,33.83Z"/><path class="cls-4" d="M74.72,81.48a15.06,15.06,0,0,1-5.82-.89A6,6,0,0,1,65,76.11a74.78,74.78,0,0,1-1.36-9.54c-.33-3.24.18-6.43.23-9.63,0-.57.2-.92.82-.95,4.06-.16,8.09-.78,12.15-1a64.33,64.33,0,0,0,8-1.26c2.07-.35,4.09-1,6.25-.68,1.38.18,1.67.32,2,1.62a4.05,4.05,0,0,1,.12,1.69c-.51,2.83-.3,5.75-.93,8.55a34.82,34.82,0,0,1-2.78,8.46,19.12,19.12,0,0,1-5.17,6.22,9,9,0,0,1-4.47,1.5A28.51,28.51,0,0,1,74.72,81.48Z"/><path class="cls-3" d="M93.12,50.66a29,29,0,0,0-6,.24c-2.45.26-4.91.42-7.36.75-4.58.61-9.15,1.32-13.72,2-2.22.3-4.47.43-6.68.78-4.89.79-9.63,2.36-14.54,3.06-.27,0-.6.12-.61.39s.35.45.64.46A15.11,15.11,0,0,0,49,58.18c2.84-.64,5.68-1.23,8.5-2,1-.26,1,.09.76.83A33.93,33.93,0,0,0,57.08,69.3c.2,4.2,1.32,8,5.21,10.35A19.66,19.66,0,0,1,64.06,81a4.49,4.49,0,0,0,2.48.9c2.1.16,4.2.1,6.56.13A38.61,38.61,0,0,0,81,81.45c5-1.19,9.39-3.12,11.36-8.41a22.35,22.35,0,0,0,1.14-4.8c.73-5.5.4-11.06.64-16.59C94.17,50.89,93.78,50.72,93.12,50.66Zm-3.44,1.81c-.3,5.75.13,11.52-.83,17.25-1,6.11-4.82,9.41-10.55,10.8-3,.73-6.11.42-9.17.44a1.26,1.26,0,0,1-.73-.25,35.16,35.16,0,0,1-4.71-4c-1.6-1.82-1.81-4.16-2.1-6.42a33.26,33.26,0,0,1,1.22-14,1.47,1.47,0,0,1,1.41-1.27c2.74-.28,5.48-.69,8.2-1.1.52-.07.56.11.57.51.07,3,.62,5.88.64,8.84,0,.94,0,1.88,0,2.81s.26,1.2,1.16,1.23c3.22.12,3.21.15,3.22-3a69,69,0,0,0-.6-8.62,6.4,6.4,0,0,1,0-1.45,1.13,1.13,0,0,1,1.13-1.13c3.44-.45,6.87-1,10.33-1.24C89.33,51.86,89.72,51.75,89.68,52.47Z"/></g></g></svg>