<svg width="28" height="28" viewBox="0 0 28 28" fill="none" xmlns="http://www.w3.org/2000/svg">
<path d="M7.93945 3.15332H16.1074C18.7211 3.15332 20.8398 5.27211 20.8398 7.88574V20.7861H7.93945C5.32582 20.7861 3.20703 18.6673 3.20703 16.0537V7.88574C3.20703 5.27211 5.32582 3.15332 7.93945 3.15332Z" fill="white" stroke="black" stroke-width="1.01486"/>
<circle cx="7.53518" cy="11.7188" r="1.19534" fill="white" stroke="black"/>
<circle cx="12.0235" cy="11.7188" r="1.19534" fill="white" stroke="black"/>
<circle cx="16.5078" cy="11.7188" r="1.19534" fill="white" stroke="black"/>
<path d="M22.8037 8.78613C24.4625 8.78613 25.8076 10.1313 25.8076 11.79C25.8076 13.4488 24.4625 14.7939 22.8037 14.7939C22.6841 14.7939 22.5661 14.7862 22.4502 14.7725L21.4922 16.043L24.5117 19.8828L24.6699 20.1045C25.4006 21.2367 25.2543 22.7426 24.2842 23.7129L23.8711 24.125L23.5205 23.6602L16.8135 14.7725C16.6982 14.7862 16.5806 14.7939 16.4609 14.7939C14.8022 14.7939 13.457 13.4488 13.457 11.79C13.457 10.1313 14.8022 8.78614 16.4609 8.78613C18.1197 8.78613 19.4648 10.1313 19.4648 11.79C19.4648 12.2553 19.356 12.6949 19.167 13.0879L19.6318 13.6777L20.0967 13.0879C19.9078 12.6948 19.7998 12.2548 19.7998 11.79C19.7998 10.1313 21.1449 8.78614 22.8037 8.78613ZM16.4609 11.3447C16.215 11.3447 16.0156 11.5441 16.0156 11.79C16.0156 12.036 16.215 12.2353 16.4609 12.2354C16.7069 12.2354 16.9062 12.036 16.9062 11.79C16.9062 11.5441 16.7069 11.3447 16.4609 11.3447ZM22.8037 11.3447C22.5577 11.3447 22.3584 11.5441 22.3584 11.79C22.3584 12.036 22.5577 12.2353 22.8037 12.2354C23.0497 12.2354 23.249 12.036 23.249 11.79C23.249 11.5441 23.0497 11.3447 22.8037 11.3447Z" fill="white" stroke="black" stroke-width="1.01486"/>
<path d="M17.9131 16.6455L19.1436 18.2754L19.375 18.5811L19.1436 18.8867L15.376 23.8789L15.0254 24.3447L14.6123 23.9326C13.5774 22.8976 13.4803 21.2527 14.3848 20.1025L17.1094 16.6377L17.5166 16.1201L17.9131 16.6455Z" fill="white" stroke="black" stroke-width="1.01486"/>
</svg>
