<svg width="10" height="10" viewBox="0 0 10 10" fill="none" xmlns="http://www.w3.org/2000/svg">
<path fill-rule="evenodd" clip-rule="evenodd" d="M0 5C0 4.73478 0.0585316 4.48043 0.162718 4.29289C0.266905 4.10536 0.408213 4 0.555556 4H9.44444C9.59179 4 9.7331 4.10536 9.83728 4.29289C9.94147 4.48043 10 4.73478 10 5C10 5.26522 9.94147 5.51957 9.83728 5.70711C9.7331 5.89464 9.59179 6 9.44444 6H0.555556C0.408213 6 0.266905 5.89464 0.162718 5.70711C0.0585316 5.51957 0 5.26522 0 5Z" fill="#09244B"/>
<path fill-rule="evenodd" clip-rule="evenodd" d="M5 10C4.73478 10 4.48043 9.94147 4.29289 9.83728C4.10536 9.73309 4 9.59179 4 9.44444L4 0.555555C4 0.408213 4.10536 0.266904 4.29289 0.162718C4.48043 0.0585307 4.73478 -5.08956e-07 5 -5.20549e-07C5.26522 -5.32142e-07 5.51957 0.0585306 5.70711 0.162717C5.89464 0.266904 6 0.408213 6 0.555555L6 9.44444C6 9.59179 5.89464 9.73309 5.70711 9.83728C5.51957 9.94147 5.26522 10 5 10Z" fill="#09244B"/>
</svg>
