<svg width="18" height="18" viewBox="0 0 18 18" fill="none" xmlns="http://www.w3.org/2000/svg">
<path d="M13.2632 8.52632C14.5194 8.52632 15.7243 9.02537 16.6126 9.9137C17.5009 10.802 18 12.0069 18 13.2632C18 14.5194 17.5009 15.7243 16.6126 16.6126C15.7243 17.5009 14.5194 18 13.2632 18C12.0069 18 10.802 17.5009 9.9137 16.6126C9.02537 15.7243 8.52632 14.5194 8.52632 13.2632C8.52632 12.0069 9.02537 10.802 9.9137 9.9137C10.802 9.02537 12.0069 8.52632 13.2632 8.52632ZM12.3158 0C12.567 0 12.808 0.0998117 12.9857 0.277478C13.1633 0.455144 13.2632 0.696111 13.2632 0.947368V1.89474H15.1579C15.6604 1.89474 16.1423 2.09436 16.4977 2.44969C16.853 2.80502 17.0526 3.28696 17.0526 3.78947V6.63158H15.1579V3.78947H1.89474V15.1579H6.63158V17.0526H1.89474C1.39222 17.0526 0.910288 16.853 0.554955 16.4977C0.199623 16.1423 0 15.6604 0 15.1579V3.78947C0 3.28696 0.199623 2.80502 0.554955 2.44969C0.910288 2.09436 1.39222 1.89474 1.89474 1.89474H3.78947V0.947368C3.78947 0.696111 3.88929 0.455144 4.06695 0.277478C4.24462 0.0998117 4.48558 0 4.73684 0C4.9881 0 5.22907 0.0998117 5.40673 0.277478C5.5844 0.455144 5.68421 0.696111 5.68421 0.947368V1.89474H11.3684V0.947368C11.3684 0.696111 11.4682 0.455144 11.6459 0.277478C11.8236 0.0998117 12.0645 0 12.3158 0ZM13.2632 10.4211C12.5094 10.4211 11.7865 10.7205 11.2535 11.2535C10.7205 11.7865 10.4211 12.5094 10.4211 13.2632C10.4211 14.0169 10.7205 14.7398 11.2535 15.2728C11.7865 15.8058 12.5094 16.1053 13.2632 16.1053C14.0169 16.1053 14.7398 15.8058 15.2728 15.2728C15.8058 14.7398 16.1053 14.0169 16.1053 13.2632C16.1053 12.5094 15.8058 11.7865 15.2728 11.2535C14.7398 10.7205 14.0169 10.4211 13.2632 10.4211ZM13.2632 10.8947C13.5144 10.8947 13.7554 10.9945 13.933 11.1722C14.1107 11.3499 14.2105 11.5908 14.2105 11.8421V12.3158C14.4618 12.3158 14.7028 12.4156 14.8804 12.5933C15.0581 12.7709 15.1579 13.0119 15.1579 13.2632C15.1579 13.5144 15.0581 13.7554 14.8804 13.933C14.7028 14.1107 14.4618 14.2105 14.2105 14.2105H13.2632C13.0119 14.2105 12.7709 14.1107 12.5933 13.933C12.4156 13.7554 12.3158 13.5144 12.3158 13.2632V11.8421C12.3158 11.5908 12.4156 11.3499 12.5933 11.1722C12.7709 10.9945 13.0119 10.8947 13.2632 10.8947ZM5.21053 10.4211C5.45199 10.4213 5.68424 10.5138 5.85982 10.6795C6.0354 10.8453 6.14107 11.0719 6.15522 11.3129C6.16937 11.554 6.09094 11.7913 5.93596 11.9765C5.78098 12.1616 5.56114 12.2806 5.32137 12.3092L5.21053 12.3158H4.73684C4.49538 12.3155 4.26313 12.2231 4.08755 12.0573C3.91196 11.8915 3.8063 11.665 3.79215 11.4239C3.778 11.1829 3.85643 10.9455 4.01141 10.7604C4.16639 10.5752 4.38623 10.4562 4.626 10.4277L4.73684 10.4211H5.21053ZM7.57895 6.63158C7.83021 6.63158 8.07117 6.73139 8.24884 6.90906C8.4265 7.08672 8.52632 7.32769 8.52632 7.57895C8.52632 7.83021 8.4265 8.07117 8.24884 8.24884C8.07117 8.4265 7.83021 8.52632 7.57895 8.52632H4.73684C4.48558 8.52632 4.24462 8.4265 4.06695 8.24884C3.88929 8.07117 3.78947 7.83021 3.78947 7.57895C3.78947 7.32769 3.88929 7.08672 4.06695 6.90906C4.24462 6.73139 4.48558 6.63158 4.73684 6.63158H7.57895Z" fill="#09244B"/>
</svg>
