<svg width="18" height="14" viewBox="0 0 18 14" fill="none" xmlns="http://www.w3.org/2000/svg">
<path d="M0.636048 6.29306C0.448577 6.48059 0.343262 6.73489 0.343262 7.00006C0.343262 7.26522 0.448577 7.51953 0.636048 7.70706L6.29305 13.3641C6.48165 13.5462 6.73425 13.647 6.99645 13.6447C7.25865 13.6425 7.50946 13.5373 7.69487 13.3519C7.88027 13.1665 7.98544 12.9157 7.98772 12.6535C7.99 12.3913 7.88921 12.1387 7.70705 11.9501L3.75705 8.00006H17C17.2653 8.00006 17.5196 7.8947 17.7072 7.70716C17.8947 7.51963 18 7.26527 18 7.00006C18 6.73484 17.8947 6.48049 17.7072 6.29295C17.5196 6.10542 17.2653 6.00006 17 6.00006H3.75705L7.70705 2.05006C7.88921 1.86146 7.99 1.60885 7.98772 1.34666C7.98544 1.08446 7.88027 0.833648 7.69487 0.64824C7.50946 0.462832 7.25865 0.357663 6.99645 0.355384C6.73425 0.353106 6.48165 0.4539 6.29305 0.636058L0.636048 6.29306Z" fill="#09244B"/>
</svg>
