<svg width="20" height="20" viewBox="0 0 20 20" fill="none" xmlns="http://www.w3.org/2000/svg">
<path fill-rule="evenodd" clip-rule="evenodd" d="M10 0C15.523 0 20 4.477 20 10C20 15.523 15.523 20 10 20C4.477 20 0 15.523 0 10C0 4.477 4.477 0 10 0ZM10 2C7.87827 2 5.84344 2.84285 4.34315 4.34315C2.84285 5.84344 2 7.87827 2 10C2 12.1217 2.84285 14.1566 4.34315 15.6569C5.84344 17.1571 7.87827 18 10 18C12.1217 18 14.1566 17.1571 15.6569 15.6569C17.1571 14.1566 18 12.1217 18 10C18 7.87827 17.1571 5.84344 15.6569 4.34315C14.1566 2.84285 12.1217 2 10 2ZM11.5 5C12.4125 4.99868 13.2894 5.35379 13.9439 5.98964C14.5984 6.62549 14.9787 7.49181 15.0037 8.40396C15.0288 9.31612 14.6966 10.202 14.078 10.8728C13.4593 11.5436 12.6032 11.9463 11.692 11.995L11.5 12H9V14C8.99972 14.2549 8.90212 14.5 8.72715 14.6854C8.55218 14.8707 8.31305 14.9822 8.05861 14.9972C7.80416 15.0121 7.55362 14.9293 7.35817 14.7657C7.16271 14.6021 7.0371 14.3701 7.007 14.117L7 14V7C6.99984 6.49542 7.19041 6.00943 7.5335 5.63945C7.87659 5.26947 8.34685 5.04284 8.85 5.005L9 5H11.5ZM11.5 7H9V10H11.5C11.8852 9.99981 12.2556 9.85142 12.5344 9.58559C12.8132 9.31976 12.979 8.95686 12.9975 8.57209C13.016 8.18731 12.8858 7.81017 12.6338 7.5188C12.3818 7.22743 12.0274 7.04417 11.644 7.007L11.5 7Z" fill="#09244B"/>
</svg>
