<svg width="18" height="21" viewBox="0 0 18 21" fill="none" xmlns="http://www.w3.org/2000/svg">
<path d="M9 11.576L11.947 14.523L2.25 20.121C2.01075 20.2609 1.73719 20.3312 1.46016 20.3239C1.18312 20.3167 0.913615 20.2322 0.682 20.08L0.574 20.002L9 11.576ZM0 2.57603L7.586 10.162L0 17.748V2.57603ZM13.74 6.83603L17.25 8.86303C18.25 9.44003 18.25 10.883 17.25 11.461L13.74 13.488L10.414 10.162L13.74 6.83603ZM2.25 0.203025L11.947 5.80103L9 8.74803L0.574 0.321025C0.809199 0.135313 1.09487 0.0247321 1.39381 0.00368505C1.69275 -0.017362 1.9911 0.0521004 2.25 0.203025Z" fill="#999999"/>
</svg>
