<svg width="18" height="16" viewBox="0 0 18 16" fill="none" xmlns="http://www.w3.org/2000/svg">
<path fill-rule="evenodd" clip-rule="evenodd" d="M9.80748 3.05985C10.1219 2.88152 10.3684 2.60412 10.5085 2.27094C10.6487 1.93777 10.6746 1.56757 10.5822 1.21813C10.4898 0.868691 10.2843 0.559672 9.99778 0.339308C9.71127 0.118944 9.35987 -0.000366109 8.99842 8.43931e-07C8.63697 0.000367797 8.28581 0.120391 7.99976 0.341336C7.7137 0.562282 7.50884 0.871717 7.41715 1.22134C7.32547 1.57097 7.35211 1.94112 7.49293 2.27401C7.63375 2.60689 7.88082 2.8838 8.19558 3.06149L8.18739 3.07622C7.65146 4.19473 6.90687 5.79682 5.75726 6.39821C4.81303 6.8916 3.45805 6.64368 2.45163 6.45876C2.43549 6.22991 2.35553 6.01017 2.22082 5.82447C2.08611 5.63877 1.90205 5.49453 1.68952 5.40814C1.47699 5.32175 1.2445 5.29666 1.01843 5.33571C0.792361 5.37476 0.581762 5.47639 0.410528 5.62907C0.239294 5.78175 0.114281 5.97936 0.0496739 6.1995C-0.0149337 6.41963 -0.0165494 6.65346 0.0450101 6.87446C0.10657 7.09547 0.22884 7.29479 0.397947 7.44983C0.567055 7.60486 0.77623 7.70939 1.00174 7.75156L3.41387 13.9783C3.59275 14.4399 3.90704 14.8366 4.31546 15.1164C4.72389 15.3962 5.20738 15.5459 5.70244 15.546H12.2973C12.7924 15.5459 13.2759 15.3962 13.6843 15.1164C14.0927 14.8366 14.407 14.4399 14.5859 13.9783L16.9972 7.75156C17.2213 7.70985 17.4294 7.60657 17.5981 7.45328C17.7667 7.3 17.8894 7.10276 17.9523 6.88368C18.0152 6.6646 18.0159 6.43232 17.9542 6.21289C17.8926 5.99345 17.771 5.79553 17.6032 5.64129C17.4354 5.48705 17.2279 5.38259 17.0041 5.33961C16.7802 5.29664 16.5488 5.31685 16.3358 5.39798C16.1228 5.47911 15.9366 5.61795 15.7981 5.79895C15.6595 5.97995 15.5741 6.19596 15.5514 6.42276C14.5213 6.55613 13.1933 6.72632 12.2425 6.22966C11.1158 5.64054 10.3606 4.14891 9.80748 3.05985ZM9.02035 4.99659C9.64874 6.0161 10.4023 7.11334 11.4848 7.68037C12.5706 8.2474 13.9068 8.21877 15.1014 8.11649L13.0599 13.3867C13.0004 13.5406 12.8957 13.6728 12.7596 13.7661C12.6235 13.8594 12.4623 13.9094 12.2973 13.9095H5.70244C5.53744 13.9094 5.37631 13.8594 5.24022 13.7661C5.10413 13.6728 4.99942 13.5406 4.93986 13.3867L2.9262 8.18849C4.10363 8.33905 5.4357 8.41269 6.51494 7.84811C7.64246 7.25899 8.39686 6.07092 9.02035 4.99659Z" fill="#09244B"/>
</svg>
