<svg width="103" height="91" viewBox="0 0 103 91" fill="none" xmlns="http://www.w3.org/2000/svg">
<path d="M51.501 31.9809V50.3207M51.501 68.6604H51.5465M43.7258 8.41412L5.2185 73.2452C4.42457 74.6318 4.00448 76.2038 4.00004 77.805C3.99559 79.4061 4.40694 80.9806 5.19316 82.3716C5.97938 83.7627 7.11306 84.9219 8.48143 85.7339C9.84979 86.5459 11.4051 86.9824 12.9927 87H90.0073C91.5949 86.9824 93.1502 86.5459 94.5186 85.7339C95.8869 84.9219 97.0206 83.7627 97.8068 82.3716C98.5931 80.9806 99.0044 79.4061 99 77.805C98.9955 76.2038 98.5754 74.6318 97.7815 73.2452L59.2742 8.41412C58.4637 7.06664 57.3226 5.95256 55.9608 5.17937C54.5991 4.40619 53.0627 4 51.5 4C49.9373 4 48.4009 4.40619 47.0392 5.17937C45.6774 5.95256 44.5363 7.06664 43.7258 8.41412Z" stroke="#F1F1F1" stroke-width="7" stroke-linecap="round" stroke-linejoin="round"/>
</svg>
