<svg width="15" height="10" viewBox="0 0 15 10" fill="none" xmlns="http://www.w3.org/2000/svg">
<path fill-rule="evenodd" clip-rule="evenodd" d="M1.42857 5.00071V5C1.43071 4.98857 1.44071 4.92571 1.49643 4.80214C1.55786 4.66571 1.65714 4.49429 1.79929 4.29643C2.08357 3.90143 2.50857 3.445 3.04571 3.01214C4.12643 2.14 5.58 1.42857 7.14286 1.42857C8.70571 1.42857 10.1593 2.14 11.24 3.01143C11.7771 3.44429 12.2021 3.90071 12.4864 4.29571C12.6293 4.49357 12.7279 4.665 12.7893 4.80143C12.845 4.925 12.855 4.98786 12.8571 4.99929V5C12.855 5.01143 12.845 5.07429 12.7893 5.19786C12.7279 5.33429 12.6286 5.50571 12.4864 5.70357C12.2021 6.09857 11.7771 6.555 11.24 6.98786C10.16 7.86 8.70643 8.57143 7.14286 8.57143C5.58 8.57143 4.12643 7.86 3.04571 6.98857C2.50857 6.55571 2.08357 6.09929 1.79929 5.70429C1.68208 5.546 1.58064 5.37662 1.49643 5.19857C1.46521 5.13589 1.44239 5.06936 1.42857 5.00071ZM7.14286 0C5.155 0 3.39429 0.895714 2.14929 1.89929C1.52286 2.40357 1.00643 2.95214 0.64 3.46143C0.456429 3.71571 0.303571 3.97071 0.193571 4.215C0.0878571 4.45 0 4.72214 0 5C0 5.27714 0.0878571 5.55071 0.192857 5.785C0.303571 6.02929 0.457143 6.285 0.64 6.53857C1.00643 7.04786 1.52286 7.59571 2.14929 8.10071C3.39429 9.10429 5.155 10 7.14286 10C9.13071 10 10.8914 9.10429 12.1364 8.10071C12.7629 7.59643 13.2793 7.04786 13.6457 6.53857C13.8293 6.28429 13.9821 6.02929 14.0921 5.785C14.1979 5.55071 14.2857 5.27786 14.2857 5C14.2857 4.72286 14.1979 4.44929 14.0929 4.215C13.9691 3.94964 13.8193 3.69721 13.6457 3.46143C13.2793 2.95214 12.7629 2.40429 12.1364 1.89929C10.8914 0.895714 9.13071 0 7.14286 0ZM6.42857 5C6.42857 4.81056 6.50383 4.62888 6.63778 4.49492C6.77174 4.36097 6.95342 4.28571 7.14286 4.28571C7.3323 4.28571 7.51398 4.36097 7.64793 4.49492C7.78189 4.62888 7.85714 4.81056 7.85714 5C7.85714 5.18944 7.78189 5.37112 7.64793 5.50508C7.51398 5.63903 7.3323 5.71429 7.14286 5.71429C6.95342 5.71429 6.77174 5.63903 6.63778 5.50508C6.50383 5.37112 6.42857 5.18944 6.42857 5ZM7.14286 2.85714C6.57454 2.85714 6.02949 3.08291 5.62763 3.48477C5.22576 3.88663 5 4.43168 5 5C5 5.56832 5.22576 6.11337 5.62763 6.51523C6.02949 6.91709 6.57454 7.14286 7.14286 7.14286C7.71118 7.14286 8.25622 6.91709 8.65809 6.51523C9.05995 6.11337 9.28571 5.56832 9.28571 5C9.28571 4.43168 9.05995 3.88663 8.65809 3.48477C8.25622 3.08291 7.71118 2.85714 7.14286 2.85714Z" fill="#09244B"/>
</svg>
