<svg xmlns="http://www.w3.org/2000/svg" viewBox="0 0 140.43 140.43"><defs><style>.cls-1{fill:#ff919b;}.cls-2{fill:#fff;}</style></defs><g id="레이어_2" data-name="레이어 2"><g id="Graphic_Elements" data-name="Graphic Elements"><path class="cls-1" d="M140.41,74.34c.22,6.25-1.11,12.25-2.91,18.2-2.06,6.79-4,13.62-6.7,20.21-2.08,5.16-4.71,10.11-8.91,13.86-2.39,2.14-4.87,4.46-8.12,5.35-2.68.73-5.21,1.91-8,2.45-3.53.7-6.79,2.28-10.25,3.25A61,61,0,0,1,78,140.24c-1.22,0-2.44.13-3.66.18a30.64,30.64,0,0,1-6.47-.55,37.3,37.3,0,0,0-8.58,0,49.15,49.15,0,0,1-8.23-.14c-2-.21-4.08-.5-6.12-.76a26.66,26.66,0,0,1-9.16-3.46,82.88,82.88,0,0,1-11.2-7.55,40.85,40.85,0,0,1-10.64-12.16c-1.95-3.41-4.1-6.7-6.18-10A49.52,49.52,0,0,1,2.09,91.29,49.4,49.4,0,0,1,.61,80.45C.48,74.28.15,68.1,0,61.93a62.36,62.36,0,0,1,.9-8.5C1.42,49,3.31,45,5,41c1-2.48,1.71-5.06,2.77-7.52A27.41,27.41,0,0,1,18.49,21c3.73-2.39,7.27-5,10.79-7.73,2-1.56,4.39-2.76,6.58-4.15A72.47,72.47,0,0,1,45.8,4.19,34.91,34.91,0,0,1,55,2.08c4.38-.63,8.8-.89,13.17-1.56A34.68,34.68,0,0,1,71.73.28C74.66.11,77.6.05,80.54,0s6,.86,8.89,1.51a90.45,90.45,0,0,1,23.71,9,16,16,0,0,1,3.13,2.29c3.13,2.86,6.27,5.72,9.33,8.65a40.11,40.11,0,0,1,6.06,8.16,40.75,40.75,0,0,1,5.82,14c.64,3.52,1.29,7,1.83,10.57a126.74,126.74,0,0,1,.9,14C140.29,70.22,140.34,72.28,140.41,74.34Z"/><path class="cls-2" d="M100.7,60.31A12.86,12.86,0,0,0,94,49a4.17,4.17,0,0,0-2.21-.62c-2.06,0-4.12-.09-6.17,0a14.06,14.06,0,0,0-10.1,4.55c-.88,1-1.72,2-2.74,3.17-.34-1.59-.69-2.94-.92-4.3-.73-4.4-3.6-6.86-7.51-8.38a15.58,15.58,0,0,0-4.52-1c-3.12-.21-6.34-.6-9.25.88a23.75,23.75,0,0,0-7.47,6A9.8,9.8,0,0,0,41,53.44,40.21,40.21,0,0,0,40.1,63.7a14.22,14.22,0,0,0,1.84,6.65c2.27,4.1,5.06,7.9,7.25,12.05a30.64,30.64,0,0,0,6.75,8.68c1.54,1.36,3,2.86,4.62,4.07,1.87,1.38,3.3,3.61,6.08,3.42,1-.07,2.16.14,3-.41a36.82,36.82,0,0,0,3.09-2.51c4-3.1,8.27-5.73,12.37-8.67a54.82,54.82,0,0,0,9.21-8.46,31.61,31.61,0,0,0,4-5.7C100.48,68.9,100.82,64.68,100.7,60.31Z"/></g></g></svg>