<svg xmlns="http://www.w3.org/2000/svg" viewBox="0 0 140.43 140.43"><defs><style>.cls-1{fill:#ffd561;}.cls-2{fill:#fff;}.cls-3{fill:#292929;}</style></defs><g id="레이어_2" data-name="레이어 2"><g id="Graphic_Elements" data-name="Graphic Elements"><path class="cls-1" d="M140.42,64a49.73,49.73,0,0,0-1.37-10c-1.12-4.81-2.45-9.57-3.85-14.31h0c-.73-2.39-1.44-4.78-2.2-7.17A39.61,39.61,0,0,0,128.24,22c-1.91-4.64-5.67-7.69-9.51-10.51-2.74-2-6.19-2.79-9.42-3.87-1.73-.58-3.53-.94-5.21-1.64A82.77,82.77,0,0,0,94,2.51h0A48.41,48.41,0,0,0,80.34.43c-2.89-.09-5.79-.74-8.66-.2a23.9,23.9,0,0,1-6.59.25c-.75-.07-1.52,0-2.28,0A24.23,24.23,0,0,0,57.71,0c-3-.16-6.06.37-9.09.55A27.66,27.66,0,0,0,37.09,4.29a81.4,81.4,0,0,0-14,9.46A32.3,32.3,0,0,0,16,22.17h0A131.8,131.8,0,0,0,6.21,37.7a24.25,24.25,0,0,0-1.09,2.63A61.32,61.32,0,0,0,1.5,53.58,59,59,0,0,0,1,61.32H1a12.23,12.23,0,0,0-.24,2.27c-.15,3-.28,5.94-.53,8.9A51.13,51.13,0,0,0,.41,83.27,44,44,0,0,0,3.19,94.53c1.05,2.61,1.92,5.3,2.75,8a27.65,27.65,0,0,0,10,14.25c1.18.9,2.47,1.66,3.67,2.54,5,3.66,9.62,7.84,15,11,4.68,2.71,9.33,5.47,14.72,6.61,3.66.77,7.37,1.12,11.05,1.75,5.45.94,11,1.32,16.46,1.74,3.71.28,7.26-.65,10.86-1.26a87.54,87.54,0,0,0,17.12-5.25c3.7-1.44,7.35-3,10.32-5.77,1.65-1.53,3.3-3.07,5.09-4.43,6.42-4.9,10.66-11.44,14.15-18.56a42.26,42.26,0,0,0,2.87-9.72q1.05-4.85,1.79-9.75a75.08,75.08,0,0,0,.66-7.62C140,73.35,140.54,68.7,140.42,64Z"/><path class="cls-2" d="M38.28,39a3.63,3.63,0,0,1-.91.13c-3-.28-5.4,1.13-7.76,2.77C25.2,44.94,20.36,47.36,16,50.5c-4,2.89-8,5.89-12,8.81C3,60,2,60.65,1,61.32a59,59,0,0,1,.54-7.74A61.32,61.32,0,0,1,5.12,40.33,24.25,24.25,0,0,1,6.21,37.7,131.8,131.8,0,0,1,16,22.17a16.58,16.58,0,0,1,4.38-.48c2-.11,4-.05,6.06,0A4.44,4.44,0,0,0,29,20.9Q41,13.3,53.15,5.81c2.78-1.74,5.68-3.28,8.5-4.95A3.42,3.42,0,0,1,62.81.45c.76,0,1.53,0,2.28,0A23.9,23.9,0,0,0,71.68.23c2.87-.54,5.77.11,8.66.2A48.41,48.41,0,0,1,94,2.51c0,.62-.56.77-1,1C84.24,9.05,74.77,13.3,66,18.78c-.58.36-1.15.72-1.91,1.23,1.83,0,3.42,0,5,0,3.29,0,6.53.57,9.81.61s6.31.4,9.47.52c2.29.1,4.58.06,6.87,0,9-.16,17.92.32,26.88.26,1.67,0,3.34.25,5,.21a1.9,1.9,0,0,1,1.09.31A39.61,39.61,0,0,1,133,32.47c.76,2.39,1.47,4.78,2.2,7.17,0,.5-.27.58-.75.56q-9.93-.33-19.85-.61c-5.43-.15-10.87-.26-16.31-.39-.51.06-.63-.37-.8-.68a10,10,0,0,1-1.67-3.6c0-.28-.13-.57-.42-.63a7.34,7.34,0,0,0-3.06,0c-.52.12-.42.66-.32,1.07A11.12,11.12,0,0,0,93.28,38c.21.36.66.69.34,1.21-.53,0-1.06-.07-1.59-.06-7.52.18-15-.25-22.51-.75-8.16-.53-16.3-.15-24.45.06-.53,0-1.06.1-1.59.16-.23-.5.16-.78.42-1.08.69-.8,1.24-1.7,2-2.47a4,4,0,0,0-5,1.3,24.78,24.78,0,0,1-1.57,2C39,38.66,38.77,39,38.28,39Z"/><path class="cls-3" d="M69.15,62.69a17.77,17.77,0,0,1,4.86.58c4.72,1.43,7.1,4.94,8.47,9.39a44.76,44.76,0,0,1,1.2,7.08c.07.5-.17.63-.53.67a13,13,0,0,1-3.3,0c-.93-.15-.83-1-.86-1.64a21.19,21.19,0,0,0-2.16-8.93c-1.27-2.48-2.94-4.6-5.77-5.53a8.2,8.2,0,0,0-6.62.48,17.86,17.86,0,0,0-6,4.52c-1.38,1.8-3,1.1-4.61,1.12-.68,0-.78-.58-.29-1,3.47-3.17,6.9-6.42,12-6.47C66.79,62.91,68,62.77,69.15,62.69Z"/><path class="cls-2" d="M42.8,51c0-3.28-.46-3.39,2.4-3.4a29.54,29.54,0,0,0,4.5-.16,24.13,24.13,0,0,1,7,.45,1.63,1.63,0,0,1,1.49,1.83,6.28,6.28,0,0,1-.6,3,12.54,12.54,0,0,0-.75,2.86c-.08.29-.15.59-.24.88-.85,2.7-2,3.43-4.78,3.2-1.67-.14-3.34-.31-5-.33a1.92,1.92,0,0,1-2-1.25C43.81,55.48,42.83,52.85,42.8,51Z"/><path class="cls-2" d="M87.52,58.63a43.26,43.26,0,0,1-5.15-.43,4.58,4.58,0,0,1-3.6-4,11.73,11.73,0,0,1,.76-5.71c.12-.27.13-.64.45-.76,2-.76,4-1.7,6.34-1.2,1.81.39,3.66.63,5.45,1.13.37.11.88.22.87.62,0,1.58.93,2.92.85,4.55a6.41,6.41,0,0,1-3,5.41C89.62,58.79,88.56,58.55,87.52,58.63Z"/><path class="cls-3" d="M50.68,48.32c3.79,0,4,.11,3.74,3.83a31.63,31.63,0,0,1-.7,4.62,1.29,1.29,0,0,1-1.25,1.1,7.2,7.2,0,0,1-1.14.07c-1.24,0-2.9.5-3.59-.47a7.91,7.91,0,0,1-1.22-4.17c0-.72,0-1.45,0-2.17,0-1.94.74-2.71,2.69-2.81C49.69,48.3,50.19,48.32,50.68,48.32Z"/><path class="cls-3" d="M82.27,52.35V50.41c0-1.79,0-1.81,1.72-2.21a12.77,12.77,0,0,1,4-.11,13.24,13.24,0,0,1,2.21,2.4,34.89,34.89,0,0,1-.09,4.9,1.77,1.77,0,0,1-1.31,1.54,10.83,10.83,0,0,1-5,.44c-.85-.09-1.3-.46-1.31-1.37,0-1.21-.11-2.43-.17-3.64Z"/><path class="cls-3" d="M93.62,39.26a26.28,26.28,0,0,1-1.86-3.62c-.41-1.41-.22-1.7,1.22-1.74.38,0,.76,0,1.14,0,1.06,0,2.11-.25,2.17,1.56,0,1.39,1.19,2.57,2,3.76,1.06,2.34,3,3.91,4.87,5.5.71.61,1.51,1.11,2.25,1.78-1.86.16-3.7.8-5.49-.54A22.34,22.34,0,0,1,93.62,39.26Z"/><path class="cls-3" d="M46.33,34.94c-.42-.79-1.52-.33-2.32-.44a3.24,3.24,0,0,0-3.38,1.74A10.47,10.47,0,0,1,38.28,39a18.9,18.9,0,0,1-4,4.2c-.46.32-1.27.59-1.15,1.13s1,.32,1.51.4a3.94,3.94,0,0,0,2.87-.28,16.74,16.74,0,0,0,4-3.7,11.19,11.19,0,0,1,1.95-2.06,19.28,19.28,0,0,0,1.68-2.27C45.49,35.8,46.62,35.47,46.33,34.94Z"/></g></g></svg>