<svg xmlns="http://www.w3.org/2000/svg" viewBox="0 0 140.43 140.43"><defs><style>.cls-1{fill:#ffd561;}.cls-2{fill:#292929;}.cls-3{fill:#fff;}</style></defs><g id="레이어_2" data-name="레이어 2"><g id="Graphic_Elements" data-name="Graphic Elements"><path class="cls-1" d="M.32,74.9c0-4.21-.15-8.42,0-12.62A103,103,0,0,1,1.75,49.17a45.32,45.32,0,0,1,2.92-8.49,90.55,90.55,0,0,1,12.2-21.53,21,21,0,0,1,3.8-3.43c2.37-1.91,4.74-3.82,7.07-5.78,3.4-2.85,7.4-4.6,11.42-6.37C45.14.93,51.42.13,57.88.06c3.06,0,6.11-.12,9.18,0,3.51.14,7,.73,10.45,1.05,2.17.19,4.31.51,6.47.73A43.5,43.5,0,0,1,96.92,5.4a213.47,213.47,0,0,1,24.37,12c4.35,2.61,8.53,5.69,11.25,10,2,3.18,3.88,6.49,4.42,10.54.61,4.51,1.14,9.07,2.12,13.56a53.51,53.51,0,0,1,1.3,13.88c-.18,3.93-.82,7.84-1.19,11.76a23.15,23.15,0,0,1-1.38,5.49,25.53,25.53,0,0,0-1,6.84,65.52,65.52,0,0,1-3.59,16.62,27.7,27.7,0,0,1-5.42,8.65c-4.41,5.25-9,10.27-14.9,14a31.89,31.89,0,0,1-3.84,2c-5.2,2.35-10.41,4.7-15.75,6.74-4.43,1.68-9.08,2.2-13.74,2.73-5.28.59-10.48-.25-15.7-.84-3.62-.4-7.25-.87-10.88-1.2a39.19,39.19,0,0,1-9-2c-2.34-.78-4.77-1.32-6.91-2.61-4-2.42-8.24-4.61-12.35-6.93-5.63-3.16-9.34-8-11.88-13.82a91.88,91.88,0,0,0-5.21-10,70.49,70.49,0,0,1-4-8.93A57.14,57.14,0,0,1,.47,83.29,36.72,36.72,0,0,1,.05,74.9Z"/><path class="cls-2" d="M70.85,70.09a26.8,26.8,0,0,1-8.76-1,14.17,14.17,0,0,1-6.42-3.69,25.87,25.87,0,0,1-6.13-8.53,51.49,51.49,0,0,1-1.95-6.64c-.06-.22-.1-.45-.15-.67-.5-2.09-.5-2.09,1.7-2.11s2.31,0,2.81,2.23c.77,3.45,1.55,6.94,3.55,9.9,4.55,6.76,8.39,9.62,16.83,9.48,4.51-.08,7-2.7,9.32-5.91,2-2.81,3.08-6.07,4.21-9.29q.47-1.33,1-2.67c0-.11.14-.23.11-.32-.55-1.79.83-1.4,1.69-1.41,2.68,0,3.53-.29,2.29,2.85-1.5,3.8-2.46,7.84-4.93,11.2-2.13,2.89-4.41,5.69-8.31,6.19A37.3,37.3,0,0,1,70.85,70.09Z"/><path class="cls-3" d="M94.78,37.88c-.06-1,0-1.9,0-2.85h0c0-1.25,0-2.5,0-3.75,0-.41,0-.87-.47-.94-1.26-.19-2.25-1.12-3.5-1.26a22.84,22.84,0,0,0-10.09.82,1.71,1.71,0,0,0-1.34,2c.34,2.39.44,4.82,1.57,7.05A5.21,5.21,0,0,0,85.11,42a18,18,0,0,0,6.33-.25C93.43,41.24,94.93,40.38,94.78,37.88Z"/><path class="cls-3" d="M58.49,31.35a7.59,7.59,0,0,0-5.33-3.51c-2.28-.41-4.42.39-6.64.54a1,1,0,0,0-.69.35c-.69,1.36-1.69,2.59-1.84,4.19-.19,2,.33,3.92.4,5.89a2,2,0,0,0,.67,1.28c1.28,1.35,3.07,1.42,4.69,1.69,2.39.38,4.57-.47,6.75-1.5a3.47,3.47,0,0,0,2.27-3.53c0-.6,0-1.21,0-2.08S59.16,32.4,58.49,31.35Z"/><path class="cls-2" d="M91.36,33.46a2.18,2.18,0,0,0-1.21-2,17.14,17.14,0,0,0-2.69-.43,10.3,10.3,0,0,0-2.9.23c-.77.06-1.17.39-1.13,1.22.08,2.24.13,4.47.17,6.71a.69.69,0,0,0,.66.76,16.26,16.26,0,0,0,3.75.2,7.06,7.06,0,0,0,1.88-.38c.74-.27.83-.46,1.06-1.18A16.08,16.08,0,0,0,91.36,33.46Z"/><path class="cls-2" d="M54.93,30.6c.64.23.75.77.83,1.35.27,2-.09,4.09.55,6.09.18.58-.39,1-.9,1.13a14.13,14.13,0,0,1-6.15.71A1.85,1.85,0,0,1,47.61,38c-.09-2-.08-3.94,0-5.91a1.59,1.59,0,0,1,1.15-1.63,3.36,3.36,0,0,0,1.34.06,19.82,19.82,0,0,1,4.68.12Z"/></g></g></svg>