<svg xmlns="http://www.w3.org/2000/svg" viewBox="0 0 140.43 140.43"><defs><style>.cls-1{fill:#ffd561;}.cls-2{fill:#fff;}.cls-3{fill:#292929;}</style></defs><g id="레이어_2" data-name="레이어 2"><g id="Graphic_Elements" data-name="Graphic Elements"><path class="cls-1" d="M72.94.05c4.25.11,8.49.33,12.72.84a25.34,25.34,0,0,1,5.45,1.57C94.82,3.78,98.63,4.86,102,7a38.37,38.37,0,0,1,5.94,4.33c1.44,1.36,3.08,2.5,4.53,3.84,2.17,2,3.87,4.47,6.2,6.27a31,31,0,0,1,8.46,10.39,71.47,71.47,0,0,0,5.21,7.76c3.21,4.62,5.62,9.54,6.28,15.25.31,2.7,1.21,5.28,1.58,8a25.93,25.93,0,0,1-1,11.35c-.76,2.41-1.64,4.78-2.49,7.16a11.36,11.36,0,0,0-.56,2.83,21.59,21.59,0,0,1-2.53,7.91,33.16,33.16,0,0,0-2.92,7.68c-.83,3.35-2.77,6.13-4.47,9-2.44,4.17-5,8.28-8.69,11.38a75.71,75.71,0,0,1-10.4,7.54A103.83,103.83,0,0,1,91.5,135.5a49,49,0,0,1-11,2.46c-2.54.33-4.9,1.36-7.38,1.92a18.55,18.55,0,0,1-7.78.25c-1.63-.33-3.28-.64-4.94-.82-2.28-.24-4.3-1.34-6.42-2.07-3.45-1.18-6.83-2.55-10.21-3.92a9,9,0,0,1-2.72-1.6,11.09,11.09,0,0,0-3.09-2.07c-2.36-1-4.46-2.52-6.79-3.57-2.67-1.2-4.75-3.23-7.07-5-4.2-3.15-6.58-7.68-9.41-11.9-1.84-2.73-3.51-5.56-5.1-8.45A74.9,74.9,0,0,1,3.9,87.87c-1-3.07-1.75-6.21-2.59-9.31a28.84,28.84,0,0,1-1-12.43,75.8,75.8,0,0,1,3-12.75,56.09,56.09,0,0,1,4.46-9.19A21.35,21.35,0,0,0,9.5,39.63a16,16,0,0,1,3.07-5.86,81.62,81.62,0,0,0,7-9.54,10.7,10.7,0,0,1,2.67-2.78c2.84-2.13,5.43-4.58,8.16-6.85A73.7,73.7,0,0,1,41.51,7.14a38.16,38.16,0,0,1,7.87-2.93C51.58,3.54,53.8,3,56,2.51q5.51-1.09,11-2A23.46,23.46,0,0,1,72.94.05Z"/><path class="cls-2" d="M62.88,31.1c1.71.84,2.94,2.18,2.44,4.46a11.68,11.68,0,0,1-4.87,7.62,11.89,11.89,0,0,1-6.64,1.66,8.06,8.06,0,0,1-5.05-1.29,2,2,0,0,1-.82-.85c-1-2.75-2.08-5.48-1.1-8.51.31-1,1.08-1.33,1.79-1.79a5.58,5.58,0,0,0,1.53-1.34c1.9-2.55,6.46-1.66,9-1.11A16,16,0,0,1,62.88,31.1Z"/><path class="cls-2" d="M94.93,31.44a4.52,4.52,0,0,1,.69,5.43,27.77,27.77,0,0,1-2.08,3.82c-1,1.32-1.9,2.49-3.78,2.53a14.9,14.9,0,0,1-4.6-.23,17.74,17.74,0,0,1-3.67-1.76,3.52,3.52,0,0,1-1.84-2.79A15.07,15.07,0,0,0,79.36,37c-.59-2.37.22-4.5,1.16-6.58a3.28,3.28,0,0,1,2-1.48c2-.77,5-.72,7.17-.68a5,5,0,0,1,1.44.19,5.43,5.43,0,0,1,1.51.91A14.35,14.35,0,0,1,94.93,31.44Z"/><path class="cls-3" d="M83.78,56.11A6.76,6.76,0,0,1,79.84,55c-.41-.24-.49-.69-.62-1.11a13.83,13.83,0,0,0-2.12-4.75,1.56,1.56,0,0,0-1.37-.69,19.89,19.89,0,0,0-8.42,1.88c-6.26,2.85-10.63,7.63-14.15,13.33a2.84,2.84,0,0,0-.62,1.61c0,.53-.39.43-.69.4a7.8,7.8,0,0,1-3.06-1.12c-.66-.39-.37-.93-.15-1.43a28.09,28.09,0,0,1,3.89-5.77A28.68,28.68,0,0,1,65,48a17.46,17.46,0,0,1,12.25-.63,8.74,8.74,0,0,1,5.56,6A14.91,14.91,0,0,0,83.78,56.11Z"/><path class="cls-3" d="M62.88,32.37l-1,2.89a1.57,1.57,0,0,1-1.44,1.11,16.76,16.76,0,0,1-5.29,0c-.56-.08-.84-.28-.8-.9.08-1.33.12-2.68.17-4a7.88,7.88,0,0,0,.1-2.47,1.08,1.08,0,0,1,1-1.26,24.41,24.41,0,0,1,5-.27,2.45,2.45,0,0,1,2.42,2.49A12.85,12.85,0,0,1,62.88,32.37Z"/><path class="cls-3" d="M86.4,30.43c0-.11.07-.22.1-.33.12-.68.25-1.35.34-2a.88.88,0,0,1,.75-.83c2.1-.31,4.18-.51,6.09.8a1.38,1.38,0,0,1,.7,1.1,27,27,0,0,1,0,4c-.57,1.43-1.12,2.72-3.07,2.86-1.37.09-2.74.12-4.1.15-.6,0-.87-.28-1-.88-.33-1.29.11-2.52.1-3.78C86.47,31.18,86.13,30.77,86.4,30.43Z"/></g></g></svg>