<svg xmlns="http://www.w3.org/2000/svg" viewBox="0 0 140.43 140.43"><defs><style>.cls-1{fill:#d6674c;}.cls-2{fill:#292929;}.cls-3{fill:#fff;}</style></defs><g id="레이어_2" data-name="레이어 2"><g id="Graphic_Elements" data-name="Graphic Elements"><path class="cls-1" d="M77.3,140.43c-5.75-.25-11.51,0-17.23-.9a52.78,52.78,0,0,1-10.32-2.91c-3.47-1.31-6.94-2.58-10.41-3.86a71.43,71.43,0,0,1-8.92-4.25c-3.39-1.81-6.9-3.47-9.87-5.95-6.47-5.39-11.73-11.76-14.8-19.8a25.19,25.19,0,0,0-1.61-3.59C1.67,94.81.91,90,.48,85.11q-.52-6-.48-12a57.11,57.11,0,0,1,4.76-23c3-6.68,5.64-13.5,9.25-19.87,1.57-2.76,3.86-4.85,5.93-7.14a63.42,63.42,0,0,1,8.7-7.85c2.6-2,5.29-3.84,7.93-5.77,1.19-.88,2.37-1.81,3.48-2.8A25.91,25.91,0,0,1,50.68,1.34,31.73,31.73,0,0,1,59.16.57,71.64,71.64,0,0,0,66.78.12c4-.43,7.88.38,11.75,1.07,5.31.94,10.15,3.38,15.22,5.1,2.53.86,5,1.79,7.51,2.76a57.43,57.43,0,0,1,12.62,7.36c5.06,3.69,8.77,8.68,12.72,13.44A56.49,56.49,0,0,1,133,38.37a55,55,0,0,1,4.28,10.38A67.06,67.06,0,0,1,140.38,63c.27,3.14-.56,6.12-1,9.16-.8,5-2.82,9.65-4.46,14.4a13.88,13.88,0,0,0-.86,3.94c-.08,2.19-1.09,4.12-1.7,6.16A66.63,66.63,0,0,1,121.57,118c-2,2.6-3.68,5.36-5.53,8a37.81,37.81,0,0,1-5.15,6.55,4.14,4.14,0,0,1-1.18.83c-1.93.8-3.26,2.5-5.19,3.4a43.16,43.16,0,0,1-9.55,2.8c-5.07,1.08-10.22.81-15.35.87Z"/><path class="cls-2" d="M61.08,71.15c-.11,0-.22,0-.34,0-2.2.18-2.33-.71-1.51-2.63a16.71,16.71,0,0,1,5.94-7.23c2.53-1.75,5.4-1.8,8.34-1.56,3.6.29,5.73,2.46,7.28,5.45a8,8,0,0,0,.64,1.19c1.22,1.53,1.36,3.37,1.57,5.2.13,1.16-.08,2.38.71,3.42.24.32-.2.42-.43.44a18.83,18.83,0,0,1-3.6,0c-.51-.06-.75-.38-.8-.92a26.27,26.27,0,0,0-.64-5.12,15.19,15.19,0,0,0-5.45-8.19c-1.24-.89-2.41-.15-3.42.55a16.78,16.78,0,0,0-6,7.57,1.79,1.79,0,0,1-.13.32c-.26.42.23.87,0,1.29a.29.29,0,0,1-.18.13l-1.91.14Z"/><path class="cls-3" d="M56.17,55.78a22.58,22.58,0,0,1-3.56-.24c-1.82-.12-2.87-1.44-3.94-2.67a1.62,1.62,0,0,1-.18-1.42c.53-2.53,1.11-5,1.68-7.56a1.65,1.65,0,0,1,.94-1.19,18,18,0,0,1,11-1.78,5.13,5.13,0,0,1,2.55,1.36,1.53,1.53,0,0,1,.6,1.51c-.93,3.35-1.36,6.84-3.22,9.92C61,55.6,59.38,56,57.44,55.89Z"/><path class="cls-3" d="M95.19,46.72v1.92c0,2.86-1.69,4.49-4.11,5.49a16.27,16.27,0,0,1-7.93,1.22c-1.57-.17-2.25-.44-2.25-1.94,0-3.41-1-6.78-.43-10.22.16-1,.56-1.39,1.59-1.44,1.72-.08,3.44-.32,5.15-.52a14.62,14.62,0,0,1,4.72.18c1.55.34,3.5,1.61,3.29,3.84a14.42,14.42,0,0,0,0,1.47Z"/><path class="cls-2" d="M64.6,36.73a1,1,0,0,1-.81-.31c-2.86-2.55-6.39-3.88-9.77-5.5-2.49-1.18-5.05-2.12-7.59-3.15-.33-.13-.82-.24-.85-.66s.5-.6.85-.77,1-.42,1.56-.63a2.53,2.53,0,0,1,2.51.23c1.52,1,3.41,1.09,5,2,2.08,1.13,4.27,2,6.45,3a26,26,0,0,1,6,3.85c.41.32.38.6-.06.86A7.88,7.88,0,0,1,64.6,36.73Z"/><path class="cls-2" d="M91,28.44a7.82,7.82,0,0,1,3.51,1.69c.42.36.13.49-.28.63A100.33,100.33,0,0,0,81.5,36c-.54.26-1.06.56-1.58.85-.14.07-.37.14-.38.22-.07,1.64-1.14.67-1.7.57A7.27,7.27,0,0,1,75,36.3c-.57-.41-.67-.71.08-1.1a128.58,128.58,0,0,1,15.3-6.61C90.58,28.53,90.76,28.49,91,28.44Z"/><path class="cls-2" d="M60.72,43.73a3.82,3.82,0,0,0-1.43-.56c-.43-.38-.9,0-1.35-.06h0a10.22,10.22,0,0,0-4.57,0l-.2,0c-.57.16-.61.66-.73,1.12-.3.22-.65.43-.64.86,0,1.89-.72,3.69-.68,5.57.05,2.27.59,2.8,2.64,2.86.3,0,.59.12.89.12,2.77,0,4.2,0,5.1-2.36.76-1.32.64-2.87,1.14-4.26a1.85,1.85,0,0,0,.43-1.19h0a.38.38,0,0,0,.06-.13A1.36,1.36,0,0,0,60.72,43.73Z"/><path class="cls-2" d="M91.79,44c.11-1.25-.38-1.76-1.57-1.74a.59.59,0,0,0-.19-.05c-.14-.32-.42-.22-.67-.23-.07-.06-.12-.07-.17-.05a10.42,10.42,0,0,0-4,0,2,2,0,0,0-1.93,1.85,9.34,9.34,0,0,0-.33,4.45A7.58,7.58,0,0,0,83,49.32c0,.26,0,.52,0,.78,0,1.65.1,1.83,1.7,2a19.26,19.26,0,0,0,5-.06,1.84,1.84,0,0,0,1.72-1.63A4.05,4.05,0,0,0,92.16,48C92.28,46.64,91.67,45.35,91.79,44Zm-2.68-1.94Z"/></g></g></svg>