<svg xmlns="http://www.w3.org/2000/svg" viewBox="0 0 140.43 140.43"><defs><style>.cls-1{fill:#ffb340;}.cls-2{fill:#292929;}.cls-3{fill:#fff;}.cls-4{fill:#d6674c;}</style></defs><g id="레이어_2" data-name="레이어 2"><g id="Graphic_Elements" data-name="Graphic Elements"><path class="cls-1" d="M82.08,140.43h-25c-2.25-.27-4.52-.45-6.76-.9a32,32,0,0,1-6.76-2.06c-3.11-1.37-6.2-2.8-9.38-4-.79-.3-1.55-.67-2.32-1-4.23-1.68-7.52-4.62-10.53-7.93a8.07,8.07,0,0,1-1-1.28q-3-4.94-6.24-9.76c-.35-.55-.68-1.11-1.08-1.63A72.16,72.16,0,0,1,4.12,95.81c-.4-1-.92-1.93-1.25-3A55.25,55.25,0,0,1,.8,80.2C.63,77.8.49,75.4.21,73A28.22,28.22,0,0,1,0,69.57C0,65.7,0,61.83,0,58a21.74,21.74,0,0,1,.69-5.57c.6-2.33,1.21-4.67,1.73-7a74.24,74.24,0,0,1,3.31-8.94,69.71,69.71,0,0,1,5.74-11.5,9.3,9.3,0,0,1,1.29-1.75c3.39-3.32,6.51-6.91,9.92-10.2,3-2.88,6.63-4.75,10.15-6.83,6-3.53,12.56-4.64,19.25-5.55A76.94,76.94,0,0,1,61.43,0c5.35-.06,10.7,0,16.05,0A44,44,0,0,1,91.87,2.36c7.43,2.46,14.88,4.91,22.09,8,5.05,2.16,9.87,4.88,13.57,9a26.6,26.6,0,0,1,6.38,11c1.28,4.8,2.38,9.66,3.94,14.39a65,65,0,0,1,2.53,12.14,15.78,15.78,0,0,1,0,2.06c0,4.11,0,8.21,0,12.31a7.1,7.1,0,0,1-.24,2.16,17.74,17.74,0,0,0-.58,5.8,86.22,86.22,0,0,1-1.31,18.07,32.09,32.09,0,0,1-4.71,11.14,82.3,82.3,0,0,1-10.09,13.06,29.32,29.32,0,0,1-6,4.92,186.78,186.78,0,0,1-16.33,9.32,44.1,44.1,0,0,1-18.52,4.62A.74.74,0,0,0,82.08,140.43Z"/><path class="cls-2" d="M78.43,31a7.67,7.67,0,0,1-3.36-1.61c-.5-.4-.3-.65.19-.92,1.47-.8,2.89-1.7,4.39-2.45,3.75-1.89,7.39-4,11-6a1.08,1.08,0,0,1,.86-.07,9.14,9.14,0,0,1,2.86,1.34c.66.44.81.79-.07,1.23-3.52,1.75-6.85,3.85-10.38,5.58-1.61.79-3.13,1.74-4.69,2.62C79,30.82,78.78,31.06,78.43,31Z"/><path class="cls-2" d="M46.89,26.34c6.18.4,11.4,1.16,16.28,3.45.86.41,1.66.95,2.5,1.4.56.3.46.61.07,1a8.07,8.07,0,0,1-2.8,1.71,1.34,1.34,0,0,1-1.18-.22c-5.67-3.42-11.93-4.42-18.42-4.52-.34,0-.86.28-1-.2s.36-.63.66-.86C44.4,27,45.89,26.16,46.89,26.34Z"/><path class="cls-2" d="M84.55,66.92c-.17-.7-.2-1.43-.32-2.15-.51-3-.89-6-2.7-8.54-1.66-2.33-3.69-4.43-6.63-4.66A19.22,19.22,0,0,0,63,54.2a13.37,13.37,0,0,0-6.37,9.46c-.17,1-.43,1.93-.69,2.89-.5,1.84-.51,1.83,1.3,2.22.08,0,.18,0,.22,0,.92,1,2.18.7,3.28.68,3.44-.08,6.87-.27,10.3-.42v-.23c4.15-.18,8.31-.38,12.46-.52C84.48,68.29,84.81,67.92,84.55,66.92Zm-5.43.62c-5.93.26-11.86.56-17.79.83-1.23,0-1.4-.21-1.08-1.42s.66-2.56,1-3.85h0a10.67,10.67,0,0,1,3-6.27,13,13,0,0,1,7.16-4,3.22,3.22,0,0,1,2.56.72,12,12,0,0,1,4.81,7h0c.56,2,.77,4,1.15,6C80.1,67.26,79.83,67.51,79.12,67.54Z"/><path class="cls-3" d="M61.78,39c-3-.71-6-.44-9-.33a11.87,11.87,0,0,0-5.57,1.83.93.93,0,0,0-.42,1c.06,1.26.11,2.52.16,3.78h-.06c0,1.14.15,2.29.13,3.43a1.64,1.64,0,0,0,1.44,1.78,29.27,29.27,0,0,0,8.71.87c3.71-.3,5.44-2,6-4.4a18.23,18.23,0,0,0,.6-5.55C63.7,39.74,63.35,39.33,61.78,39Z"/><path class="cls-3" d="M90.51,36.89a81.59,81.59,0,0,0-10.72-.1c-1.76.17-2,.36-1.94,2.07a26.57,26.57,0,0,1-.48,5.9c-.57,2.89.57,4,3.49,4.2,3.12.22,6-.58,9-1.26A2.92,2.92,0,0,0,92,46a19.92,19.92,0,0,0,1.3-5.51C93.2,37.65,92.71,37,90.51,36.89Z"/><path class="cls-4" d="M61.25,63.1c3-.32,5.94-.84,8.94-.89a5.15,5.15,0,0,1,3.46.88A.86.86,0,0,0,75,63c1-1.11,2-2.17,3.68-2.21.06,0,.12-.18.18-.28.56,2,.77,4,1.15,6,.13.69-.14.94-.85,1-5.93.26-11.86.56-17.79.83-1.23,0-1.4-.21-1.08-1.42S60.91,64.39,61.25,63.1Z"/><path class="cls-2" d="M55.61,40.14l.57.08c2.5.32,2.5.32,2.61,2.93.08,1.75.13,3.51.24,5.26a1.1,1.1,0,0,1-.9,1.33,16.6,16.6,0,0,1-5.5.85c-1.18-.05-1.77-.5-1.85-1.7-.14-2.21-.24-4.42-.33-6.63-.05-1.24.25-1.52,1.83-1.79C53.36,40.06,54.42,39.47,55.61,40.14Z"/><path class="cls-2" d="M89.15,42.48c0,.91.13,1.82.1,2.73,0,1.61-.61,2.15-2.2,2.3a16.71,16.71,0,0,1-5-.14,1.62,1.62,0,0,1-1.43-1.75c0-2.21,0-4.42.08-6.62,0-.74.49-1,1.16-1.16a13.62,13.62,0,0,1,6,.62,1.58,1.58,0,0,1,1.32,1.73c0,.75.06,1.52.09,2.28Z"/></g></g></svg>