<svg xmlns="http://www.w3.org/2000/svg" viewBox="0 0 140.43 140.43"><defs><style>.cls-1{fill:#ffd561;}.cls-2{fill:#fff;}.cls-3{fill:#d6674c;}.cls-4{fill:#292929;}</style></defs><g id="레이어_2" data-name="레이어 2"><g id="Graphic_Elements" data-name="Graphic Elements"><path class="cls-1" d="M.17,73.41c-.72-5.33,1-10.54,2.38-15.77C4.06,52,6.06,46.5,7.88,41c1.93-5.86,5.53-10.64,9.51-15.18C19,24,20.56,22.16,22.24,20.44c1.83-1.88,4-3.39,5.87-5.24s3.58-3.42,5.32-5.18A26.19,26.19,0,0,1,48.57,2.34C52.81,1.71,57.05,1,61.26.25A27.6,27.6,0,0,1,67.62.12a49.21,49.21,0,0,1,6.87.56c2,.38,3.93.9,5.89,1.37,5,1.22,10.1,2.38,15.11,3.72A56.12,56.12,0,0,1,109.21,12a48.37,48.37,0,0,1,8,6.29c2.8,2.54,5.42,5.29,8.2,7.86a39.75,39.75,0,0,1,9.08,12.93,87.52,87.52,0,0,1,5.21,13.83c1,3.66.7,7.31.49,11-.33,5.58-2,10.88-3.22,16.27a4.45,4.45,0,0,0-.23,1.22c.33,4.44-1.25,8.54-2.12,12.77-1.46,7-4.71,13.25-8.3,19.32a33.87,33.87,0,0,0-2.42,4.47,78.15,78.15,0,0,1-3.78,6.9,9.42,9.42,0,0,1-3.19,3.87c-1.8,1.08-3,2.91-4.84,4a44.83,44.83,0,0,1-14.63,5.11c-7.36,1.24-14.8,1.86-22.24,2.46a50.61,50.61,0,0,1-11.79-.33c-5.07-.77-9.95-2.33-14.94-3.43-6.78-1.51-13.1-4.29-19.41-7.09a31.85,31.85,0,0,1-8.6-5.87c-3-2.76-6.1-5.37-8.28-8.86-2-3.13-3.63-6.43-5.68-9.49-3.18-4.73-4.1-10.16-5-15.57C.61,84.34-.24,79,.17,73.41Z"/><path class="cls-2" d="M81.14,42.91a6.54,6.54,0,0,0,2,1.78c2.66,1.64,6,2.45,9,1.39s5.1-4.39,4.2-7.38a10.38,10.38,0,0,0-2.73-4c-3.15-3.3-5.65-4.2-9.67-1.3C81.28,35.35,79.08,39.92,81.14,42.91Z"/><path class="cls-2" d="M40.66,41.55a6.06,6.06,0,0,0,3.19,6.27,8.15,8.15,0,0,0,5.55-.06,10.88,10.88,0,0,0,4-1.9,7.16,7.16,0,0,0,1-9.57C49.84,30.49,41.45,35.37,40.66,41.55Z"/><path class="cls-3" d="M76.65,56.38a29.13,29.13,0,0,1,1.1,8.15c0,.89-.51.81-1.09.81-5,0-9.93.13-14.89-.25a20.76,20.76,0,0,1-4.23-.34c-.68-.19-.75-.45-.56-1a36,36,0,0,1,1.66-4,3.7,3.7,0,0,1,2.49-.28,10.41,10.41,0,0,1,2.43.28A3.2,3.2,0,0,0,66.74,59c.47-.42,1.07-.68,1.57-1.07C70,56.59,72,56.56,74,56.65A4.92,4.92,0,0,0,76.65,56.38Z"/><path class="cls-4" d="M84.25,33c1.83-.3,2.81.66,3.58,2.2,1.17,2.34,1.33,2.4,3,.46,1.42-1.64,3.13-1,4.75-.91.69,0,.31.52,0,.84a53.25,53.25,0,0,1-4.39,3.83c-.57.49-.67.8-.15,1.41,1.32,1.55,1.9,3.53,2.83,5.31a.75.75,0,0,1-.64,1.15,12.61,12.61,0,0,1-3.13,0c-.27,0-.56-.1-.58-.42-.11-1.34-1-2.36-1.41-3.6-.24-.77-.74-1.27-1.61-.43a22.21,22.21,0,0,0-2,1.74c-.45.58-1.1.34-1.67.38s-1.12,0-1.68,0c-.37,0-.81,0-1-.4s.27-.66.55-.88c1.46-1.11,2.9-2.24,4.41-3.27.65-.45.73-.86.31-1.45-1.21-1.72-1.72-3.89-3.43-5.31-.43-.35.1-.53.32-.56C83,33,83.62,33,84.25,33Z"/><path class="cls-4" d="M56.06,44.93a4.08,4.08,0,0,1-3.44-1.19,3,3,0,0,0-.36-.26c-2.54-1.65-2.33-1.81-3.74,1.14-1.11,2.33-1,2.39-3.61,2.31-1.72,0-1.65,0-1.13-1.62a21.16,21.16,0,0,1,2.31-4.2c.39-.65.26-1-.34-1.3-1.56-.87-3.1-1.76-4.65-2.63-.15-.09-.37-.15-.37-.37s.26-.37.47-.38c1.9,0,3.84-.53,5.49,1,1.05,1,1.15.9,1.84-.32s1.39-2.39,2-3.61a1.35,1.35,0,0,1,1.19-.86c1,0,1.95,0,2.91,0,.46,0,.9.1.45.82-1.23,2-2.34,4-3.57,5.95-.39.63-.26.9.32,1.19,1.9,1,3.92,1.67,5.56,3.08.32.28,1,.42.87.88s-.77.27-1.2.3S56.51,44.93,56.06,44.93Z"/><path class="cls-4" d="M80.92,55.85a8.13,8.13,0,0,0-6.45-5.63,21.06,21.06,0,0,0-9.24.28c-5.12,1.32-9.2,4-11.11,9.28-.58,1.61-1.51,3.1-1.73,4.84-.12.95.11,1.48,1.23,1.44,5.65-.19,11.28.53,16.92.35,3.48-.11,6.95.13,10.43-.14,1-.08,1.23-.42,1.25-1.36A28.27,28.27,0,0,0,80.92,55.85Zm-4.26,9.49c-5,0-9.93.13-14.89-.25a20.76,20.76,0,0,1-4.23-.34c-.68-.19-.75-.45-.56-1a36,36,0,0,1,1.66-4h0c1.89-5,5.74-7.67,10.83-8.55,3.14-.54,6.44,2,7.18,5.19h0a29.13,29.13,0,0,1,1.1,8.15C77.75,65.42,77.24,65.34,76.66,65.34Z"/></g></g></svg>