<svg xmlns="http://www.w3.org/2000/svg" viewBox="0 0 142.47 140.43"><defs><style>.cls-1{fill:#ffd561;}.cls-2{fill:#292929;}.cls-3{fill:#fff;}.cls-4{fill:#ffb340;}.cls-5{fill:#d6674c;}</style></defs><g id="레이어_2" data-name="레이어 2"><g id="Graphic_Elements" data-name="Graphic Elements"><path class="cls-1" d="M68.56.07a81.89,81.89,0,0,1,15,.76c6.44,1,12.62,2.8,18.07,6.7,2.5,1.79,5.29,3.13,7.65,5.16A18.16,18.16,0,0,1,111.62,15a38.24,38.24,0,0,0,7,6.43,18.93,18.93,0,0,1,4.93,5.42,16.57,16.57,0,0,0,2.38,2.89,77.85,77.85,0,0,1,6.76,7.18,27.78,27.78,0,0,1,4.92,11c.64,3,1.43,6,2.25,8.9,1,3.62.51,7.24.25,10.87a42.55,42.55,0,0,1-1.9,9.3c-.9,2.94-1,6-1.5,9a95.56,95.56,0,0,1-4.36,15.9c-2.07,5.62-4.46,11.18-8.43,15.72-4.43,5.08-8.94,10.07-15,13.21-3.12,1.61-6.05,3.64-9.34,4.89a76.93,76.93,0,0,1-16.84,4.21,76.3,76.3,0,0,1-11,.51,55.78,55.78,0,0,1-15.85-2.13c-3.45-1-7.1-1.23-10.53-2.4a39.24,39.24,0,0,1-13.21-7,23,23,0,0,0-5-3.25,47,47,0,0,1-14.21-10.94,77.51,77.51,0,0,1-7.53-10.4A13.46,13.46,0,0,1,4,100.86C3,97.63,2.48,94.3,1.73,91S.84,84.66.39,81.48c-.8-5.6-.2-11.19.31-16.75.42-4.68.92-9.38,1.79-14,.5-2.69,2-4.94,2.89-7.47a17.63,17.63,0,0,1,2.53-4.7c2.27-3.18,4.82-6.22,6.63-9.67,2.22-4.22,5.51-7.37,8.54-10.81.9-1,2-1.92,2.79-3,2.68-3.4,6.31-5.59,9.72-8C38,5.36,40.92,4.76,43.8,4.32a42.79,42.79,0,0,0,8.81-2.43A36.74,36.74,0,0,1,62.1.11,63.22,63.22,0,0,1,68.56.07Z"/><path class="cls-2" d="M94.42,40.53a8.07,8.07,0,0,1-4.45.19,41.67,41.67,0,0,1-10.31-3.08,11.53,11.53,0,0,1-1.11-.56c-1.28-.8-1.43-1.71-.43-2.88A19.11,19.11,0,0,1,82.32,31a25.19,25.19,0,0,0,3.22-2.27c1.57-1.46,3.43-1.05,5.25-1,.2,0,.48.1.49.37s-.28.31-.46.43l-7.7,5.33a3.69,3.69,0,0,0-.41.38c-1.15,1.2-1,1.93.47,2.66a43,43,0,0,0,9.87,3A2,2,0,0,1,94.42,40.53Z"/><path class="cls-2" d="M81.83,49.58a4.06,4.06,0,0,0-4.16-4.29h-.9a15.26,15.26,0,0,0-4,.38c-3.88.88-7.75,1.81-11.63,2.7a76.67,76.67,0,0,0-9.28,2.3c-.76.27-1,.57-.74,1.37s.5,1.89.72,2.85c.8,3.39,1.76,6.7,4,9.47A9.21,9.21,0,0,0,59.13,67a18.92,18.92,0,0,0,11.52,1.78c2.73-.51,5.2-1.63,6.6-4.27A36.32,36.32,0,0,0,79,60.89C80.46,57.25,81.94,53.61,81.83,49.58Zm-4.64,3.09a36,36,0,0,1-1.48,5.09h0a22.86,22.86,0,0,1-3.87,8c-1.74,2.14-4.33,2.48-7.26,1.39-4-1.47-6-4.55-7.19-8.39h0c-.93-2.12-1.1-4.45-1.79-6.65-.24-.76.45-.86.91-1a58,58,0,0,1,6.34-1.55c4.1-.93,8.2-1.86,12.29-2.86a1.18,1.18,0,0,1,1.53.63C77.74,49,77.45,50.89,77.19,52.67Z"/><path class="cls-3" d="M57.56,32.83a4.61,4.61,0,0,0-2.75-4.21c-2.42-1.16-5-.87-7.44-.62a10.46,10.46,0,0,0-5,1.4A2.85,2.85,0,0,0,40.8,32c.05,2.25,0,4.51.25,6.76a2.92,2.92,0,0,0,3,2.94c1.87.12,3.75.2,5.63.3A18.52,18.52,0,0,0,56,41.25c.57-.2,1-.44,1.11-1.11A49.71,49.71,0,0,0,57.56,32.83Z"/><path class="cls-4" d="M120.7,50.58a23.9,23.9,0,0,1-2.53.18c.21-6.22-3.53-13.26-7.65-17.82a20.93,20.93,0,0,0-8-5.92c-.32-.12-.63-.25-.94-.4s-.74-.24-.72-.63.46-.46.77-.56a20.79,20.79,0,0,0,10.87-8.32c2.91-4.3,4.22-8.81,5.41-13.75,1.52-.15,3.56-1.09,5-.43,1.17.53.74,1.83.75,3.05a28.16,28.16,0,0,0,.73,6.73A11.38,11.38,0,0,0,128.77,19c2.86,2.2,5.52,4.68,8.62,6.58a24.81,24.81,0,0,0,4.13,1.82c.38.15.87.29.94.74s-.48.61-.81.8a37.55,37.55,0,0,0-10.26,8.1,61,61,0,0,0-4.9,6.21c-.43.66-2.71,6.74-3,6.81A23.77,23.77,0,0,1,120.7,50.58Z"/><path class="cls-2" d="M46.06,40.34A2,2,0,0,1,45,38.6a49.24,49.24,0,0,1,.11-6.54,1.56,1.56,0,0,1,1.65-1.48,25.66,25.66,0,0,1,5.61.26c.43.06.64.2.8.73.78,2.59.4,5.21.34,7.83,0,.53-.39.78-.84,1-.26.15-.58,0-.85.17a7.84,7.84,0,0,0-1.36.14c-.17,0-.35,0-.48-.12H49A7.57,7.57,0,0,1,46.06,40.34Z"/><path class="cls-5" d="M57.39,58.72c2.29-1.43,4.82-1.55,7.41-1.41a3.73,3.73,0,0,1,2.56,1.28c.41.45.7.58,1.29.11,1.72-1.37,3.81-1.14,5.83-1.07.41,0,.82.08,1.23.13a22.86,22.86,0,0,1-3.87,8c-1.74,2.14-4.33,2.48-7.26,1.39C60.62,65.64,58.57,62.56,57.39,58.72Z"/></g></g></svg>