<svg xmlns="http://www.w3.org/2000/svg" viewBox="0 0 140.43 140.43"><defs><style>.cls-1{fill:#ffd561;}.cls-2{fill:#292929;}</style></defs><g id="레이어_2" data-name="레이어 2"><g id="Graphic_Elements" data-name="Graphic Elements"><path class="cls-1" d="M138.93,62.71a37,37,0,0,0,.6,7.24,48.82,48.82,0,0,1,.85,12.14c-.13,3.93-1.07,7.68-1.75,11.5a14.49,14.49,0,0,1-1.62,4,98.93,98.93,0,0,1-6.88,10.63,74.7,74.7,0,0,1-5.75,7.18,70.94,70.94,0,0,1-6.85,6.34c-4.37,3.77-9,7.2-13.72,10.57a15.62,15.62,0,0,1-3.87,2.05c-1.77.63-3.54,1.25-5.28,2-2.38,1-5,.91-7.51,1.43-3.44.72-7.06.57-10.35,2a4.58,4.58,0,0,1-2,.27c-3.42-.08-6.82.29-10.24.31a78,78,0,0,1-12.77-1,24.24,24.24,0,0,1-10.49-4.61,38.79,38.79,0,0,0-6.77-4,42.3,42.3,0,0,1-10.21-7.11,103.47,103.47,0,0,1-13.07-14.21A45.24,45.24,0,0,1,1.94,88.67c-.5-3-1.6-5.89-1.28-8.94C1.08,75.77.5,71.89.07,68A17.11,17.11,0,0,1,.5,62.56a18.12,18.12,0,0,0,.36-3.67A75.76,75.76,0,0,1,1,49.36a24.63,24.63,0,0,1,3.33-9.92c1.81-2.93,3.6-5.87,5.3-8.87,5.58-9.79,20-18.85,30.44-22.55a31.47,31.47,0,0,0,4.83-2.4,35.66,35.66,0,0,1,5.21-2.14A49.48,49.48,0,0,1,58.4.92C61.2.43,64-.23,66.87.08a38.82,38.82,0,0,0,5.06,0A35.87,35.87,0,0,1,82.58,1.67C86.89,2.9,91.25,4,95.25,6,97.55,7.2,99.7,8.68,102,9.79a80,80,0,0,1,10.61,6.55,35.79,35.79,0,0,1,9.44,9.21c.94,1.36,2,2.61,3,3.91a20.29,20.29,0,0,1,3,4.74A12.27,12.27,0,0,0,130,37.37,29.31,29.31,0,0,1,135.7,50a31.07,31.07,0,0,0,1.83,5A17.42,17.42,0,0,1,138.93,62.71Z"/><path class="cls-2" d="M54.4,34.47c2.18.07,4.73-.34,7.17.33a33.85,33.85,0,0,0,9.35.74c2.35,0,4.66-.55,7-.73a121.87,121.87,0,0,1,18.72,0,18.15,18.15,0,0,1,5.85,1.41c2.12.91,2.8,1.86,2.69,4.12A27.57,27.57,0,0,1,100.8,54a6.36,6.36,0,0,1-3.74,2.5c-3.46,1.08-7,1-10.56.78a33.74,33.74,0,0,1-6-.62c-4.32-1-6.72-3.8-7.73-8-.66-2.76-1.58-5.46-2.35-8.19a.85.85,0,0,0-.94-.73,26.81,26.81,0,0,1-3.59-.16c-.91-.14-1.18.21-1.33,1-.7,3.6-1.93,7.06-2.83,10.6-.7,2.77-2.33,4.73-5.2,5.27a26.83,26.83,0,0,1-7.05.2c-3-.24-5.94-.52-8.89-1a16.36,16.36,0,0,1-4.08-1.49,2.25,2.25,0,0,1-1-1,35,35,0,0,1-3.71-13.41,3.33,3.33,0,0,1,1.79-3.35,11,11,0,0,1,5.13-1.38C43.84,34.57,49,34.67,54.4,34.47Z"/><path class="cls-2" d="M71,76.35a26.3,26.3,0,0,1-4.67-.46c-3.46-.75-5.06-3.34-6.44-6.18-.29-.6-.06-.93.61-.95.38,0,.75-.05,1.12-.08a2.75,2.75,0,0,1,3.15,1.75c1.08,2.37,2.62,4.47,5.59,4.79a6.69,6.69,0,0,0,3.25-.63,24.21,24.21,0,0,0,10-7.89,25.3,25.3,0,0,0,2.89-3.85c.36-.72,1-.78,1.73-.74,1,.06,2.35-.45,2.83.36.3.49-.75,1.66-1.37,2.38-2.49,2.88-4.66,6.07-8,8.1C77.7,75.34,75.38,76.47,71,76.35Z"/></g></g></svg>