<svg xmlns="http://www.w3.org/2000/svg" viewBox="0 0 160.75 140.43"><defs><style>.cls-1{fill:#ffd561;}.cls-2{fill:#292929;}.cls-3{fill:#fff;}.cls-4{fill:#8cbbe8;}.cls-5{fill:#d6674c;}.cls-6{fill:#2a2a2a;}</style></defs><g id="레이어_2" data-name="레이어 2"><g id="Graphic_Elements" data-name="Graphic Elements"><path class="cls-1" d="M65.45.7c2.44,0,4.88,0,7.32,0A18.48,18.48,0,0,0,78.46.26,8.44,8.44,0,0,1,81.3,0c3.27.13,6.55.35,9.83.38C95.94.44,100.46,1.85,105,3c3.36.86,6.48,2.53,9.9,3.19,2.6.5,5,1.63,7.51,2.35a9.18,9.18,0,0,1,4.32,2.22c1.47,1.57,3.45,2.45,5,4a41.18,41.18,0,0,1,6.07,9c3,5.46,4.55,11.48,6.42,17.36a122.44,122.44,0,0,1,4.29,15.77,47.53,47.53,0,0,1,.64,10.79c-.25,4.76-.23,9.54-.56,14.3A90.4,90.4,0,0,1,147,92.83c-.55,2.84-1.09,5.67-1.92,8.44-1.2,4-3.49,7.45-5.55,11a41.06,41.06,0,0,1-9,10.28c-2,1.7-3.79,3.55-5.72,5.28-2.89,2.6-6.45,4.06-9.95,5.58a95.34,95.34,0,0,1-23.45,6.84,34.14,34.14,0,0,1-5.72.08c-6.76-.09-13.43-1.18-20.15-1.8-7.36-.69-14-3.34-20.37-7-5.12-2.95-9.69-6.63-14.5-10-1.75-1.23-3.63-2.28-5.32-3.58a27,27,0,0,1-9.45-12.66c-1.49-4.25-3.12-8.45-4.8-12.62a28.55,28.55,0,0,1-1.3-5.79,44.62,44.62,0,0,1-1-8.84c.19-6.87.34-13.74.74-20.6a57.69,57.69,0,0,1,2.79-13.26c2.13-7,6.36-12.9,10.16-19a57,57,0,0,1,4.67-6.78,44,44,0,0,1,7.71-7A87.86,87.86,0,0,1,46.29,4,30.14,30.14,0,0,1,57.92.91C60.42.7,62.92.23,65.45.7Z"/><path class="cls-2" d="M112.4,45.5a10.49,10.49,0,0,1-1.24-.15,63.05,63.05,0,0,0-13.44-.89c-8.85.35-17.7.72-26.55,1A75.83,75.83,0,0,0,54,47.84a28.47,28.47,0,0,0-5,1.58c.47.5,1,.61,1.13,1.19.41,1.47,1,2.89,1.42,4.35a29.6,29.6,0,0,0,8.82,13.68,23,23,0,0,0,13.64,5.82,36.35,36.35,0,0,0,9.42-.73,37,37,0,0,0,20-10.44,44.72,44.72,0,0,0,10.23-15.7C114.31,46.14,113.93,45.61,112.4,45.5Zm-3.28,2.37a37.08,37.08,0,0,1-3.27,6.55,25.46,25.46,0,0,1-3.41,5,4.28,4.28,0,0,1-1.09,1h0A35.37,35.37,0,0,1,80.72,72.85C73,74.51,67.54,71.15,62.56,66a14.68,14.68,0,0,1-2-2.61h0A21.06,21.06,0,0,1,57,57.2c-.79-2.23-1.54-4.47-2.35-6.7-.25-.7-.15-1,.65-1.26a66.09,66.09,0,0,1,16.52-2.69c8.48-.26,16.95-.64,25.42-1a48.71,48.71,0,0,1,11.05.69C109.6,46.51,109.6,46.51,109.12,47.87Z"/><path class="cls-3" d="M68.65,32.33c-1.71-2.47-3-4.59-6.18-5.24-2.19-.44-5.18-1-7.06.58-2.91,2.41-3.18,10.69.82,12.28,3.4,1.35,7,1.73,10.5,0A5.27,5.27,0,0,0,68.65,32.33ZM57.08,28Z"/><path class="cls-3" d="M105.76,28.18c-.88-2.76-3-3.71-5.78-4-2.14-.22-6.14-.61-7.63,1.27-1.3,1.64-1.21,3.46-1.17,5.32l.06,1.2a1.79,1.79,0,0,0,.5,1.26c.17.39.34.77.5,1.16,1.15,2.84,4.27,4.14,7.14,4.35C103.84,39.07,106.9,31.8,105.76,28.18Z"/><path class="cls-4" d="M150.26,71.46c-1.1.16-2,.89-3,1.21a7.9,7.9,0,0,1-2.69.34c-1.41-.08-2.82,0-4.23,0-6.14-.07-10.17-3.24-12.75-8.61-.91-1.89-2-3.66-3-5.51-1.6-3-2.39-6.25-3.48-9.41-2-5.68-7.77-24,5.31-19.51A113.91,113.91,0,0,1,137,34.4c3.79,1.77,7.79,3.12,11.26,5.54,2.49,1.74,5.42,3,7.45,5.26,3.69,4.18,5.86,9,4.74,14.78-.7,3.55-3,6.09-5.67,8.32a33.43,33.43,0,0,1-3,2c-.33.24-.76.36-1,.76Z"/><path class="cls-4" d="M13.89,74.21A27.4,27.4,0,0,1,1.68,64.15c-2.45-3.55-2-7.42-.16-11.09C3.81,48.44,8,45.75,12.31,43.37c2.9-1.6,6-2.89,9-4.35,3.26-1.58,6.79-2.22,10.28-3,3.31-.74,6.61-2.15,10.05-2.08,3.6.07,3.83,2.6,3.2,5.52a110.47,110.47,0,0,1-2.85,11.19c-.67,2.06-1.31,4.13-2,6.2a44.8,44.8,0,0,1-2.49,5.63,23.32,23.32,0,0,1-1.27,2.43,20.52,20.52,0,0,1-18,10.1,9.31,9.31,0,0,1-2.05-.09A6.56,6.56,0,0,1,13.89,74.21Z"/><path class="cls-5" d="M60.52,63.43c5.06-2,10-1,14.93.55a1.1,1.1,0,0,0,1.45-.41A17.41,17.41,0,0,1,87.78,56.7c3.55-.72,7.2-.86,10.55,1.15a10.1,10.1,0,0,1,3,2.57A35.37,35.37,0,0,1,80.72,72.85C73,74.51,67.54,71.15,62.56,66A14.68,14.68,0,0,1,60.52,63.43Z"/><path class="cls-6" d="M57.08,28c3.91.09,6.94,2.14,9.86,4.44a.81.81,0,0,1,.13,1.29q-2.16,2.81-4.3,5.64c-.58.78-1.45.6-2.22.61s-1.87.44-2.25-.24S59,38.5,59.41,37.9c.94-1.34,1.92-2.66,3-3.92.56-.66.31-1-.23-1.47a16.43,16.43,0,0,0-4-2.37c-.87-.39-1.72-.8-2.58-1.21-.39-.44-.06-.66.27-.88a.47.47,0,0,1,.26-.22A1,1,0,0,1,57.08,28Z"/><path class="cls-6" d="M101.78,25.39c.2.49-.26.67-.48.92a37.67,37.67,0,0,1-4,3.94c-.79.67-.87,1.21-.12,2a44.19,44.19,0,0,0,5.15,4.11l-.29.45a3.09,3.09,0,0,1-1,.42,12.66,12.66,0,0,1-2.82,0,24,24,0,0,1-5.66-4.47,4.28,4.28,0,0,1-.45-.91,2.88,2.88,0,0,1,.19-1.33c1.54-1.76,3.26-3.33,4.9-5A2,2,0,0,1,98.9,25c.81.2,1.65,0,2.47.16Z"/></g></g></svg>