<svg xmlns="http://www.w3.org/2000/svg" viewBox="0 0 140.43 140.43"><defs><style>.cls-1{fill:#618dd3;}.cls-2{fill:#fff;}</style></defs><g id="레이어_2" data-name="레이어 2"><g id="Graphic_Elements" data-name="Graphic Elements"><path class="cls-1" d="M0,69.72C.11,64.36.36,59,.2,53.54A26.67,26.67,0,0,1,2.52,41.75c1.2-2.68,3-5,4.47-7.55,1-1.68,1.9-3.4,3-5,2-3,5-5.1,7.78-7.3A24.17,24.17,0,0,1,23,18.56c1-.42,1.41-1.44,2.18-2.1a40.71,40.71,0,0,1,13.3-8,43.07,43.07,0,0,0,6.19-3,37.64,37.64,0,0,1,5-2A51.53,51.53,0,0,1,57.91,1a34.31,34.31,0,0,1,8.63-.9,37.65,37.65,0,0,0,4.75,0C75.8-.24,80,1.1,84.3,2.18a69.75,69.75,0,0,1,17.4,7.45c3.67,2.08,7.26,4.28,10.73,6.65a36.31,36.31,0,0,1,9.45,9.09,41.21,41.21,0,0,0,3.25,4.17c1.88,2.07,2.73,4.73,4.25,7,.69,1,1.3,2.12,2.08,3.07,3.77,4.63,5.17,11.91,6.77,17.5,2.06,7.22,2.34,17,2.15,24.56a70.67,70.67,0,0,1-1.55,10.86,17.38,17.38,0,0,1-1.83,5,106.39,106.39,0,0,1-6.91,10.64,77.34,77.34,0,0,1-5.7,7.1,70.58,70.58,0,0,1-7,6.42c-4.39,3.78-9.06,7.22-13.79,10.57a11.75,11.75,0,0,1-2.13,1.27c-4.66,1.94-9.34,3.81-14.48,4.21-2.21.17-4.4.68-6.62.89a3.86,3.86,0,0,0-1.32.3c-2.35,1.16-4.91,1-7.42,1.23-4.33.36-8.68.2-13,.24-2.71,0-5.37-.79-8.06-1.15-3.7-.5-6.73-2.34-9.66-4.41A40.21,40.21,0,0,0,34,130.8a42.28,42.28,0,0,1-10.16-7A106.25,106.25,0,0,1,11.14,110.1a48.12,48.12,0,0,1-10-22.38A93.58,93.58,0,0,1,0,69.72Z"/><path class="cls-2" d="M98.44,79.56a7.65,7.65,0,0,0-1.55-.23A12.38,12.38,0,0,0,99.67,77a5,5,0,0,0,1.17-5c-.45-1.57-1.31-3-3.08-3.11a3.35,3.35,0,0,1-.84-.29c-.87-.35-.89-.43-.22-1.19.15-.17.29-.35.45-.5a3.68,3.68,0,0,0,1.15-3.45,11.7,11.7,0,0,0-.5-2.2,3.56,3.56,0,0,0-1.89-2.14,11.49,11.49,0,0,0-6-1.45c-2.11.11-4.23.09-6.34.15-.74,0-1-.26-1.23-1.11A30.16,30.16,0,0,1,82,50.9a19.9,19.9,0,0,0-2.64-9.19c-.63-1.16-1.39-2.45-2.86-2.55a25.15,25.15,0,0,0-3.13,0,3.21,3.21,0,0,0-2.69,1.66,17.11,17.11,0,0,0-1.58,4.4c-.57,2.41-1,4.83-1.82,7.19-1.14,3.48-3.35,5.38-6.64,5.89a10,10,0,0,0-4,1.76,3.25,3.25,0,0,0-1.33,1.48,18.69,18.69,0,0,0-1.5,6.78c0,3.52.09,7,.09,10.54q0,2.94-.14,5.88a4.25,4.25,0,0,0,1.29,3.69,15.22,15.22,0,0,0,4.05,2.45A19.16,19.16,0,0,0,66,92.26a16.79,16.79,0,0,1,4.48.25,13.45,13.45,0,0,0,3.71.56A58.59,58.59,0,0,0,86,92.3c3.54-.65,7-1.25,10.35-2.86a10.4,10.4,0,0,0,4.07-3.59c.62-.92.26-2,.28-3A3.16,3.16,0,0,0,98.44,79.56Z"/><path class="cls-2" d="M50.28,87.16c-.3-3.82-1.18-7.62-.55-11.46.42-3.43,0-6.84-.31-10.26a9.41,9.41,0,0,0-1-4.1,2,2,0,0,0-1.73-1.05C44,60.1,41.42,60,38.79,60a1.11,1.11,0,0,0-1.24.82A23.9,23.9,0,0,0,37.06,71c.19,1.39.46,2.77.6,4.17q.6,6.26,1.18,12.51a2.08,2.08,0,0,0,1.82,2,22.4,22.4,0,0,0,9.36.54c.2,0,.56-.06.45-.34A9,9,0,0,1,50.28,87.16Z"/></g></g></svg>