<svg xmlns="http://www.w3.org/2000/svg" viewBox="0 0 140.43 140.43"><defs><style>.cls-1{fill:#ffd561;}.cls-2{fill:#fff;}.cls-3{fill:#d6674c;}.cls-4{fill:#292929;}</style></defs><g id="레이어_2" data-name="레이어 2"><g id="Graphic_Elements" data-name="Graphic Elements"><path class="cls-1" d="M140.42,66.54a105.37,105.37,0,0,1-1.1,12.56c-.3,2.78-.48,5.58-1,8.33a125.12,125.12,0,0,1-4.29,16.89c-1.34,4.09-3.84,7.51-6.18,11.05-3.17,4.79-7.51,8.29-12,11.68-1.42,1.07-2.81,2.19-4.18,3.33a26.25,26.25,0,0,1-8.18,4.16,97.94,97.94,0,0,1-17,4.71,72.33,72.33,0,0,1-9.7,1.17,52.93,52.93,0,0,1-7.92-.68c-7-.83-13.84-2.29-20.68-3.79a32.78,32.78,0,0,1-8.54-3,91.08,91.08,0,0,1-13.65-9c-2.81-2.22-5.43-4.71-8.2-7-.87-.73-1.79-1.4-2.7-2.09a26.66,26.66,0,0,1-9.3-12.33c-.75-2.07-1.3-4.19-1.87-6.3A59.57,59.57,0,0,0,2.05,90C.71,86.52.53,82.9.16,79.29c-.51-4.78.33-9.47.83-14.18.39-3.65.86-7.29,1.2-10.94a55.08,55.08,0,0,1,2.7-11.41C7.31,35.13,12,28.85,16.76,22.62c1.55-2,3-4.11,4.63-6a41.24,41.24,0,0,1,9.28-7.64A66.8,66.8,0,0,1,45.1,1.51,19.67,19.67,0,0,1,50.88.35c2.65-.07,5.3-.33,8-.35,4.49,0,8.92,1,13.42,1.09A120.88,120.88,0,0,1,89.59,2.35a60.23,60.23,0,0,1,13.57,4.18c3.54,1.45,7.11,2.82,10.69,4.19a34,34,0,0,1,7,3.21,5.82,5.82,0,0,1,1.38,1.17c1.3,1.7,3.26,2.66,4.61,4.35A46.44,46.44,0,0,1,132,28.51c2.14,4.48,3.09,9.33,4.27,14.1,1.23,5,2.31,10,3.31,15A41,41,0,0,1,140.42,66.54Z"/><path class="cls-2" d="M98.47,24.58A15.83,15.83,0,0,0,93,22.51a19.7,19.7,0,0,0-7.75-.5,24.94,24.94,0,0,0-5.91,2.28,3.91,3.91,0,0,0-2.29,3.32c-.09,1.61-.45,3.25,0,4.85.88,3.47,1.95,6.85,6.07,7.81a11.8,11.8,0,0,0,3.36.34,12.41,12.41,0,0,0,2.6-.19,11.69,11.69,0,0,0,6.75-2.94,15.08,15.08,0,0,0,4.59-8.68A3.81,3.81,0,0,0,98.47,24.58Z"/><path class="cls-2" d="M62.9,24a2,2,0,0,0-1.07-.6c-4.11-1-8.19-2.18-12.49-1.93a6.83,6.83,0,0,0-3.52,1.31c-.23.17-2.73,2.5-2.47,2.63-2,3.22-2.55,6.5-.52,10,1,1.78,2.06,3.65,4.16,4.29a17.27,17.27,0,0,0,8.85.37c5-1.1,7.92-4.67,9.45-9.33C66.32,27.58,65.35,25.32,62.9,24Z"/><path class="cls-3" d="M97.23,29c.09,3.57-1.81,6.41-4,9.1a1.34,1.34,0,0,1-1.11.5,10.21,10.21,0,0,1-4.56-.94c-3.6-1.78-5.39-4.86-7-8.18-.67-1.38-.28-2.92,0-4.34a2.28,2.28,0,0,1,2.06-1.57,15.14,15.14,0,0,1,4.75.12c1,.19,1.27,1.12,1.64,1.89.28.58.5.77,1,.22,1.08-1.13,2.53-.88,3.86-.84,3.11.08,3.4.45,3.31,3.56C97.23,28.65,97.23,28.77,97.23,29Z"/><path class="cls-3" d="M44.23,24.72a.76.76,0,0,0,.47-.44,13,13,0,0,1,6.46-.53,3.24,3.24,0,0,1,2.48,1.36c.26.34.56.68.92.06a3.67,3.67,0,0,1,3.87-1.78c.83.07,1.66.1,2.48.21s1.54.5,1.52,1.48c0,2.17.3,4.39-.69,6.47a56.17,56.17,0,0,1-5.06,5.63,2.27,2.27,0,0,1-1.59.7,8.38,8.38,0,0,1-5.49-1.75,16.12,16.12,0,0,1-4.7-4.68,19.1,19.1,0,0,1-1.1-3.33C43.85,27,43.55,25.79,44.23,24.72Z"/><path class="cls-3" d="M56.53,59.13c.67-.12.83-.75,1.1-1.21a5.07,5.07,0,0,1,3-2.25c3-1,5.95-1.1,8.71.72.66.43.94.13,1.21-.39a8,8,0,0,1,5.38-4.5c1.94-.43,4-.57,5.62,1.08.47.47.81,1.12,1.54,1.29-2.45,2.76-4.54,5.8-7.6,8a13.68,13.68,0,0,1-17-.85C57.78,60.44,57.17,59.77,56.53,59.13Z"/><path class="cls-4" d="M89.46,43.85A71.24,71.24,0,0,0,81,43.41q-8.1.17-16.19.78a105,105,0,0,1-14.52.32,3,3,0,0,0-.79,0c-.35.07-.63.22-.61.67.07,1.85,0,3.7.17,5.55.52,5.23,2.78,9.35,7.34,12.13a18.87,18.87,0,0,0,9.92,2.66,35,35,0,0,0,4.12,0c5.24,0,9.4-2.27,12.83-6.06,1.27-1.41,2.43-2.9,3.66-4.34,2.37-2.76,3.18-6.16,3.93-9.56C91.08,44.32,90.7,44,89.46,43.85Zm-3.14,1.73c-.75,2.89-1.41,5.82-3.23,8.29h0c-2.45,2.76-4.54,5.8-7.6,8a13.68,13.68,0,0,1-17-.85c-.67-.61-1.28-1.28-1.92-1.92a14.94,14.94,0,0,1-3-8,30.72,30.72,0,0,1-.28-3.84c0-1.06.51-1.44,1.4-1.49,2.42-.14,4.83-.33,7.25-.35,3.25,0,6.48-.48,9.72-.59,4.64-.16,9.28-.65,13.93-.24C86.23,44.73,86.48,45,86.32,45.58Z"/></g></g></svg>