<svg xmlns="http://www.w3.org/2000/svg" viewBox="0 0 156.99 140.43"><defs><style>.cls-1{fill:#ffd561;}.cls-2{fill:#292929;}.cls-3{fill:#ff919b;}</style></defs><g id="레이어_2" data-name="레이어 2"><g id="Graphic_Elements" data-name="Graphic Elements"><path class="cls-1" d="M91.76,140.43c-5.53-.2-11.06-.38-16.58-.63s-10.46-2-15.34-4.24a76.69,76.69,0,0,1-9.17-4.67c-2.91-1.83-5.84-3.61-8.74-5.46a17.21,17.21,0,0,0-2.29-1.29,27.53,27.53,0,0,1-13.93-15.3,89.25,89.25,0,0,0-4-8.37c-1.95-3.64-2.64-7.63-3.6-11.55-.88-3.63-.77-7.35-.93-11-.21-4.82-.65-9.63-.62-14.44a53.65,53.65,0,0,1,5.78-24.51c2.17-4.22,4.34-8.43,6.58-12.6A32.1,32.1,0,0,1,34,19.45,89.68,89.68,0,0,1,46.65,8.71,34.24,34.24,0,0,1,60.53,3.12c5.4-1.05,10.84-1,16.28-1.33a9.24,9.24,0,0,0,2.46-.47A20.21,20.21,0,0,1,84.89.4c3-.09,6-.37,9-.4,6.62-.06,13,1.33,19.36,3.09,2.39.66,4.89.82,7.26,1.48,2.59.73,5.28,1.09,7.76,2.21a5.19,5.19,0,0,1,1.52,1c1.48,1.47,3.55,2,5.06,3.48a45.13,45.13,0,0,1,9.33,13.22,239.77,239.77,0,0,1,9.72,24.13,45.07,45.07,0,0,1,2.45,14c.08,4.43.49,8.85.6,13.29a111.45,111.45,0,0,1-1,14.71,37.43,37.43,0,0,1-2.6,11c-2.71,6.2-5.76,12.16-10.81,16.87a53.93,53.93,0,0,0-4.34,4.72c-2.73,3.29-6.31,5.4-10,7.37a92.39,92.39,0,0,1-23.77,9.09c-3.36.73-6.83.58-10.26.66-.8,0-1.61,0-2.41,0Z"/><path class="cls-2" d="M104.84,38.78c-2.62.07-3-.4-2.41-3,.67-3.15,1.89-5.94,5-7.41,5.48-2.61,11.81-1.32,13.25,5.69.22,1,.35,2.11.58,3.15.15.64,0,1-.67,1-1,0-2,0-3,0-.63,0-.77-.47-.88-1a22.73,22.73,0,0,0-1.18-5,7.28,7.28,0,0,0-2.29-3.07c-.85-.66-1.36-.48-2.16,0-3.35,2.1-4.25,5.3-4.12,9,0,.52-.17.6-.52.62C105.91,38.8,105.37,38.78,104.84,38.78Z"/><path class="cls-2" d="M83.29,37.41h-.46c-2.07,0-1.85-.07-1.88-1.92a9.93,9.93,0,0,0-2.9-6.9,1.26,1.26,0,0,0-1.81-.19,12.32,12.32,0,0,0-3.76,4.11,17.31,17.31,0,0,0-2.15,4.3,1.31,1.31,0,0,1-.08.21c-.33.52-4,.6-4.38.11a.63.63,0,0,1,0-.65,20.23,20.23,0,0,1,5.63-8.24,7.75,7.75,0,0,1,4.3-1.39c1-.09,1.91,0,2.87-.05a5,5,0,0,1,4.51,2.26,11.27,11.27,0,0,1,2.34,7.5.76.76,0,0,1-.86.82H83.29Z"/><path class="cls-2" d="M96.11,58.17a4.29,4.29,0,0,1-2.61.44,13.63,13.63,0,0,1-8.23-2.36,3.62,3.62,0,0,1-1.82-2.52c-.26-1.91.3-2.69,2.17-3.3l2.28-.73a3.4,3.4,0,0,1-1.48-3.37,2.93,2.93,0,0,1,2.93-2.75,12.7,12.7,0,0,1,9,2.33c.27.2.71.36.63.74s-.59.38-1,.4h-.12a6.48,6.48,0,0,1-5.25-1.54c-1.11-.84-1.37-.61-1.67.77A2.65,2.65,0,0,0,92,49.1c.3.26.78.53.59,1s-.64.32-1,.4a13.52,13.52,0,0,0-1.66.44c-.8.27-1.73.32-1.94,1.47a2.9,2.9,0,0,0,1.21,3.12,10.23,10.23,0,0,0,5.26,2.07A2.33,2.33,0,0,1,96.11,58.17Z"/><path class="cls-3" d="M46.23,27.88c3.82.42,6.54,3,9.12,6.45,2.4,3.15,3.28,6.91,4.43,10.6,1.54,4.92,1.68,9.94,1.49,15a42.61,42.61,0,0,1-3.19,13.64,30.27,30.27,0,0,1-2,4.46c-1.72,2.95-2.42,6.3-3.78,9.39a19.15,19.15,0,0,0-.84,2.1,2.47,2.47,0,0,1-1.74,1.66,14.09,14.09,0,0,1-3.77.5,17.11,17.11,0,0,1-8.46-2c-3.2-1.69-6.6-3-9.84-4.59a59.7,59.7,0,0,1-11.23-7.62,54.23,54.23,0,0,1-13-15.71A24.18,24.18,0,0,1,.05,48.3a9.83,9.83,0,0,1,4-6.95,16.81,16.81,0,0,1,9.8-3.64A12.89,12.89,0,0,1,23.51,41,44.91,44.91,0,0,1,29,46.62a18.46,18.46,0,0,0,1-3.93,28.16,28.16,0,0,1,2.68-8c2.21-4.21,6.1-5.94,10.55-6.7A11.2,11.2,0,0,1,46.23,27.88Z"/></g></g></svg>