<svg xmlns="http://www.w3.org/2000/svg" viewBox="0 0 140.43 140.43"><defs><style>.cls-1{fill:#ffd561;}.cls-2{fill:#292929;}.cls-3{fill:#d6674c;}</style></defs><g id="레이어_2" data-name="레이어 2"><g id="Graphic_Elements" data-name="Graphic Elements"><path class="cls-1" d="M140.39,64.63c-.07,6.1-.19,12.21-.7,18.29a34,34,0,0,1-2.06,9.22,92,92,0,0,1-6.48,13.77c-1.89,3.29-4.08,6.43-6.08,9.68-1.2,2-2.08,4.09-3.43,6-3.64,5-8.62,8.22-14.32,10.49a68.31,68.31,0,0,0-7.25,3.41c-3.59,1.94-7.56,2.57-11.45,3.49-3.68.87-7.43.74-11.17.9-4.54.19-9.08.5-13.63.59A53.63,53.63,0,0,1,53,139.34a54.78,54.78,0,0,1-15.71-5.54c-4-2.08-7.95-4.12-11.84-6.33-5.11-2.9-8.91-7.26-12.59-11.73a77.65,77.65,0,0,1-6.3-8.86c-2.09-3.41-2.78-7.22-3.58-11C1.62,89.2,2.13,82.42.93,75.74-.91,65.51.13,55.06,2.76,45.09,3.5,42.28,4,39.44,4.65,36.62A44.43,44.43,0,0,1,7.18,28a3.81,3.81,0,0,1,.76-1.13c1.48-1.46,2.11-3.49,3.51-5.05,2.36-2.63,5.29-4.48,8.12-6.48a52.66,52.66,0,0,1,9.93-5C35.23,7.94,41,5.7,46.9,3.58A51.87,51.87,0,0,1,63.82.45C67.87.39,71.92.12,76,0A94.29,94.29,0,0,1,88.53.85a74.39,74.39,0,0,1,8.26,1.21c3.89.84,7.35,2.76,10.92,4.43,4.81,2.24,8.41,6,12.42,9.29,7,5.72,11,13.22,14.53,21.23a120.92,120.92,0,0,1,5,14.74c.78,2.68.53,5.45.76,8.18C140.5,61.49,140.39,63.06,140.39,64.63Z"/><path class="cls-2" d="M68.13,67.41A58.77,58.77,0,0,1,48.8,62.64,10.21,10.21,0,0,1,45,59.53a16.47,16.47,0,0,1-3.76-8.44c-.18-1.48-.19-1.48,1.36-1.67a5.06,5.06,0,0,1,.68-.09c2.17.06,2.21-.31,2.57,2.07a15.37,15.37,0,0,0,5.73,9.72,5.24,5.24,0,0,0,1.19.7,52.83,52.83,0,0,0,16.26,4.36,23.32,23.32,0,0,0,13.4-2.62A20.41,20.41,0,0,0,90,56.22a32.79,32.79,0,0,0,3.71-7.82,1.07,1.07,0,0,1,1.06-.86c.88,0,1.75-.1,2.63-.15s1,.28.75,1A29.53,29.53,0,0,1,89,62.27c-2.75,2.28-6,3.2-9.33,4.1C75.84,67.42,71.85,67.34,68.13,67.41Z"/><path class="cls-3" d="M17.86,43c-.78-8,12-6.1,14.49-1,1.35,2.75.16,6.26-2.45,8.31-3.17,2.5-8.54,1.24-10.51-2C18.38,46.68,17.37,45,17.86,43Z"/><path class="cls-3" d="M120.51,49c-.68,3-1.82,5.85-4.55,7.68-2.16,1.44-4.32.42-6.44-.25l-.29-.14c-3.93-2.07-4-3.4-2.89-7.3a7.4,7.4,0,0,1,2.45-3.88c1.75-1.39,3.64-2.21,5.9-1.64a8.08,8.08,0,0,1,5.25,3.36A3.22,3.22,0,0,1,120.51,49Z"/><path class="cls-2" d="M90.72,26.62c3.66.2,6,2.08,7.27,5.56a70,70,0,0,1,1.7,7.22c.22.91-.2,1.28-1,1.35-.38,0-.76.11-1.14.12a5.48,5.48,0,0,1-2-.07c-.75-.3-.09-1.11-.27-1.69-.78-2.47-.94-5.12-2-7.5a7.62,7.62,0,0,0-3.33-3.5c-.66-.39-1.11-.06-1.62.37-2.61,2.2-4,5.18-5.15,8.26-.49,1.28-.94,2.57-1.48,3.83-.07.17-.15.43-.28.47a9.08,9.08,0,0,1-4,.19c-.35-.07-.42-.42-.24-.74,1.17-2.19,1.69-4.65,2.82-6.87a19,19,0,0,1,4.1-5.45,4.15,4.15,0,0,1,2-1A17.37,17.37,0,0,1,90.72,26.62Z"/><path class="cls-2" d="M59.91,41.63c-1.51,0-1.52,0-1.56-1.55A18.14,18.14,0,0,0,56.7,32.2,6.26,6.26,0,0,0,54,29.61a2.4,2.4,0,0,0-3,.54A16.16,16.16,0,0,0,46.57,37c-.6,1.85-1.13,3.71-1.66,5.58a.64.64,0,0,1-.64.52c-1,.07-2.06.14-3.08.15-.7,0-1-.39-.75-1.05,1-2.67,1.53-5.52,2.93-8A17.66,17.66,0,0,1,47,29.73a5.82,5.82,0,0,1,3.12-1.29,18.36,18.36,0,0,1,6.36-.09,6.5,6.5,0,0,1,4.95,4,21.5,21.5,0,0,1,1.49,8.28c0,.59-.28.82-.82.85Z"/></g></g></svg>