<svg xmlns="http://www.w3.org/2000/svg" viewBox="0 0 140.43 140.43"><defs><style>.cls-1{fill:#ffb340;}.cls-2{fill:#fff;}.cls-3{fill:#292929;}.cls-4{fill:#d6674c;}</style></defs><g id="레이어_2" data-name="레이어 2"><g id="Graphic_Elements" data-name="Graphic Elements"><path class="cls-1" d="M66.69.17A34.72,34.72,0,0,1,80.52,1.85c2.77,1,5.76.86,8.63,1.38a10.28,10.28,0,0,1,3.12.89C95.76,6,99.65,6.56,103.42,7.5a25.06,25.06,0,0,1,11.79,6.25,134.08,134.08,0,0,1,10,10.14c1.94,2.39,3.06,5.27,4.3,8.05,3.27,7.32,7.42,15.29,8.16,23.38a34.9,34.9,0,0,0,1.26,5.84,31.53,31.53,0,0,1,1,5.9c.15,1.88.52,3.72.57,5.62a40.56,40.56,0,0,1-1.19,12.17c-1,3.41-1.33,7-2.9,10.2-1.79,3.61-3.78,7.12-5.87,10.57A49.34,49.34,0,0,1,123.8,114c-2.56,2.69-5,5.51-7.7,8-4.63,4.35-9.48,8.32-15.55,10.5a39.67,39.67,0,0,0-4.51,2c-8.94,4.56-18.16,4.24-27.73,5.65a15.12,15.12,0,0,1-6.67-.41,33.44,33.44,0,0,0-8.28-1.32A45.46,45.46,0,0,1,36,134.22c-2.44-1.13-5.11-1.92-7.14-3.78a41.17,41.17,0,0,1-6.12-6.12c-1.08-1.5-2.65-2.55-3.76-4-1.82-2.45-3.72-4.82-5.55-7.25a47.79,47.79,0,0,1-3.38-6A175.05,175.05,0,0,1,1.59,88.31c-.9-2.25-.69-4.7-1.21-7-.81-3.57-.11-7,.08-10.58a117.63,117.63,0,0,1,5.9-32.53c1.75-5.08,5.12-8.93,9.27-12.19a28.44,28.44,0,0,0,4.55-5,37.87,37.87,0,0,1,7.64-6.78A96.89,96.89,0,0,1,42.89,5.53C50.44,1.88,58.24-.7,66.69.17Z"/><path class="cls-2" d="M38.11,43.14a2.87,2.87,0,0,0,1.15,1.26,3,3,0,0,0,1.48.18,21.35,21.35,0,0,0,6.17-1.29,3.72,3.72,0,0,0,1.6-.95A3.9,3.9,0,0,0,49.19,41c.64-1.76,1.15-3.86.07-5.4a5.23,5.23,0,0,0-2.54-1.71,11.07,11.07,0,0,0-6-.73C35.1,34.29,35.81,39.13,38.11,43.14Z"/><path class="cls-2" d="M88.39,38.84a4.39,4.39,0,0,0-.46,3.74A5.92,5.92,0,0,0,89,44.16a12.12,12.12,0,0,0,2.36,2.22,7.86,7.86,0,0,0,12-4.15,2,2,0,0,0,.09-1.13,2.08,2.08,0,0,0-.64-.89,19.14,19.14,0,0,0-7.65-4.49C92,34.76,90,36.08,88.39,38.84Z"/><path class="cls-3" d="M96.18,48.58c-2.17.47-3.17-.81-4-2.49-.71-1.48-1.54-2.91-2.29-4.37a8.35,8.35,0,0,1-.56-1.35c-.5-1.66,0-2.55,1.69-2.86a25.42,25.42,0,0,1,10.35-.24c.38.08.86.15.8.58s-.54.33-.88.29a20.7,20.7,0,0,0-6.13.32c-1.57.25-2,.79-1.39,2.3a55,55,0,0,0,3.3,6.38c.23.41.77.81.51,1.28S96.64,48.58,96.18,48.58Z"/><path class="cls-3" d="M39.55,33.19a16,16,0,0,1,9.08,3.09,1.87,1.87,0,0,1,.15,2.6c-1.43,1.92-2.92,3.79-4.38,5.69a1,1,0,0,1-1,.46c-.93-.09-1.86-.17-2.79-.28-.75-.08-.89-.44-.42-1,1.29-1.65,2.56-3.31,3.86-5,1.07-1.36,1-2.07-.49-2.94a11.85,11.85,0,0,0-4.81-1.76,5.14,5.14,0,0,1-.76-.16c-.19-.06-.39-.2-.35-.38a.54.54,0,0,1,.42-.3C38.58,33.17,39.07,33.19,39.55,33.19Z"/><path class="cls-4" d="M91.31,64.74l.6,4.08c.07.53-.21.71-.71.77a59.76,59.76,0,0,1-9.27.37c-4.72-.2-9.4-.87-14.11-1.06-3.78-.16-7.53-.54-11.3-.79s-7.27-.9-10.9-1.38c-.56-.08-.73-.47-.83-1-.64-3.58,1.14-6.41,2.84-9.28a16.67,16.67,0,0,1,8.88-1.21,4,4,0,0,1,2.24,1.2,27.47,27.47,0,0,1,4,4.66,1,1,0,0,0,1.48.5c4.52-1.92,9.3-2.14,14.1-2.08a34,34,0,0,1,5,.51,10.66,10.66,0,0,1,7,4.28C90.56,64.53,90.67,65.3,91.31,64.74Z"/><path class="cls-3" d="M96.32,69.44c-.26-1.55-.35-3.13-.66-4.66-1.23-6.07-4.82-10.63-9.74-14.07a27.59,27.59,0,0,0-13.21-4.86,65.49,65.49,0,0,0-14.41.41c-2,.24-3.69,1.38-5.53,2.11a20.53,20.53,0,0,0-8.38,6.06,16.76,16.76,0,0,0-4.28,9.82,2.84,2.84,0,0,0,2,3.09c3.28.52,6.57,1.08,9.88,1.4,5.7.55,11.39,1.15,17.13,1.34,5,.17,10,.92,15.07,1.07,3.73.34,7.48-.21,11.23-.61C96.07,70.47,96.46,70.23,96.32,69.44Zm-5.12.15a59.76,59.76,0,0,1-9.27.37c-4.72-.2-9.4-.87-14.11-1.06-3.78-.16-7.53-.54-11.3-.79s-7.27-.9-10.9-1.38c-.56-.08-.73-.47-.83-1-.64-3.58,1.14-6.41,2.84-9.28h0a20.28,20.28,0,0,1,9-7.1c.87-.33,1.67-.83,2.51-1.23,2.16-1,4.5-1,6.8-1.15a35,35,0,0,1,4.7-.16,21,21,0,0,1,11.19,4.13c4.8,3.41,8.27,7.87,9.43,13.83h0l.6,4.08C92,69.35,91.7,69.53,91.2,69.59Z"/></g></g></svg>