<svg xmlns="http://www.w3.org/2000/svg" viewBox="0 0 140.43 140.43"><defs><style>.cls-1{fill:#ffd561;}.cls-2{fill:#fff;}.cls-3{fill:#292929;}.cls-4{fill:#d6674c;}</style></defs><g id="레이어_2" data-name="레이어 2"><g id="Graphic_Elements" data-name="Graphic Elements"><path class="cls-1" d="M26.83,13.13c4.43-2,8.69-4.35,13.59-5.13,2.9-.45,5.49-1.87,8.21-2.85A97.63,97.63,0,0,1,65.17.93,66.6,66.6,0,0,1,77.89,0c6.63.15,12.8,2.15,19,4.24,2.87,1,5.31,2.92,8,4.38,7.06,3.89,12.64,9.38,17.65,15.54a78,78,0,0,1,7.9,12.06,61.52,61.52,0,0,1,5.81,14.36c.64,2.53,1.59,5,2.43,7.46a45.66,45.66,0,0,1,1.44,7c.77,4.33.26,8.59-.36,12.86-.28,1.89.13,3.73.14,5.6a52.91,52.91,0,0,1-2.43,15.82c-1.23,4-3.24,7.59-5,11.31a16.72,16.72,0,0,1-3.77,4.48,101.43,101.43,0,0,1-10.22,8.73c-2,1.48-4,2.85-6,4.32a17.44,17.44,0,0,1-2.49,1.34A164.29,164.29,0,0,1,93,137.14,41.62,41.62,0,0,1,84.12,140c-6.37,1-12.67.32-19-.62a8.13,8.13,0,0,0-2.49-.21c-2.8.47-5.43-.36-8.11-.83-4.13-.73-8.11-2-12.18-3a33.61,33.61,0,0,1-5.79-2.38c-2.71-1.2-5.39-2.45-7.44-4.67-1.2-1.29-2.39-2.61-3.51-4a57.73,57.73,0,0,0-6.28-6,40.68,40.68,0,0,1-6-7.31,60.58,60.58,0,0,1-3.81-6.12A133.2,133.2,0,0,1,2.83,90.58,45.09,45.09,0,0,1,.23,69.82C.34,68.55.32,67.27.41,66a20.76,20.76,0,0,1,1.2-5.59,46.75,46.75,0,0,0,2.12-10,16.07,16.07,0,0,1,2-5.82A15,15,0,0,0,7,41.12a70.07,70.07,0,0,1,2.61-9,25,25,0,0,1,6.6-9.47c3.2-2.77,5.93-6,9.31-8.61Z"/><path class="cls-2" d="M54.41,41.75c-2.51,0-5.08.19-7.3-1.38a6.18,6.18,0,0,1-2.66-5c-.09-1.68,0-3.37,0-5-.09-3.72,2.42-6,6-5.73,2.33.15,4.67.1,7,.19,2.87.1,4.2,1.07,4.6,3.88s1.09,5.69.53,8.62a12.45,12.45,0,0,1-1.09,3.16,1.67,1.67,0,0,1-1.44,1A37.21,37.21,0,0,1,54.41,41.75Z"/><path class="cls-2" d="M81.2,25a29.62,29.62,0,0,1,10.43,1.76,1.34,1.34,0,0,1,1,1.46c0,3.42-1.44,6.34-3,9.24-.39.73-.85,1.42-1.31,2.11a3.36,3.36,0,0,1-2.4,1.5,31.61,31.61,0,0,1-9.46-.5,4,4,0,0,1-3.11-4.29,46.21,46.21,0,0,1,1.21-7.49c.61-2.61,1.27-3.25,3.9-3.63C79.36,25,80.28,25,81.2,25Z"/><path class="cls-3" d="M71.88,45.08a26.55,26.55,0,0,0-6.1-.42H63.24a10.18,10.18,0,0,0-8.93,4.62C53.14,51,52.8,53,52.24,54.86a17.27,17.27,0,0,0,.26,10.8,8.62,8.62,0,0,0,5.76,5.71,20.21,20.21,0,0,0,3.69.71c6.73.86,11.47-1.53,15.37-7.17a18.48,18.48,0,0,0,3-10.21C80.44,49.27,76.43,46,71.88,45.08Zm4,11.27a17,17,0,0,1-1.44,5.45h0a14.57,14.57,0,0,1-9.33,9.1c-1.7.62-3.3-.12-4.75-.93a6.51,6.51,0,0,1-3-3.21,14.53,14.53,0,0,1-1.39-7,18.64,18.64,0,0,1,2.5-9.85,8.14,8.14,0,0,1,5.63-4.14A11.54,11.54,0,0,1,71.61,47C75.28,49.13,76.3,52.44,75.85,56.35Z"/><path class="cls-3" d="M53.8,37.75a19.44,19.44,0,0,1-3.25-.22,1.39,1.39,0,0,1-1.24-1.2,18.6,18.6,0,0,1-.2-5.21c.14-1.87,1.36-2.9,3.75-2.84,3.46.08,3.85-.38,4,3.48.06,1.48.24,3,.37,4.43.08.94-.18,1.51-1.27,1.46A19.43,19.43,0,0,0,53.8,37.75Z"/><path class="cls-3" d="M86.76,31c.11,1.7-.55,3.42-.87,5.2a1.09,1.09,0,0,1-1,.9,11.06,11.06,0,0,1-6.07-.69.82.82,0,0,1-.58-.95c.2-1.65,0-3.33.37-5a2.54,2.54,0,0,1,2.75-2.33,14.46,14.46,0,0,1,2.87,0C86.68,28.37,86.77,28.42,86.76,31Z"/><path class="cls-4" d="M56,59.76a27,27,0,0,1,4.31.23A7,7,0,0,1,64,61.91c.57.46.84.47,1.35,0a3.68,3.68,0,0,1,2.52-1c1.22,0,2.44,0,3.66,0a3.12,3.12,0,0,1,1.85.67c.32.22.62.57,1.08.26a14.55,14.55,0,0,1-9.33,9.1c-1.7.62-3.3-.12-4.75-.93a6.51,6.51,0,0,1-3-3.21A14.53,14.53,0,0,1,56,59.76Z"/></g></g></svg>