<svg xmlns="http://www.w3.org/2000/svg" viewBox="0 0 140.43 140.43"><defs><style>.cls-1{fill:#ffd561;}.cls-2{fill:#292929;}.cls-3{fill:#ff919b;}</style></defs><g id="레이어_2" data-name="레이어 2"><g id="Graphic_Elements" data-name="Graphic Elements"><path class="cls-1" d="M78.88,140.14a151.86,151.86,0,0,1-20-.1c-4.19,0-8.28-.88-12.42-1.41-7.85-1-14.54-4.73-20.89-9.14-3.09-2.15-5.57-5.05-8.1-7.85a37.94,37.94,0,0,0-2.88-2.93,22.28,22.28,0,0,1-4.71-6.41,110.65,110.65,0,0,1-7.71-19A58,58,0,0,1,.09,73.6c.17-3.66.49-7.29.75-10.94A87.45,87.45,0,0,1,2.52,49.77a43.94,43.94,0,0,1,3.42-8.7,66.46,66.46,0,0,1,5.26-9.49c1.93-2.86,4-5.67,5.94-8.51,1.43-2.06,2.52-4.35,4.06-6.34A28,28,0,0,1,34.06,7.24c3.86-1.39,7.6-3.08,11.36-4.73C47.89,1.43,50.55,1.14,53.14.6A31.75,31.75,0,0,1,59.37,0C65.91,0,72.45.11,79,0c5.36-.08,10.47,1.12,15.57,2.51,6.21,1.69,11.6,5.09,17,8.38a91.73,91.73,0,0,1,8.29,5.24,43,43,0,0,1,7.71,7.9,105.52,105.52,0,0,1,6.14,8.65,34.44,34.44,0,0,1,5,13.47A185.37,185.37,0,0,1,140,83.89a60.13,60.13,0,0,1-1.87,9.75,45.19,45.19,0,0,1-1.59,5.48c-.9,2.48-1.37,5.07-2,7.61a70.88,70.88,0,0,1-2.55,7.79,8.58,8.58,0,0,1-2,3c-1,1-1.45,2.31-2.37,3.35-2.56,2.86-5.79,4.78-9,6.78-3.88,2.43-8.21,3.76-12.45,5.33-7.42,2.74-14.93,5.49-22.79,6.64C81.89,139.86,80.39,140,78.88,140.14Z"/><path class="cls-2" d="M66.49,74.58a31.75,31.75,0,0,1-6-.46,12.35,12.35,0,0,1-3.88-1.56,25.89,25.89,0,0,1-7.67-6,21.87,21.87,0,0,1-4.47-9.36c-.12-.58.2-.69.59-.7,1.06,0,2.13,0,3.19,0,.65,0,.72.52.83,1A19,19,0,0,0,54,67c2.76,2.78,5.85,5.39,9.77,6.2a14.5,14.5,0,0,0,12.1-2.43c2-1.53,4.23-2.86,5.86-4.84a63.63,63.63,0,0,0,5.47-8.11,5.45,5.45,0,0,0,.44-1.29c.46-1.83.46-1.9,2.4-1.86,3.11.06,2.59-.37,1.86,2.59a13.86,13.86,0,0,1-2.23,3.94C87.83,64.06,86,66.94,83.24,69c-3.17,2.34-6.3,4.78-10.44,5.24A42.87,42.87,0,0,1,66.49,74.58Z"/><path class="cls-3" d="M32.77,46.44a5.47,5.47,0,0,1,6,4.83c.32,3.5-.87,8.45-5.26,9.35a9.93,9.93,0,0,1-5.8-.51c-1.88-.78-2.68-2.57-2.46-5.16C25.56,51.58,28.63,45.83,32.77,46.44Z"/><path class="cls-3" d="M115.19,49.16a8.81,8.81,0,0,1-3.62,7.15,3.36,3.36,0,0,1-2.09.84c-3.37,0-6.37-.77-8.35-3.88-1.24-1.93-.8-5.76,1-6.87,2.16-1.31,4.54-2.52,7.31-1.92.81.18,1.65.23,2.46.43C114.59,45.57,115.24,46.44,115.19,49.16Z"/><path class="cls-2" d="M51,49.25c-2.25-.12-4.53-.1-6.57-1.4a8.68,8.68,0,0,1-2.63-2.94,12.25,12.25,0,0,1-2-6.32c0-.9.32-1.28,1.19-1.22h.23c.94,0,2-.32,2.78.18s.2,1.69.41,2.55c.76,3.09,1.92,5.92,4.85,7.61a1.94,1.94,0,0,0,2,0c4.62-2.25,6.29-6.31,7-11a.52.52,0,0,1,.59-.51c1.1,0,2.2,0,3.29,0,.57,0,.83.32.69.9-1,4.49-2.52,8.64-7.06,11A9,9,0,0,1,51,49.25Z"/><path class="cls-2" d="M88.74,47.49c-2.13-.15-4.26-.05-6.27-1a6.13,6.13,0,0,1-2.85-2.35,24.43,24.43,0,0,1-3.29-6.82c-.3-1.27-.18-1.46,1.13-1.53,3.08-.17,3-.14,3.85,2.81a18,18,0,0,0,3.4,6.11,4.57,4.57,0,0,0,2.76,1.49c1.91.38,2.85-1,3.73-2.25a17.37,17.37,0,0,0,3.21-7.94c.14-1,.53-1.4,1.53-1.31a17.28,17.28,0,0,0,2.16,0c.7,0,1,.32.87,1-.77,4.19-2.17,8-5.65,10.84C91.92,47.71,90.28,47.31,88.74,47.49Z"/></g></g></svg>