<svg xmlns="http://www.w3.org/2000/svg" viewBox="0 0 140.43 140.43"><defs><style>.cls-1{fill:#ffd561;}.cls-2{fill:#fff;}.cls-3{fill:#292929;}.cls-4{fill:#d6674c;}</style></defs><g id="레이어_2" data-name="레이어 2"><g id="Graphic_Elements" data-name="Graphic Elements"><path class="cls-1" d="M77.26,140.43c-5.12-.25-10.26,0-15.36-.65a46.52,46.52,0,0,1-10.63-2.6c-4.05-1.53-8.11-3-12.17-4.55a74.8,74.8,0,0,1-9.21-4.41c-2.44-1.31-4.83-2.72-7.21-4.15-3.82-2.29-6.58-5.75-9.56-9-4.1-4.45-6.3-10-8.69-15.37-1-2.29-2.3-4.47-2.83-7A75.05,75.05,0,0,1,.23,81.47q-.23-4-.23-8A58.73,58.73,0,0,1,5.29,48.9c2.91-6.41,5.44-13,9-19.1,1.39-2.36,3.4-4.15,5.19-6.15a65.11,65.11,0,0,1,9.25-8.4c2.6-2,5.28-3.85,7.92-5.77,1.26-.92,2.46-1.92,3.65-2.94a25.81,25.81,0,0,1,10.8-5.28A40.27,40.27,0,0,1,59.49.57c2.8-.11,5.6-.31,8.39-.51a23.55,23.55,0,0,1,5.75.29,73.7,73.7,0,0,1,7.92,1.51c1.91.57,3.77,1.33,5.64,2,4.69,1.72,9.4,3.4,14.07,5.19a56.75,56.75,0,0,1,12.81,7.47,52.64,52.64,0,0,1,9.22,9.23,127.62,127.62,0,0,1,8.78,11,46.71,46.71,0,0,1,5.37,12.33,78,78,0,0,1,2.77,11.7,29.45,29.45,0,0,1-.38,9.18,80.08,80.08,0,0,1-4.28,14.9A24,24,0,0,0,134,91c-.27,3.09-1.85,5.84-2.74,8.78-2.45,8.13-7.16,14.94-12.2,21.57-.89,1.18-1.55,2.55-2.4,3.78a54,54,0,0,1-5.81,7.47,3.59,3.59,0,0,1-1.19.81c-1.9.78-3.21,2.44-5.09,3.34a40.35,40.35,0,0,1-8.36,2.57c-5.51,1.31-11.14,1.06-16.75,1.11Z"/><path class="cls-2" d="M55.77,46.8c-1.86-.15-3.87-.33-5.89-.47a2.22,2.22,0,0,1-2-1.72,14.35,14.35,0,0,1-.23-7.33,3.59,3.59,0,0,1,3.62-2.79,45.39,45.39,0,0,1,9.72.95,10.24,10.24,0,0,1,2.71,1.68.68.68,0,0,1,.22.47,8.93,8.93,0,0,1-4.86,8.85C58.1,46.91,57,46.66,55.77,46.8Z"/><path class="cls-3" d="M89.86,28c2.11-2.39,4.41-2.53,6.63-.56a62.39,62.39,0,0,1,8.15,8.42,14.85,14.85,0,0,0,2.68,2.44c.55.44.43.65,0,1a9.23,9.23,0,0,1-2.75,1.38c-.79.25-1.18-.45-1.68-.84-2-1.58-3.48-3.7-5.14-5.62S94,30.83,92.22,29.05A5.06,5.06,0,0,0,89.86,28Z"/><path class="cls-2" d="M92.34,38.87c0,1.88-.24,3.75-.41,5.62a1.92,1.92,0,0,1-1.58,1.75,15,15,0,0,1-5.58.4c-1-.08-2-.28-3.06-.37-.47-.05-.92-.13-1.08-.61-.95-2.75-2-5.47-.6-8.44a3.53,3.53,0,0,1,3.11-2.35A42.24,42.24,0,0,1,89.2,35C91.73,35.07,92.34,35.87,92.34,38.87Z"/><path class="cls-3" d="M54.26,26a2.58,2.58,0,0,0-1.69.66,103.36,103.36,0,0,1-9,5.42A35.18,35.18,0,0,0,39.17,35c-.24.18-.44.44-.76.31a7.49,7.49,0,0,1-2.95-2.05c-.39-.46,0-.74.38-1a42.52,42.52,0,0,1,3.79-2.48,102.81,102.81,0,0,0,10-6.09,1.44,1.44,0,0,1,1.64-.15A8.35,8.35,0,0,1,54.26,26Z"/><path class="cls-3" d="M56.45,36.18c3.07,0,3.14.07,3.12,3.15,0,1.78-.78,3.37-1.13,5.05a.69.69,0,0,1-.64.53,16.38,16.38,0,0,1-5,0,1.07,1.07,0,0,1-.94-1.17,35.59,35.59,0,0,1,.71-5.36C52.77,36.87,54.24,36.19,56.45,36.18Z"/><path class="cls-3" d="M81.64,40.59a21.87,21.87,0,0,0,0-2.43,1.53,1.53,0,0,1,1.3-1.84,11.75,11.75,0,0,1,4.5-.18,1,1,0,0,1,.88.81A25.79,25.79,0,0,1,89,44.06a.74.74,0,0,1-.77.86,27.9,27.9,0,0,1-5.17-.05,1.33,1.33,0,0,1-1.35-1.63c.07-.88,0-1.77,0-2.65Z"/><path class="cls-3" d="M87,62.52a18,18,0,0,0-3.61-5.39,17.69,17.69,0,0,0-9.21-5.77c-1-.22-1.94-.44-2.93-.57-2.58-.33-5.16-.95-7.76-.08a22.79,22.79,0,0,0-7,4c-3.86,3.1-5.6,7.31-6.24,12.1a.77.77,0,0,0,.38.84A20.65,20.65,0,0,0,55.58,70a58.6,58.6,0,0,0,10.09,1.87c4.15.31,8.27.84,12.42,1,2.53.1,5.06.4,7.57-.18,2.17-.5,2.18-.49,2.2-2.66V68.91A13.41,13.41,0,0,0,87,62.52ZM83.65,66c0,1.4-.05,2.81,0,4.21,0,.61-.35.72-.78.87a14.64,14.64,0,0,1-5.7.44c-3-.16-6-.34-9-.64-3.75-.38-7.56-.37-11.17-1.73a14.56,14.56,0,0,1-2.13-1.36.5.5,0,0,1-.22-.58c.53-2.56.9-5.17,2.43-7.4h0a19.48,19.48,0,0,1,9.67-7.56,9.64,9.64,0,0,1,8.14.86A19.25,19.25,0,0,1,81.22,59a11.66,11.66,0,0,1,2.43,7Z"/><path class="cls-4" d="M83.65,66c0,1.4-.05,2.81,0,4.21,0,.61-.35.72-.78.87a14.64,14.64,0,0,1-5.7.44c-3-.16-6-.34-9-.64-3.75-.38-7.56-.37-11.17-1.73a14.56,14.56,0,0,1-2.13-1.36.5.5,0,0,1-.22-.58c.53-2.56.9-5.17,2.43-7.4a12.85,12.85,0,0,1,5.61-1A5.39,5.39,0,0,1,65.43,60a22.71,22.71,0,0,1,4.89,4.13c1,1.15,1.08,1.16,2.44.55A23.33,23.33,0,0,1,78,63a3.49,3.49,0,0,1,2.65.45C81.79,64.16,83,64.75,83.65,66Z"/></g></g></svg>