<svg xmlns="http://www.w3.org/2000/svg" viewBox="0 0 140.43 140.43"><defs><style>.cls-1{fill:#ffd561;}.cls-2{fill:#d6674c;}.cls-3{fill:#292929;}.cls-4{fill:#8cbbe8;}.cls-5{fill:#fefefe;}.cls-6{fill:#fdfdfd;}.cls-7{fill:#292a2a;}</style></defs><g id="레이어_2" data-name="레이어 2"><g id="Graphic_Elements" data-name="Graphic Elements"><path class="cls-1" d="M140.24,83.74A49.71,49.71,0,0,1,139,91.38c-.83,3.62-2.82,6.78-4.9,9.85a5.75,5.75,0,0,0-.46.64c-2.08,4-5,7.38-7.66,11-1.47,2-3.47,3.5-5.2,5.26-3.86,3.93-8.29,7.22-12.52,10.73a32.37,32.37,0,0,1-8.48,5,55.06,55.06,0,0,1-10.78,3c-2.58.49-5.2.72-7.74,1.43-1.29.36-2.44,1.15-3.85,1.18-3.56.09-7.08.75-10.65.63a22.33,22.33,0,0,0-3.37.19c-4,.54-7.92-.5-11.84-1-2.78-.38-5.26-1.87-7.6-3.46a45.38,45.38,0,0,0-8.26-4.53c-3.72-1.53-6.81-4-9.88-6.55A98,98,0,0,1,12.35,111C8,105.82,4.59,100.1,3.15,93.37c-.65-3.06-1.78-6-2.19-9.11a33.34,33.34,0,0,1-.09-4.79C1,75-.1,70.61,0,66.09.21,57.17-.92,47.89,4.08,40c1.26-2,2.34-4.07,3.43-6.16A22.73,22.73,0,0,1,13,26.67c2.73-2.28,5.27-4.79,8.49-6.43a3.53,3.53,0,0,0,1-.85A31.86,31.86,0,0,1,34,10.88c4.54-2,8.71-4.67,13.32-6.5,4.9-1.94,9.85-3.81,15.15-4,4.14-.17,8.33-.69,12.47,0,2.58.4,5.13,1.1,7.67,1.71A46.41,46.41,0,0,1,93.65,5.71c5,2.67,10.23,5,15,8.14,2.38,1.57,4.7,3.19,6.94,4.93A21.1,21.1,0,0,1,118.67,22q3.24,3.79,6.38,7.67c1.27,1.58,1.82,3.59,3.11,5.17.87,1.07,1.57,2.28,2.47,3.32,2.21,2.58,2.79,5.82,3.79,8.88.66,2,1.45,3.9,2.29,5.82a17.12,17.12,0,0,1,1.61,7,27.64,27.64,0,0,0,.81,7.4C140.52,72.42,140.62,77.65,140.24,83.74Z"/><path class="cls-2" d="M68.16,70.53a61.13,61.13,0,0,1,11-3,14.92,14.92,0,0,1,.41,4.46,1.49,1.49,0,0,1-.28.93,1.53,1.53,0,0,1-.76.35,92.55,92.55,0,0,1-20.14,2.72.94.94,0,0,1-.55-.11c-.27-.19-.25-.59-.19-.92.41-2.46,1.19-8.42,3.61-9.94C64.59,62.9,68.26,67.56,68.16,70.53Z"/><path class="cls-3" d="M35.48,31.14c2.4.17,2.4.21,1.44,2.42A50.23,50.23,0,0,1,31.31,43,41.24,41.24,0,0,0,29,46.56a1.14,1.14,0,0,1-1.24.69c-.7-.07-1.4-.09-2.1-.17-1.25-.14-1.42-.47-.71-1.55,1.28-2,2.52-3.94,3.91-5.81a33.92,33.92,0,0,0,4.2-8.16.73.73,0,0,1,.83-.54C34.45,31.05,35,31.1,35.48,31.14Z"/><path class="cls-3" d="M110.66,39.08a2.28,2.28,0,0,1-.45.42,10.32,10.32,0,0,1-3,1.06,1,1,0,0,1-.9-.33c-1.83-1.57-3.91-2.79-5.86-4.18a57.14,57.14,0,0,1-5.24-4.62c-.54-.5-1-1.07-1.51-1.62-.66-.75-.58-1.2.26-1.69a10,10,0,0,1,2.81-1c.25-.06.49-.09.67.2,2,3.19,4.9,5.44,7.92,7.56a49.05,49.05,0,0,1,4.84,3.53C110.38,38.6,110.64,38.72,110.66,39.08Z"/><path class="cls-3" d="M83.24,71.87a21.86,21.86,0,0,1,.18-2.55,21.1,21.1,0,0,0-.12-6A9.35,9.35,0,0,0,78,56.67a10.38,10.38,0,0,0-6.88-.45c-5.36,1.34-9.28,4.77-12.58,9-2.2,2.84-2.52,6.19-2.65,9.6,0,.62.4.69.87.76a18,18,0,0,0,4.09.1c4.93-.29,9.91.06,14.82-.87a59.93,59.93,0,0,0,6.09-1.15A1.68,1.68,0,0,0,83.24,71.87Zm-5.36.93c-1.9.54-3.87.63-5.78,1-3.47.78-7,.23-10.49.73-.93.13-1.19-.19-1.19-1.23C60.42,67.58,64,64,68,60.6a19.14,19.14,0,0,1,5.83-3.14,1.45,1.45,0,0,1,1.52.25c3,2.15,4,5.17,3.87,8.72,0,.7-.11,1.41-.17,2.11h0c-.08,1-.19,2.07-.23,3.11A1.09,1.09,0,0,1,77.88,72.8Z"/><path class="cls-4" d="M50.7,59.5c.16-.45.27-.91-.2-1.2A8.09,8.09,0,0,0,48,56.85c-2.58-.51-4.83-1.83-7.28-2.66-2.67-.91-5.35-1.78-8.24-1.54-2.15.17-4.34.38-6,1.87-3.74,3.31-6.2,7.26-5.91,12.48.15,2.76.47,5.43,2.66,7.48a5.18,5.18,0,0,1,1,1.49,2.29,2.29,0,0,1-.24,2.63,34.23,34.23,0,0,1-5.23,5.53c-2.43,2-4.48,4.19-5.25,7.34a3.24,3.24,0,0,0,1.11,3.7c.91.7,1.72,1.56,2.6,2.31,1.38,1.18,1.43,2.39,0,3.62a31.65,31.65,0,0,1-3.33,2.67,21.52,21.52,0,0,0-4.25,3.67q1.31,1.84,2.75,3.6a98,98,0,0,0,13.42,13.67c3.07,2.5,6.16,5,9.88,6.55.58.24,1.14.5,1.7.77a3.62,3.62,0,0,0,2.71-3.39,27.34,27.34,0,0,0,.14-7.12c-.7-4-1.12-8-2.88-11.64a1.8,1.8,0,0,1,.28-2c.77-1,1.52-2,2.22-3.1,1.7-2.54,3.79-4.84,4.94-7.72,1.38-3.48,2.13-6.88-1-9.91-.94-.89-.94-2.14-1-3.35,0-2.47,1.23-4.48,2.31-6.57s2.12-3.87,2.32-6.12a5.33,5.33,0,0,0-.18-2.1c-.66-2.08.47-3.75,1.35-5.47A34.14,34.14,0,0,0,50.7,59.5Z"/><path class="cls-4" d="M130.47,101.8a3.19,3.19,0,0,0-.17-1.39,32.13,32.13,0,0,0-3-5.82c-1.24-1.81-2.55-3.5-3.77-5.33A5.38,5.38,0,0,1,123,84.7c.53-1.91,1-3.87,1.51-5.77a13.84,13.84,0,0,0,.67-4.13c-.07-3.12-.36-6.11-2.67-7.57a6,6,0,0,0-1.51-.76c-1.41-.42-2.83-.82-4.25-1.21s-1.43-.4-1.63-2.39c-.27-2.9-1-5.5-2.59-7.34-1.75-2-3.51-4-5.9-4.51a54.17,54.17,0,0,0-6.8-1c-2.36-.15-4.75-.09-6.87-1.68L91.4,48.2c-1.44-.13-2,1.3-2.52,2.83a7,7,0,0,0-.29,1.65c-.12,1.53-.27,3.06-.36,4.59a10.5,10.5,0,0,0,1.57,6.66,41,41,0,0,1,2.43,4.33,14.1,14.1,0,0,0,1.9,3.12,8.21,8.21,0,0,1,1.93,5.05c.3,3.62.43,7.19-1.28,10.5a9.72,9.72,0,0,0-.88,2.93c-.36,2.35-.7,4.7-.85,7.07-.35,5.29.9,9.55,4,12.32a15.13,15.13,0,0,1,3.84,5.61,10.92,10.92,0,0,1,.13,7.76c-1.22,3.54-1.82,7.34-3.09,10.84a3.28,3.28,0,0,0-.2,1.09c.66-.23,1.32-.47,2-.73a32.37,32.37,0,0,0,8.48-5c4.23-3.51,8.66-6.8,12.52-10.73,1.73-1.76,3.73-3.25,5.2-5.26.7-1,1.42-1.9,2.14-2.85.12-.25.23-.5.37-.74A17.29,17.29,0,0,0,130.47,101.8Z"/><path class="cls-5" d="M40.49,48.25c1.73-2.13,4.58-3.78,7.11-3.41a16.69,16.69,0,0,0,2,.17c3.39.13,4.38,2.46,4.47,5.21.09,3.06-1.42,5.46-3.28,7.7A3.34,3.34,0,0,1,48.41,59a21.36,21.36,0,0,1-6-.47c-3.34-.7-4.24-5.65-3.15-8.32A7.91,7.91,0,0,1,40.49,48.25Z"/><path class="cls-6" d="M97.91,41.61c-4.43-1.52-13.55-1.18-13.13,5.26a9.41,9.41,0,0,0,1,3.23,9.83,9.83,0,0,0,.83,1.53c1.14,1.63,3.19,2.46,5.17,3A9,9,0,0,0,95.3,55a8,8,0,0,0,6.53-6.08A6.43,6.43,0,0,0,97.91,41.61Z"/><path class="cls-3" d="M41,48.63c1.46-.54,2.95-1,4.37-1.64a9.19,9.19,0,0,1,5.24-.3c.48.06.85.31.79.88A6.79,6.79,0,0,1,51,50a43.93,43.93,0,0,1-2.73,5.71c-.12.19-.19.41-.32.58-.44.58-.27,1.66-1.1,1.83a10,10,0,0,1-3.53-.2c-.38-.06-.48-.39-.29-.77.39-.76.71-1.56,1.14-2.29a55.26,55.26,0,0,0,2.64-5.91c-2.46.69-4.68,2.16-7.33,1.79-.67-.36-1.55,0-2.22-.76A18.11,18.11,0,0,0,41,48.63Z"/><path class="cls-7" d="M85.31,45.44c2.43-1,4.84-2,7.32-2.84,1.45-.48,3-.06,4.49.22a.46.46,0,0,1,.43.44c0,.22-.22.31-.39.31-1.89,0-3.38,1.19-5.1,1.68-.78.23-1.52.56-2.47.92,2.35,2.24,3.88,5.12,6.47,7.08.37.46.49.9-.3.89-1.62,0-3.33.18-4.53-1.32a1.54,1.54,0,0,1-1.13-.64c-.74-1.21-2-2-2.69-3.23a9.87,9.87,0,0,0-1.6-1.83c-.29-.29-.71-.56-.58-1.09Z"/></g></g></svg>