<svg xmlns="http://www.w3.org/2000/svg" viewBox="0 0 140.43 140.43"><defs><style>.cls-1{fill:#618dd3;}.cls-2{fill:#fff;}.cls-3{fill:#292929;}</style></defs><g id="레이어_2" data-name="레이어 2"><g id="Graphic_Elements" data-name="Graphic Elements"><path class="cls-1" d="M.06,73.45A58.84,58.84,0,0,1,.74,62.52a43.78,43.78,0,0,1,1.43-6.86c.91-3,1.58-6.11,2.23-9.19A43,43,0,0,1,6.75,40c1.57-4,4.22-7.39,7-10.69C15,27.78,15.57,26,16.56,24.35A53.65,53.65,0,0,1,26.74,12.21,79.72,79.72,0,0,1,37.16,4.93a15.33,15.33,0,0,1,3.48-1.42A65.45,65.45,0,0,1,52.41,1.08a78,78,0,0,1,15.3-1c6.63.38,13.17,1.31,19.73,2.18a21.74,21.74,0,0,1,8.28,2.49,7.82,7.82,0,0,0,1.75.84c2.94.87,5.18,2.81,7.62,4.48,3.23,2.23,6,5,9.78,6.59,1.43.6,2.24,2,3.41,3a104.91,104.91,0,0,1,10.4,10,47.2,47.2,0,0,1,5.09,7,18.8,18.8,0,0,1,2.46,7.6,55.38,55.38,0,0,0,2.52,10c1.22,3.7,1.41,7.56,1.6,11.4a93.25,93.25,0,0,1-.95,16.78c-.94,7.11-2.79,14-7.18,20-1.84,2.51-3.3,5.27-5.34,7.66A22.26,22.26,0,0,1,124,112.9a47.52,47.52,0,0,0-6.79,7.25,17.11,17.11,0,0,1-4.85,4.06,14.87,14.87,0,0,0-2.93,2.3,64,64,0,0,1-7.2,6.56,25.76,25.76,0,0,1-9.37,4.35c-3.32.75-6.64,1.47-9.93,2.35-4.36,1.18-8.73.53-13.1,0A38.65,38.65,0,0,1,62.23,138c-3.07-1-6.28-1.13-9.4-1.8-4.35-.94-8.55-2.26-12.76-3.6a68.45,68.45,0,0,1-12.16-5.44,34.29,34.29,0,0,1-8.71-6.66c-2.12-2.29-4.64-4.25-6.49-6.76A80.44,80.44,0,0,1,6.3,102.76C2.78,96.05,1.24,88.82.41,81.39A51,51,0,0,1,.06,73.45Z"/><path class="cls-2" d="M91.25,57.13c-.16-1.61.26-3.14.2-4.7,0-.69.32-1.08,1.13-1.22a9.57,9.57,0,0,1,7.22,1.53,14.67,14.67,0,0,1,4.85,5.54,5.29,5.29,0,0,1-3,7.39,12.81,12.81,0,0,1-5.41.26c-2.86-.38-4.53-2.34-4.83-5.51A16.63,16.63,0,0,1,91.25,57.13Z"/><path class="cls-2" d="M78.45,45.31a13.64,13.64,0,0,1,.66-4.15c.54-1.86,2-2.91,3.43-3.95A4.15,4.15,0,0,1,85,36.88c1.89.14,3.77-.19,5.66-.08s2.08.39,2.31,2.37a12.84,12.84,0,0,1-.81,6.41,5.94,5.94,0,0,1-5.07,3.74,29.45,29.45,0,0,1-4.88,0C79.71,49.12,78.45,47.85,78.45,45.31Z"/><path class="cls-3" d="M104,37.57a8.34,8.34,0,0,1-3.84,1.62,1,1,0,0,1-.81-.3C95.07,36,90.53,33.6,86.71,30.14c-1-.9-1.94-1.83-3-2.65s-1.34-2.29-2.23-3.3c-.29-.33,0-.62.29-.81a8.66,8.66,0,0,1,2.66-1.08,1.14,1.14,0,0,1,1.38.6c3.08,4.93,7.84,8,12.56,11C100.2,35.1,102,36.3,104,37.57Z"/><path class="cls-2" d="M53.35,36.75c5.56,0,4.7.29,5.92,3.73a11,11,0,0,1,.16,6.05,3.55,3.55,0,0,1-3.18,2.7,26.78,26.78,0,0,1-7.53-.15,2.85,2.85,0,0,1-2.14-1.6,22.78,22.78,0,0,1-1.76-7.09,1.73,1.73,0,0,1,1-1.81A16.91,16.91,0,0,1,53.35,36.75Z"/><path class="cls-3" d="M55.26,22.46c-1.53-.89-1.66-.81-2.76.5a7.14,7.14,0,0,1-.54.56c-1.76,1.8-4,2.95-6.05,4.33a42.14,42.14,0,0,1-10.37,5.56c-.88.29-.81.68-.14,1.17,1.62,1.2,3.29,1.88,5.16.49a3.23,3.23,0,0,0,1.57-.66,40.07,40.07,0,0,0,7.62-4.5h0a22,22,0,0,0,3.36-2.23h0a8,8,0,0,0,2.64-2C57.68,23.6,57.26,23.63,55.26,22.46Z"/><path class="cls-3" d="M80.76,69.62c-.56-3.36-2.27-6.27-3.69-9.27a10,10,0,0,0-5-5,16.38,16.38,0,0,0-6.44-1,1.05,1.05,0,0,0-.46-.09,14.13,14.13,0,0,0-3.84.15,5.92,5.92,0,0,0-4.24,2,9.21,9.21,0,0,0-1.77,1.35h0s-.08,0-.1,0c-3.3,2.53-5,6-6.22,9.89-.19.61.33.55.67.56.92,0,1.85,0,2.78,0a.9.9,0,0,0,1-.72,20,20,0,0,1,7.68-10.82,5.68,5.68,0,0,1,4-1.41h0a3,3,0,0,0,.75.2,6.64,6.64,0,0,1,5.45,3A30.28,30.28,0,0,1,76.18,69c.67,2.45.64,2.46,3.26,2.36C81,71.27,81,71.15,80.76,69.62Z"/><path class="cls-3" d="M84.5,47C82.07,47,82.05,46.92,82,44.5a7.7,7.7,0,0,1,1.28-5,2.26,2.26,0,0,1,1.73-1,24.66,24.66,0,0,1,4.21,0c.75,0,1,.14.87,1.09a33.21,33.21,0,0,1-1.25,5.86,1.48,1.48,0,0,1-1.29,1.16A16.06,16.06,0,0,1,84.5,47Z"/><path class="cls-3" d="M56.93,42.62a14.76,14.76,0,0,1-.24,3.73,1.47,1.47,0,0,1-1.31,1.16,16.31,16.31,0,0,1-5,0,1,1,0,0,1-.93-.77,30.46,30.46,0,0,0-1.27-4.48A3.85,3.85,0,0,1,48,40.52c.09-1.64.48-2,2.12-2.2a21.61,21.61,0,0,1,5.21,0A1.24,1.24,0,0,1,56.6,39.5,14.34,14.34,0,0,1,56.93,42.62Z"/></g></g></svg>