<svg xmlns="http://www.w3.org/2000/svg" viewBox="0 0 140.43 140.43"><defs><style>.cls-1{fill:#8cbbe8;}.cls-2{fill:#fff;}.cls-3{fill:#292929;}</style></defs><g id="레이어_2" data-name="레이어 2"><g id="Graphic_Elements" data-name="Graphic Elements"><path class="cls-1" d="M139.53,57.56c-.88-4.6-1.85-9.18-3-13.73-1.32-5.23-2.31-10.58-4.63-15.51A41.56,41.56,0,0,0,127,19.66c-1.67-2.05-4-3.4-5.64-5.41-.11-.13-.32-.18-.48-.29a29.16,29.16,0,0,0-7-3.22c-4-1.44-7.81-3.1-11.73-4.62A59.11,59.11,0,0,0,89.53,2.33c-3-.44-6-.71-9-1C79,1.13,77.38.65,75.88.94c-3.17.6-6.27.13-9.39-.22C64.09.46,61.68.05,59.26,0c-2.79,0-5.59.29-8.4.36a17.24,17.24,0,0,0-5.34,1A72.21,72.21,0,0,0,28,10.74a35.54,35.54,0,0,0-6.95,6.18c-1.54,1.83-2.87,3.81-4.32,5.7C12,28.85,7.32,35.12,4.9,42.74A57.82,57.82,0,0,0,2.25,53.47C1.81,57.3,1.45,61.13,1,65,.51,69.71-.37,74.43.17,79.23c.29,2.62.15,5.34,1,7.85C3,92.6,4.24,98.32,6.34,103.76a25.51,25.51,0,0,0,6.88,9.47c2,1.81,4.27,3.27,6.32,5,2.25,1.92,4.34,4,6.69,5.81a105.22,105.22,0,0,0,12.68,8.42,36,36,0,0,0,9.32,3.5c5.69,1.28,11.41,2.45,17.18,3.27,4.37.62,8.75,1.55,13.2,1a90.87,90.87,0,0,0,10.9-1.59c4-1,8.08-2,12-3.43,4.27-1.5,8.51-3.05,11.88-6.28a24.73,24.73,0,0,1,2.4-1.9c4.5-3.38,8.85-6.88,12-11.65,2.37-3.57,4.89-7,6.24-11.15a133,133,0,0,0,4.28-16.77c.53-2.78.7-5.62,1-8.44.41-4,1.15-8.08,1.1-12.28A44,44,0,0,0,139.53,57.56Z"/><path class="cls-2" d="M84.29,50.69a12.67,12.67,0,0,1-2-.45c-2.31-.94-3-2.44-2.24-5,.4-1.34.78-2.68,1.08-4a6.53,6.53,0,0,1,2.58-3.64,1.35,1.35,0,0,1,.74-.26,32.25,32.25,0,0,1,7.92.29,6.7,6.7,0,0,1,4.11,2.86c.74,1.17.32,2.66.19,4a6,6,0,0,1-3.18,4.69,9.71,9.71,0,0,1-2.63,1.51l-.58.11-.54.17a6.32,6.32,0,0,1-2.49,0A29.43,29.43,0,0,1,84.29,50.69Z"/><path class="cls-2" d="M60.53,33.38c1.39,0,2.78,0,4.18.15a2.78,2.78,0,0,1,2.45,2.2c1,2.92-.83,7.46-3.45,9.09a6.48,6.48,0,0,1-2.86.54,18,18,0,0,1-5.43-.22,5.25,5.25,0,0,1-3.53-2.31,4.08,4.08,0,0,1,0-4.21,44.9,44.9,0,0,1,2.74-3.75,3.63,3.63,0,0,1,3.24-1.5C58.78,33.39,59.66,33.38,60.53,33.38Z"/><path class="cls-3" d="M108.52,40c-1.46.69-3,.41-4.53.32a.54.54,0,0,1-.37-.24c-1.8-2.87-3.92-5.55-5-8.84a31.83,31.83,0,0,1-1.16-4.84c-.11-.64.12-1,.83-1,3.36-.31,3.23-.29,4,2.92a21.67,21.67,0,0,0,5.34,10.48c.32.32.59.69.88,1A.62.62,0,0,1,108.52,40Z"/><path class="cls-3" d="M55,21.62a4.83,4.83,0,0,0-5,1.48,13.15,13.15,0,0,1-1,1.2,64.43,64.43,0,0,1-10,8.55c-.51.69,0,.9.51.94.83.06,1.67,0,2.5,0,.38,0,.79.06,1.07-.25a22.2,22.2,0,0,1,3-2.36,53.48,53.48,0,0,0,6.09-5.56h0a17.19,17.19,0,0,0,2.93-3.27C55.36,22,55.43,21.79,55,21.62Z"/><path class="cls-3" d="M84.41,71.89c-.15-.13-.11-.49-.14-.75-.23-1.72-.17-3.46-.41-5.19a15.81,15.81,0,0,0-3.81-8.57,5.08,5.08,0,0,0-2.91-1.87A30.61,30.61,0,0,0,67,55.7a8,8,0,0,0-2.73.88,18.78,18.78,0,0,0-6.37,3.18,10.28,10.28,0,0,0-2.56,2h0c-1.67,1.76-2.93,3.84-4.46,5.71-.54.67-.19,1.25.64,1.37a14.14,14.14,0,0,0,3.5,0c.28,0,.75-.13.44-.49-.52-.6,0-.88.23-1.24a20,20,0,0,0,2.45-3.26,3.78,3.78,0,0,0,.93-1.4h0l.88-.89c2.13-1.31,4.09-2.89,6.43-3.85a22.73,22.73,0,0,1,3.26-1.1c2-.37,4.09-1,5.77.75a13.67,13.67,0,0,1,3.67,6.8,32.41,32.41,0,0,1,.66,7.22c0,.94.4,1.31,1.27,1.31s2,0,3,0C84.41,72.7,85.55,72.91,84.41,71.89Z"/><path class="cls-3" d="M85.39,48.5a4.54,4.54,0,0,0-.5-.12A3.05,3.05,0,0,1,83.66,48c-.73-.48-.72-1.46-.73-2.25a11.86,11.86,0,0,1,2-5.84,1.84,1.84,0,0,1,1.56-.79,25.32,25.32,0,0,1,5.77.09,1.18,1.18,0,0,1,1.08,1.22,8.9,8.9,0,0,1-2.07,7.18,1.7,1.7,0,0,1-1.4.72c-1.1.06-2.16.62-3.24.45C86.2,48.75,85.8,48.61,85.39,48.5Z"/><path class="cls-3" d="M58.26,43.94c-.26,0-.64-.08-1-.08-2.56,0-2.61-1-2.2-2.93a9,9,0,0,1,2-4.62,2.23,2.23,0,0,1,1.42-.81,10,10,0,0,1,5,.58.79.79,0,0,1,.59.84,12.39,12.39,0,0,1-.83,4.55C62.45,43.33,61.21,44,58.26,43.94Z"/></g></g></svg>