<svg xmlns="http://www.w3.org/2000/svg" viewBox="0 0 140.43 140.43"><defs><style>.cls-1{fill:#ffd561;}.cls-2{fill:#fff;}</style></defs><g id="레이어_2" data-name="레이어 2"><g id="Graphic_Elements" data-name="Graphic Elements"><path class="cls-1" d="M77.26,140.43c-5.12-.25-10.26,0-15.37-.65a45.82,45.82,0,0,1-10.62-2.61L39.1,132.63a75.57,75.57,0,0,1-9.21-4.41c-2.45-1.31-4.84-2.72-7.21-4.15-3.82-2.3-6.58-5.75-9.57-9-4.1-4.45-6.29-10-8.68-15.36-1-2.29-2.3-4.47-2.83-7A73.78,73.78,0,0,1,.23,81.47C.08,78.77,0,76.06,0,73.35A58.69,58.69,0,0,1,5.29,48.9c2.91-6.41,5.44-13,9-19.1,1.39-2.36,3.4-4.15,5.19-6.15a65.11,65.11,0,0,1,9.25-8.4c2.6-2,5.28-3.85,7.92-5.77,1.26-.92,2.46-1.93,3.65-2.94A25.85,25.85,0,0,1,51.13,1.26,40.9,40.9,0,0,1,59.5.57C62.29.46,65.09.26,67.89.06a23.47,23.47,0,0,1,5.74.29,72.78,72.78,0,0,1,7.92,1.51c2,.58,3.84,1.35,5.75,2.05C91.92,5.6,96.56,7.26,101.16,9a57.23,57.23,0,0,1,12.91,7.52,53.33,53.33,0,0,1,9.22,9.23,127.62,127.62,0,0,1,8.78,11,46.71,46.71,0,0,1,5.37,12.33,78.16,78.16,0,0,1,2.77,11.71,29.4,29.4,0,0,1-.38,9.17,80.85,80.85,0,0,1-4.28,14.9A24,24,0,0,0,134,91c-.27,3.09-1.85,5.84-2.74,8.78-2.46,8.14-7.17,14.94-12.2,21.57-.9,1.19-1.55,2.56-2.4,3.78a54.83,54.83,0,0,1-5.81,7.48,3.84,3.84,0,0,1-1.19.8c-1.9.78-3.21,2.45-5.09,3.34a40.35,40.35,0,0,1-8.36,2.57c-5.51,1.31-11.15,1.07-16.75,1.11Z"/><path class="cls-2" d="M48.54,89.17a62.35,62.35,0,0,1,.78-11.26,1.14,1.14,0,0,0-.53-1.22c-1.23-1-2.43-2.06-3.72-3a23.18,23.18,0,0,1-6.16-6.29,8.55,8.55,0,0,1-1.73-4.8c0-1.77,1.06-2.71,2.38-3.45a27.41,27.41,0,0,1,11.86-3.25c2.21-.14,4.44,0,6.66,0,.49,0,1,0,1.14-.6,1.54-5.26,5.19-9.13,8.7-13.09.69-.77,1.32-1.59,2-2.4a3.73,3.73,0,0,1,2.69-1.56,20.87,20.87,0,0,1,6,.17,3.52,3.52,0,0,1,2,1.52c2.2,2.78,3,6.11,4,9.42a25.79,25.79,0,0,1,.63,8.25c0,.76.15,1.06,1,1,3.41-.09,6.6,1.12,9.85,1.9,2.19.52,4.15,1.91,6.09,3.11,1.55,1,1.55,3.48.23,5.21a21.57,21.57,0,0,1-10,7.43c-1,.36-1,.84-1,1.8a50.08,50.08,0,0,0,1.1,7.56A41.88,41.88,0,0,1,93,93.13a6.83,6.83,0,0,1-.82,3.08c-.61,1.24-1.8,1.3-2.93,1.44-4.72.57-8.12-1.79-11.11-5.05-2.12-2.33-3.81-5-5.72-7.47-.25-.32-.58-.57-.84-.88s-.6-.3-.87.08c-3,4.25-7.11,7.5-11,10.92A9.59,9.59,0,0,1,51,97.4c-1.5-.32-2.38-1.77-2.43-3.9C48.52,92.05,48.54,90.61,48.54,89.17Z"/></g></g></svg>