<svg xmlns="http://www.w3.org/2000/svg" viewBox="0 0 140.43 140.43"><defs><style>.cls-1{fill:#ffd561;}.cls-2{fill:#fff;}.cls-3{fill:#e06c4f;}.cls-4{fill:#292929;}</style></defs><g id="레이어_2" data-name="레이어 2"><g id="Graphic_Elements" data-name="Graphic Elements"><path class="cls-1" d="M140.43,57.65a1.58,1.58,0,0,1-.23-.56c0-.39,0-.77,0-1.16a3.15,3.15,0,0,0-.06-.61,17.44,17.44,0,0,0-.38-2.14c-.63-2.6-1.33-5.19-1.91-7.81a4.61,4.61,0,0,0-.31-1.1,129.73,129.73,0,0,0-5.62-13.71c-1.26-2.61-2.47-5.33-4.51-7.43-2.87-3-5.68-6-8.57-8.93-4.93-5-11-8.33-17.4-10.76C94.41.81,87,.22,79.57.06,73.7-.06,67.83,0,62,.05a42,42,0,0,0-5,.31,42.73,42.73,0,0,0-8.11,1.93c-4.82,1.59-9.63,3.19-14.39,5A80.88,80.88,0,0,0,18.06,15c-4.22,2.76-7,6.59-9.76,10.6a3.53,3.53,0,0,0-.4.83A78.76,78.76,0,0,0,5.27,35a57.5,57.5,0,0,1-1.46,5.78,79.41,79.41,0,0,0-2.34,8.41A47.15,47.15,0,0,0,0,61.93c.1,2,0,3.91,0,5.87a24.33,24.33,0,0,0,.71,7.74A7.08,7.08,0,0,1,.87,77.6c.07,5.24-.3,10.5.68,15.7.57,3,.76,6.18,2.09,9a58.19,58.19,0,0,0,3.71,6.86,94.31,94.31,0,0,0,5.75,7.87,40.53,40.53,0,0,0,11.22,10.18c4.1,2.37,8.13,4.84,12.28,7.12a50.16,50.16,0,0,0,17.73,5.77c1.24.17,2.5.07,3.73.29H83a.57.57,0,0,1,.42-.11,42.64,42.64,0,0,0,10.34-1.69,39,39,0,0,0,5.59-2.33c3.75-1.7,7.65-3,11.32-4.92a23.85,23.85,0,0,0,9.4-8.51c3.52-5.6,7.42-10.94,10.83-16.61a90.38,90.38,0,0,0,6.46-13.41,24,24,0,0,0,.92-3.55,82.27,82.27,0,0,0,1.18-9.9c.2-3.45.63-6.89.73-10.35,0,0,0-.11,0-.17,0-.48,0-1,0-1.45v-.07h0v-.67a.86.86,0,0,1,.22-.53Z"/><path class="cls-2" d="M76.18,41.9a18.32,18.32,0,0,1-6.83-1.11,2.89,2.89,0,0,1-1.85-2,32.82,32.82,0,0,1-1.4-6.81c-.27-2.09,1.26-3.76,3.87-4.11a22.82,22.82,0,0,1,7.51.13c2.75.55,5.59,3.72,5.24,6.64-.1.87,0,1.75-.13,2.62-.32,2.9-1.9,4.43-4.82,4.67C77.17,41.94,76.56,41.9,76.18,41.9Z"/><path class="cls-2" d="M47.07,45.83a10.29,10.29,0,0,1-4.26-.51,4.45,4.45,0,0,1-2.6-4.23,58.54,58.54,0,0,1,.41-6,.9.9,0,0,1,.44-.74c2.74-1.88,5.8-2,9-1.72a8.08,8.08,0,0,1,6,2.95,1.63,1.63,0,0,1,.46.9c.14,2.43,0,4.64-1.85,6.67C52.47,45.46,50,46,47.07,45.83Z"/><path class="cls-3" d="M47.52,72.14a5.54,5.54,0,0,0,1.55-2.48,1.83,1.83,0,0,1,.74-1c1.85-1.27,3.36-3,5.3-4.12a10.18,10.18,0,0,1,5.24-1.36c.88,0,1.76.05,2.63,0a7.52,7.52,0,0,1,6.52,3.1c.51.61.91.87,1.49.11a2,2,0,0,1,.65-.46,49.47,49.47,0,0,1,5.83-2.58c2.25-.85,4.72-.6,7.12-.52a20,20,0,0,1,4.28,1c-1.5,3-4,5.18-6.58,7.17a41,41,0,0,1-11.76,6,10.09,10.09,0,0,1-2.58.34c-1,.06-2-.06-3,0-3.57.33-6.94-.61-10.33-1.46a4.67,4.67,0,0,1-1.38-.51C51.42,74.2,49.48,73.15,47.52,72.14Z"/><path class="cls-4" d="M71.3,33.44c.07-.91.17-1.82.2-2.73s.46-1.07,1.18-1.06a5.21,5.21,0,0,0,.79,0c3.35-.32,4.28,1.12,5,4.05A9.25,9.25,0,0,1,78.2,38a1.35,1.35,0,0,1-1.28,1.09,14.16,14.16,0,0,1-4.21-.19,1.3,1.3,0,0,1-1-1A13.45,13.45,0,0,1,71.3,33.44Z"/><path class="cls-4" d="M51.59,38.92c-.06.8-.11,1.48-.17,2.16-.15,1.72-.9,2.42-2.67,2.44-.88,0-1.75,0-2.62-.06-1.85-.15-2.71-.91-2.94-2.73a16.06,16.06,0,0,1,.28-4.89,1.86,1.86,0,0,1,1.76-1.55,14.83,14.83,0,0,1,4.21.13,2.35,2.35,0,0,1,2,2.1C51.54,37.35,51.54,38.19,51.59,38.92Z"/><path class="cls-4" d="M96.1,49.89c0-1-.37-1.29-1.34-1.36a72.58,72.58,0,0,0-10.83.55c-6.63.54-13.24,1.27-19.82,2.25a77.65,77.65,0,0,0-9,1.83c-.74.14-1.48.27-2.22.43a61.39,61.39,0,0,0-8.36,2h0a14.41,14.41,0,0,0-2.41.69c-3.13.84-5.87,2.65-9,3.55-.37.11-.33.38-.25.73A16.89,16.89,0,0,0,40.27,71c2.25,1.51,4.91,2.3,7.12,3.85,3.22,2.25,7,2.7,10.66,3.35s7.15.2,10.74.2a16.78,16.78,0,0,0,5.42-.67,41.4,41.4,0,0,0,15.44-8.85,22,22,0,0,0,5.27-8.07C96.34,57.29,96.05,53.58,96.1,49.89ZM88.62,63.53A13.78,13.78,0,0,1,87,66a30.13,30.13,0,0,1-9.31,7.43c-4.14,2.26-8.38,4-13.24,3.53a16.26,16.26,0,0,0-1.71,0c-3.19.05-6.12-1.1-9.13-1.87a2.93,2.93,0,0,1-.9-.49,30,30,0,0,0-5-2.73c-.33-.19-.68-.34-1-.51a16.84,16.84,0,0,1-8.27-8.74C37.76,61,38,60.75,39.52,60c5.63-2.64,11.71-3.88,17.71-5.36A144.87,144.87,0,0,1,76.44,51.5c4.46-.47,8.93-.86,13.4-1.29Z"/></g></g></svg>