<svg xmlns="http://www.w3.org/2000/svg" viewBox="0 0 140.43 145.05"><defs><style>.cls-1{fill:#d6674c;}.cls-2{fill:#292929;}.cls-3{fill:#fff;}</style></defs><g id="레이어_2" data-name="레이어 2"><g id="Graphic_Elements" data-name="Graphic Elements"><path class="cls-1" d="M137.73,95a97.2,97.2,0,0,1-9.26,21.35,23.17,23.17,0,0,1-4.11,4.8c-2.68,2.67-5.1,5.63-8.27,7.78a38.18,38.18,0,0,1-7.75,4.45c-1.07.4-2,1-3.07,1.54a84.69,84.69,0,0,1-8,2.95,70,70,0,0,1-14.36,3.51c-3.28.48-6.31,1.71-9.5,2.39A71,71,0,0,1,63.06,145a17.62,17.62,0,0,1-5-.66c-3.81-.88-7.61-1.77-11.39-2.78a25.22,25.22,0,0,1-10.85-6.25c-1.82-1.7-3.55-3.5-5.31-5.27a8.79,8.79,0,0,0-1.87-1.51,20.3,20.3,0,0,1-6.38-5.71,38.56,38.56,0,0,0-6.37-6.77c-2.43-2-4-4.69-5.74-7.28-2.93-4.42-5.85-8.85-7.21-14A85.31,85.31,0,0,1,.44,79.85a100.94,100.94,0,0,1-.3-14.23c.22-3.26.39-6.59,1.55-9.7,1.52-4.09,2.1-8.38,3-12.61A15.24,15.24,0,0,1,7.6,36.54a34.09,34.09,0,0,0,2.22-3.35c2-3.27,5-5.67,7.64-8.39a2.76,2.76,0,0,0,.75-1.95c.15-2.79-.53-5.48-.8-8.22-.36-3.64-.1-7.28-.18-10.92,0-.77.52-.78,1.09-.86,4.05-.53,7.08,1.49,9.89,4,1.64,1.45,3.13,3.06,4.81,4.46a1.06,1.06,0,0,0,1.58.07,18.52,18.52,0,0,1,3.15-1.89,36.07,36.07,0,0,0,5.81-3.69A14.57,14.57,0,0,1,49.5,3.09c3.36-.77,6.81-1,10.21-1.63A131.83,131.83,0,0,1,76.07,0c2.31-.12,4.65.42,7,.55a81.38,81.38,0,0,1,10.76,1.7c3.84.73,7.8,1.41,11,3.94a7,7,0,0,1,1.09,1,4.38,4.38,0,0,0,2.24,1.51,12,12,0,0,1,3.2,1.79,1.62,1.62,0,0,0,1.79.09c2.9-1.29,5.61-3,8.64-4a12.83,12.83,0,0,1,5.9-1c.92.11,1.21.33,1.25,1.28.22,5.08-.84,10-1.77,14.91-.39,2-.82,4.06-1.25,6.08a2.43,2.43,0,0,0,.51,2.12c2,2.62,4.25,5.07,5.68,8.07,2,4.07,3.79,8.17,4.47,12.72.38,2.59,1.31,5.1,1.92,7.66a78.56,78.56,0,0,1,1.9,16.75A67.25,67.25,0,0,1,137.73,95Z"/><path class="cls-2" d="M66.74,73.38a39.78,39.78,0,0,1-8.44-.73c-4.51-.9-8.47-5.26-9.28-10.1-.13-.83-.33-1.65-.45-2.48s.24-1.47,1.23-1.47h.12a10.42,10.42,0,0,1,2.86.11c1.16.39.39,1.61.64,2.44a27.75,27.75,0,0,0,1.64,5,10.63,10.63,0,0,0,9.74,6,16.12,16.12,0,0,0,4.64-.32A10,10,0,0,0,75,67.8,20.77,20.77,0,0,0,78.46,60a1.27,1.27,0,0,1,1.3-1.13c3.62-.34,3.93.1,2.78,3.51a19.92,19.92,0,0,1-4.6,7.73c-1.93,2-4.45,2.63-7,3.06A15.93,15.93,0,0,1,66.74,73.38Z"/><path class="cls-3" d="M46.78,53.59c-1-.05-1.91-.07-2.87-.14a1.48,1.48,0,0,1-1.58-1.69c.09-2.55.14-5.11.26-7.66s1.8-3.75,4.71-4a19.11,19.11,0,0,1,6.52.52,1.56,1.56,0,0,1,1.31,1.67A21.84,21.84,0,0,1,53.81,50c-.43,1.42-3.26,3.45-4.75,3.5-.76,0-1.52,0-2.27,0Z"/><path class="cls-3" d="M87.47,52.08a13.06,13.06,0,0,1-3.69-.23c-2-.63-2.89-1.69-2.73-3.75.18-2.38.57-4.75.93-7.11a1.58,1.58,0,0,1,1.44-1.41,30.39,30.39,0,0,1,9.18.19,5,5,0,0,1,1.47.5c1.65.88,2.14,1.62,1.49,3.38-.72,1.91-1.17,3.9-2,5.78a3.84,3.84,0,0,1-4,2.65C88.91,52.06,88.19,52.08,87.47,52.08Z"/><path class="cls-2" d="M52.62,46.6c0,1.08,0,2.16,0,3.23A1.71,1.71,0,0,1,51,51.62a12.64,12.64,0,0,1-3.93.08c-.67-.07-1-.43-1.22-1.09A13.84,13.84,0,0,1,45.43,45a2.77,2.77,0,0,1,2.64-2.63,19.76,19.76,0,0,1,3.69.05c.67,0,1,.26,1,1-.07,1,0,2.08,0,3.12Z"/><path class="cls-2" d="M83.83,48c0-1.89.56-3.7.69-5.58a1,1,0,0,1,.94-.91,21.58,21.58,0,0,1,5.62,0c1.49.22,2,1,1.92,2.49a14.24,14.24,0,0,1-1.64,5.35c-.94,1.86-2.75,1.2-4.23,1.44a3.68,3.68,0,0,1-1.07-.15C83.75,50.39,83.75,50.39,83.83,48Z"/><path class="cls-2" d="M75,37.12a1.13,1.13,0,0,0,.92-.36c3.26-2.9,7.28-4.42,11.14-6.26,2.82-1.35,5.75-2.42,8.64-3.59.37-.15.93-.28,1-.75s-.57-.68-1-.88c-.57-.28-1.18-.48-1.77-.72a2.9,2.9,0,0,0-2.86.27c-1.73,1.09-3.89,1.24-5.72,2.23C83,28.34,80.51,29.38,78,30.43a29.33,29.33,0,0,0-6.76,4.38c-.47.37-.44.69.06,1A9,9,0,0,0,75,37.12Z"/><path class="cls-2" d="M45.52,27.24a8.84,8.84,0,0,0-4,1.93c-.49.41-.16.56.31.72a113.85,113.85,0,0,1,14.45,6c.61.3,1.21.65,1.81,1,.15.08.42.16.42.25.09,1.86,1.3.76,1.94.64a8.16,8.16,0,0,0,3.21-1.54c.64-.47.75-.81-.1-1.25a144.14,144.14,0,0,0-17.42-7.53C45.94,27.35,45.73,27.3,45.52,27.24Z"/></g></g></svg>