<svg xmlns="http://www.w3.org/2000/svg" viewBox="0 0 140.43 154.65"><defs><style>.cls-1{fill:#ffd561;}.cls-2{fill:#292929;}.cls-3{fill:#8cbbe8;}</style></defs><g id="레이어_2" data-name="레이어 2"><g id="Graphic_Elements" data-name="Graphic Elements"><path class="cls-1" d="M78.82,14.22h.23c1.51.45,3.08.24,4.62.42A35.62,35.62,0,0,1,90.14,16c8,2.52,16,5.09,23.69,8.33,5.26,2.2,10.26,5,14,9.44a25.84,25.84,0,0,1,5.75,10c1.44,5.36,2.86,10.74,4.53,16.05a58.91,58.91,0,0,1,2.14,10,24.36,24.36,0,0,1,.17,3.19c0,4,0,8.1,0,12.15a6.47,6.47,0,0,1-.19,1.93,19.45,19.45,0,0,0-.58,6.35c0,2.83.14,5.67,0,8.48-.33,5.22-.77,10.45-3.06,15.26a54.62,54.62,0,0,1-5.58,9.17,94.67,94.67,0,0,1-6.28,7.85,35.51,35.51,0,0,1-7.62,6.32c-5,3.06-10,6.15-15.21,8.83a48.2,48.2,0,0,1-11,3.75,60.82,60.82,0,0,1-6.15,1.23,31.19,31.19,0,0,1-4.09.25c-6.9,0-13.79.07-20.69,0a40.05,40.05,0,0,1-16-3.14c-3.51-1.56-7.06-3-10.65-4.41a27.83,27.83,0,0,1-13.93-12A100.72,100.72,0,0,0,12,124.22,38.38,38.38,0,0,1,8.85,119a60.65,60.65,0,0,1-6.18-13.87A60.49,60.49,0,0,1,1,93.76C.84,91,.57,88.14.24,85.34,0,83.56.14,81.76.1,80a77,77,0,0,1,.11-9.73,59.67,59.67,0,0,1,1.62-7.48A87.84,87.84,0,0,1,7,48.23,58.19,58.19,0,0,1,11.82,39,8.86,8.86,0,0,1,13,37.46c3.21-3.1,6.15-6.46,9.31-9.61a37.87,37.87,0,0,1,8.39-6.07c3.79-2.14,7.58-4.27,11.91-5.12A93.83,93.83,0,0,1,59,14.45c4.23-.22,8.47-.06,12.7-.11h3A30.43,30.43,0,0,0,78.82,14.22Z"/><path class="cls-2" d="M69.91,83.37a36.61,36.61,0,0,1-9.6-1A15.66,15.66,0,0,1,50.59,75a18.29,18.29,0,0,1-3.14-7.64c-.24-2.22-.23-2.34,1.95-2.47a7.12,7.12,0,0,1,.8,0,4,4,0,0,1,1.68.18c.63.36-.08,1,0,1.51.48,4.1,2.43,7.46,5,10.57,3,3.71,7.13,5,11.71,5.11a40.45,40.45,0,0,0,5.93-.06c3.49-.42,5.94-2.55,7.73-5.45a23.4,23.4,0,0,0,3.27-10.18.75.75,0,0,1,.79-.78,18.51,18.51,0,0,1,3.07,0c.63,0,.92.39.79,1-.91,4.32-1.84,8.64-4.87,12.11a12.47,12.47,0,0,1-8.6,4.36C74.4,83.43,72.16,83.35,69.91,83.37Z"/><path class="cls-2" d="M89.16,46c2.87-.69,4.69,1.14,6.49,2.82,1.06,1,1.26,2.5,1.58,3.86a19.13,19.13,0,0,1,.3,4.21c0,.63-.21.93-.83.93h-.35c-3.11.16-3.11.16-3.29-2.88A15.4,15.4,0,0,0,91.91,50c-.54-1.31-1.92-1.81-2.83-2.75-.22-.23-.42-.05-.6.1a11.13,11.13,0,0,0-4.39,8.29.85.85,0,0,0,0,.45c.74,1.4-.31,1.22-1.11,1.26l-.57,0c-2.84.09-3.54-.63-2.72-3.41a13.38,13.38,0,0,1,3.39-6.12,6.4,6.4,0,0,1,4.8-1.94C88.32,46,88.74,46,89.16,46Z"/><path class="cls-2" d="M51.62,46.37c1.76.08,3.57-.12,5.1,1.15a8.88,8.88,0,0,1,2.81,5.09,32.2,32.2,0,0,0,.89,3.64c.23.61,0,.8-.53.81a26.2,26.2,0,0,1-3.07,0c-.77-.06-1-.71-1.15-1.37-.44-1.72-.49-3.55-1.37-5.15A12.59,12.59,0,0,0,53.48,49c-1.47-2-3.79-1.89-5.18.25-1.12,1.73-2.11,3.62-1.95,5.62.15,1.84-.83,1.61-1.86,1.65a19.49,19.49,0,0,1-2.16-.07c-.62,0-.72-.46-.66-1a14.58,14.58,0,0,1,2.73-7.28,2.37,2.37,0,0,1,1.21-.81A14,14,0,0,1,51.62,46.37Z"/><path class="cls-3" d="M110.54,21.58a11.28,11.28,0,0,0-1.67-3.52,27.13,27.13,0,0,0-5.57-5.8C98,8,92.25,4.35,85.52,2.58a74.57,74.57,0,0,0-33.29-1.3C47.35,2.14,42,2.82,38.11,6.13c-1,.85-2,1.66-3,2.48a10.57,10.57,0,0,0-4,9.11,6.08,6.08,0,0,0,1.66,4.19,39.54,39.54,0,0,0,12.46,9c9.87,4.76,20.45,6.48,31.28,6.89,4.61.17,9.24.17,13.86,0a31.49,31.49,0,0,0,13.52-3.34c3-1.52,5.58-3.24,6.43-6.72C110.71,25.68,110.44,23.62,110.54,21.58Zm-7.46,2.07a7.52,7.52,0,0,1-3.18,3.71A32.79,32.79,0,0,1,82.79,32.1c-2.9.07-5.8.08-8.7,0-9.77-.29-19.43-1.35-28.72-4.65a39.66,39.66,0,0,1-6.86-3.21,1.25,1.25,0,0,1-.64-1.07,9.47,9.47,0,0,1,3.05-8.35C53,2.88,77.67,4.1,92.51,8.81A32.15,32.15,0,0,1,102.3,14a4.19,4.19,0,0,1,1.61,3.55A16.28,16.28,0,0,1,103.08,23.65Z"/></g></g></svg>