<svg xmlns="http://www.w3.org/2000/svg" viewBox="0 0 140.43 137.3"><defs><style>.cls-1{fill:#ffd561;}.cls-2{fill:#292929;}</style></defs><g id="레이어_2" data-name="레이어 2"><g id="Graphic_Elements" data-name="Graphic Elements"><path class="cls-1" d="M73,0c4.22.11,8.43.32,12.63.8a26.46,26.46,0,0,1,5.56,1.57c3.63,1.27,7.38,2.29,10.69,4.34A36.42,36.42,0,0,1,108,11.1c1,.93,2.1,1.68,3.14,2.53A47.9,47.9,0,0,1,116,18.56a22.52,22.52,0,0,0,3,2.69A34.79,34.79,0,0,1,125.86,29a20.7,20.7,0,0,1,2.74,5,2.25,2.25,0,0,0,.56.79c3.15,3.21,5.29,7.12,7.39,11a18.17,18.17,0,0,1,1.49,5c.71,3.5,1.48,7,2.09,10.49a23.46,23.46,0,0,1-.95,11.21c-.76,2.35-1.64,4.67-2.49,7a11.39,11.39,0,0,0-.57,2.76,20.06,20.06,0,0,1-2.43,7.54,33.39,33.39,0,0,0-3,7.71c-.83,3.24-2.73,5.93-4.42,8.73-2.46,4.11-5,8.16-8.76,11.22a74.88,74.88,0,0,1-10.59,7.48,100.94,100.94,0,0,1-13.34,6.72,35.45,35.45,0,0,1-10.39,2.79c-3.55.24-6.87,1.49-10.3,2.31a16.5,16.5,0,0,1-7.56.21c-1.34-.3-2.73-.41-4.09-.66-5.3-1-10.16-3.24-15.16-5.09-.78-.29-1.54-.65-2.34-.9A7.16,7.16,0,0,1,41,128.78a15.22,15.22,0,0,0-3.28-2.15c-3.15-1.6-6.28-3.23-9.41-4.86a10.41,10.41,0,0,1-1.27-.85c-5.25-3.79-9.13-8.74-12.54-14.2-2.64-4.24-5.11-8.56-7.57-12.89a46.21,46.21,0,0,1-2.48-6.17A94.34,94.34,0,0,1,1.17,76.59,30.51,30.51,0,0,1,.3,64.2,58.62,58.62,0,0,1,5.09,48C5.63,46.8,6.32,45.71,7,44.62a33.91,33.91,0,0,0,2.8-6.84,13.79,13.79,0,0,1,3-5.06A65.16,65.16,0,0,0,19.26,24a14,14,0,0,1,3.53-3.54,48,48,0,0,0,6.85-5.74c1.23-1.35,3-2.11,4.46-3.13C36,10.29,38,9.06,40,7.81a35.07,35.07,0,0,1,9.4-3.7,70.51,70.51,0,0,1,7.51-1.89C60.28,1.64,63.67,1,67.08.43A26.8,26.8,0,0,1,73,0Z"/><path class="cls-2" d="M82.65,104.61c0,2,0,2-2.1,2s-2.07,0-2.21-2.07c-.08-1.24-.22-2.46-.42-3.68a12,12,0,0,0-2.73-5.63,5.35,5.35,0,0,0-5.38-1.9,19.11,19.11,0,0,0-7.5,2.79,19.93,19.93,0,0,0-7,8.28.74.74,0,0,1-.73.51c-.91,0-1.82,0-2.73,0s-1-.41-.69-1.15a22.28,22.28,0,0,1,2.16-3.27,18.35,18.35,0,0,1,11.06-7.44,22.4,22.4,0,0,1,11.52-.34c3.4.93,4.91,3.69,6,6.71A16.9,16.9,0,0,1,82.65,104.61Z"/><path class="cls-2" d="M40.94,85.51c2.15-1,4.17-2.24,6.28-3.29a11.47,11.47,0,0,0,4.51-4.73c.35-.57.59-.64,1.08-.37l.4.19c2.65,1.45,2.71,1.83,1,4.26a9.51,9.51,0,0,1-3.46,3.09c-1.72.87-3.45,1.73-5.1,2.72a2.34,2.34,0,0,1-2.89-.19A5.73,5.73,0,0,1,40.94,85.51Z"/><path class="cls-2" d="M100.78,86c-1.75,2.17-3.93,2.6-6.09,1.35a8.33,8.33,0,0,0-1.34-.73A12.66,12.66,0,0,1,87,81.21c-1.06-1.63-1-2.08.66-3.07.37-.22.79-.37,1.18-.56.72-.37,1-.17,1.44.6,1.35,2.53,3,4.8,5.87,5.88C97.72,84.65,99,85.88,100.78,86Z"/></g></g></svg>