<svg xmlns="http://www.w3.org/2000/svg" viewBox="0 0 140.43 140.43"><defs><style>.cls-1{fill:#99c458;}.cls-2{fill:#fff;}.cls-3{fill:#292929;}</style></defs><g id="레이어_2" data-name="레이어 2"><g id="Graphic_Elements" data-name="Graphic Elements"><path class="cls-1" d="M140.39,64.74c-.1,6.07-.24,12.13-.67,18.19-.42,5.86-2.75,11.12-5.14,16.39-2.59,5.74-6.28,10.81-9.46,16.19-.51.85-1,1.72-1.46,2.6a27.15,27.15,0,0,1-14.28,13c-2.94,1.22-5.83,2.54-8.61,4-3.43,1.85-7.14,2.65-10.84,3.58a54.27,54.27,0,0,1-11.14,1.13c-5,.21-9.94.5-14.91.6a59,59,0,0,1-15.05-2c-6.27-1.5-11.75-4.72-17.36-7.68a65.16,65.16,0,0,1-8.56-4.88,57.36,57.36,0,0,1-10-10c-1.9-2.3-3.61-4.73-5.3-7.19-2.65-3.85-3.75-8.2-4.65-12.69A87.44,87.44,0,0,1,1.78,81.58,16,16,0,0,0,1,76.4C.17,74.24.47,71.94.27,69.71a69.66,69.66,0,0,1,3-26.9,49,49,0,0,0,1.07-5.26c.45-2.43,1.29-4.76,1.87-7.15a14,14,0,0,1,2.84-5.14c.85-1.1,1.39-2.39,2.35-3.48,2.35-2.65,5.3-4.49,8.15-6.46,3.81-2.63,8.16-4.18,12.38-6,4.89-2.08,9.87-3.94,14.86-5.76A51.76,51.76,0,0,1,63.64.45C67.73.39,71.82.11,75.92,0A96.11,96.11,0,0,1,88.48.84c3.27.35,6.59.55,9.7,1.61,6.89,2.34,13.43,5.36,18.79,10.46,2.16,2.06,4.27,4.18,6.54,6.11,3.24,2.74,5.32,6.27,7.26,9.92a100.35,100.35,0,0,1,8.82,22.69c.72,2.9.54,5.84.78,8.76C140.49,61.83,140.39,63.29,140.39,64.74Z"/><path class="cls-2" d="M83.91,40.91a4.24,4.24,0,0,0,1,1.3,12.62,12.62,0,0,0,5.39,3.1,7.48,7.48,0,0,0,6-1,5.33,5.33,0,0,0,2.19-5.49,7.18,7.18,0,0,0-1.14-2.26c-2-2.86-6-5.69-9.72-4.54C84.71,33,82.63,38.07,83.91,40.91Z"/><path class="cls-2" d="M40.3,45.36a10.84,10.84,0,0,0,2.87,1.77,5.77,5.77,0,0,0,2.79.72,5.77,5.77,0,0,0,3.7-2.36A25.56,25.56,0,0,0,52,42.32a4.65,4.65,0,0,0,.93-3.72,4.47,4.47,0,0,0-1.38-1.83c-2.58-2.31-8.3-6-11.39-2.7C37.41,37,37.39,42.72,40.3,45.36Z"/><path class="cls-3" d="M59.32,60a14.11,14.11,0,0,0-1.45-6.52c-.77-1.41-1-1.4-2.11-.28A13.13,13.13,0,0,0,52.22,58c-.07.21-.23.45-.19.65.31,1.45-.65,1.39-1.59,1.38-.65,0-1.3,0-1.95,0-.9,0-1.24-.37-1-1.29a9.16,9.16,0,0,1,1.36-3,29.06,29.06,0,0,1,3.83-4.24c1.28-1.27,2.91-1.15,4.51-1.17,3-.06,4.8,1.58,5.77,4.28.19.53.39.6.91.41a15.91,15.91,0,0,1,7.57-.46.81.81,0,0,1,.51.23c.92,1.2,1.59.58,2.51-.13a11,11,0,0,1,5.66-2c.72-.09,1.44-.13,2.16-.15a4.69,4.69,0,0,1,4.24,2.07c1.23,1.64,2.83,3,3,5.23a5.94,5.94,0,0,0,.25,2.36c.14.29-.2.47-.48.51a10.75,10.75,0,0,1-1.14,0c-2.61,0-3.37.3-3.19-2.77a4.88,4.88,0,0,0-1.65-3.78,10.09,10.09,0,0,0-.74-.72c-.58-.44-.82-1.49-1.67-1.39A4.38,4.38,0,0,0,78.1,55.6,8.74,8.74,0,0,0,76,61.28c-.07,2.26-.06,2.43-2.22,2.32-2.49-.13-2.69.44-2.46-2.37.21-2.48-1.24-3.87-2.81-5.29a1,1,0,0,0-1.26,0,4.46,4.46,0,0,0-1.8,2,12.77,12.77,0,0,0-1.17,2.85A1.78,1.78,0,0,1,62,62.37c-.07,0-.15,0-.22,0C58.7,62.33,59.35,62.47,59.32,60Z"/><path class="cls-3" d="M94.88,46.31c-.19,0-.38,0-.57,0-1,.07-1.67,0-2-1.22s-1.23-1.9-1.64-3c-.2-.54-.55-.69-1-.21-.13.14-.33.22-.44.37-1.34,1.92-3.31,1.89-5.33,1.75-.28,0-.61,0-.72-.28s.24-.51.45-.69c1.44-1.25,2.88-2.49,4.36-3.7.56-.45.56-.8.2-1.42-.93-1.57-1.75-3.21-2.65-4.81-.42-.75-.16-1,.61-1.1a14.64,14.64,0,0,1,3,0,.87.87,0,0,1,.82.64c.39.87.9,1.68,1.3,2.54.3.64.6.59,1,.12a15,15,0,0,1,3.13-2.48c.83-.62,1.91-.31,2.89-.3.54,0,1.4-.26,1.55.33S99,33.68,98.54,34a54.57,54.57,0,0,0-4.9,4.46c-.52.47-.1.84.11,1.2,1,1.82,2.07,3.64,3.18,5.42.58.94.12,1.13-.67,1.18-.46,0-.92,0-1.38,0Z"/><path class="cls-3" d="M51,44.48c-2.18.61-3.16-1.5-4.63-2.56-.81-.59-1.13-.59-1.6.21a11.21,11.21,0,0,1-1.08,1.48c-.45.55-.65,1.38-1.45,1.53a10,10,0,0,1-3.74,0c-.56-.11-.31-.42-.07-.74,1.2-1.57,2.35-3.19,3.57-4.75.56-.71.6-1.27-.18-1.79a26.12,26.12,0,0,1-4.4-3.8c-.19-.2-.62-.29-.45-.68s.48-.3.79-.34c2.11-.24,4-.06,5.34,2,.49.77,1,1,1.48-.1a19.62,19.62,0,0,1,1.53-2.27,1.06,1.06,0,0,1,1-.5c.8,0,1.6,0,2.4,0,.39,0,.84,0,1.05.33s-.19.79-.43,1.09a23.38,23.38,0,0,0-2.46,4.25A1,1,0,0,0,48,39.24c1.65,1.35,3.26,2.75,4.87,4.15.24.21.68.41.53.78s-.57.31-.92.31Z"/><path class="cls-3" d="M108.65,33.5c-1.19.28-1.94-.25-2.54-1.63-.8-1.82-2.18-3.37-3-5.22-.4-.9-.2-1.15.7-1.2,3.17-.2,3.19-.22,4.59,2.65.63,1.27,1.64,2.28,2.23,3.58.76,1.67.72,1.77-1.07,1.82Z"/><path class="cls-3" d="M27.9,29.8H26.78c-.4,0-1,.13-1.07-.39s.39-.71.72-.94c1.78-1.24,3.61-2.41,5.31-3.77a8.06,8.06,0,0,1,4.66-.23c.27.17.58.4.08.63a35.8,35.8,0,0,0-5.65,3.8A4,4,0,0,1,27.9,29.8Z"/></g></g></svg>