<svg xmlns="http://www.w3.org/2000/svg" viewBox="0 0 140.43 140.43"><defs><style>.cls-1{fill:#8cbbe7;}.cls-2{fill:#fff;}.cls-3{fill:#292929;}</style></defs><g id="레이어_2" data-name="레이어 2"><g id="Graphic_Elements" data-name="Graphic Elements"><path class="cls-1" d="M70,.07c2.87,0,5.74,0,8.61,0,5.48-.06,10.74,1.16,16,2.6,6.51,1.79,12.09,5.42,17.79,8.84a62,62,0,0,1,9.34,6.23,44.57,44.57,0,0,1,5.47,5.86,90.51,90.51,0,0,1,8,11.6,33.06,33.06,0,0,1,3.57,11.06c1,5.68.62,11.38.65,17.08a12.67,12.67,0,0,0,.43,3.52,12.74,12.74,0,0,1,.51,4.08c0,1.49-.08,3,0,4.48a62.19,62.19,0,0,1-2.67,20.16c-1.17,4.12-2.42,8.21-3.47,12.36a29.59,29.59,0,0,1-2.54,7.32,5.15,5.15,0,0,1-1,1.4c-1.42,1.28-2.05,3.11-3.35,4.48-2.92,3.08-6.53,5.16-10.13,7.25-3.76,2.18-7.94,3.38-12,4.86a176.17,176.17,0,0,1-18.08,5.82A44.59,44.59,0,0,1,76,140.43c-4.9-.06-9.8,0-14.7-.09a71.22,71.22,0,0,1-9.65-1.07,98.83,98.83,0,0,1-10.65-2c-3.66-1-6.86-2.94-10.19-4.65-5.3-2.72-9.36-6.84-13.26-11.18a8.41,8.41,0,0,0-.89-.9c-3.94-3.36-6.52-7.67-8.59-12.33a114.94,114.94,0,0,1-5.63-14.8A53.8,53.8,0,0,1,.1,74.84c.45-7,1-14,1.83-20.9C2.55,48.72,4.69,44,7,39.4a84.55,84.55,0,0,1,4.28-7.6c1.9-3,4.09-5.8,6.09-8.74C18.8,21,20,18.7,21.5,16.71A27.21,27.21,0,0,1,34.17,7.4C38.06,6,41.82,4.3,45.59,2.65A35.85,35.85,0,0,1,53.35.78,39.74,39.74,0,0,1,61.43,0c2.86.05,5.73,0,8.6,0Z"/><path class="cls-2" d="M95.16,49.32a4.61,4.61,0,0,1-4.92-2.21c-.38-.57-1.17-.75-1.49-1.4a5.53,5.53,0,0,1,0-5.07,9.48,9.48,0,0,1,3.74-3.77,6,6,0,0,1,2.79-.51,7.56,7.56,0,0,1,5.6,1.45c.8.65.77,1.83.9,2.77a8.89,8.89,0,0,1-2.16,7.23A4.6,4.6,0,0,1,95.16,49.32Z"/><path class="cls-2" d="M54.06,44.54a7.74,7.74,0,0,1-2.55,6.55,2.88,2.88,0,0,1-1.38.79,13,13,0,0,1-5.56,0c-1.86-.46-3.83-3.27-3.85-5.24,0-3.31,2.05-6.4,4.79-7a13.9,13.9,0,0,1,5.78-.06C53.44,40,54.1,41.18,54.06,44.54Z"/><path class="cls-3" d="M89.54,56.36c-.68-2-.67-2-2.8-2-.81,0-1.75-.28-2.41.41-1,1-2.07,1.81-2.94,2.89a16.46,16.46,0,0,1-2.61,2.82A22.81,22.81,0,0,1,77,58.16a4.93,4.93,0,0,0-5.4-2.5,2.23,2.23,0,0,0-1.92,1.15c-.91,1.6-1.88,3.16-2.79,4.75-.27.47-.49.57-1,.23A51,51,0,0,1,60.78,58c-1.57-1.51-3.42-1.69-5.41-1.54-.34,0-.68.1-1,.11a1.53,1.53,0,0,0-1.45.93c-1.12,2.3-2.29,4.58-3.34,6.91-.69,1.53-.57,1.65,1.08,2.1,0,0,0,.13.07.2h1.38c.15-.51.57-.22.86-.27s.68-.1.76-.54c.44-2.34,1.8-4.28,2.74-6.41.29-.65.53-.62,1.07-.22,1.57,1.15,3.26,2.15,4.77,3.38a8.07,8.07,0,0,0,6.29,1.78,2.16,2.16,0,0,0,1.87-1.09c.82-1.4,1.7-2.78,2.59-4.24a22.23,22.23,0,0,1,2.33,3.13c.28.47.59,1,1.18,1,2.26.18,4.54.42,6.12-1.79a15.55,15.55,0,0,1,1.58-1.67c.43-.43.72-1,1.38-1.37.08.36.15.62.19.87a44.51,44.51,0,0,1,.73,4.88c0,.61.08,1.38,1,1.39s2,0,3,0c.46,0,.78-.16.68-.78A50.07,50.07,0,0,0,89.54,56.36Z"/><path class="cls-3" d="M95.65,39c2-.45,3.65-1.84,5.75-2.23a6.58,6.58,0,0,0-5.26-.26c-1.74.76-3.48,1.5-5.28,2.12a6.62,6.62,0,0,0-2.55,1.47c-1,.92-1.11,1.47-.21,2.39,1.83,1.88,3.76,3.67,5.65,5.49.69.66,2,1.28,2,2,0,1.35.83.93,1.44,1s1.3,0,2,0a1.23,1.23,0,0,0,1.32-.7c.23-.57-.3-.81-.64-1.08-2.5-2-4.49-4.57-7-6.59a3,3,0,0,1-.52-.61.84.84,0,0,1,.14-1.28A6.69,6.69,0,0,1,95.65,39Z"/><path class="cls-3" d="M52.45,44.59c.86-1.39.55-2.15-1-2.43-2.44-.43-4.9-.72-7.34-1.1a16.88,16.88,0,0,0-6.05.16c-.3.06-.72.11-.71.41s.44.48.79.49c.69,0,1.38,0,2.07,0a27.26,27.26,0,0,1,6.11.69c.69.11,1.71-.25,2,.5s-.59,1.48-1.12,2.12c-.15.17-.32.33-.48.49l-6.1,5.9c-.16.15-.47.22-.37.5s.4.33.67.33c1,0,2.06,0,3.09,0a1.67,1.67,0,0,0,1.12-.53c2-2,4.1-4,6.13-6A8.83,8.83,0,0,0,52.45,44.59Z"/><path class="cls-3" d="M36.9,29.54c-1,0-2,0-3,0a1.16,1.16,0,0,0-1,.61c-1.64,2.93-4,5.33-6.11,7.86-.42.49-1.36,1-1.08,1.58s1.34.16,2,.41c.82-.25,1.79.24,2.48-.58,2.5-2.93,5.24-5.67,7.18-9C37.77,29.67,37.43,29.56,36.9,29.54Z"/><path class="cls-3" d="M111.11,33c-1.2-2.55-2.7-4.95-3.71-7.59a.85.85,0,0,0-.82-.65c-1,0-2,0-3,0-.64,0-.91.33-.7,1a4,4,0,0,0,.36,1,41.34,41.34,0,0,1,3.1,6.12c.62,1.44,1.53,2.26,3.18,1.92l.69,0C112,34.55,111.88,34.6,111.11,33Z"/></g></g></svg>