<svg xmlns="http://www.w3.org/2000/svg" viewBox="0 0 140.43 144.96"><defs><style>.cls-1{fill:#ebebeb;}.cls-2{fill:#ffd561;}.cls-3{fill:#fff;}.cls-4{fill:#d6674c;}.cls-5{fill:#292929;}</style></defs><g id="레이어_2" data-name="레이어 2"><g id="Graphic_Elements" data-name="Graphic Elements"><path class="cls-1" d="M94,0a.89.89,0,0,1,0,.23.79.79,0,0,1-1.13,0V0Z"/><path class="cls-2" d="M140.12,70.89A65.63,65.63,0,0,0,138.49,61c-.62-2.49-1.48-4.92-2-7.42-.15-.78-.32-1.56-.51-2.33-1.56-6.3-4.85-10.64-8.34-15.86-3.25-4.86-5.68-9.8-9.75-14.17C110.07,12.81,99.42,6.68,87.61,5.53,84.42,5.22,81.22,5,78,4.62c-2.91-.3-5.8.18-8.7.31a57.92,57.92,0,0,0-7.76.76c-2.44.43-4.93.61-7.39,1a30.2,30.2,0,0,0-7.35,1.69c-2.32,1-4.59,2.05-6.88,3.09a8.57,8.57,0,0,0-1.16.71c-4.57,3-8.51,6.94-13.6,9.26a2.84,2.84,0,0,0-.63.48c-3.14,2.92-6.31,5.83-9.42,8.79a31.79,31.79,0,0,0-5,5.52A38.35,38.35,0,0,1,7.65,39.8a16.32,16.32,0,0,0-3.08,6.86c-.73,3.14-.88,6.41-2.07,9.44A39.77,39.77,0,0,0,0,69.81,93.18,93.18,0,0,0,2,92.57a38.65,38.65,0,0,0,3.55,10.17c1.84,3.44,4.22,6.54,6.34,9.81a22,22,0,0,0,4.59,5A32.69,32.69,0,0,1,21.83,123,20.78,20.78,0,0,0,28,128.66a11.86,11.86,0,0,1,2.48,1.79c1.63,1.62,3.29,3.22,5,4.81a27.31,27.31,0,0,0,9.32,5.8c3.41,1.28,7.07,1.62,10.56,2.62a26.64,26.64,0,0,0,10.87,1.1c3.71-.48,7.45-.74,11-2.07a10.71,10.71,0,0,1,2.69-.8c4.4-.35,8.64-1.57,12.94-2.41a41.8,41.8,0,0,0,4.79-1.56,63.72,63.72,0,0,0,7.54-2.67c1.13-.53,2.21-1.18,3.38-1.63a37.78,37.78,0,0,0,7.81-4.42,51.53,51.53,0,0,0,6.24-5.56,41.29,41.29,0,0,0,8.22-10.22c2.7-5,5.54-9.89,7-15.45a76.75,76.75,0,0,0,2.62-16.53A82.91,82.91,0,0,0,140.12,70.89Z"/><path class="cls-1" d="M94,0a.89.89,0,0,1,0,.23.79.79,0,0,1-1.13,0V0Z"/><path class="cls-3" d="M64.24,41.74c.4,3.2-.61,6.22-1.18,9.28a8.29,8.29,0,0,1-2.51,4.49,57.83,57.83,0,0,1-5,4.19c-2.62,1.94-5.66,2.41-8.87,2.41a13.57,13.57,0,0,1-9.48-3.58,6.94,6.94,0,0,1-2.59-5.42A49.28,49.28,0,0,1,35,44.87a15,15,0,0,1,.54-2c1.12-3.16,2.26-6.32,3.38-9.48a5.75,5.75,0,0,1,3.41-3.54,20.86,20.86,0,0,1,11.94-1.34A11.8,11.8,0,0,1,64.1,37.8,22.58,22.58,0,0,1,64.24,41.74Z"/><path class="cls-3" d="M91.18,30.66c4,1.93,7.87,4.76,9.76,8.78a17.31,17.31,0,0,1,1.5,7.69,27.81,27.81,0,0,1-1.21,9.25,15.14,15.14,0,0,1-1.6,3.47,4.08,4.08,0,0,1-3.54,1.83,66.62,66.62,0,0,1-9.69-.59A9,9,0,0,1,78.86,56c-1.11-2.33-3-4.26-3.74-6.8A30.8,30.8,0,0,1,74,37.38c.13-1.65,0-3.36.91-4.84,1.41-2.34,3.28-4,6.24-4a22.78,22.78,0,0,1,8.46,1.38C90.11,30.16,90.64,30.4,91.18,30.66Z"/><path class="cls-4" d="M62,78.9c2.21.6,4.31,1.35,5.09,3.82.18.57.37.9,1.08.76a13.47,13.47,0,0,1,2.9.18c-.63,2.51-1.15,5.08-3,7-.93,1-1.62,1-2.64.13A9.2,9.2,0,0,1,62,83.31C62,81.84,62,80.37,62,78.9Z"/><path class="cls-5" d="M73.25,69.75c-2.91-3.78-7.09-4.41-11.53-3.82a2.48,2.48,0,0,0-2.12,1.55c-.29,1-.64,2-.87,3a39.52,39.52,0,0,0-1.25,10.07v2.71a10,10,0,0,0,4.19,8.37,3.1,3.1,0,0,0,1.42.63,31.91,31.91,0,0,0,6.1.21,4.67,4.67,0,0,0,3.86-2.22,18.66,18.66,0,0,0,2.6-7.06c.44-2.09.14-4.22.29-6.32C76.15,74.07,74.82,71.78,73.25,69.75ZM71.08,83.66c-.63,2.51-1.15,5.08-3,7-.93,1-1.62,1-2.64.13A9.2,9.2,0,0,1,62,83.31c0-1.47,0-2.94,0-4.41h0a25.56,25.56,0,0,1,2.28-11c.39-.81.79-.93,1.56-.45a11,11,0,0,1,5.65,9.65,22.26,22.26,0,0,1-.42,6.51Z"/><path class="cls-5" d="M112.76,14.42a31,31,0,0,0-.14,4.72c0,8.38-.49,16.75-.78,25.13-.12,3.51-.21,7-.23,10.53,0,1.65,0,1.65-1.6,1.71-2.88.11-2.94.1-2.86-2.74.22-9.24.52-18.49,1-27.73.18-3.5.11-7,.08-10.53,0-1.89.36-3.76.2-5.65.08-1.23.19-2.47.25-3.71a.85.85,0,0,1,1-.93c1.08,0,2.43-.35,3.18.16s.09,1.94.09,3C113,10.36,112.83,12.39,112.76,14.42Z"/><path class="cls-5" d="M95.59,5.93c.11,5.65-.24,11.29.1,17a167.11,167.11,0,0,1,.23,16.75c0,1.37-.4,1.71-1.78,1.76s-3.35.38-3.19-1.62A121.64,121.64,0,0,0,91.13,21c-.17-2.33-.08-4.66,0-7,0-3,.1-6-.09-8.91,0-.94,0-1.87.05-2.81,0-1.84,0-1.84,1.81-2H94C95.54.39,95.52.39,95.51,2,95.51,3.3,95.56,4.62,95.59,5.93Z"/><path class="cls-5" d="M127.56,35.38a24.34,24.34,0,0,0-.38,4.5c-.06,3-.5,5.87-.82,8.79-.08.75-.41,1.09-1.23,1.14-3.49.19-3.45.14-3-3.67.76-5.87.89-11.8,1.24-17.71,0-1.43.08-2.86.08-4.3,0-4.19,0-8.38,0-12.58,0-1.73.24-2,1.94-2a5,5,0,0,1,2.44.15c.82.48.06,1.48.06,2.24,0,6.2.19,12.39-.15,18.58A43.83,43.83,0,0,0,127.56,35.38Z"/></g></g></svg>