<svg width="478" height="145" viewBox="0 0 478 145" fill="none" xmlns="http://www.w3.org/2000/svg">
<g clip-path="url(#clip0_146_176)">
<rect width="478" height="145" fill="white"/>
<path d="M31.082 107.543C42.727 107.543 50.206 101.673 50.206 92.396C50.206 85.201 45.567 80.183 37.331 78.29L32.313 77.059L31.581 76.89C27.435 75.899 25.402 74.797 25.402 71.663C25.402 68.918 27.579 67.403 31.272 67.403C43.009 67.403 47.264 71.663 47.264 71.663V62.433L47.112 62.285C46.263 61.497 41.753 57.841 31.177 57.841C20.006 57.841 13 63.521 13 72.42C13 79.487 17.566 84.361 25.801 86.417L30.987 87.662C35.342 88.703 37.519 89.839 37.519 93.153C37.519 96.182 35.152 97.887 30.987 97.887C18.987 97.887 13 91.476 13 91.476V102.544L13.154 102.707C14.02 103.566 18.694 107.543 31.082 107.543ZM88.391 106.978V96.686L86.469 96.721C85.353 96.731 83.762 96.73 81.73 96.694L81.318 96.686C76.177 96.596 74.39 94.171 74.39 88.489V69.154H87.275V58.783H74.391V48.447H62.306V58.784H55.482V69.155H62.306V89.301C62.306 101.206 68.078 106.978 79.892 106.978H88.391ZM316.835 106.978V96.686L314.913 96.721C313.797 96.731 312.206 96.73 310.174 96.694L309.762 96.686C304.621 96.596 302.834 94.171 302.834 88.489V69.154H315.719V58.783H302.834V48.447H290.749V58.784H283.925V69.155H290.749V89.301C290.749 101.206 296.521 106.978 308.335 106.978H316.835ZM131.266 58.87V65.89C128.084 60.742 122.178 57.841 115.439 57.841C102.055 57.841 92.789 67.949 92.789 82.457C92.789 96.965 101.961 106.979 115.158 106.979C121.99 106.979 127.99 104.078 131.266 98.93V105.95H142.582V58.872H131.266V58.87ZM117.441 96.98C109.833 96.98 104.762 91.102 104.762 82.892C104.762 74.784 109.931 68.804 117.441 68.804C125.049 68.804 130.608 74.784 130.608 82.892C130.608 91.102 124.951 96.98 117.441 96.98ZM181.853 57.84C174.275 57.84 169.746 62.425 166.59 67.205V37.27H154.505V105.985H166.229V99.131C169.295 104.091 175.27 106.701 181.853 106.701C194.479 106.701 203.678 96.78 203.678 82.892C203.678 69.093 195.651 57.84 181.853 57.84ZM179.238 96.162C171.504 96.162 166.119 90.288 166.119 82.358C166.119 74.526 171.993 68.945 179.532 68.945C187.168 68.945 192.064 74.428 192.064 82.358C192.063 90.288 186.678 96.162 179.238 96.162ZM220.228 50.543C223.986 50.543 226.785 47.824 226.785 44.146C226.785 40.388 224.066 37.749 220.228 37.749C216.47 37.749 213.751 40.388 213.751 44.146C213.752 47.905 216.47 50.543 220.228 50.543ZM214.226 106.724H226.311V59.255H214.226V106.724ZM269.651 50.543C273.409 50.543 276.208 47.824 276.208 44.146C276.208 40.388 273.489 37.749 269.651 37.749C265.893 37.749 263.174 40.388 263.174 44.146C263.175 47.905 265.893 50.543 269.651 50.543ZM263.649 106.724H275.734V59.255H263.649V106.724ZM238.797 106.155H251.252V37H238.797V106.155ZM329.442 124.654H342.814L368.501 58.985H355.977L344.751 91L333.488 58.985H319.599L338.221 104.827L329.442 124.654Z" fill="url(#paint0_linear_146_176)"/>
<path d="M428.639 58.87V65.89C425.457 60.742 419.551 57.841 412.812 57.841C399.428 57.841 390.162 67.949 390.162 82.457C390.162 96.965 399.334 106.979 412.531 106.979C419.363 106.979 425.363 104.078 428.638 98.93V105.95H439.954V58.872H428.639V58.87ZM414.815 96.98C407.208 96.98 402.136 91.102 402.136 82.892C402.136 74.784 407.305 68.804 414.815 68.804C422.423 68.804 427.982 74.784 427.982 82.892C427.981 91.102 422.325 96.98 414.815 96.98ZM458.443 50.543C462.201 50.543 465 47.824 465 44.146C465 40.388 462.281 37.749 458.443 37.749C454.685 37.749 451.966 40.388 451.966 44.146C451.967 47.905 454.685 50.543 458.443 50.543ZM452.441 106.724H464.526V59.255H452.441V106.724Z" fill="url(#paint1_linear_146_176)"/>
<path d="M375.638 107.335C379.779 107.335 382.864 104.339 382.864 100.286C382.864 96.1451 379.868 93.2371 375.638 93.2371C371.497 93.2371 368.501 96.1451 368.501 100.286C368.5 104.427 371.496 107.335 375.638 107.335Z" fill="#E80000"/>
</g>
<defs>
<linearGradient id="paint0_linear_146_176" x1="190.728" y1="37.0237" x2="190.728" y2="124.676" gradientUnits="userSpaceOnUse">
<stop stop-color="#9D39FF"/>
<stop offset="1" stop-color="#A380FF"/>
</linearGradient>
<linearGradient id="paint1_linear_146_176" x1="427.586" y1="37.7746" x2="427.586" y2="107.002" gradientUnits="userSpaceOnUse">
<stop stop-color="#9D39FF"/>
<stop offset="1" stop-color="#A380FF"/>
</linearGradient>
<clipPath id="clip0_146_176">
<rect width="478" height="145" fill="white"/>
</clipPath>
</defs>
</svg>
