<svg width="18" height="17" viewBox="0 0 18 17" fill="none" xmlns="http://www.w3.org/2000/svg">
<path d="M1.5252 14C1.92302 14 2.30455 14.158 2.58586 14.4393C2.86716 14.7206 3.0252 15.1022 3.0252 15.5C3.0252 15.8978 2.86716 16.2794 2.58586 16.5607C2.30455 16.842 1.92302 17 1.5252 17C1.12737 17 0.745843 16.842 0.464538 16.5607C0.183234 16.2794 0.0251988 15.8978 0.0251988 15.5C0.0251988 15.1022 0.183234 14.7206 0.464538 14.4393C0.745843 14.158 1.12737 14 1.5252 14ZM1.5252 0C10.0852 0 17.0252 6.94 17.0252 15.5C17.0252 15.679 17.0222 15.857 17.0162 16.034C17.0072 16.2991 16.8932 16.5497 16.6994 16.7308C16.5056 16.9119 16.2478 17.0085 15.9827 16.9995C15.7176 16.9905 15.467 16.8765 15.2859 16.6827C15.1048 16.4889 15.0082 16.2311 15.0172 15.966C15.0222 15.811 15.0252 15.656 15.0252 15.5C15.0252 8.044 8.9812 2 1.5252 2C1.3692 2 1.2142 2.003 1.0592 2.008C0.794115 2.01702 0.536306 1.92036 0.342487 1.7393C0.148668 1.55823 0.0347163 1.30758 0.025699 1.0425C0.0166816 0.777416 0.113338 0.519607 0.294404 0.325788C0.47547 0.13197 0.726115 0.0180174 0.991199 0.00900006C1.1682 0.00300006 1.3462 0 1.5252 0ZM1.5252 7C2.68919 6.99988 3.8408 7.23883 4.90865 7.70204C5.9765 8.16525 6.93783 8.84285 7.73306 9.69283C8.52829 10.5428 9.14048 11.5471 9.53166 12.6434C9.92285 13.7396 10.0847 14.9046 10.0072 16.066C9.98969 16.3307 9.86776 16.5776 9.66822 16.7524C9.46868 16.9271 9.20789 17.0155 8.9432 16.998C8.67851 16.9805 8.43162 16.8586 8.25684 16.659C8.08205 16.4595 7.99369 16.1987 8.0112 15.934C8.07316 15.0092 7.93664 14.0819 7.61079 13.2143C7.28494 12.3466 6.77731 11.5586 6.12193 10.9033C5.46656 10.2479 4.67861 9.74026 3.81095 9.41441C2.94328 9.08856 2.01596 8.95204 1.0912 9.014C0.958308 9.02617 0.824324 9.01162 0.697144 8.9712C0.569964 8.93079 0.45216 8.86533 0.350672 8.77868C0.249184 8.69202 0.166066 8.58594 0.106215 8.46666C0.0463647 8.34739 0.0109922 8.21734 0.00218184 8.08419C-0.00662849 7.95103 0.0113016 7.81746 0.0549157 7.69134C0.0985299 7.56522 0.166946 7.44911 0.256132 7.34984C0.345319 7.25057 0.453472 7.17016 0.574218 7.11334C0.694965 7.05652 0.825863 7.02444 0.959199 7.019C1.1462 7.006 1.3352 7 1.5252 7Z" fill="#09244B"/>
</svg>
