<svg width="18" height="18" viewBox="0 0 18 18" fill="none" xmlns="http://www.w3.org/2000/svg">
<path fill-rule="evenodd" clip-rule="evenodd" d="M15.2715 2.33675L2.67946 6.88975L6.87446 9.31775L10.5735 5.61775C10.7611 5.43024 11.0155 5.32495 11.2808 5.32505C11.5461 5.32514 11.8005 5.43061 11.988 5.61825C12.1755 5.80589 12.2808 6.06033 12.2807 6.3256C12.2806 6.59087 12.1751 6.84524 11.9875 7.03275L8.28746 10.7328L10.7175 14.9268L15.2715 2.33675ZM15.5945 0.0927503C16.7895 -0.34025 17.9475 0.81775 17.5145 2.01275L12.2325 16.6178C11.7985 17.8158 10.1625 17.9617 9.52346 16.8587L6.30646 11.3008L0.748462 8.08375C-0.354538 7.44475 -0.208537 5.80875 0.989463 5.37475L15.5945 0.0927503Z" fill="black"/>
</svg>
