<svg width="18" height="18" viewBox="0 0 18 18" fill="none" xmlns="http://www.w3.org/2000/svg">
<path fill-rule="evenodd" clip-rule="evenodd" d="M12.8683 0.586248C12.5278 0.245586 12.0759 0.0392126 11.5955 0.00504274C11.1151 -0.0291271 10.6385 0.111202 10.2533 0.400248L7.34029 2.58525C6.13019 3.49303 4.7108 4.08115 3.21329 4.29525L1.03629 4.60525C0.306288 4.71025 -0.228712 5.49625 0.123288 6.26725C0.454288 6.99025 1.50829 8.89625 4.48329 11.9872L0.305288 16.1652C0.209778 16.2575 0.133596 16.3678 0.0811869 16.4898C0.0287779 16.6118 0.00119157 16.7431 3.77567e-05 16.8758C-0.00111606 17.0086 0.0241857 17.1403 0.0744666 17.2632C0.124747 17.3861 0.199001 17.4977 0.292893 17.5916C0.386786 17.6855 0.498438 17.7598 0.621334 17.8101C0.744231 17.8604 0.87591 17.8857 1.00869 17.8845C1.14147 17.8833 1.27269 17.8558 1.39469 17.8033C1.5167 17.7509 1.62704 17.6748 1.71929 17.5792L5.89729 13.4012C8.98829 16.3762 10.8943 17.4302 11.6173 17.7612C12.3873 18.1132 13.1743 17.5782 13.2783 16.8482L13.5893 14.6712C13.8034 13.1737 14.3915 11.7543 15.2993 10.5442L17.4833 7.63125C17.7723 7.24602 17.9127 6.76942 17.8785 6.28902C17.8443 5.80862 17.6379 5.35669 17.2973 5.01625L12.8673 0.586248H12.8683ZM11.4533 2.00125L15.8833 6.43125L13.6993 9.34525C12.5898 10.8242 11.871 12.559 11.6093 14.3892L11.4663 15.3902C10.4863 14.7662 8.86329 13.5532 6.59729 11.2872C4.33329 9.02125 3.11929 7.39925 2.49529 6.41925L3.49529 6.27625C5.3259 6.01471 7.06103 5.29589 8.54029 4.18625L11.4533 2.00125Z" fill="black"/>
</svg>
