<svg width="19" height="21" viewBox="0 0 19 21" fill="none" xmlns="http://www.w3.org/2000/svg">
<path fill-rule="evenodd" clip-rule="evenodd" d="M9.5 0.00463867C11.8869 0.00463867 14.1761 0.95285 15.864 2.64068C17.5518 4.3285 18.5 6.61769 18.5 9.00464C18.5 12.0786 16.824 14.5946 15.058 16.3996C14.1755 17.2915 13.2128 18.1003 12.182 18.8156L11.756 19.1056L11.556 19.2386L11.179 19.4786L10.843 19.6836L10.427 19.9256C10.1445 20.0864 9.82505 20.171 9.5 20.171C9.17495 20.171 8.85549 20.0864 8.573 19.9256L8.157 19.6836L7.637 19.3636L7.445 19.2386L7.035 18.9656C5.92298 18.213 4.88707 17.3536 3.942 16.3996C2.176 14.5936 0.5 12.0786 0.5 9.00464C0.5 6.61769 1.44821 4.3285 3.13604 2.64068C4.82387 0.95285 7.11305 0.00463867 9.5 0.00463867ZM9.5 2.00464C7.64348 2.00464 5.86301 2.74214 4.55025 4.05489C3.2375 5.36765 2.5 7.14812 2.5 9.00464C2.5 11.3266 3.772 13.3646 5.371 15.0006C6.05862 15.6965 6.80174 16.3353 7.593 16.9106L8.051 17.2366C8.199 17.3396 8.341 17.4356 8.478 17.5246L8.868 17.7746L9.211 17.9836L9.5 18.1526L9.955 17.8836L10.322 17.6536C10.517 17.5296 10.727 17.3906 10.949 17.2366L11.407 16.9106C12.1983 16.3353 12.9414 15.6965 13.629 15.0006C15.228 13.3656 16.5 11.3266 16.5 9.00464C16.5 7.14812 15.7625 5.36765 14.4497 4.05489C13.137 2.74214 11.3565 2.00464 9.5 2.00464ZM9.5 5.00464C10.5609 5.00464 11.5783 5.42607 12.3284 6.17621C13.0786 6.92636 13.5 7.94377 13.5 9.00464C13.5 10.0655 13.0786 11.0829 12.3284 11.8331C11.5783 12.5832 10.5609 13.0046 9.5 13.0046C8.43913 13.0046 7.42172 12.5832 6.67157 11.8331C5.92143 11.0829 5.5 10.0655 5.5 9.00464C5.5 7.94377 5.92143 6.92636 6.67157 6.17621C7.42172 5.42607 8.43913 5.00464 9.5 5.00464ZM9.5 7.00464C8.96957 7.00464 8.46086 7.21535 8.08579 7.59043C7.71071 7.9655 7.5 8.47421 7.5 9.00464C7.5 9.53507 7.71071 10.0438 8.08579 10.4189C8.46086 10.7939 8.96957 11.0046 9.5 11.0046C10.0304 11.0046 10.5391 10.7939 10.9142 10.4189C11.2893 10.0438 11.5 9.53507 11.5 9.00464C11.5 8.47421 11.2893 7.9655 10.9142 7.59043C10.5391 7.21535 10.0304 7.00464 9.5 7.00464Z" fill="#09244B"/>
</svg>
