<svg width="20" height="21" viewBox="0 0 20 21" fill="none" xmlns="http://www.w3.org/2000/svg">
<path fill-rule="evenodd" clip-rule="evenodd" d="M12.41 0.792942C13.3786 1.03283 14.3057 1.41713 15.16 1.93294C15.3313 2.0363 15.4676 2.18865 15.5514 2.3703C15.6352 2.55196 15.6625 2.75457 15.63 2.95194C15.517 3.64094 15.689 4.16794 16.01 4.48994C16.332 4.81194 16.86 4.98294 17.548 4.86994C17.7455 4.83716 17.9483 4.86443 18.1302 4.94823C18.312 5.03203 18.4646 5.16849 18.568 5.33994C19.0838 6.19424 19.4681 7.12129 19.708 8.08994C19.7563 8.28428 19.7451 8.48864 19.6759 8.67656C19.6067 8.86448 19.4827 9.0273 19.32 9.14394C18.752 9.55094 18.5 10.0439 18.5 10.4999C18.5 10.9559 18.752 11.4499 19.32 11.8569C19.4826 11.9735 19.6064 12.1362 19.6756 12.3239C19.7448 12.5116 19.7561 12.7158 19.708 12.9099C19.4681 13.8786 19.0838 14.8057 18.568 15.6599C18.4646 15.8314 18.312 15.9679 18.1302 16.0517C17.9483 16.1355 17.7455 16.1627 17.548 16.1299C16.859 16.0169 16.333 16.1889 16.011 16.5099C15.689 16.8319 15.517 17.3599 15.631 18.0479C15.6638 18.2455 15.6365 18.4483 15.5527 18.6302C15.4689 18.812 15.3324 18.9645 15.161 19.0679C14.3061 19.5839 13.3783 19.9682 12.409 20.2079C12.2148 20.256 12.0106 20.2447 11.8229 20.1756C11.6352 20.1064 11.4725 19.9825 11.356 19.8199C10.95 19.2519 10.456 18.9999 9.99998 18.9999C9.54498 18.9999 9.04998 19.2519 8.64398 19.8199C8.52741 19.9825 8.36475 20.1064 8.17703 20.1756C7.98932 20.2447 7.78517 20.256 7.59098 20.2079C6.62163 19.9682 5.6939 19.5839 4.83898 19.0679C4.66752 18.9645 4.53106 18.812 4.44726 18.6302C4.36347 18.4483 4.33619 18.2455 4.36898 18.0479C4.48298 17.3599 4.31198 16.8329 3.98898 16.5109C3.66798 16.1889 3.14098 16.0169 2.45198 16.1309C2.2546 16.1635 2.05199 16.1361 1.87034 16.0523C1.68868 15.9686 1.53633 15.8322 1.43298 15.6609C0.916997 14.806 0.532689 13.8783 0.292976 12.9089C0.244901 12.7148 0.256176 12.5106 0.325344 12.3229C0.394512 12.1352 0.518394 11.9725 0.680976 11.8559C1.24798 11.4499 1.50098 10.9559 1.50098 10.4999C1.50098 10.0449 1.24798 9.54994 0.680976 9.14394C0.518394 9.02737 0.394512 8.86472 0.325344 8.677C0.256176 8.48928 0.244901 8.28513 0.292976 8.09094C0.532769 7.12193 0.917075 6.19454 1.43298 5.33994C1.53633 5.16866 1.68868 5.03232 1.87034 4.94854C2.05199 4.86475 2.2546 4.83737 2.45198 4.86994C3.14098 4.98294 3.66798 4.81194 3.98998 4.48994C4.31198 4.16794 4.48298 3.63994 4.36998 2.95194C4.33741 2.75457 4.36478 2.55196 4.44857 2.3703C4.53236 2.18865 4.6687 2.0363 4.83998 1.93294C5.69427 1.41715 6.62131 1.03284 7.58998 0.792942C7.78431 0.744651 7.98867 0.755816 8.17659 0.824994C8.36451 0.894171 8.52733 1.01817 8.64398 1.18094C9.05098 1.74794 9.54398 2.00094 9.99998 2.00094C10.456 2.00094 10.95 1.74794 11.357 1.18094C11.4735 1.01836 11.6362 0.894479 11.8239 0.825311C12.0116 0.756143 12.2158 0.744867 12.41 0.792942ZM12.512 2.90294C11.855 3.55994 10.992 3.99994 9.99998 3.99994C9.00798 3.99994 8.14498 3.56094 7.48798 2.90194C7.11604 3.02501 6.75372 3.17542 6.40398 3.35194C6.40498 4.28194 6.10498 5.20194 5.40398 5.90394C4.70298 6.60494 3.78198 6.90494 2.85198 6.90394C2.67598 7.25194 2.52598 7.61394 2.40198 7.98794C3.06098 8.64494 3.49998 9.50794 3.49998 10.4999C3.49998 11.4919 3.06098 12.3549 2.40198 13.0119C2.52598 13.3859 2.67698 13.7489 2.85198 14.0969C3.78198 14.0949 4.70198 14.3949 5.40398 15.0969C6.10498 15.7969 6.40498 16.7179 6.40398 17.6479C6.75098 17.8239 7.11398 17.9739 7.48798 18.0979C8.14498 17.4389 9.00798 16.9999 9.99998 16.9999C10.992 16.9999 11.855 17.4399 12.512 18.0979C12.8843 17.9749 13.2469 17.8245 13.597 17.6479C13.595 16.7179 13.895 15.7979 14.597 15.0959C15.297 14.3949 16.218 14.0959 17.148 14.0959C17.324 13.7489 17.474 13.3859 17.598 13.0119C16.939 12.3549 16.5 11.4919 16.5 10.4999C16.5 9.50794 16.94 8.64494 17.598 7.98794C17.4749 7.616 17.3245 7.25368 17.148 6.90394C16.218 6.90494 15.298 6.60494 14.596 5.90394C13.895 5.20294 13.596 4.28194 13.596 3.35194C13.2462 3.17542 12.8839 3.02601 12.512 2.90294ZM9.99998 6.49994C11.0608 6.49994 12.0783 6.92137 12.8284 7.67151C13.5785 8.42166 14 9.43908 14 10.4999C14 11.5608 13.5785 12.5782 12.8284 13.3284C12.0783 14.0785 11.0608 14.4999 9.99998 14.4999C8.93911 14.4999 7.92169 14.0785 7.17155 13.3284C6.4214 12.5782 5.99998 11.5608 5.99998 10.4999C5.99998 9.43908 6.4214 8.42166 7.17155 7.67151C7.92169 6.92137 8.93911 6.49994 9.99998 6.49994ZM9.99998 8.49994C9.46954 8.49994 8.96084 8.71066 8.58576 9.08573C8.21069 9.4608 7.99998 9.96951 7.99998 10.4999C7.99998 11.0304 8.21069 11.5391 8.58576 11.9142C8.96084 12.2892 9.46954 12.4999 9.99998 12.4999C10.5304 12.4999 11.0391 12.2892 11.4142 11.9142C11.7893 11.5391 12 11.0304 12 10.4999C12 9.96951 11.7893 9.4608 11.4142 9.08573C11.0391 8.71066 10.5304 8.49994 9.99998 8.49994Z" fill="#09244B"/>
</svg>
