<svg width="12" height="12" viewBox="0 0 12 12" fill="none" xmlns="http://www.w3.org/2000/svg">
<path d="M6 0C9.3138 0 12 2.6862 12 6C12 9.3138 9.3138 12 6 12C4.866 12 3.804 11.685 2.8992 11.1372L1.08 11.6724C0.975555 11.7031 0.864756 11.7052 0.759255 11.6783C0.653754 11.6514 0.557448 11.5965 0.480461 11.5195C0.403474 11.4426 0.34865 11.3463 0.321752 11.2408C0.294854 11.1352 0.296876 11.0245 0.327605 10.92L0.862805 9.1008C0.29698 8.16558 -0.00144843 7.09306 5.28572e-06 6C5.28572e-06 2.6862 2.6862 0 6 0ZM6 1.2C5.14058 1.19984 4.29688 1.43043 3.557 1.86769C2.81713 2.30494 2.20822 2.93283 1.79386 3.68577C1.37951 4.4387 1.1749 5.28908 1.20142 6.1481C1.22794 7.00711 1.4846 7.84325 1.9446 8.5692C2.0808 8.7834 2.1276 9.0534 2.0508 9.3132L1.7862 10.2138L2.6868 9.9492C2.9466 9.8724 3.2166 9.9192 3.4308 10.0554C4.0598 10.4537 4.77282 10.7002 5.51349 10.7754C6.25416 10.8507 7.00219 10.7526 7.69843 10.489C8.39467 10.2253 9.02004 9.80333 9.5251 9.25637C10.0302 8.70941 10.4011 8.05246 10.6085 7.33746C10.816 6.62246 10.8543 5.86901 10.7203 5.13666C10.5864 4.40432 10.284 3.71316 9.837 3.11783C9.38997 2.52249 8.81059 2.0393 8.14465 1.70645C7.47872 1.3736 6.74449 1.20021 6 1.2ZM3.9 5.1C4.1387 5.1 4.36762 5.19482 4.5364 5.3636C4.70518 5.53239 4.8 5.76131 4.8 6C4.8 6.2387 4.70518 6.46761 4.5364 6.6364C4.36762 6.80518 4.1387 6.9 3.9 6.9C3.66131 6.9 3.43239 6.80518 3.26361 6.6364C3.09482 6.46761 3 6.2387 3 6C3 5.76131 3.09482 5.53239 3.26361 5.3636C3.43239 5.19482 3.66131 5.1 3.9 5.1ZM8.1 5.1C8.3387 5.1 8.56761 5.19482 8.7364 5.3636C8.90518 5.53239 9 5.76131 9 6C9 6.2387 8.90518 6.46761 8.7364 6.6364C8.56761 6.80518 8.3387 6.9 8.1 6.9C7.86131 6.9 7.63239 6.80518 7.46361 6.6364C7.29482 6.46761 7.2 6.2387 7.2 6C7.2 5.76131 7.29482 5.53239 7.46361 5.3636C7.63239 5.19482 7.86131 5.1 8.1 5.1Z" fill="#09244B"/>
</svg>
