<svg width="34" height="39" viewBox="0 0 34 39" fill="none" xmlns="http://www.w3.org/2000/svg">
<path d="M17 0C21.5087 0 25.8327 1.79107 29.0208 4.97918C32.2089 8.1673 34 12.4913 34 17C34 22.8064 30.8342 27.5589 27.4984 30.9683C25.8315 32.653 24.013 34.1807 22.066 35.5319L21.2613 36.0797L20.8836 36.3309L20.1714 36.7842L19.5368 37.1714L18.751 37.6286C18.2174 37.9323 17.614 38.092 17 38.092C16.386 38.092 15.7826 37.9323 15.249 37.6286L14.4632 37.1714L13.481 36.567L13.1183 36.3309L12.3439 35.8152C10.2434 34.3935 8.28668 32.7702 6.50156 30.9683C3.16578 27.557 0 22.8064 0 17C0 12.4913 1.79107 8.1673 4.97918 4.97918C8.1673 1.79107 12.4913 0 17 0ZM17 11.3333C16.2558 11.3333 15.519 11.4799 14.8315 11.7647C14.1439 12.0495 13.5193 12.4669 12.9931 12.9931C12.4669 13.5193 12.0495 14.1439 11.7647 14.8315C11.4799 15.519 11.3333 16.2558 11.3333 17C11.3333 17.7442 11.4799 18.481 11.7647 19.1685C12.0495 19.8561 12.4669 20.4807 12.9931 21.0069C13.5193 21.5331 14.1439 21.9505 14.8315 22.2353C15.519 22.5201 16.2558 22.6667 17 22.6667C18.5029 22.6667 19.9442 22.0696 21.0069 21.0069C22.0696 19.9442 22.6667 18.5029 22.6667 17C22.6667 15.4971 22.0696 14.0558 21.0069 12.9931C19.9442 11.9304 18.5029 11.3333 17 11.3333Z" fill="#AA20FF"/>
</svg>
