<svg width="19" height="22" viewBox="0 0 19 22" fill="none" xmlns="http://www.w3.org/2000/svg">
<path fill-rule="evenodd" clip-rule="evenodd" d="M9.74023 0.940186C12.1272 0.940186 14.4164 1.8884 16.1042 3.57622C17.792 5.26405 18.7402 7.55324 18.7402 9.94019C18.7402 13.0142 17.0642 15.5302 15.2982 17.3352C14.4157 18.2271 13.453 19.0358 12.4222 19.7512L11.9962 20.0412L11.7962 20.1742L11.4192 20.4142L11.0832 20.6192L10.6672 20.8612C10.3847 21.022 10.0653 21.1065 9.74023 21.1065C9.41519 21.1065 9.09573 21.022 8.81323 20.8612L8.39723 20.6192L7.87723 20.2992L7.68523 20.1742L7.27523 19.9012C6.16321 19.1485 5.1273 18.2891 4.18223 17.3352C2.41623 15.5292 0.740234 13.0142 0.740234 9.94019C0.740234 7.55324 1.68845 5.26405 3.37627 3.57622C5.0641 1.8884 7.35329 0.940186 9.74023 0.940186ZM9.74023 2.94019C7.88372 2.94019 6.10324 3.67768 4.79049 4.99044C3.47773 6.30319 2.74023 8.08367 2.74023 9.94019C2.74023 12.2622 4.01223 14.3002 5.61123 15.9362C6.29886 16.6321 7.04198 17.2709 7.83323 17.8462L8.29123 18.1722C8.43923 18.2752 8.58123 18.3712 8.71823 18.4602L9.10823 18.7102L9.45123 18.9192L9.74023 19.0882L10.1952 18.8192L10.5622 18.5892C10.7572 18.4652 10.9672 18.3262 11.1892 18.1722L11.6472 17.8462C12.4385 17.2709 13.1816 16.6321 13.8692 15.9362C15.4682 14.3012 16.7402 12.2622 16.7402 9.94019C16.7402 8.08367 16.0027 6.30319 14.69 4.99044C13.3772 3.67768 11.5967 2.94019 9.74023 2.94019ZM9.74023 5.94019C10.8011 5.94019 11.8185 6.36161 12.5687 7.11176C13.3188 7.8619 13.7402 8.87932 13.7402 9.94019C13.7402 11.0011 13.3188 12.0185 12.5687 12.7686C11.8185 13.5188 10.8011 13.9402 9.74023 13.9402C8.67937 13.9402 7.66195 13.5188 6.91181 12.7686C6.16166 12.0185 5.74023 11.0011 5.74023 9.94019C5.74023 8.87932 6.16166 7.8619 6.91181 7.11176C7.66195 6.36161 8.67937 5.94019 9.74023 5.94019ZM9.74023 7.94019C9.2098 7.94019 8.70109 8.1509 8.32602 8.52597C7.95095 8.90105 7.74023 9.40975 7.74023 9.94019C7.74023 10.4706 7.95095 10.9793 8.32602 11.3544C8.70109 11.7295 9.2098 11.9402 9.74023 11.9402C10.2707 11.9402 10.7794 11.7295 11.1544 11.3544C11.5295 10.9793 11.7402 10.4706 11.7402 9.94019C11.7402 9.40975 11.5295 8.90105 11.1544 8.52597C10.7794 8.1509 10.2707 7.94019 9.74023 7.94019Z" fill="#09244B"/>
</svg>
