<svg width="20" height="20" viewBox="0 0 20 20" fill="none" xmlns="http://www.w3.org/2000/svg">
<path fill-rule="evenodd" clip-rule="evenodd" d="M4 5C4 3.67392 4.52678 2.40215 5.46447 1.46447C6.40215 0.526784 7.67392 0 9 0C10.3261 0 11.5979 0.526784 12.5355 1.46447C13.4732 2.40215 14 3.67392 14 5C14 6.32608 13.4732 7.59785 12.5355 8.53553C11.5979 9.47322 10.3261 10 9 10C7.67392 10 6.40215 9.47322 5.46447 8.53553C4.52678 7.59785 4 6.32608 4 5ZM9 2C8.60603 2 8.21593 2.0776 7.85195 2.22836C7.48797 2.37913 7.15726 2.6001 6.87868 2.87868C6.6001 3.15726 6.37913 3.48797 6.22836 3.85195C6.0776 4.21593 6 4.60603 6 5C6 5.39397 6.0776 5.78407 6.22836 6.14805C6.37913 6.51203 6.6001 6.84274 6.87868 7.12132C7.15726 7.3999 7.48797 7.62087 7.85195 7.77164C8.21593 7.9224 8.60603 8 9 8C9.79565 8 10.5587 7.68393 11.1213 7.12132C11.6839 6.55871 12 5.79565 12 5C12 4.20435 11.6839 3.44129 11.1213 2.87868C10.5587 2.31607 9.79565 2 9 2ZM2.413 15.601C2.09 16.011 2 16.321 2 16.5C2 16.618 2.035 16.732 2.205 16.884C2.402 17.06 2.755 17.254 3.315 17.427C4.435 17.773 6.071 17.948 8.021 17.99C8.15232 17.9928 8.28182 18.0214 8.40209 18.0742C8.52236 18.127 8.63105 18.2029 8.72196 18.2977C8.81286 18.3926 8.88421 18.5043 8.93192 18.6267C8.97962 18.7491 9.00276 18.8797 9 19.011C8.99724 19.1423 8.96865 19.2718 8.91584 19.3921C8.86304 19.5124 8.78707 19.621 8.69226 19.712C8.59745 19.8029 8.48566 19.8742 8.36328 19.9219C8.2409 19.9696 8.11032 19.9928 7.979 19.99C5.982 19.947 4.119 19.769 2.725 19.338C2.029 19.122 1.371 18.821 0.873 18.376C0.347 17.906 0 17.274 0 16.5C0 15.713 0.358 14.977 0.844 14.361C1.338 13.736 2.021 13.161 2.822 12.671C4.425 11.695 6.605 11 9 11C9.447 11 9.887 11.024 10.316 11.07C10.5798 11.098 10.8216 11.2296 10.9883 11.4359C11.155 11.6422 11.233 11.9062 11.205 12.17C11.177 12.4338 11.0454 12.6756 10.8391 12.8423C10.6328 13.009 10.3688 13.087 10.105 13.059C9.745 13.02 9.375 13 9 13C6.977 13 5.157 13.59 3.864 14.379C3.217 14.773 2.728 15.201 2.413 15.601ZM19.213 12.034C18.9808 11.8018 18.7052 11.6176 18.4019 11.4919C18.0985 11.3662 17.7734 11.3015 17.445 11.3015C17.1166 11.3015 16.7915 11.3662 16.4881 11.4919C16.1848 11.6176 15.9092 11.8018 15.677 12.034L12.259 15.451C12.0295 15.6807 11.8807 15.9786 11.835 16.3L11.505 18.608C11.4829 18.7619 11.497 18.9189 11.5461 19.0664C11.5953 19.2139 11.6781 19.348 11.788 19.458C11.898 19.5679 12.0321 19.6507 12.1796 19.6999C12.3271 19.749 12.4841 19.7631 12.638 19.741L14.946 19.411C15.2674 19.3653 15.5653 19.2165 15.795 18.987L19.212 15.569C19.6807 15.1002 19.944 14.4644 19.944 13.8015C19.944 13.1386 19.6817 12.5028 19.213 12.034ZM17.091 13.448C17.1853 13.3569 17.3116 13.3065 17.4427 13.3077C17.5738 13.3088 17.6992 13.3614 17.7919 13.4541C17.8846 13.5468 17.9372 13.6722 17.9383 13.8033C17.9395 13.9344 17.8891 14.0607 17.798 14.155L14.498 17.455L13.673 17.573L13.791 16.748L17.091 13.448Z" fill="#09244B"/>
</svg>
