<svg width="287" height="273" viewBox="0 0 287 273" fill="none" xmlns="http://www.w3.org/2000/svg">
<path fill-rule="evenodd" clip-rule="evenodd" d="M121.975 0C89.6252 0 58.6004 12.8674 35.7256 35.7715C12.8509 58.6756 0 89.7403 0 122.132C0 154.523 12.8509 185.588 35.7256 208.492C58.6004 231.396 89.6252 244.263 121.975 244.263H129.15V258.488C129.15 260.395 129.525 262.283 130.255 264.045C130.984 265.806 132.053 267.407 133.4 268.755C134.747 270.102 136.347 271.171 138.107 271.899C139.867 272.628 141.753 273.002 143.658 273C178.959 272.971 214.719 261.175 241.855 237.021C269.235 212.624 286.971 176.372 287 129.445V122.132C287 89.7403 274.149 58.6756 251.274 35.7715C228.4 12.8674 197.375 0 165.025 0H121.975ZM193.725 100.579C199.434 100.579 204.909 102.85 208.945 106.892C212.982 110.933 215.25 116.415 215.25 122.132C215.25 127.848 212.982 133.33 208.945 137.372C204.909 141.413 199.434 143.684 193.725 143.684C188.016 143.684 182.541 141.413 178.505 137.372C174.468 133.33 172.2 127.848 172.2 122.132C172.2 116.415 174.468 110.933 178.505 106.892C182.541 102.85 188.016 100.579 193.725 100.579ZM93.275 100.579C98.9838 100.579 104.459 102.85 108.495 106.892C112.532 110.933 114.8 116.415 114.8 122.132C114.8 127.848 112.532 133.33 108.495 137.372C104.459 141.413 98.9838 143.684 93.275 143.684C87.5662 143.684 82.0913 141.413 78.0546 137.372C74.0178 133.33 71.75 127.848 71.75 122.132C71.75 116.415 74.0178 110.933 78.0546 106.892C82.0913 102.85 87.5662 100.579 93.275 100.579Z" fill="#09244B"/>
</svg>
