<svg width="14" height="14" viewBox="0 0 14 14" fill="none" xmlns="http://www.w3.org/2000/svg">
<path d="M2.26843 5.94871C2.02678 5.70706 1.83509 5.42017 1.70431 5.10444C1.57353 4.78871 1.50622 4.45031 1.50622 4.10857C1.50622 3.76682 1.57353 3.42842 1.70431 3.11269C1.83509 2.79696 2.02678 2.51008 2.26843 2.26843C2.51008 2.02678 2.79696 1.83509 3.11269 1.70431C3.42842 1.57353 3.76682 1.50622 4.10857 1.50622C4.45031 1.50622 4.78871 1.57353 5.10444 1.70431C5.42017 1.83509 5.70706 2.02678 5.94871 2.26843L11.7316 8.05129C12.2196 8.53933 12.4938 9.20125 12.4938 9.89143C12.4938 10.5816 12.2196 11.2435 11.7316 11.7316C11.4899 11.9732 11.203 12.1649 10.8873 12.2957C10.5716 12.4265 10.2332 12.4938 9.89143 12.4938C9.20125 12.4938 8.53933 12.2196 8.05129 11.7316L5.02826 8.70854C4.94195 8.62223 4.87349 8.51976 4.82678 8.40699C4.78007 8.29422 4.75603 8.17336 4.75603 8.05129C4.75603 7.92923 4.78007 7.80837 4.82678 7.6956C4.87349 7.58283 4.94195 7.48036 5.02826 7.39405C5.11457 7.30774 5.21704 7.23927 5.32981 7.19256C5.44258 7.14585 5.56345 7.12181 5.68551 7.12181C5.80757 7.12181 5.92844 7.14585 6.04121 7.19256C6.15398 7.23927 6.25644 7.30774 6.34275 7.39405L9.10259 10.1546C9.2421 10.2941 9.43131 10.3725 9.62861 10.3725C9.8259 10.3725 10.0151 10.2941 10.1546 10.1546C10.2941 10.0151 10.3725 9.8259 10.3725 9.62861C10.3725 9.43131 10.2941 9.2421 10.1546 9.10259L7.39405 6.34275C6.9395 5.89648 6.32711 5.64775 5.69011 5.65068C5.05311 5.65361 4.44303 5.90795 3.9926 6.35838C3.54217 6.80882 3.28782 7.41889 3.28489 8.05589C3.28197 8.69289 3.5307 9.30528 3.97697 9.75983L7 12.7829C7.37878 13.1668 7.82976 13.4719 8.32697 13.6808C8.82418 13.8897 9.3578 13.9982 9.89711 14C10.4364 14.0018 10.9707 13.8969 11.4693 13.6913C11.9679 13.4858 12.421 13.1837 12.8023 12.8023C13.1837 12.421 13.4858 11.9679 13.6913 11.4693C13.8969 10.9707 14.0018 10.4364 14 9.89711C13.9982 9.3578 13.8897 8.82418 13.6808 8.32697C13.4719 7.82976 13.1668 7.37878 12.7829 7L7 1.21714C6.62122 0.833242 6.17024 0.528067 5.67303 0.319183C5.17582 0.110298 4.6422 0.00182969 4.10289 2.29492e-05C3.56359 -0.00178379 3.02926 0.103107 2.53066 0.308655C2.03206 0.514204 1.57904 0.81635 1.1977 1.1977C0.81635 1.57904 0.514204 2.03206 0.308655 2.53066C0.103107 3.02926 -0.00178379 3.56359 2.29492e-05 4.10289C0.00182969 4.6422 0.110298 5.17582 0.319183 5.67303C0.528067 6.17024 0.833242 6.62122 1.21714 7L1.47959 7.26245C1.54812 7.33351 1.63012 7.39021 1.7208 7.42923C1.81148 7.46826 1.90903 7.48884 2.00775 7.48977C2.10647 7.49069 2.20438 7.47195 2.29578 7.43463C2.38718 7.39731 2.47023 7.34217 2.54008 7.27241C2.60994 7.20265 2.66521 7.11968 2.70265 7.02833C2.7401 6.93699 2.75898 6.8391 2.75819 6.74038C2.75741 6.64166 2.73697 6.54409 2.69807 6.45335C2.65917 6.36262 2.60259 6.28054 2.53163 6.2119L2.26843 5.94871Z" fill="#999999"/>
</svg>
