<svg width="17" height="15" viewBox="0 0 17 15" fill="none" xmlns="http://www.w3.org/2000/svg">
<path d="M6.26667 3.24661e-09C6.4911 -1.40043e-05 6.71322 0.0452993 6.91971 0.133222C7.1262 0.221145 7.3128 0.349867 7.46833 0.511667L7.56833 0.625833L8.73333 2.08333H15C15.4205 2.0832 15.8255 2.24201 16.1338 2.52791C16.4421 2.81382 16.631 3.2057 16.6625 3.625L16.6667 3.75V13.3333C16.6668 13.7538 16.508 14.1588 16.2221 14.4671C15.9362 14.7754 15.5443 14.9643 15.125 14.9958L15 15H1.66667C1.24619 15.0001 0.841195 14.8413 0.532877 14.5554C0.224559 14.2695 0.0357029 13.8776 0.00416685 13.4583L8.35568e-08 13.3333V1.66667C-0.000132983 1.24619 0.158672 0.841194 0.444581 0.532877C0.73049 0.224559 1.12237 0.0357028 1.54167 0.00416677L1.66667 3.24661e-09H6.26667ZM6.26667 1.66667H1.66667V13.3333H15V3.75H8.73333C8.5089 3.75001 8.28678 3.7047 8.08029 3.61678C7.8738 3.52885 7.6872 3.40013 7.53167 3.23833L7.43167 3.12417L6.26667 1.66667ZM5.83333 7.5C6.05435 7.5 6.26631 7.5878 6.42259 7.74408C6.57887 7.90036 6.66667 8.11232 6.66667 8.33333C6.66667 8.55435 6.57887 8.76631 6.42259 8.92259C6.26631 9.07887 6.05435 9.16667 5.83333 9.16667C5.61232 9.16667 5.40036 9.07887 5.24408 8.92259C5.0878 8.76631 5 8.55435 5 8.33333C5 8.11232 5.0878 7.90036 5.24408 7.74408C5.40036 7.5878 5.61232 7.5 5.83333 7.5ZM8.33333 7.5C8.55435 7.5 8.76631 7.5878 8.92259 7.74408C9.07887 7.90036 9.16667 8.11232 9.16667 8.33333C9.16667 8.55435 9.07887 8.76631 8.92259 8.92259C8.76631 9.07887 8.55435 9.16667 8.33333 9.16667C8.11232 9.16667 7.90036 9.07887 7.74408 8.92259C7.5878 8.76631 7.5 8.55435 7.5 8.33333C7.5 8.11232 7.5878 7.90036 7.74408 7.74408C7.90036 7.5878 8.11232 7.5 8.33333 7.5ZM10.8333 7.5C11.0543 7.5 11.2663 7.5878 11.4226 7.74408C11.5789 7.90036 11.6667 8.11232 11.6667 8.33333C11.6667 8.55435 11.5789 8.76631 11.4226 8.92259C11.2663 9.07887 11.0543 9.16667 10.8333 9.16667C10.6123 9.16667 10.4004 9.07887 10.2441 8.92259C10.0878 8.76631 10 8.55435 10 8.33333C10 8.11232 10.0878 7.90036 10.2441 7.74408C10.4004 7.5878 10.6123 7.5 10.8333 7.5Z" fill="#D6DCE0"/>
</svg>
