<svg width="20" height="19" viewBox="0 0 20 19" fill="none" xmlns="http://www.w3.org/2000/svg">
<path fill-rule="evenodd" clip-rule="evenodd" d="M8.7721 0.421388C9.12319 0.148279 9.5553 0 10.0001 0C10.4449 0 10.877 0.148279 11.2281 0.421388L19.6121 6.94139C20.3651 7.52839 19.9491 8.73339 18.9971 8.73339H18.0001V16.7334C18.0001 17.2638 17.7894 17.7725 17.4143 18.1476C17.0392 18.5227 16.5305 18.7334 16.0001 18.7334H4.0001C3.46967 18.7334 2.96096 18.5227 2.58589 18.1476C2.21082 17.7725 2.0001 17.2638 2.0001 16.7334V8.73339H1.0031C0.0501037 8.73339 -0.363896 7.52739 0.388104 6.94239L8.7721 0.421388ZM3.6251 6.95839C3.8541 7.14339 4.0001 7.42639 4.0001 7.74339V16.7334H16.0001V7.74339C16.0001 7.42639 16.1461 7.14339 16.3751 6.95839L10.0001 2.00039L3.6251 6.95839Z" fill="black"/>
</svg>
