<svg width="19" height="19" viewBox="0 0 19 19" fill="none" xmlns="http://www.w3.org/2000/svg">
<path d="M7.76 3.72586L14.83 10.7969L7.657 17.9709C7.32498 18.3029 6.88672 18.5075 6.419 18.5489L6.243 18.5559H1.01C0.49 18.5559 0.061 18.1619 0.00600004 17.6559L0 17.5459V12.3129C0.000114731 11.8433 0.165434 11.3888 0.467 11.0289L0.587 10.8989L7.76 3.72586ZM10.9 0.585865C11.2539 0.231916 11.7277 0.0235366 12.2277 0.00187527C12.7278 -0.0197861 13.2178 0.146846 13.601 0.468865L13.728 0.585865L17.971 4.82886C18.3247 5.18272 18.5329 5.65628 18.5545 6.15611C18.5762 6.65594 18.4097 7.14574 18.088 7.52886L17.971 7.65686L16.245 9.38286L9.175 2.31186L10.9 0.585865Z" fill="white"/>
</svg>
