<svg width="14" height="14" viewBox="0 0 14 14" fill="none" xmlns="http://www.w3.org/2000/svg">
<path d="M10.1639 5.41892C10.2923 5.29054 10.4631 5.21343 10.6443 5.20203C10.8255 5.19064 11.0046 5.24575 11.1481 5.35703L11.2182 5.41892L12.7996 7.00108C13.5565 7.75878 13.9869 8.7825 13.9988 9.85338C14.0108 10.9243 13.6034 11.9573 12.8636 12.7318C12.1239 13.5062 11.1105 13.9605 10.0402 13.9975C8.9699 14.0346 7.92755 13.6515 7.13601 12.9301L7.00031 12.8004L5.41889 11.2189C5.28375 11.0851 5.20488 10.9046 5.19843 10.7145C5.19198 10.5244 5.25844 10.339 5.3842 10.1963C5.50996 10.0536 5.68551 9.96432 5.87492 9.9468C6.06433 9.92928 6.25328 9.98481 6.40309 10.102L6.47317 10.1639L8.05459 11.7461C8.53455 12.2263 9.18276 12.5005 9.8616 12.5106C10.5405 12.5206 11.1965 12.2657 11.6905 11.8C12.1845 11.3342 12.4775 10.6943 12.5074 10.016C12.5372 9.33777 12.3016 8.67456 11.8504 8.1672L11.7453 8.05536L10.1639 6.47394C10.0946 6.4047 10.0396 6.32247 10.0021 6.23195C9.96453 6.14144 9.94522 6.04441 9.94522 5.94643C9.94522 5.84845 9.96453 5.75143 10.0021 5.66091C10.0396 5.5704 10.0946 5.48817 10.1639 5.41892ZM4.89026 4.89178C5.01865 4.7634 5.18947 4.68629 5.37067 4.67489C5.55187 4.6635 5.731 4.71861 5.87445 4.8299L5.94529 4.89178L9.10812 8.05536C9.24185 8.18954 9.31948 8.36958 9.32526 8.55893C9.33105 8.74827 9.26454 8.93272 9.13925 9.07481C9.01397 9.21689 8.8393 9.30596 8.65072 9.32393C8.46214 9.34189 8.27379 9.2874 8.12393 9.17153L8.05384 9.10964L4.89026 5.9468C4.82094 5.87756 4.76594 5.79533 4.72842 5.70481C4.6909 5.6143 4.67159 5.51728 4.67159 5.41929C4.67159 5.32131 4.6909 5.22429 4.72842 5.13377C4.76594 5.04326 4.82094 4.96103 4.89026 4.89178ZM1.19954 1.20106C1.94573 0.454885 2.95086 0.0250884 4.00585 0.00106401C5.06084 -0.0229604 6.08448 0.360637 6.86387 1.07207L6.99957 1.2018L8.58098 2.78248C8.71613 2.91634 8.795 3.0968 8.80145 3.28691C8.8079 3.47702 8.74144 3.66241 8.61568 3.80513C8.48992 3.94784 8.31437 4.0371 8.12496 4.05462C7.93555 4.07214 7.7466 4.01661 7.59679 3.89939L7.52671 3.8375L5.94529 2.25608C5.46533 1.7759 4.81712 1.50167 4.13827 1.49161C3.45942 1.48155 2.80338 1.73645 2.30939 2.20219C1.81541 2.66794 1.52239 3.30786 1.49252 3.98613C1.46266 4.6644 1.6983 5.3276 2.14944 5.83496L2.25457 5.9468L3.83598 7.52748C3.97113 7.66134 4.05 7.8418 4.05645 8.03191C4.0629 8.22202 3.99644 8.40741 3.87068 8.55013C3.74492 8.69285 3.56937 8.7821 3.37996 8.79962C3.19054 8.81715 3.0016 8.76161 2.85179 8.64439L2.7817 8.5825L1.20103 7.00108C0.432022 6.23204 0 5.18901 0 4.10144C0 3.01388 0.432022 1.97085 1.20103 1.2018L1.19954 1.20106Z" fill="#999999"/>
</svg>
