<svg width="12" height="12" viewBox="0 0 12 12" fill="none" xmlns="http://www.w3.org/2000/svg">
<path fill-rule="evenodd" clip-rule="evenodd" d="M4.45735 1.63877C4.56507 2.51446 4.41783 3.42769 4.09021 4.24738C3.72752 5.15445 3.24565 6.13661 3.18573 7.11322C3.13538 7.93599 3.32851 8.90953 3.84353 9.57599C4.40763 10.3058 5.33378 10.7692 6.35298 10.7692H7.31673C8.11622 10.7693 8.88651 10.4792 9.47484 9.95655C10.0632 9.43391 10.4265 8.71688 10.4929 7.94768L10.723 5.28184C10.7303 5.19699 10.7193 5.1116 10.6907 5.03107C10.6621 4.95053 10.6165 4.87661 10.5567 4.81397C10.497 4.75133 10.4245 4.70133 10.3437 4.66715C10.2629 4.63297 10.1757 4.61534 10.0875 4.61538H6.69272C6.44007 4.61506 6.19777 4.5184 6.01859 4.34644C5.8394 4.17448 5.73783 3.94114 5.73598 3.69723C5.73088 3.1003 5.76976 2.36369 5.48548 1.81415C5.23052 1.32184 4.99213 1.23077 4.78051 1.23077C4.58929 1.23077 4.43632 1.47261 4.45735 1.63877ZM4.78051 0C5.64483 0 6.24271 0.524307 6.62579 1.26338C6.95851 1.90646 6.98975 2.67877 7.00632 3.38461H10.0875C10.3521 3.38457 10.6138 3.43754 10.8561 3.54017C11.0983 3.64279 11.3159 3.79283 11.495 3.98081C11.6742 4.16879 11.8109 4.39061 11.8967 4.63224C11.9825 4.87388 12.0154 5.13007 11.9933 5.38461L11.7632 8.04983C11.6703 9.1267 11.1616 10.1305 10.338 10.8622C9.51437 11.5939 8.43599 12 7.31673 12H6.35298C5.74833 12.0016 5.14974 11.8836 4.59423 11.653C4.03872 11.4225 3.53808 11.0844 3.12327 10.6597C2.83187 10.7328 2.53198 10.7696 2.23091 10.7692C1.52466 10.7692 0.938255 10.3877 0.558364 9.77968C0.188671 9.18891 0 8.37353 0 7.3846C0 6.3963 0.189308 5.58091 0.558364 4.99015C0.938255 4.38153 1.52466 3.99999 2.23091 3.99999C2.41002 3.99999 2.59996 4.03076 2.78991 4.08246C3.08184 3.34399 3.28963 2.58277 3.19147 1.784C3.08184 0.894768 3.83461 0 4.78051 0ZM2.35584 5.24553C2.0467 5.18399 1.80448 5.37845 1.65023 5.62584C1.44244 5.95814 1.2748 6.52676 1.2748 7.3846C1.2748 8.24245 1.44244 8.81168 1.6496 9.14399C1.84719 9.45906 2.05753 9.53845 2.23091 9.53845C2.2717 9.53845 2.31186 9.53722 2.35201 9.53537C2.01036 8.79199 1.86376 7.84922 1.91348 7.0406C1.94344 6.54522 2.14358 5.8603 2.35584 5.24553Z" fill="#0094FF"/>
</svg>
