<svg width="21" height="21" viewBox="0 0 21 21" fill="none" xmlns="http://www.w3.org/2000/svg">
<path d="M10.3936 0.700439C15.9166 0.700439 20.3936 5.17744 20.3936 10.7004C20.3936 16.2234 15.9166 20.7004 10.3936 20.7004C4.87055 20.7004 0.393555 16.2234 0.393555 10.7004C0.393555 5.17744 4.87055 0.700439 10.3936 0.700439ZM10.3936 2.70044C8.27182 2.70044 6.23699 3.54329 4.7367 5.04359C3.23641 6.54388 2.39355 8.57871 2.39355 10.7004C2.39355 12.8222 3.23641 14.857 4.7367 16.3573C6.23699 17.8576 8.27182 18.7004 10.3936 18.7004C12.5153 18.7004 14.5501 17.8576 16.0504 16.3573C17.5507 14.857 18.3936 12.8222 18.3936 10.7004C18.3936 8.57871 17.5507 6.54388 16.0504 5.04359C14.5501 3.54329 12.5153 2.70044 10.3936 2.70044ZM13.4236 7.45744C13.4854 7.20995 13.6395 6.99545 13.8543 6.85783C14.0691 6.72022 14.3284 6.6699 14.579 6.71718C14.8297 6.76445 15.0529 6.90574 15.2028 7.11214C15.3527 7.31853 15.4181 7.57442 15.3856 7.82744L15.3636 7.94344L15.1736 8.70044H15.3936C15.6484 8.70072 15.8936 8.79832 16.0789 8.97329C16.2643 9.14826 16.3758 9.38739 16.3907 9.64183C16.4057 9.89628 16.3229 10.1468 16.1593 10.3423C15.9957 10.5377 15.7637 10.6633 15.5106 10.6934L15.3936 10.7004H14.6736L14.4236 11.7004H15.3936C15.6484 11.7007 15.8936 11.7983 16.0789 11.9733C16.2643 12.1483 16.3758 12.3874 16.3907 12.6418C16.4057 12.8963 16.3229 13.1468 16.1593 13.3423C15.9957 13.5377 15.7637 13.6633 15.5106 13.6934L15.3936 13.7004H13.9236L13.4466 15.6104C13.1906 16.6344 11.8016 16.7284 11.3836 15.8104L11.3366 15.6904L10.3936 12.8624L9.45055 15.6904C9.11655 16.6934 7.72455 16.6804 7.37755 15.7334L7.34055 15.6094L6.86255 13.7004H5.39355C5.13868 13.7002 4.89352 13.6026 4.70819 13.4276C4.52285 13.2526 4.41132 13.0135 4.39638 12.759C4.38145 12.5046 4.46423 12.2541 4.62782 12.0586C4.79141 11.8632 5.02346 11.7375 5.27655 11.7074L5.39355 11.7004H6.36355L6.11355 10.7004H5.39355C5.13868 10.7002 4.89352 10.6026 4.70819 10.4276C4.52285 10.2526 4.41132 10.0135 4.39638 9.75904C4.38145 9.5046 4.46423 9.25406 4.62782 9.05861C4.79141 8.86315 5.02346 8.73754 5.27655 8.70744L5.39355 8.70044H5.61355L5.42355 7.94344C5.36218 7.69617 5.39749 7.4348 5.52228 7.21269C5.64708 6.99058 5.85194 6.82447 6.09506 6.74828C6.33817 6.6721 6.60119 6.69157 6.83043 6.80274C7.05967 6.9139 7.23784 7.10837 7.32856 7.34644L7.36355 7.45744L8.53055 12.1264L9.44455 9.38444C9.50765 9.19451 9.62628 9.02789 9.78511 8.90612C9.94393 8.78435 10.1356 8.71304 10.3354 8.70141C10.5352 8.68978 10.7339 8.73836 10.9058 8.84087C11.0777 8.94339 11.2148 9.09512 11.2996 9.27644L11.3426 9.38444L12.2566 12.1264L13.4236 7.45744Z" fill="#09244B"/>
</svg>
