<svg width="30" height="30" viewBox="0 0 30 30" fill="none" xmlns="http://www.w3.org/2000/svg">
<circle cx="15" cy="15" r="15" fill="white"/>
<path d="M9 10.6667H10.3333M10.3333 10.6667H21M10.3333 10.6667V20C10.3333 20.3536 10.4738 20.6928 10.7239 20.9428C10.9739 21.1929 11.313 21.3333 11.6667 21.3333H18.3333C18.687 21.3333 19.0261 21.1929 19.2761 20.9428C19.5262 20.6928 19.6667 20.3536 19.6667 20V10.6667M12.3333 10.6667V9.33333C12.3333 8.97971 12.4738 8.64057 12.7239 8.39052C12.9739 8.14048 13.313 8 13.6667 8H16.3333C16.687 8 17.0261 8.14048 17.2761 8.39052C17.5262 8.64057 17.6667 8.97971 17.6667 9.33333V10.6667M13.6667 14V18M16.3333 14V18" stroke="black" stroke-linecap="round" stroke-linejoin="round"/>
</svg>
