<svg width="18" height="14" viewBox="0 0 18 14" fill="none" xmlns="http://www.w3.org/2000/svg">
<path d="M0.292786 5.93771C0.105315 6.12524 0 6.37955 0 6.64471C0 6.90988 0.105315 7.16418 0.292786 7.35171L5.94979 13.0087C6.13839 13.1909 6.39099 13.2917 6.65319 13.2894C6.91538 13.2871 7.1662 13.1819 7.3516 12.9965C7.53701 12.8111 7.64218 12.5603 7.64446 12.2981C7.64674 12.0359 7.54594 11.7833 7.36379 11.5947L3.41379 7.64471H16.6568C16.922 7.64471 17.1764 7.53935 17.3639 7.35182C17.5514 7.16428 17.6568 6.90993 17.6568 6.64471C17.6568 6.37949 17.5514 6.12514 17.3639 5.9376C17.1764 5.75007 16.922 5.64471 16.6568 5.64471H3.41379L7.36379 1.69471C7.54594 1.50611 7.64674 1.25351 7.64446 0.99131C7.64218 0.729113 7.53701 0.478301 7.3516 0.292893C7.1662 0.107485 6.91538 0.00231622 6.65319 3.78026e-05C6.39099 -0.00224062 6.13839 0.0985537 5.94979 0.280712L0.292786 5.93771Z" fill="#09244B"/>
</svg>
