<svg width="20" height="20" viewBox="0 0 20 20" fill="none" xmlns="http://www.w3.org/2000/svg">
<path fill-rule="evenodd" clip-rule="evenodd" d="M7 0C6.46957 0 5.96086 0.210714 5.58579 0.585786C5.21071 0.960859 5 1.46957 5 2V3C5 3.26522 5.10536 3.51957 5.29289 3.70711C5.48043 3.89464 5.73478 4 6 4C6.26522 4 6.51957 3.89464 6.70711 3.70711C6.89464 3.51957 7 3.26522 7 3V2H8C8.26522 2 8.51957 1.89464 8.70711 1.70711C8.89464 1.51957 9 1.26522 9 1C9 0.734784 8.89464 0.48043 8.70711 0.292893C8.51957 0.105357 8.26522 0 8 0H7ZM12 0C11.7348 0 11.4804 0.105357 11.2929 0.292893C11.1054 0.48043 11 0.734784 11 1C11 1.26522 11.1054 1.51957 11.2929 1.70711C11.4804 1.89464 11.7348 2 12 2H13C13.2652 2 13.5196 1.89464 13.7071 1.70711C13.8946 1.51957 14 1.26522 14 1C14 0.734784 13.8946 0.48043 13.7071 0.292893C13.5196 0.105357 13.2652 0 13 0H12ZM17 0C16.7348 0 16.4804 0.105357 16.2929 0.292893C16.1054 0.48043 16 0.734784 16 1C16 1.26522 16.1054 1.51957 16.2929 1.70711C16.4804 1.89464 16.7348 2 17 2H18V3C18 3.26522 18.1054 3.51957 18.2929 3.70711C18.4804 3.89464 18.7348 4 19 4C19.2652 4 19.5196 3.89464 19.7071 3.70711C19.8946 3.51957 20 3.26522 20 3V2C20 1.46957 19.7893 0.960859 19.4142 0.585786C19.0391 0.210714 18.5304 0 18 0H17ZM20 7C20 6.73478 19.8946 6.48043 19.7071 6.29289C19.5196 6.10536 19.2652 6 19 6C18.7348 6 18.4804 6.10536 18.2929 6.29289C18.1054 6.48043 18 6.73478 18 7V8C18 8.26522 18.1054 8.51957 18.2929 8.70711C18.4804 8.89464 18.7348 9 19 9C19.2652 9 19.5196 8.89464 19.7071 8.70711C19.8946 8.51957 20 8.26522 20 8V7ZM20 12C20 11.7348 19.8946 11.4804 19.7071 11.2929C19.5196 11.1054 19.2652 11 19 11C18.7348 11 18.4804 11.1054 18.2929 11.2929C18.1054 11.4804 18 11.7348 18 12V13H17C16.7348 13 16.4804 13.1054 16.2929 13.2929C16.1054 13.4804 16 13.7348 16 14C16 14.2652 16.1054 14.5196 16.2929 14.7071C16.4804 14.8946 16.7348 15 17 15H18C18.5304 15 19.0391 14.7893 19.4142 14.4142C19.7893 14.0391 20 13.5304 20 13V12ZM2 5C1.46957 5 0.960859 5.21071 0.585786 5.58579C0.210714 5.96086 0 6.46957 0 7V18C0 18.5304 0.210714 19.0391 0.585786 19.4142C0.960859 19.7893 1.46957 20 2 20H13C13.5304 20 14.0391 19.7893 14.4142 19.4142C14.7893 19.0391 15 18.5304 15 18V7C15 6.46957 14.7893 5.96086 14.4142 5.58579C14.0391 5.21071 13.5304 5 13 5H2ZM2 7H13V18H2V7Z" fill="#09244B"/>
</svg>
